<?xml version="1.0" encoding="UTF-8"?>
<svg width="134px" height="48px" viewBox="0 0 134 48" version="1.1" xmlns="http://www.w3.org/2000/svg" xmlns:xlink="http://www.w3.org/1999/xlink">
    <title>9E0A99E7-7959-42D6-BB23-A25D5E484D60</title>
    <defs>
        <polygon id="path-1" points="0 0 13.2439164 0 13.2439164 14.6951642 0 14.6951642"></polygon>
        <polygon id="path-3" points="0 0 47.9999642 0 47.9999642 48 0 48"></polygon>
        <polygon id="path-5" points="0 48 48 48 48 0 0 0"></polygon>
    </defs>
    <g id="Page-1" stroke="none" stroke-width="1" fill="none" fill-rule="evenodd">
        <g id="Desktop_Farm" transform="translate(-144.000000, -40.000000)">
            <g id="Alpha_logo" transform="translate(144.000000, 40.000000)">
                <polygon id="Fill-1" fill="#FFFFFF" points="73.8007164 17.0010746 72.0096716 17 72 31.686209 83.4626866 31.6937313 83.4637612 29.9026866 73.7921194 29.896597"></polygon>
                <path d="M97.6777322,22.737791 C97.6762985,24.9103284 95.9074627,26.6770149 93.7345672,26.675583 L89.7942687,26.6727164 L89.7996418,18.7921194 L93.7399403,18.7949851 C95.9124776,18.7964179 97.6791642,20.5652537 97.6777322,22.737791 M93.7413731,17.0039403 L88.0100299,17 L88,31.686209 L89.7910448,31.6876418 L89.793194,28.4637612 L93.7334925,28.4666269 C96.8939701,28.4687761 99.4666269,25.8993433 99.4687775,22.7388657 C99.4709254,19.5787463 96.9014925,17.0060896 93.7413731,17.0039403" id="Fill-2" fill="#FFFFFF"></path>
                <polygon id="Fill-4" fill="#FFFFFF" points="113.674866 26.6780896 105.794269 26.6727164 105.801075 17.0010746 104.01003 17 104 31.686209 105.791045 31.6876418 105.793194 28.4637612 113.673791 28.4691343 113.671642 31.6930149 115.462687 31.6940896 115.472716 17.0075224 113.681672 17.0064478"></polygon>
                <polygon id="Fill-6" fill="#FFFFFF" points="66.024597 17 55 31.6790448 57.238806 31.6804776 59.6588657 28.4583881 67.3431642 28.463403 67.3442388 26.6723582 61.0028657 26.6684179 68.263403 17.0014328"></polygon>
                <g id="Group-10" transform="translate(120.000000, 17.000000)">
                    <mask id="mask-2" fill="white">
                        <use xlink:href="#path-1"></use>
                    </mask>
                    <g id="Clip-9"></g>
                    <polygon id="Fill-8" fill="#FFFFFF" mask="url(#mask-2)" points="2.23880597 0.00143283582 0 0 7.24692537 9.67629851 0.906268657 9.67235821 0.90519403 11.463403 8.58949254 11.4684179 11.0052537 14.6937313 13.2440597 14.6951642"></polygon>
                </g>
                <g id="Group-10">
                    <g id="Group-3">
                        <mask id="mask-4" fill="white">
                            <use xlink:href="#path-3"></use>
                        </mask>
                        <g id="Clip-2"></g>
                        <path d="M23.9999642,0 C10.7662925,0 -3.58208955e-05,10.7666866 -3.58208955e-05,24 C-3.58208955e-05,37.2336716 10.7662925,48 23.9999642,48 C37.2336358,48 47.9999642,37.2336716 47.9999642,24 C47.9999642,10.7666866 37.2336358,0 23.9999642,0" id="Fill-1" fill="#29B2FF" mask="url(#mask-4)"></path>
                    </g>
                    <polygon id="Fill-4" fill="#1E262D" points="17.1212418 16.607391 6.10595821 31.2939582 8.34476418 31.2939582 10.7626746 28.0700776 18.4469731 28.0700776 18.4469731 26.2790328 12.1059582 26.2790328 19.3600478 16.607391"></polygon>
                    <polygon id="Fill-6" fill="#1E262D" points="41.8929313 31.2939582 30.878006 16.607391 28.6392 16.607391 35.8929313 26.2790328 29.5519164 26.2790328 29.5519164 28.0700776 37.2362149 28.0700776 39.6541254 31.2939582"></polygon>
                    <mask id="mask-6" fill="white">
                        <use xlink:href="#path-5"></use>
                    </mask>
                    <g id="Clip-9"></g>
                    <polygon id="Fill-8" fill="#1E262D" mask="url(#mask-6)" points="23.1041194 31.2938507 24.8951642 31.2938507 24.8951642 8.57659701 23.1041194 8.57659701"></polygon>
                </g>
            </g>
        </g>
    </g>
</svg>