<svg fill="none" xmlns="http://www.w3.org/2000/svg" viewBox="0 -45 757 757">
  <path d="M0 511.36h18.503l52.985 82.315a93.467 93.467 0 015.052 8.945v-91.26h17.556v118.073H75.53l-52.815-82.314a93.446 93.446 0 01-5.053-8.945v91.259H0V511.36zM115.34 545.77h17.219v50.26c0 12.986 6.737 19.911 18.546 19.911 12.315 0 21.935-10.524 21.935-24.962V545.77h17.219v83.662H173.04V615.92a29.709 29.709 0 01-27.156 15.848c-16.377 0-30.544-10.124-30.544-32.202V545.77z" fill="#1E65F3"/>
  <path d="M316.408 600.765c-12.315 20.057-26.145 31.023-51.616 31.023-33.576 0-58.542-25.256-58.542-61.394S232.9 509 265.634 509c24.124 0 42.332 12.628 50.521 30.518l-14.504 10.524c-8.42-16.354-20.082-24.457-36.27-24.457-22.271 0-40.501 18.942-40.501 44.872 0 25.635 17.051 44.872 40.333 44.872 15.851 0 28.334-7.598 37.28-24.456l13.915 9.892zM335.773 647.491a20.225 20.225 0 007.599 1.684c4.379 0 7.073-1.347 10.126-8.945l3.873-10.292-34.081-84.188h19.745l23.619 60.384 23.451-60.384h18.945l-40.48 100.541c-5.389 13.66-13.325 18.711-23.45 18.711a40.845 40.845 0 01-12.147-1.852l2.8-15.659zM421.33 545.767h17.198v12.818c5.242-8.271 16.715-15.175 29.703-15.175 20.903 0 38.628 16.522 38.628 44.199 0 27.15-17.725 44.198-40.144 44.198-11.999 0-22.798-5.388-28.187-13.827v45.882H421.33V545.767zm16.083 41.842c0 16.837 11.641 28.329 25.976 28.329 14.336 0 25.977-11.471 25.977-28.329 0-16.859-11.641-28.35-25.977-28.35-14.335 0-25.976 11.47-25.976 28.35zM598.258 629.436H581.06v-51.271c0-11.975-7.094-18.942-18.566-18.942-12.315 0-22.946 10.124-22.946 25.972v44.198H522.35V511.32h17.198v48.408a34.542 34.542 0 0129.029-16.353c16.356 0 29.681 10.292 29.681 29.466v56.595zM628.675 591.314c.674 14.838 10.631 25.466 25.471 25.466 13.662 0 20.083-7.429 24.966-17.384l13.325 7.934c-7.746 16.017-19.913 24.457-38.796 24.457-22.945 0-42.101-18.037-42.101-44.199 0-26.161 19.24-44.198 43.027-44.198 24.293 0 40.502 17.363 40.502 41.82v6.083l-66.394.021zm0-13.155h49.932c-1.347-13.659-12.82-20.92-24.461-20.92-12.546 0-22.271 8.776-25.471 20.92zM754.05 560.606a21.397 21.397 0 00-6.568-1.011c-12.146 0-20.924 10.966-20.924 25.804v44.03H709.36v-83.662h17.198v14.165c4.547-9.787 12.631-16.522 24.124-16.522 2.131.028 4.251.311 6.315.842l-2.947 16.354z" fill="#121112"/>
  <path d="M505.752.195l-48.265 22.9a2.076 2.076 0 00-1.063 1.172 2.081 2.081 0 00-.118.798c.014.27.081.536.197.782l73.405 154.737c27.275 57.564 19.97 101.23-21.5 120.963-33.56 15.927-62.53 4.815-85.133-33.988L336.363 84.336C301.119 10.062 253.115-9.624 196.17 17.39c-37.046 17.575-58.534 48.99-58.107 88.86a2.067 2.067 0 01-1.59 2.045 2.061 2.061 0 01-2.336-1.12l-18.973-39.977a2.063 2.063 0 00-1.173-1.06 2.05 2.05 0 00-1.579.088L64.16 89.056a2.051 2.051 0 00-.973 2.704l133.291 281.06a2.08 2.08 0 001.173 1.059 2.083 2.083 0 001.579-.074l48.264-22.9a2.073 2.073 0 001.063-1.172 2.064 2.064 0 00-.078-1.58l-71.354-150.409c-29.065-61.288-23.551-105.605 21.014-126.75 34.2-16.223 60.787-5.313 84.659 36.254.032.048.06.1.083.154l86.058 181.444c33.204 69.969 84.777 93.995 139.244 68.154 42.098-19.97 59.554-50.033 58.534-89.572a2.062 2.062 0 013.926-.936l19.163 40.404a2.08 2.08 0 001.172 1.063 2.076 2.076 0 001.579-.079l48.265-22.9a2.057 2.057 0 001.061-1.173 2.062 2.062 0 00-.089-1.578L508.503 1.179a2.076 2.076 0 00-2.751-.984z" fill="#1E65F3"/>
</svg>
