<svg width="36" height="36" viewBox="0 0 36 36" fill="none" xmlns="http://www.w3.org/2000/svg">
<g clip-path="url(#clip0)">
<path d="M34.944 18.382C34.944 27.5303 27.5278 34.9464 18.3795 34.9464C9.23123 34.9464 1.81506 27.5303 1.81506 18.382C1.81506 9.23367 9.23123 1.8175 18.3795 1.8175C27.5278 1.8175 34.944 9.23367 34.944 18.382Z" stroke="#31C77F" stroke-width="1.20825"/>
<mask id="mask0" style="mask-type:alpha" maskUnits="userSpaceOnUse" x="1" y="1" width="35" height="35">
<path d="M33.5344 18.382C33.5344 26.7518 26.7493 33.5368 18.3795 33.5368C10.0097 33.5368 3.22469 26.7518 3.22469 18.382C3.22469 10.0122 10.0097 3.22713 18.3795 3.22713C26.7493 3.22713 33.5344 10.0122 33.5344 18.382Z" fill="#31C77F" stroke="#31C77F" stroke-width="4.0275"/>
</mask>
<g mask="url(#mask0)">
<path d="M11.0156 34.2263C11.1439 32.9754 12.713 30.6546 12.6451 29.4037C12.6375 29.1927 12.6451 28.9817 12.6752 28.7708C12.8035 27.8891 12.7658 27.0075 12.6979 26.1334C12.6677 25.7717 12.6979 25.4176 12.7582 25.0559C12.8865 24.2798 12.9619 23.5112 12.8714 22.72C12.7884 21.974 12.8789 21.228 13.0298 20.4971C13.158 19.8792 13.143 19.2613 13.0449 18.6434C13.0223 18.5078 12.9996 18.3646 13.0223 18.2365C13.1052 17.7769 13.1505 17.3097 13.1656 16.7897C13.6107 17.1816 14.0859 17.2042 14.5914 17.0911C15.0063 17.0007 15.2552 16.7295 15.4212 16.3602C15.474 16.2397 15.4966 16.089 15.7003 16.1342C15.7984 16.1568 15.9115 16.1417 15.9266 16.0061C15.9417 15.878 15.8436 15.8403 15.738 15.8177C15.1119 15.6745 14.4782 15.5238 13.8521 15.3882C13.6484 15.343 13.4372 15.2902 13.2335 15.2676C13.0524 15.245 13.0147 15.1621 13.0298 14.9963C13.1203 14.2278 13.2637 13.4742 13.573 12.7584C13.8747 12.0651 14.2594 11.4096 14.8101 10.8746C14.878 10.8068 14.961 10.7314 14.9157 10.6184C14.8705 10.5053 14.78 10.4752 14.6743 10.5129C14.5612 10.5506 14.5159 10.4903 14.4631 10.4149C14.3575 10.2492 14.2443 10.0834 14.1463 9.91006C13.8144 9.36753 13.4145 8.87774 13.0147 8.38041C12.9317 8.27492 12.8261 8.1845 12.713 8.10161C12.3735 7.86048 12.0717 7.99612 12.034 8.41809C12.0039 8.68936 12.0265 8.96816 12.1246 9.22436C12.4791 10.1211 12.7507 11.0554 13.2637 11.8843C13.3919 12.0953 13.2109 12.1932 13.143 12.3439C13.0147 12.2535 12.9468 12.1254 12.8865 12.0124C12.1849 10.7766 11.5965 9.49563 11.3475 8.079C11.2797 7.70978 11.2797 7.33301 11.2947 6.96379C11.3174 6.55688 11.4984 6.45139 11.8907 6.54935C12.1774 6.6247 12.3961 6.80555 12.6074 7.00146C13.324 7.66456 13.9351 8.41055 14.5838 9.13394C14.7573 9.32985 14.9308 9.52577 15.0968 9.72168C15.2024 9.84225 15.3005 9.95528 15.3156 10.1361C15.3306 10.3396 15.474 10.3999 15.6626 10.3245C15.7078 10.3094 15.7531 10.2868 15.7984 10.2567C16.1152 10.0382 16.4698 9.96281 16.8469 9.90253C17.8804 9.71415 18.8988 9.7895 19.9172 10.0005C20.0757 10.0382 20.2115 10.1211 20.3548 10.2039C20.6641 10.3923 20.7772 10.3471 20.8678 10.0005C20.8904 9.90253 20.9507 9.81964 21.0186 9.74429C21.856 8.80992 22.633 7.8228 23.5533 6.96379C23.757 6.77541 23.9607 6.59456 24.2323 6.51167C24.6773 6.3685 24.8659 6.50414 24.8961 6.96379C24.9489 7.83787 24.7377 8.66675 24.4586 9.48056C24.1795 10.2944 23.7947 11.063 23.3874 11.8165C23.2968 11.9823 23.1837 12.1254 23.0705 12.3138C22.7009 11.7637 22.7009 11.7713 22.98 11.2438C23.327 10.5958 23.6816 9.96281 23.923 9.26203C24.021 8.96816 24.104 8.66675 24.0965 8.35027C24.0889 8.15435 24.0512 7.98104 23.8551 7.88309C23.6665 7.79266 23.5156 7.87555 23.3798 7.98858C23.2139 8.13175 23.0404 8.28245 22.8895 8.44823C22.369 9.01337 21.7956 9.54084 21.4637 10.2492C21.4034 10.3848 21.1695 10.4451 21.26 10.6485C21.3204 10.7842 21.4637 10.867 21.5542 10.9801C22.0898 11.6281 22.5198 12.3364 22.7839 13.1351C22.9498 13.64 23.063 14.1675 23.1309 14.6949C23.1611 14.9662 23.1611 14.9662 22.8819 15.0416C22.1955 15.2224 21.5165 15.4033 20.83 15.5841C20.7697 15.5992 20.7093 15.6067 20.649 15.6368C20.5057 15.7047 20.4906 15.8328 20.6264 15.9156C20.7169 15.9684 20.7697 15.9985 20.7999 16.1191C20.913 16.6014 21.2223 16.9103 21.7127 16.9781C22.203 17.0535 22.6632 16.9706 22.9498 16.5034C22.9649 16.4733 22.9725 16.4582 23.0253 16.4883C23.0102 17.0459 23.0554 17.6111 23.1611 18.1687C23.1837 18.2742 23.1686 18.3947 23.1535 18.5002C23.0102 19.2085 23.0404 19.9093 23.1837 20.6101C23.3346 21.3862 23.3798 22.1624 23.2893 22.946C23.2214 23.5187 23.2742 24.0914 23.3798 24.649C23.5005 25.2819 23.5307 25.9074 23.4628 26.5403C23.3949 27.1884 23.4175 27.8289 23.4854 28.4769C23.5307 28.8838 25.3035 30.5792 25.2809 30.9937C25.6203 31.5814 26.0579 32.7042 26.4803 33.2467L25.6001 34.5798L19.0481 35.7325L13.1656 35.1865L11.0156 34.2263Z" fill="white"/>
<path d="M51.819 19.9547C51.4645 19.6835 51.0571 19.4875 50.6573 19.2841C49.3899 18.6436 48.0924 18.086 46.7949 17.5284C45.603 17.016 44.5468 16.3152 43.6642 15.3582C43.5284 15.2151 43.3776 15.0794 43.2267 14.9513C43.0381 14.7856 42.8269 14.7705 42.6005 14.8835C42.2837 15.0417 41.9669 15.2075 41.6651 15.3959C41.2351 15.6596 40.5109 16.0515 40.0508 16.2625C37.6594 17.3777 35.185 18.2819 32.7107 19.1861C30.5155 19.9924 28.3881 20.9494 26.3287 22.0495C25.5668 22.4564 24.8727 22.9613 24.224 23.5189C24.1184 23.6093 24.0128 23.7148 23.9071 23.7977C23.8996 23.7902 23.8921 23.7902 23.8845 23.7826C23.8543 23.873 23.7864 23.9559 23.6959 23.9936C23.6582 24.1443 23.545 24.2724 23.3414 24.2724C23.3263 24.2724 23.3112 24.2724 23.2961 24.2724C23.281 25.1616 23.3112 26.0507 23.4093 26.9399C23.447 27.2639 23.364 27.4824 23.1377 27.7236C22.0212 28.9141 20.7614 29.9163 19.4714 30.8959C19.4337 30.926 19.3809 30.9486 19.3507 30.9863C19.23 31.1672 19.0942 31.1521 18.9132 31.0617C18.5813 30.8959 18.2493 30.9863 17.9551 31.1596C17.7892 31.2576 17.6685 31.25 17.5176 31.1747C16.7632 30.7904 16.0164 30.4061 15.3224 29.9088C14.3869 29.2457 13.4515 28.5901 12.6292 27.7914C12.5312 27.7009 12.4633 27.603 12.4256 27.505C12.4105 27.4975 12.3878 27.49 12.3728 27.4824C12.3652 27.4824 12.3652 27.4824 12.3577 27.4749C12.1917 27.4071 12.4633 27.1735 12.2822 27.1433C12.2445 27.1584 12.2143 27.1659 12.1766 27.181C12.1314 27.2262 11.7919 27.279 11.558 27.4824C11.5429 27.4975 11.5203 27.5126 11.4977 27.5276C10.8037 28.0777 10.6301 28.8689 11.0375 29.6526C11.1129 29.7957 11.0903 29.8937 11.03 30.0218C10.7131 30.6698 10.7433 31.2953 11.2035 31.8679C11.3242 32.0262 11.4373 32.1919 11.6033 32.3125L11.9805 32.5762C12.1992 32.6968 12.5161 32.8174 12.682 32.8626C13.3836 33.051 14.0927 33.1715 14.8169 33.2017C15.1489 33.2167 15.4883 33.164 15.8202 33.1339C16.4615 33.0736 17.1102 33.0208 17.7439 32.9304C17.9853 32.8927 18.2116 32.9605 18.4379 32.9681C18.6416 32.9756 18.8528 32.9982 19.0188 32.8927C19.3432 32.6968 19.7053 32.6893 20.0523 32.6591C20.8217 32.5913 21.5761 32.418 22.3079 32.1844C23.0547 31.9508 23.8015 31.7248 24.5182 31.3932C25.2348 31.0617 25.861 30.6397 26.2231 29.9088C26.2608 29.841 26.2985 29.7957 26.3589 29.7581C26.9096 29.4265 27.8073 29.2607 28.2976 29.0573C29.0595 28.6353 29.8139 28.2133 30.5834 27.8064C31.6697 27.2338 32.7635 26.6686 33.9403 26.2843C35.9319 25.6212 37.9913 25.2897 40.0658 25.0335C40.8278 24.9355 41.5972 24.8752 42.3516 24.6869C43.6567 24.3553 44.9165 23.9032 46.1914 23.4963C46.6138 23.3607 47.0438 23.225 47.4512 23.0442C48.7261 22.4866 49.9482 21.8159 51.1702 21.1604C51.3966 21.0398 51.6153 20.8891 51.8265 20.7309C52.1887 20.4445 52.1811 20.2335 51.819 19.9547Z" fill="#231F20"/>
<path d="M25.3197 6.85835C25.2895 6.28567 24.8972 5.97672 24.3314 6.08975C24.0749 6.1425 23.8335 6.23292 23.6148 6.39116C23.0792 6.78299 22.6265 7.26525 22.1965 7.76257C21.6911 8.34279 21.1781 8.923 20.6878 9.51828C20.5369 9.69913 20.4011 9.70667 20.2125 9.62378C19.9183 9.48814 19.609 9.38265 19.2847 9.36004C18.1531 9.27716 17.0215 9.23948 15.9352 9.66145C15.7089 9.75188 15.5807 9.70666 15.4298 9.52582C14.947 8.94561 14.4491 8.37293 13.9437 7.80025C13.4986 7.29539 13.046 6.8056 12.4953 6.41377C12.2313 6.22539 11.9446 6.13496 11.6278 6.11989C11.2279 6.10482 10.9639 6.30074 10.8658 6.69257C10.8357 6.81313 10.8281 6.94123 10.8281 7.0618C10.8281 7.7475 10.9564 8.41814 11.0922 9.08878C11.2883 10.0608 11.7334 10.9424 12.1181 11.8391C12.269 12.1933 12.4727 12.5248 12.7367 12.8036C12.8348 12.9091 12.8574 12.9996 12.8197 13.1352C12.7593 13.3462 12.7065 13.5647 12.6537 13.7832C12.4425 14.5744 12.367 15.3807 12.4877 16.187C12.5556 16.6165 12.5406 17.0234 12.4953 17.4453C12.4425 17.905 12.4274 18.3571 12.533 18.8168C12.6613 19.3593 12.6311 19.9018 12.4953 20.4444C12.352 21.017 12.2765 21.5897 12.3067 22.1775C12.3444 22.8029 12.269 23.4208 12.2463 24.0387C12.2388 24.4004 12.2463 24.7621 12.1634 25.1162C12.0578 25.5683 12.0653 26.028 12.1332 26.4876C12.2614 27.3843 12.1785 26.9473 12.2162 27.4898C12.3821 27.4898 12.5783 28.0097 12.7518 28.0022C12.7442 27.5802 12.699 26.563 12.6613 26.141C12.6311 25.7793 12.6613 25.4252 12.7216 25.0635C12.8498 24.2873 12.9253 23.5187 12.8348 22.7275C12.7518 21.9816 12.8423 21.2356 12.9932 20.5047C13.1214 19.8868 13.1063 19.2689 13.0083 18.651C12.9856 18.5154 12.963 18.3722 12.9856 18.2441C13.0686 17.7844 13.1139 17.3173 13.129 16.7973C13.574 17.1892 14.0493 17.2118 14.5547 17.0987C14.9696 17.0083 15.2186 16.737 15.3845 16.3678C15.4374 16.2472 15.46 16.0965 15.6637 16.1418C15.7617 16.1644 15.8749 16.1493 15.89 16.0137C15.9051 15.8856 15.807 15.8479 15.7014 15.8253C15.0753 15.6821 14.4416 15.5314 13.8154 15.3958C13.6118 15.3506 13.4005 15.2978 13.1969 15.2752C13.0158 15.2526 12.9781 15.1697 12.9932 15.0039C13.0837 14.2353 13.227 13.4818 13.5363 12.766C13.8381 12.0727 14.2228 11.4172 14.7735 10.8822C14.8414 10.8143 14.9244 10.739 14.8791 10.626C14.8339 10.5129 14.7433 10.4828 14.6377 10.5205C14.5246 10.5581 14.4793 10.4979 14.4265 10.4225C14.3209 10.2567 14.2077 10.091 14.1097 9.91765C13.7777 9.37511 13.3779 8.88532 12.9781 8.388C12.8951 8.2825 12.7895 8.19208 12.6763 8.1092C12.3369 7.86807 12.0351 8.0037 11.9974 8.42567C11.9672 8.69694 11.9899 8.97575 12.0879 9.23194C12.4425 10.1286 12.7141 11.063 13.227 11.8919C13.3553 12.1029 13.1742 12.2008 13.1063 12.3515C12.9781 12.2611 12.9102 12.133 12.8498 12.02C12.1483 10.7842 11.5599 9.50321 11.3109 8.08659C11.243 7.71736 11.243 7.3406 11.2581 6.97137C11.2807 6.56447 11.4618 6.45898 11.8541 6.55694C12.1407 6.63229 12.3595 6.81313 12.5707 7.00905C13.2874 7.67215 13.8984 8.41814 14.5472 9.14152C14.7207 9.33744 14.8942 9.53335 15.0602 9.72927C15.1658 9.84983 15.2638 9.96286 15.2789 10.1437C15.294 10.3472 15.4374 10.4074 15.6259 10.3321C15.6712 10.317 15.7165 10.2944 15.7617 10.2643C16.0786 10.0458 16.4331 9.9704 16.8103 9.91012C17.8438 9.72173 18.8622 9.79709 19.8806 10.0081C20.039 10.0457 20.1748 10.1286 20.3182 10.2115C20.6275 10.3999 20.7406 10.3547 20.8311 10.0081C20.8538 9.91011 20.9141 9.82723 20.982 9.75188C21.8194 8.81751 22.5964 7.83039 23.5167 6.97137C23.7204 6.78299 23.9241 6.60215 24.1956 6.51926C24.6407 6.37609 24.8293 6.51173 24.8595 6.97137C24.9123 7.84546 24.7011 8.67434 24.422 9.48814C24.1428 10.3019 23.7581 11.0705 23.3507 11.8241C23.2602 11.9898 23.1471 12.133 23.0339 12.3214C22.6643 11.7713 22.6643 11.7789 22.9434 11.2514C23.2904 10.6034 23.6449 9.9704 23.8863 9.26962C23.9844 8.97575 24.0674 8.67434 24.0599 8.35786C24.0523 8.16194 24.0146 7.98863 23.8185 7.89067C23.6299 7.80025 23.479 7.88314 23.3432 7.99617C23.1772 8.13934 23.0037 8.29004 22.8529 8.45582C22.3323 9.02096 21.759 9.54842 21.4271 10.2567C21.3667 10.3924 21.1329 10.4527 21.2234 10.6561C21.2838 10.7917 21.4271 10.8746 21.5176 10.9877C22.0532 11.6357 22.4832 12.344 22.7472 13.1427C22.9132 13.6476 23.0264 14.1751 23.0943 14.7025C23.1244 14.9738 23.1244 14.9738 22.8453 15.0491C22.1588 15.23 21.4799 15.4108 20.7934 15.5917C20.7331 15.6068 20.6727 15.6143 20.6124 15.6444C20.469 15.7122 20.4539 15.8403 20.5897 15.9232C20.6803 15.976 20.7331 16.0061 20.7632 16.1267C20.8764 16.6089 21.1857 16.9179 21.676 16.9857C22.1664 17.0611 22.6265 16.9782 22.9132 16.511C22.9283 16.4808 22.9358 16.4658 22.9886 16.4959C22.9736 17.0535 23.0188 17.6187 23.1244 18.1763C23.1471 18.2818 23.132 18.4023 23.1169 18.5078C22.9736 19.2161 23.0037 19.9169 23.1471 20.6177C23.2979 21.3938 23.3432 22.1699 23.2527 22.9536C23.1848 23.5263 23.2376 24.099 23.3432 24.6566C23.4639 25.2895 23.4941 25.915 23.4262 26.5479C23.4036 26.7589 23.3885 26.9699 23.3885 27.1809C23.562 27.1884 23.7355 27.1959 23.909 27.2035C23.9165 27.098 23.9241 26.985 23.9392 26.8795C24.007 26.2766 24.09 25.6814 23.9769 25.0635C23.8109 24.1592 23.8335 23.2324 23.8185 22.3131C23.8109 21.65 23.7958 21.002 23.6299 20.354C23.5016 19.8566 23.4639 19.3442 23.5771 18.8394C23.7053 18.2818 23.6902 17.7317 23.6148 17.1741C23.5771 16.9179 23.5242 16.6542 23.5921 16.398C23.7204 15.8931 23.7053 15.3882 23.6827 14.8758C23.6525 14.273 23.4865 13.7003 23.3357 13.1277C23.2904 12.9544 23.2979 12.8338 23.4337 12.6982C23.6072 12.5248 23.7506 12.3139 23.8562 12.0878C24.4898 10.7993 25.0556 9.49568 25.2216 8.05645C25.2819 7.67969 25.3423 7.27278 25.3197 6.85835Z" fill="#231F20"/>
<path d="M51.3665 20.4218C50.8309 20.7081 50.3556 20.9719 49.8728 21.2205C49.0581 21.6425 48.2283 22.0419 47.3909 22.4186C46.961 22.6145 46.5159 22.7652 46.0632 22.9009C44.992 23.2324 43.9284 23.5715 42.8647 23.8955C41.8765 24.1969 40.843 24.3024 39.8246 24.4305C38.527 24.5888 37.2371 24.7696 35.9697 25.0786C34.8608 25.3498 33.7518 25.6286 32.6882 26.0581C31.8659 26.3897 31.0889 26.8041 30.3119 27.211C29.4293 27.6707 28.5693 28.168 27.7168 28.6804C27.3849 28.8839 27.0077 28.9743 26.6456 29.1024C26.5249 29.1401 26.4344 29.125 26.3892 28.9818C26.2609 28.5975 25.9818 28.3338 25.6197 28.1605C25.4839 28.0927 25.4613 28.0022 25.4688 27.8591C25.4839 27.6481 25.4764 27.4371 25.4009 27.2336C25.3104 26.9774 25.1444 26.8117 24.8879 26.7363C24.6465 26.661 24.4051 26.6007 24.1562 26.6308C23.9902 26.6534 23.9299 26.5931 23.9223 26.4424C23.9148 26.3219 23.8997 26.1938 23.8922 26.0732C23.8771 25.7492 23.9148 25.4177 23.8544 25.1087C23.7866 24.7319 23.9073 24.4908 24.1864 24.2422C25.1293 23.3907 26.2006 22.7577 27.3321 22.2001C29.7537 21.002 32.2733 20.045 34.808 19.1333C37.0334 18.3345 39.206 17.4152 41.3258 16.3754C41.8161 16.1342 42.2838 15.8479 42.7515 15.5691C42.8949 15.4862 42.9854 15.4862 43.091 15.6294C43.9585 16.7597 45.1354 17.468 46.4103 18.0256C47.8134 18.6359 49.1939 19.2915 50.5593 19.9621C50.8158 20.0827 51.0648 20.2485 51.3665 20.4218Z" fill="#31C77F"/>
<path d="M11.4982 30.2175C11.6189 30.2702 11.7019 30.3004 11.7773 30.3305C11.9131 30.3832 12.0565 30.3908 12.147 30.2551C12.2451 30.112 12.1545 29.999 12.0489 29.901C11.9282 29.7955 11.8075 29.69 11.6868 29.577C11.1965 29.1249 11.4077 28.3035 11.8679 28.0172C11.981 27.9494 12.064 27.9192 12.1545 28.0323C12.1772 28.0624 12.2073 28.085 12.23 28.1151C13.1805 29.1851 14.3724 29.9613 15.5643 30.7223C16.1075 31.069 16.6657 31.4005 17.2692 31.6416C17.4201 31.7019 17.488 31.7773 17.4578 31.943C17.4276 32.0787 17.4352 32.2143 17.488 32.3499C17.5408 32.4931 17.4653 32.5308 17.3446 32.5383C17.1485 32.5609 16.9524 32.5911 16.7487 32.5911C15.9943 32.6061 15.2399 32.7644 14.4856 32.6966C13.7161 32.6212 12.9693 32.4554 12.2677 32.1088C12.0187 31.9882 11.8 31.83 11.634 31.604C11.3096 31.182 11.3021 30.7299 11.4982 30.2175Z" fill="#31C77F"/>
<path d="M20.1713 32.1166C20.0582 32.1015 19.9073 32.222 19.8017 32.1241C19.7263 32.0487 19.7187 31.898 19.6734 31.785C19.6584 31.7398 19.6357 31.687 19.6056 31.6494C19.4999 31.5213 19.5754 31.4535 19.681 31.3856C20.3373 30.9787 20.9182 30.4739 21.5443 30.0218C22.3062 29.4566 22.9776 28.7935 23.6113 28.0927C23.815 27.8742 23.9658 27.6105 23.9508 27.294C23.9432 27.1659 24.0036 27.1132 24.1318 27.1282C24.2525 27.1433 24.3807 27.1584 24.5014 27.1885C24.8786 27.2789 25.037 27.5954 24.8711 27.9496C24.8032 28.0927 24.7127 28.2284 24.6372 28.3715C24.5844 28.477 24.5618 28.5825 24.6674 28.673C24.7655 28.7558 24.8711 28.7408 24.9767 28.688C24.9842 28.6805 24.9993 28.6805 25.0069 28.673C25.0974 28.6277 25.1502 28.4846 25.2407 28.5147C25.3765 28.5599 25.5048 28.6504 25.6179 28.7408C25.8895 28.9593 25.9876 29.2155 25.8895 29.4868C25.7763 29.7882 25.5953 30.0594 25.3539 30.2855C24.8786 30.7301 24.3129 31.0089 23.7169 31.2199C22.7211 31.5665 21.7253 31.9056 20.6768 32.0789C20.5183 32.1015 20.3524 32.1166 20.1713 32.1166Z" fill="#31C77F"/>
<path d="M13.5327 11.6809C13.1631 11.3192 12.9519 10.8972 12.7934 10.4602C12.5973 9.92517 12.4087 9.39017 12.2805 8.83256C12.2503 8.712 12.2428 8.59143 12.2352 8.46333C12.2352 8.38045 12.2201 8.28249 12.3182 8.23728C12.4163 8.1996 12.4917 8.25988 12.552 8.32016C12.8689 8.59897 13.1405 8.92298 13.3592 9.28468C13.6233 9.71418 13.8873 10.1437 14.1664 10.5732C14.272 10.739 14.272 10.8595 14.1136 10.9726C13.8722 11.1459 13.744 11.4171 13.5327 11.6809Z" fill="#FEFEFE"/>
<path d="M22.5034 11.4849C22.3299 11.176 22.0659 10.9574 21.8094 10.7239C21.6812 10.6033 21.6887 10.5204 21.7717 10.3772C22.1338 9.78195 22.5864 9.25448 23.0466 8.72701C23.1824 8.56877 23.3031 8.38793 23.4766 8.26737C23.6652 8.13927 23.7783 8.19201 23.8085 8.41807C23.8161 8.47835 23.8161 8.54617 23.801 8.60645C23.6878 9.07364 23.5897 9.55589 23.3483 9.97786C23.1069 10.3848 22.8957 10.7992 22.6845 11.2212C22.6392 11.3116 22.6166 11.4171 22.5034 11.4849Z" fill="#FEFEFE"/>
<path d="M18.5518 32.5081C18.5141 32.5006 18.4462 32.5006 18.3859 32.493C18.1218 32.4554 17.9634 32.3273 17.9332 32.1238C17.9031 31.9203 18.069 31.6491 18.2878 31.5662C18.6952 31.4004 19.0723 31.521 19.2458 31.8676C19.359 32.0861 19.3288 32.1992 19.1402 32.3499C18.9969 32.4553 18.7932 32.5156 18.5518 32.5081Z" fill="#31C77F"/>
<path d="M13.9196 16.2171C13.7461 16.2247 13.6254 16.1267 13.6254 15.9685C13.6179 15.8027 13.7084 15.6972 13.8518 15.6972C14.0253 15.6896 14.1384 15.7876 14.146 15.9534C14.146 16.1192 14.0781 16.2096 13.9196 16.2171Z" fill="#E7EBEB"/>
<path d="M21.8935 15.9684C21.8558 16.089 21.8331 16.2171 21.6898 16.2472C21.554 16.2774 21.4258 16.1493 21.4258 16.0061C21.4333 15.8554 21.5238 15.78 21.6596 15.7725C21.7803 15.765 21.8709 15.8403 21.8935 15.9684Z" fill="#EFF2F2"/>
<path d="M18.3319 16.5032C18.5205 16.2771 18.7619 16.1791 19.0486 16.1867C19.5012 16.1942 19.8331 16.4881 19.8708 16.9402C19.8859 17.1587 19.901 17.3923 19.818 17.6033C19.7426 17.7917 19.7652 17.8972 19.9463 18.0328C20.3159 18.3267 20.5045 18.7185 20.4743 19.2083C20.4592 19.4042 20.414 19.5926 20.2782 19.7207C20.0972 19.8865 19.9991 20.105 19.9086 20.3085C19.6973 20.7681 19.3126 20.9716 18.86 21.0469C18.3545 21.1223 17.8717 20.9942 17.4417 20.7154C17.2154 20.5722 17.057 20.3612 16.9816 20.105C16.9439 19.9769 16.8911 19.894 16.7779 19.8187C16.3479 19.5248 16.2348 19.035 16.4912 18.5829C16.5742 18.4322 16.6723 18.2739 16.8005 18.1684C16.9967 18.0177 17.0118 17.867 16.9439 17.6561C16.8533 17.3697 16.9137 17.0909 17.0118 16.8196C17.2079 16.2696 17.6605 16.1113 18.166 16.4052C18.2112 16.4278 18.264 16.4655 18.3319 16.5032Z" fill="#030202"/>
<path d="M19.4776 19.7135C19.191 19.6909 18.9194 19.5176 18.7157 19.2237C18.429 18.8017 18.429 18.8017 18.165 19.2388C17.9613 19.5703 17.652 19.7361 17.2598 19.7135C16.7392 19.6758 16.4903 19.1785 16.777 18.7339C16.8826 18.5681 17.0334 18.4325 17.1919 18.3119C17.4408 18.1236 17.4559 18.0859 17.3503 17.7769C17.2824 17.5735 17.222 17.3776 17.2371 17.159C17.2748 16.6843 17.6445 16.4884 18.0519 16.7145C18.1197 16.7521 18.1725 16.8049 18.2329 16.8426C18.3838 16.933 18.512 16.9405 18.6025 16.7597C18.7157 16.5412 18.9118 16.5336 19.1155 16.5562C19.3418 16.5788 19.4701 16.7145 19.5531 16.9179C19.5983 17.0309 19.5908 17.1364 19.5455 17.2419C19.4852 17.3926 19.4173 17.5358 19.3569 17.6865C19.2136 17.9955 19.2287 18.0633 19.5455 18.1989C19.8095 18.3119 20.0132 18.4777 20.1264 18.749C20.3301 19.2162 20.0434 19.6984 19.4776 19.7135Z" fill="white"/>
<path d="M17.3438 20.0451C17.8869 19.9849 17.9171 19.9698 18.4829 19.4272C18.7846 19.8191 19.1618 20.0602 19.6748 20.0225C19.5239 20.4746 19.192 20.7007 18.6865 20.7158C18.1283 20.7233 17.4795 20.5801 17.3438 20.0451Z" fill="#FDFDFD"/>
<path d="M17.7984 17.1667C17.821 17.1818 17.8813 17.1894 17.904 17.2195C18.002 17.3476 18.085 17.4908 18.1001 17.6565C18.1076 17.7319 18.0699 17.7997 17.9869 17.8299C17.9191 17.8525 17.8662 17.8223 17.821 17.7771C17.7003 17.649 17.6098 17.4983 17.6324 17.3099C17.6399 17.2346 17.6852 17.1818 17.7984 17.1667Z" fill="#0E0D0D"/>
<path d="M18.6957 17.4904C18.7183 17.4301 18.7485 17.3171 18.8013 17.2191C18.839 17.1363 18.9069 17.076 19.0125 17.1212C19.0879 17.1589 19.1181 17.2267 19.103 17.302C19.0804 17.4075 19.0427 17.513 19.0049 17.6185C18.9672 17.7165 18.8993 17.7918 18.7786 17.7466C18.673 17.7165 18.673 17.6185 18.6957 17.4904Z" fill="#191717"/>
<path d="M11.3698 31.7622L10.6758 33.6611L11.1435 33.8947C11.1435 33.8947 11.7923 32.3198 11.8677 32.1691C11.9356 32.0109 11.3698 31.7622 11.3698 31.7622Z" fill="#231F20"/>
<path d="M25.2359 30.5264L24.9492 30.8353C24.9492 30.8353 26.1411 33.6233 26.4957 33.6309C26.8502 33.6309 26.6239 33.0657 26.6239 33.0657C26.6239 33.0657 25.5829 30.8881 25.4018 30.5038C25.2661 30.1948 25.2359 30.5264 25.2359 30.5264Z" fill="#231F20"/>
</g>
</g>
<defs>
<clipPath id="clip0">
<rect width="36" height="36" fill="white"/>
</clipPath>
</defs>
</svg>
