<svg viewBox="0 0 24 24" xmlns="http://www.w3.org/2000/svg"><g fill="none"><path d="M12 24C5.4 24 0 18.6 0 12S5.4 0 12 0s12 5.4 12 12-5.4 12-12 12z" fill="#4BDB4B"/><path d="M18.979 14.348c.6 1.1.2 2.5-.8 3.1-1.1.6-2.5.2-3.1-.8l-4.8-8.2c-.6-1.1-.2-2.5.9-3.1 1.1-.7 2.4-.3 3.1.8l4.7 8.2z" fill="#000" opacity=".4"/><path d="M9.548 16.648c-.6 1.1-2 1.5-3.1.8-1.1-.6-1.5-2-.8-3.1l4.7-8.2c.6-1.1 2-1.5 3.1-.8 1.1.6 1.5 2 .8 3.1l-4.7 8.2z" fill="#000" opacity=".65"/><path d="M14.55 7.3c0 1.3-2.3 4.5-2.3 4.5s-2.2-3.2-2.2-4.5c0-1.3 1-2.3 2.3-2.3 1.3 0 2.2 1.1 2.2 2.3z" fill="#000"/></g></svg>