<svg fill="#262761" viewBox="0 0 45 45" xmlns="http://www.w3.org/2000/svg"><circle cx="33.672" cy="17.507" r="1.119"/><path d="M22.478.022C10.119.022.09 10.052.09 22.41c0 12.36 10.03 22.39 22.388 22.39 12.358 0 22.388-10.03 22.388-22.389 0-12.358-10.03-22.388-22.388-22.388zM32.642 31.77c-2.642 2.91-6.403 4.59-10.299 4.59h-.022a13.952 13.952 0 0 1-10.388-4.66c-2.687-3-3.918-6.85-3.493-10.858C9.134 14.44 14.284 9.27 20.687 8.53c.537-.067 1.097-.09 1.634-.09 3.09 0 6.045 1.008 8.507 2.91a.595.595 0 0 1 .247.493c0 .202-.068.38-.224.515l-1.478 1.321a.895.895 0 0 1-.582.224.763.763 0 0 1-.492-.157 10.45 10.45 0 0 0-5.978-1.88c-3 0-5.866 1.298-7.858 3.537-2.015 2.261-2.956 5.194-2.597 8.216.537 4.814 4.433 8.71 9.268 9.247.403.044.806.067 1.21.067 2.82 0 5.462-1.12 7.477-3.134a.898.898 0 0 1 .627-.27c.156 0 .336.046.47.135l1.634 1.075a.662.662 0 0 1 .291.47c0 .224-.067.425-.201.56zm1.03-10.88a3.392 3.392 0 0 1-3.381-3.382 3.392 3.392 0 0 1 3.38-3.38 3.392 3.392 0 0 1 3.381 3.38 3.392 3.392 0 0 1-3.38 3.381z"/></svg>