<svg width="171" height="166" fill="none" xmlns="http://www.w3.org/2000/svg"><mask id="a" style="mask-type:alpha" maskUnits="userSpaceOnUse" x="0" y="0" width="171" height="138"><path fill-rule="evenodd" clip-rule="evenodd" d="M0 0h170.382v137.258H0V0z" fill="#fff"/></mask><g mask="url(#a)"><path fill-rule="evenodd" clip-rule="evenodd" d="M19.95 132.161c-5.063-10.839-7.89-22.932-7.89-35.685 0-46.622 37.794-84.416 84.416-84.416 25.96 0 49.182 11.718 64.667 30.154l9.239-7.752C152.684 13.392 126.145 0 96.476 0 43.194 0 0 43.194 0 96.476c0 14.575 3.232 28.395 9.018 40.782l10.933-5.097z" fill="#000"/></g><path fill-rule="evenodd" clip-rule="evenodd" d="M96.476 153.759c-31.636 0-57.283-25.647-57.283-57.283 0-31.636 25.647-57.283 57.283-57.283 17.616 0 33.371 7.955 43.879 20.464l9.241-7.754c-12.72-15.143-31.796-24.77-53.12-24.77-38.297 0-69.342 31.046-69.342 69.343 0 38.297 31.045 69.342 69.342 69.342v-12.059z" fill="#000"/><path fill-rule="evenodd" clip-rule="evenodd" d="M117.261 113.917c-4.977 5.925-12.441 9.693-20.785 9.693-14.986 0-27.134-12.148-27.134-27.134S81.49 69.342 96.476 69.342c8.344 0 15.808 3.768 20.785 9.694l10.392-8.72c-7.466-8.89-18.66-14.54-31.177-14.54-22.478 0-40.7 18.221-40.7 40.7 0 22.478 18.221 40.701 40.7 40.701 11.471 0 21.829-4.749 29.227-12.384l-8.442-10.876z" fill="#000"/></svg>