<svg viewBox="0 0 36 36" xmlns="http://www.w3.org/2000/svg"><g fill="none" fill-rule="evenodd"><circle fill="#FFE804" cx="18" cy="18" r="18"/><g fill="#000"><path d="M20.632 8.727c.116-.278.18-.556.195-.808.063-.534-.07-.967-.38-1.096-.305-.127-.705.072-1.048.473l.001-.08c0-1.112-.517-2.013-1.156-2.013-.638 0-1.156.901-1.156 2.013 0 .079.003.156.008.233-.389-.52-.9-.786-1.264-.614-.456.214-.511 1.032-.123 1.826.065.133.211.362.29.475-4.95.77-7.77 4.686-8.124 11.114h2.77c.291-5.292 3.04-8.31 7.599-8.31 4.094 0 7.154 2.884 7.111 8.31h2.77c.05-6.401-3.57-10.545-7.727-11.079.088-.134.167-.283.234-.444z"/><path d="M14.766 15.632v1.783c0 .4.409.726.914.726.504 0 .914-.325.914-.726v-1.783c0-.4-.41-.726-.914-.726-.505 0-.914.325-.914.726zm5.624-.726c-.465 0-.843.325-.843.726v1.783c0 .4.378.726.844.726.466 0 .843-.325.843-.726v-1.783c0-.4-.377-.726-.843-.726"/></g><path d="M16.206 25.04c-.072.2-.17.37-.295.513a1.377 1.377 0 0 1-.447.338 1.274 1.274 0 0 1-.558.125 1.28 1.28 0 0 1-.558-.125 1.378 1.378 0 0 1-.447-.338 1.571 1.571 0 0 1-.294-.513 1.892 1.892 0 0 1-.107-.642c0-.228.036-.441.107-.64.071-.2.17-.372.294-.514.125-.143.274-.255.447-.338a1.28 1.28 0 0 1 .558-.125c.199 0 .385.042.558.125.173.083.322.195.447.338.125.142.223.313.295.513.07.2.107.413.107.641 0 .229-.036.442-.107.642m1.3-1.716a2.707 2.707 0 0 0-.58-.874 2.727 2.727 0 0 0-1.946-.794 2.754 2.754 0 0 0-1.953.794 2.705 2.705 0 0 0-.58.874 2.744 2.744 0 0 0-.213 1.074c0 .38.071.739.213 1.075.141.337.335.628.58.874a2.754 2.754 0 0 0 1.953.794 2.727 2.727 0 0 0 1.946-.794c.245-.246.439-.537.58-.874.142-.336.213-.695.213-1.075s-.071-.738-.213-1.074m-7.48 1.72a1.646 1.646 0 0 1-.272.51 1.286 1.286 0 0 1-.408.338 1.06 1.06 0 0 1-.5.124h-.83V22.78h.83c.177 0 .343.043.5.128.157.085.293.2.408.346.115.146.206.319.272.518.066.2.099.413.099.641 0 .223-.033.433-.1.63m1.434-1.715a2.715 2.715 0 0 0-.579-.874 2.752 2.752 0 0 0-.866-.583 2.648 2.648 0 0 0-1.062-.216H6.75v5.485h2.202c.376 0 .73-.07 1.062-.212a2.684 2.684 0 0 0 1.446-1.45 2.71 2.71 0 0 0 .212-1.065c0-.386-.071-.748-.213-1.085m16.278 1.712c-.072.2-.17.37-.295.513a1.378 1.378 0 0 1-.447.338 1.274 1.274 0 0 1-.558.125c-.198 0-.384-.042-.557-.125a1.38 1.38 0 0 1-.448-.338 1.575 1.575 0 0 1-.294-.513 1.892 1.892 0 0 1-.107-.642c0-.228.036-.441.107-.64.072-.2.17-.372.294-.514a1.38 1.38 0 0 1 .448-.338c.173-.083.359-.125.557-.125.2 0 .385.042.558.125.174.083.323.195.447.338.125.142.223.313.295.513.071.2.107.413.107.641 0 .229-.036.442-.107.642m1.3-1.716a2.705 2.705 0 0 0-.58-.874 2.727 2.727 0 0 0-1.946-.794 2.754 2.754 0 0 0-1.953.794 2.705 2.705 0 0 0-.58.874 2.744 2.744 0 0 0-.212 1.074c0 .38.07.739.212 1.075.142.337.335.628.58.874a2.754 2.754 0 0 0 1.953.794 2.727 2.727 0 0 0 1.946-.794c.246-.246.44-.537.58-.874.142-.336.213-.695.213-1.075s-.07-.738-.212-1.074m-7.481 1.72a1.644 1.644 0 0 1-.272.51 1.288 1.288 0 0 1-.408.338 1.06 1.06 0 0 1-.5.124h-.83V22.78h.83c.177 0 .343.043.5.128.157.085.293.2.408.346.115.146.206.319.272.518.066.2.1.413.1.641 0 .223-.034.433-.1.63m1.434-1.715a2.713 2.713 0 0 0-.58-.874 2.752 2.752 0 0 0-.865-.583 2.648 2.648 0 0 0-1.063-.216h-2.202v5.485h2.202c.376 0 .73-.07 1.063-.212a2.69 2.69 0 0 0 1.445-1.45 2.71 2.71 0 0 0 .212-1.065c0-.386-.07-.748-.212-1.085" fill="#000"/></g></svg>