<svg xmlns="http://www.w3.org/2000/svg" xml:space="preserve" viewBox="0 -32 110.9 110.9"><path d="M23.7 22.6h14.9v18c-2.2 1.6-4.6 2.8-7.1 3.6-2.5.8-5.2 1.1-8 1.1-3.6 0-6.8-.6-9.7-1.7-2.9-1.1-5.4-2.7-7.4-4.6-2.1-2-3.6-4.3-4.8-7S0 26.2 0 23c0-3.3.5-6.2 1.6-9 1.1-2.7 2.6-5.1 4.6-7s4.4-3.5 7.2-4.6c2.8-1.1 6-1.6 9.4-1.6 1.8 0 3.5.1 5 .4 1.6.3 3 .7 4.3 1.2 1.3.5 2.5 1.1 3.6 1.8s2.1 1.5 3 2.3l-2.6 4c-.4.6-.9 1-1.6 1.2s-1.3 0-2.1-.5L30.3 10c-.7-.4-1.3-.6-2.1-.9-.8-.3-1.6-.5-2.5-.6-.9-.1-2-.2-3.2-.2-2 0-3.9.4-5.5 1-1.6.7-3 1.7-4.2 3-1.2 1.3-2 2.8-2.7 4.6-.6 1.8-.9 3.8-.9 6 0 2.4.3 4.5 1 6.4.7 1.9 1.6 3.5 2.9 4.8 1.2 1.3 2.7 2.3 4.5 3 1.7.7 3.7 1 5.8 1 1.4 0 2.7-.1 3.9-.4 1.1-.3 2.2-.7 3.3-1.2v-7.3h-4.9c-.6 0-1-.2-1.4-.5-.3-.3-.5-.7-.5-1.2v-4.9zm27.4 7.9c.3 2.9 1.1 5 2.5 6.4 1.4 1.3 3.2 2 5.4 2 1.1 0 2.1-.1 3-.4.8-.3 1.6-.6 2.2-.9s1.2-.6 1.7-.9c.5-.3 1-.4 1.5-.4.6 0 1.1.2 1.5.7l2.4 3c-.9 1-1.9 1.9-2.9 2.5s-2.2 1.2-3.3 1.6c-1.1.4-2.3.7-3.5.8-1.2.2-2.3.2-3.4.2-2.2 0-4.2-.4-6-1.1-1.9-.7-3.5-1.8-4.9-3.1-1.4-1.4-2.5-3.1-3.3-5.2-.8-2.1-1.2-4.4-1.2-7.2 0-2.1.3-4.1 1-5.9.7-1.9 1.7-3.5 3-4.9 1.3-1.4 2.9-2.5 4.7-3.3 1.9-.8 4-1.2 6.3-1.2 2 0 3.8.3 5.5.9 1.7.6 3.1 1.5 4.3 2.7 1.2 1.2 2.1 2.7 2.8 4.4s1 3.7 1 6c0 .6 0 1.1-.1 1.5-.1.4-.2.7-.3 1-.1.2-.3.4-.6.5-.2.1-.6.1-.9.1H51.1zm13-4.9c0-.9-.1-1.7-.3-2.5-.2-.8-.6-1.5-1.1-2.1-.5-.6-1.1-1.1-1.9-1.4-.8-.3-1.7-.5-2.7-.5-2 0-3.5.6-4.6 1.7-1.1 1.1-1.9 2.7-2.2 4.8h12.8zM85 0v44.7h-8.3V0H85zm17.6 45.2c-1.4 0-2.6-.2-3.7-.6s-2-1-2.7-1.8-1.3-1.7-1.7-2.8-.6-2.3-.6-3.7V19.7H91c-.4 0-.8-.1-1.1-.4-.3-.3-.5-.7-.5-1.3v-3.2l5-.9 1.7-8c.2-.9.8-1.3 1.8-1.3h4.3V14h8v5.8h-8v16.1c0 .9.2 1.5.6 2 .4.5 1 .8 1.8.8.4 0 .7 0 1-.1s.5-.2.7-.3l.6-.3c.2-.1.3-.1.5-.1s.4.1.6.2c.2.1.3.3.5.6l2.5 4c-1.1.9-2.4 1.6-3.9 2-1.5.3-3 .5-4.5.5z" style="fill:#12a39b"/></svg>
