<svg width="100" height="100" fill="none" xmlns="http://www.w3.org/2000/svg"><path d="M74.263 23.502c-1.78 1.99-5.937 1.97-7.718.18-1.78-1.791-2.375-5.257 0-7.446 2.375-2.188 5.937-1.39 7.718.201 1.781 1.592 1.781 5.075 0 7.065z" fill="#483E5E"/><path d="M55.565 9.285c-1.945 2.383-2.7 3.772-4.167 7.57-1.901 4.923-3.611 10.359-4.305 13.724-.695 3.364.688 6.254 3.842 8.224 3.336 2.084 6.931 3.707 11.792 5.53 4.861 1.822 8.35 4.42 9.46 7.083 1.111 2.664.859 7.793-1.641 12.7-2.5 4.907-5.984 9.466-12.095 13.953-6.111 4.486-10.285 5.552-16.328 6.954-6.043 1.402-4.059 4.856-1.975 5.557 2.083.701 6.666 1.402 12.777 1.122 6.111-.28 12.215-1.823 19.437-5.468 7.222-3.645 14.305-9.953 18.063-18.365 3.757-8.411 5.256-20.279.902-27.758-2.53-4.345-3.826-5.392-4.66-8.13-.833-2.74-.3-4.826 1.252-6.73.895-1.097 2.896-2.202 4.728-3.523 1.445-1.042 3.187-2.084 4.437-2.926 1.25-.84 1.674-1.28.841-1.84l-.03-.02c-.843-.568-2.504-1.687-5.395-2.766-2.924-1.092-3.475-1.242-4.58-1.331-1.106-.09-2.495.892-4.717 2.574-2.222 1.682-3.194 2.01-3.333 3.925-.14 1.915-.695 4.346-2.222 6.45-1.528 2.102-3.576 3.17-6.318 3.448-2.742.278-6.45-.573-8.274-2.729-1.823-2.156-2.557-3.385-2.557-6.442 0-3.056 1.177-5.213 2.742-6.755 1.564-1.542 1.49-2.103 1.49-2.804 0-.7-.363-3.085-.668-4.196-.304-1.112-1.396-1.287-3.178-.702-1.867.613-3.376 1.288-5.32 3.671z" fill="#483E5E"/><path d="M28.03 67.795c-.9.237-1.531 1.781-3.298 4.87-1.767 3.087-3.424 5.344-6.587 8.788-3.162 3.445-5.15 4.87-10.18 7.958l-.13.08c-4.927 3.024-6.376 3.913-6.717 4.828-.345.922-.142 2.138 3.556 2.708 3.698.57 6.782.698 12.124-2.984 5.343-3.682 9.54-7.245 15.076-9.858 5.536-2.613 7.269-2.449 13.47-4.276 6.2-1.827 11.853-5.412 15.753-9.768 3.9-4.357 5.851-8.748 6.64-11.243.79-2.495.903-5.82-1.207-7.483-2.016-1.589-3.105-2.066-7.554-3.73-4.732-1.768-6.303-2.211-9.789-4.983-3.285-2.612-3.09-3.236-5.154-3.513-2.065-.278-3.63 2.81-4.326 4.356-.524 1.163-.614 3.217.774 5.15 1.388 1.933 2.678 4.06 6.48 6.22 3.801 2.16 5.572 2.506 8.164 2.938 2.592.432 3.604 1.045 2.907 2.275-.696 1.23-2.09 1.827-4.458 1.827-2.368 0-5.712-1.09-9.055-3.057-2.358-1.388-4.04-2.951-5.269-4.497-1.195-1.503-1.911-1.721-3.019-1.721-1.107 0-2.018.703-3.343 2.67-1.325 1.968-2.3 4.099-2.44 5.253-.139 1.155-.264 2.442 1.826 3.988 2.09 1.546 3.895 2.386 6.264 2.808 2.368.422 4.17 1.161 2.435 2.742-1.734 1.58-3.837 1.23-5.51.808-1.67-.421-4.097-1.729-5.014-2.323-.918-.594-1.52-1.069-2.42-.831zM80.534 12.3c1.257-.781 2.646-1.808 2.646-2.526 0-.719-.708-1.58-3.679-3.448-2.971-1.867-7.074-3.988-9.763-4.309-2.688-.321-1.523 3.95-1.206 5.64.316 1.69.41 3.005 1.528 3.142 1.117.136 1.955.273 2.933.546.977.273 2.234.862 3.63 1.681 1.397.82 2.654.057 3.911-.725z" fill="#483E5E"/></svg>