<svg width="261" height="259" xmlns="http://www.w3.org/2000/svg"><defs><linearGradient x1="80.697%" y1="80.697%" x2="13.5%" y2="13.5%" id="a"><stop stop-color="#0B50B0" offset=".079%"/><stop stop-color="#0F6BEB" offset="46.271%"/><stop stop-color="#6FA4F2" offset="100%"/></linearGradient><linearGradient x1="50%" y1="0%" x2="50%" y2="100%" id="b"><stop stop-color="#6FA4F2" offset="0%"/><stop stop-color="#0F6BEB" offset="52.426%"/><stop stop-color="#0B50B0" offset="100%"/></linearGradient><linearGradient x1="50%" y1="0%" x2="50%" y2="100%" id="c"><stop stop-color="#FCC200" offset="0%"/><stop stop-color="#DBA515" offset="53.136%"/><stop stop-color="#B78628" offset="100%"/></linearGradient></defs><g fill="none" fill-rule="evenodd"><path d="M129.753 52.603a77.15 77.15 0 1 1-77.15 77.15 77.248 77.248 0 0 1 77.15-77.15zM128 0a128 128 0 1 0 0 256 128 128 0 0 0 0-256z" fill="url(#a)" fill-rule="nonzero"/><path d="m173.145 58.102.034-.035c-2.597-1.906-2.511-3.639-1.255-4.834 1.1-1.057 3.25-1.716 3.25-1.716 33.718-7.745 60.915 9.687 60.915 9.687-28.23-37.256-81.643-47.029-132.803-20.933-33.51 16.427-45.793 41.744-45.793 41.744l.103-.018c-7.759 12.546-12.3 27.31-12.3 43.148 0 27.76 13.745 52.244 34.715 67.06l-.035.034c2.598 1.889 2.512 3.639 1.256 4.835-1.101 1.057-3.251 1.715-3.251 1.715-33.734 7.746-60.914-9.686-60.914-9.686 28.229 37.273 81.643 47.028 132.803 20.932 33.51-16.427 45.81-41.76 45.81-41.76l-.12.017c7.758-12.546 12.3-27.31 12.3-43.165 0-27.742-13.745-52.227-34.715-67.025zm-78.983 67.926c0-18.478 14.912-33.47 33.292-33.47 18.38 0 33.291 14.992 33.291 33.47 0 18.495-14.912 33.487-33.291 33.487-18.397 0-33.292-14.974-33.292-33.487z" fill="#FFF" fill-rule="nonzero"/><g transform="translate(62.578 62.578)" fill-rule="nonzero"><circle fill="#F8A608" cx="62.578" cy="62.578" r="62.578"/><g fill="#FFF"><path d="M37.76 32.894h25.38c16.397 0 29.689 13.292 29.689 29.69 0 16.396-13.292 29.689-29.69 29.689H37.761v-59.38zm6.536 6.535v46.308H63.14c12.788 0 23.154-10.366 23.154-23.154 0-12.787-10.366-23.154-23.154-23.154H44.296z"/><path d="M29.417 58.952H98.6v-6.536H29.417zm0 13.906H98.6v-6.536H29.417z"/></g></g><path d="M39.5 79C61.315 79 79 61.315 79 39.5S61.315 0 39.5 0 0 17.685 0 39.5c0 12.098 5.44 22.926 14.005 30.172A39.325 39.325 0 0 0 39.5 79z" stroke="url(#b)" stroke-width="7" fill="#FFF" transform="translate(178 176)"/><path d="M39.98 3.246a.982.982 0 0 0-.087-.439.527.527 0 0 0-.35-.351.592.592 0 0 0-.436-.175h-6.118V.79c0-.176-.087-.351-.262-.527A.837.837 0 0 0 32.115 0H7.82a.837.837 0 0 0-.612.263.945.945 0 0 0-.175.527v1.49H.828a.592.592 0 0 0-.437.175c-.116.059-.203.176-.262.351a.982.982 0 0 0-.087.439s-.315 10.246.786 13.42c.733 2.113 3.554 5.088 6.642 5.966 1.223 2.924 4.515 5.233 9.876 6.93l.174 5.701-7.34 1.755c-.175 0-.32.087-.438.263-.116.175-.174.321-.174.438V40h20.887v-2.28c0-.118-.058-.264-.175-.44-.117-.175-.262-.262-.437-.262l-7.516-1.755.175-5.702c5.03-1.1 8.351-3.41 9.963-6.93 3.146-.877 5.91-3.852 6.642-5.964 1.1-3.176.874-13.421.874-13.421zM7.034 18.509c-1.34-.468-2.58-1.218-2.884-2.544-.425-1.85-.25-6.68-.145-8.841a1.124 1.124 0 0 1 1.123-1.071h1.906v12.456zm28.84-2.544c-.336 1.345-1.602 2.076-2.884 2.544V6.053h1.912c.598 0 1.09.467 1.123 1.066.116 2.16.31 7.003-.15 8.846z" transform="translate(198 196)" fill="url(#c)"/></g></svg>