<svg width="1000" height="1000" fill="none" xmlns="http://www.w3.org/2000/svg"><g filter="url(#a)"><path d="M1000 500c0 276.142-223.858 500-500 500S0 776.142 0 500 223.858 0 500 0s500 223.858 500 500Z" fill="url(#b)"/></g><path fill-rule="evenodd" clip-rule="evenodd" d="M500 976.19c263.814 0 476.742-213.72 476.742-476.19S763.814 23.81 500 23.81 23.258 237.53 23.258 500 236.186 976.19 500 976.19Zm0 23.81c276.142 0 500-223.858 500-500S776.142 0 500 0 0 223.858 0 500s223.858 500 500 500Z" fill="url(#c)"/><mask id="d" style="mask-type:alpha" maskUnits="userSpaceOnUse" x="100" y="135" width="797" height="780"><path d="M896.071 530.237c-2.696 215.342-183.03 387.573-402.787 384.69-219.757-2.884-395.72-179.791-393.023-395.133 2.696-215.342 183.03-387.574 402.787-384.69 219.757 2.884 395.72 179.791 393.023 395.133Z" fill="#C4C4C4"/></mask><g mask="url(#d)"><path d="m197.725 566.371-11.998-.157-5.122-1.721 1.652 4.983 3.325 8.312 8.363 16.648 10.077 16.67 13.525 15.062 22.096 15.174 20.464 8.537 29.096 3.69 8.57.112.104-8.267 10.47-14.747 19.019-12.981 15.488-4.758 12.019-1.496 23.996.315 22.282.292 17.119 1.879 3.511-6.57 15.57-11.372 15.53-8.065 8.611-3.194 13.733-1.474 8.57.112L509.463 587l41.012 10.461 15.384 3.509-15.24-15.084-21.95-26.749-6.732-10.011-3.324-8.312-1.59-9.944.103-8.267 1.797-6.592 6.96-8.178 8.673-8.155 12.06-4.803 22.323-3.015 58.214 5.726 42.705 12.137 52.781 28.807 38.987 35.241 30.417 35.128 3.325 8.313-5.08-5.028-28.807-26.839-35.704-23.621-42.539-25.365-34.114-13.678-27.32-8.628-37.708-.494-18.916 4.713-10.346 4.825-12.101 8.11-1.776 4.939 10.263 1.788 20.506 5.23 44.335 18.774 49.354 28.762 35.621 30.236 21.951 26.748 10.118 13.363 6.711 11.665-.373 29.763-5.328 14.814-36.47 37.559-39.836 32.553-27.63 16.175-27.59 12.869-20.692 9.651-22.385 7.975-19.728 4.352-13.889 2.37-16.204 2.37-20.833.379-27.778 30.426 37.138 13.085 37.868-1.172 40.8-4.363 32.987-7.338 36.777-10.332 57.826-27.638 45.025-31.58 41.658-35.367 25.892-33.303 23.725-32.695 35.181-76.142 17.742-97.272-80.767-51.617-20.833-16.588-17.026-3.464 30.915-29.711 9.259-30.806v-61.611l-27.778 54.502-30.093 26.066-20.317 9.479-31.804-5.219-18.895 3.06 24.369-29.448 22.654-29.471 14.023-24.623-10.346 4.825-37.936 17.694-32.752 14.455-36.201 16.063-34.404 9.471-30.955 7.863-13.733 1.473 31.308-35.972 15.715-22.947 15.758-26.254 8.818-19.73 7.084-18.099 3.655-18.143.166-13.228-3.283-11.62-52.186 60.505-34.631 27.66-34.57 22.7-34.487 16.085-53.423 22.452-41.426 22.61-36.283 22.677-12.474 37.873-19.248 31.17-22.592 24.51-24.203 16.22-20.692 9.651-20.63 4.691-25.73 1.316Z" fill="url(#e)"/><path d="m366.037 464.587-18.792 30.105 9.176 2.456 6.934-2.244 9.352-11.551 18.5-6.762 11.507.151 9.44-18.554.146-11.672.263-21.009-23.424 32.379-16.198 6.792-6.904-.091Z" fill="#000"/></g><path fill-rule="evenodd" clip-rule="evenodd" d="M498.31 881.05c214.201 0 386.464-171.528 386.464-381.404S712.511 118.242 498.31 118.242 111.846 289.77 111.846 499.646 284.109 881.05 498.31 881.05Zm0 23.809c226.283 0 409.722-181.42 409.722-405.213 0-223.793-183.439-405.213-409.722-405.213S88.588 275.853 88.588 499.646c0 223.793 183.439 405.213 409.722 405.213Z" fill="url(#f)"/><defs><linearGradient id="b" x1="477.86" y1="-602.508" x2="510.729" y2="1006.67" gradientUnits="userSpaceOnUse"><stop stop-color="#686868"/><stop offset="1"/></linearGradient><linearGradient id="c" x1="227" y1="0" x2="746.5" y2="1128.5" gradientUnits="userSpaceOnUse"><stop stop-color="#fff"/><stop offset=".443" stop-color="#E3E3E3" stop-opacity=".56"/><stop offset=".943" stop-color="#fff"/></linearGradient><linearGradient id="e" x1="-243.035" y1="-629.668" x2="951.292" y2="2222.32" gradientUnits="userSpaceOnUse"><stop stop-color="#91FFA2"/><stop offset=".446" stop-color="#2FB845"/><stop offset="1"/></linearGradient><linearGradient id="f" x1="498.31" y1="94.433" x2="498.31" y2="904.859" gradientUnits="userSpaceOnUse"><stop stop-color="#fff"/><stop offset="1" stop-color="#E5E5E5"/></linearGradient><filter id="a" x="0" y="0" width="1000" height="1000" filterUnits="userSpaceOnUse" color-interpolation-filters="sRGB"><feFlood flood-opacity="0" result="BackgroundImageFix"/><feBlend in="SourceGraphic" in2="BackgroundImageFix" result="shape"/><feColorMatrix in="SourceAlpha" values="0 0 0 0 0 0 0 0 0 0 0 0 0 0 0 0 0 0 127 0" result="hardAlpha"/><feOffset/><feGaussianBlur stdDeviation="5.5"/><feComposite in2="hardAlpha" operator="arithmetic" k2="-1" k3="1"/><feColorMatrix values="0 0 0 0 1 0 0 0 0 1 0 0 0 0 1 0 0 0 1 0"/><feBlend in2="shape" result="effect1_innerShadow_344_49"/></filter></defs></svg>
