<svg viewBox="0 0 277 269" fill="none" xmlns="http://www.w3.org/2000/svg"><path d="M151.93 147.732c-1.679-3.357-5.036-7.554-8.394-10.912-.839.84-1.679 3.358-1.679 4.197-.839 3.358.84 3.358 4.197 4.197 1.679 0 3.358.84 5.876 2.518z" fill="url(#a)"/><path fill-rule="evenodd" clip-rule="evenodd" d="M152.77.84C99.888 5.875 57.079 46.166 48.685 98.21c3.358 0 5.876-.84 6.715-.84 0-5.037 1.679-14.27 7.555-20.146 16.788-37.773 53.721-63.794 97.369-63.794 58.758 0 106.603 47.846 106.603 107.443 0 44.488-26.86 82.26-64.633 99.048 28.539-17.627 47.846-50.363 47.846-87.297 0-56.24-45.328-102.406-101.567-102.406-36.094 0-67.152 18.467-84.779 47.006 1.679-1.679 4.197-2.518 6.715-2.518-.84 9.233 5.876 11.752 11.752 6.715 2.518-5.036 5.876-10.073 10.912-13.43 5.876-3.358 13.43-4.197 19.306-4.197 5.036 0 10.073 1.679 14.27 3.358-.84-3.358-5.876-7.555-6.716-7.555 12.591-6.715 33.576 1.679 36.094 15.948.84-6.715 0-13.43 0-13.43 12.591 5.036 13.431 22.664 12.591 28.54l16.788-15.11-15.948 36.094c.839.84.839 2.519 1.678 4.197l.84.84c.839 2.518 1.679 4.197 2.518 6.715.839 1.679 1.679 3.357 2.518 5.876 0 1.678-.839 4.197-1.679 7.554-.839 3.358-1.678 6.715-1.678 8.394.839 3.358.839 6.715 1.678 10.073.84 5.036 2.519 10.073 4.197 13.43.84 1.679.84 3.358 1.679 4.197 5.037 4.197 5.037 11.752 5.037 15.109 0 5.876-8.394 11.752-11.752 14.27-.839 0-.839.839-1.679.839-2.518 1.679-5.036 2.518-6.715 3.358-1.679.839-3.357.839-5.036.839-5.037 0-17.628-7.554-19.306-10.072-.84-.84-1.679-5.037-2.518-9.234-.84-3.357-1.679-6.715-2.519-9.233-1.678-4.197-3.357-5.036-5.036-6.715-2.518-1.679-5.036-3.358-9.233-9.234-1.679 3.358-5.876 13.431-8.394 26.861-.84 4.197-.84 10.912-.84 19.306 0 4.197 0 8.394-.839 12.591 15.948 7.555 32.736 12.591 51.203 12.591 47.006 0 87.297-28.54 105.764-68.83-14.27 58.757-66.313 102.406-129.267 102.406-73.027.839-132.624-59.597-132.624-133.464C7.555 60.436 67.152 0 140.179 0c4.197 0 8.394 0 12.591.84zM47.846 104.084c0 3.357-.84 7.554-.84 10.912 2.518-.839 5.876-.839 8.394-.839h-.84l-7.554 2.518v.839c0 10.073.84 19.306 3.358 28.54v-3.358c0-.839 1.679-9.233 9.233-20.146 0 .84 0 2.519-.84 3.358-.839 4.197-1.678 8.394 0 13.43 0-4.197 2.519-16.788 10.913-20.984-2.518 4.196-4.197 16.787-1.679 20.145 0-6.715 4.197-13.43 10.073-17.627 4.197-3.358 25.182-15.109 25.182-15.109s-4.197 17.627 5.036 19.306c-1.679-4.197.839-11.752 5.036-16.788 1.679-1.679 4.197-3.358 5.876-4.197v-.84c-.839-4.197-.839-9.233.839-12.59 1.679 1.678 5.037 3.357 8.394 4.197 3.358.839 6.716 2.518 10.073 4.197 2.518 1.678 4.197 5.036 5.876 8.393l1.679 2.519.839 1.678v-.839l13.43-13.43c3.358-5.876 4.197-20.985-2.518-27.7 0 4.197 0 22.663-6.715 26.02 5.036-11.75 0-33.575-25.182-33.575 4.197 3.358 7.555 9.233 9.234 12.591 5.036.84 5.875 3.358 7.554 5.036l-.839-.839c-2.518-2.518-10.073-10.073-27.7-10.073-5.876 0-11.752.84-16.788 3.358 8.394-2.518 17.627 2.518 25.182 7.554-.84 0-2.519-.839-3.358-1.678-5.036-1.68-10.912-5.037-19.306-3.358-4.197.84-6.715 3.358-10.073 6.715-1.678 1.679-3.357 3.358-5.876 5.037-5.036 2.518-11.751 2.518-14.27-2.519-1.678-.839-2.517-2.518-2.517-4.197-1.68 1.68-2.519 3.358-3.358 5.037-2.518 3.357-3.357 8.394-2.518 12.59h7.554c2.519 0 5.037.84 7.555 0 3.358-.839 7.554-1.678 10.073-3.357.84-.84 2.518-1.679 3.357-2.518-.84.84-.84 1.679-1.678 2.518-2.519 3.358-5.876 5.037-10.073 5.876a20.47 20.47 0 0 1-10.073 0c-2.518 0-5.876-.84-8.394 0-1.679 0-3.358.839-5.036 1.679-1.679.839-4.197 1.678-6.715 2.518zm120.872-7.555 8.394-8.394-15.109 31.058c-1.679.839-4.197 0-6.715-1.679-1.679-1.679-3.358-3.357-2.518-5.036l3.357-3.358c0 .84.84 1.679 1.679 2.518 1.679 1.679 3.358 2.519 5.876 1.679-.839 0-1.679 0-1.679-.839-2.518-.84-3.357-3.358-4.197-5.037l5.037-5.036c.839 1.679 2.518 3.358 5.036 2.518-1.679 0-3.358-2.518-4.197-4.197l3.358-4.197c.839.84 1.678.84 2.518.84 0 .84-.84 0-.84-.84zm-27.7 48.685c-1.678-1.679-1.678-3.357-1.678-5.876 0-1.678.839-4.197 2.518-5.875-1.679-1.679-4.197-2.519-6.715-2.519 5.875-1.678 10.072.84 14.269 5.037 2.518 2.518 5.876 9.233 6.715 11.751.84 2.518 5.876.84 5.876.84-.839 1.678-3.357 3.357-5.876 3.357-1.678 0-1.678-.839-2.518-1.679v-.839l-7.554-2.518c-2.519 0-4.197-.839-5.037-1.679zm31.058 41.13c-.84-5.036-1.679-8.394-4.197-8.394 0 0 .839-1.678 2.518-.839 2.518 1.679 1.679 5.876 1.679 9.233zm1.679.84c.839-4.197-.84-13.43-5.037-13.43-2.518 0-4.197.839-5.036 1.678l-.839.84v-1.679c0-4.197-1.679-7.555-3.358-11.752-.839-1.678-.839-2.518-1.679-4.197 3.358 3.358 5.876 7.555 7.555 11.752.839-.839 2.518-.839 4.197.839 6.715 3.358 6.715 12.591 4.197 15.949zm-9.234 9.233c-5.036-1.679-15.109-5.876-15.109-8.394 0-1.679 0-4.197 1.679-5.036.839 2.518 3.358 4.197 6.715 5.876 0 0-4.197-4.197-4.197-7.555h.84c1.678 0 2.518 2.518 3.357 5.036.84 3.358 3.358 7.555 6.715 10.073zm-14.269-45.327c-3.358 1.679-8.394.839-10.912-.84-3.358-1.678-5.037-5.875-5.037-9.233.84.84.84 1.679.84 2.518.839 2.519 2.518 4.197 5.036 5.876 1.679.839 5.036 1.679 7.554 1.679h2.519zm-70.51 29.379v5.875c-2.518-3.357-3.357-7.554-2.518-11.751 1.68-22.664 20.146-37.773 20.985-38.612-11.751 15.948-15.948 28.539-17.627 36.933-.84 1.679-.84 5.036-.84 7.555z" fill="url(#b)"/><path d="M219.921 132.623c0 38.612-21.824 73.027-52.881 89.815 40.29-9.233 69.669-45.327 69.669-88.136 0-39.452-25.182-73.027-59.597-85.618 26.021 18.466 42.809 49.524 42.809 83.939z" fill="url(#c)"/><path d="M193.9 130.945s-.839-7.555-3.358-10.073c-2.518-2.518-10.072-3.358-10.072-3.358s6.715-.839 10.072-3.357c2.519-2.518 3.358-10.073 3.358-10.073s.839 7.555 3.358 10.073c2.518 2.518 10.072 3.357 10.072 3.357s-6.715.84-10.072 3.358c-3.358 2.518-3.358 10.073-3.358 10.073z" fill="url(#d)"/><path d="M124.231 207.331c2.518 2.518 2.518 7.555 2.518 7.555s0-5.037 2.518-7.555 7.555-2.518 7.555-2.518-5.037 0-7.555-2.518-2.518-7.555-2.518-7.555 0 5.037-2.518 7.555-7.555 2.518-7.555 2.518 5.876 0 7.555 2.518z" fill="url(#e)"/><path d="M203.133 151.09s0-3.358-1.679-5.036c-1.678-1.679-5.036-1.679-5.036-1.679s3.358 0 5.036-1.679c1.679-1.679 1.679-5.036 1.679-5.036s0 3.357 1.679 5.036c1.679 1.679 5.036 1.679 5.036 1.679s-3.357 0-5.036 1.679c-.839 1.678-1.679 5.036-1.679 5.036z" fill="url(#f)"/><defs><linearGradient id="a" x1="146.787" y1="136.82" x2="146.787" y2="147.732" gradientUnits="userSpaceOnUse"><stop/><stop offset=".5" stop-color="#1E4169"/><stop offset="1" stop-color="#3A619D"/></linearGradient><linearGradient id="b" x1="138.5" y1="0" x2="138.5" y2="267.775" gradientUnits="userSpaceOnUse"><stop/><stop offset=".5" stop-color="#1E4169"/><stop offset="1" stop-color="#3A619D"/></linearGradient><linearGradient id="c" x1="201.874" y1="48.684" x2="201.874" y2="222.438" gradientUnits="userSpaceOnUse"><stop/><stop offset=".5" stop-color="#1E4169"/><stop offset="1" stop-color="#3A619D"/></linearGradient><linearGradient id="d" x1="193.9" y1="104.084" x2="193.9" y2="130.945" gradientUnits="userSpaceOnUse"><stop/><stop offset=".5" stop-color="#1E4169"/><stop offset="1" stop-color="#3A619D"/></linearGradient><linearGradient id="e" x1="126.749" y1="194.74" x2="126.749" y2="214.886" gradientUnits="userSpaceOnUse"><stop/><stop offset=".5" stop-color="#1E4169"/><stop offset="1" stop-color="#3A619D"/></linearGradient><linearGradient id="f" x1="203.133" y1="137.66" x2="203.133" y2="151.09" gradientUnits="userSpaceOnUse"><stop/><stop offset=".5" stop-color="#1E4169"/><stop offset="1" stop-color="#3A619D"/></linearGradient></defs></svg>