<svg fill="none" xmlns="http://www.w3.org/2000/svg" viewBox="0 0 32 32"><path d="M29.885 23.917c.416-.725.773-1.483 1.066-2.266l-10.345-.907a6.628 6.628 0 0 0-2.434-11.005 6.616 6.616 0 0 0-7.825 2.79 6.63 6.63 0 0 0 1.057 8.244 6.619 6.619 0 0 0 4.01 1.822l14.471 1.322zM15.61 20.37a4.387 4.387 0 0 1-4.036-4.552 4.393 4.393 0 0 1 4.384-4.217 4.387 4.387 0 0 1 4.385 4.217 4.393 4.393 0 0 1-4.036 4.552 4.203 4.203 0 0 1-.552 0h-.145z" fill="#111"/><path d="M26.194 28.311a16.048 16.048 0 0 0 2.24-2.257l-12.992-1.14c-.077 0-.156-.008-.231-.015a3.445 3.445 0 0 1-.228-.025l-.095-.008a8.929 8.929 0 0 1-7.49-6.415 8.945 8.945 0 0 1 2.974-9.407 8.929 8.929 0 0 1 13.467 2.69 8.945 8.945 0 0 1 1.046 5.045 8.844 8.844 0 0 1-1.49 4.21l2.677.233a11.362 11.362 0 0 0-2.087-13.296 11.343 11.343 0 0 0-18.21 3.145A11.363 11.363 0 0 0 8.26 24.298a11.343 11.343 0 0 0 6.423 2.975l11.511 1.038z" fill="#111"/><path d="M14.595 31.937a15.884 15.884 0 0 0 8.542-1.628c.02-.008.036-.02.055-.03l-8.394-.735a13.594 13.594 0 0 1-7.752-3.295 13.612 13.612 0 0 1-3.569-15.626A13.606 13.606 0 0 1 9.03 4.285a13.591 13.591 0 0 1 15.946 1.497 13.612 13.612 0 0 1 3.463 15.65l2.508.22A16.012 16.012 0 0 0 26.26 3.737 15.982 15.982 0 0 0 1.372 9.516a16.012 16.012 0 0 0 3.672 18.149 15.984 15.984 0 0 0 9.229 4.242c.107.011.214.02.322.03z" fill="#111"/><path d="M24.885 16.779a3.662 3.662 0 0 1-.024.23l.04-.46c-.002.075-.01.154-.016.23z" fill="#111"/></svg>