<svg data-name="pangolin (1)" xmlns="http://www.w3.org/2000/svg" width="292.33" height="295.002"><path data-name="Path 1" d="M58.45 216.2c.68 1.23 1.1 2.13 1.28 2.53 4.25 8.24 9.46 16.55 16.59 21.27l.7.44c8.06 4.99 22.5 9.31 37.35 11.7.99-11.46 7.86-21.85 14.67-29.5a95.5 95.5 0 0 1-27.44 4.06 93.47 93.47 0 0 1-43.15-10.5zm113.67-43.61c-8.47-2.73-21.16-15.44-40.43-10.83-15.9 3.8-20.67 14.88-23.2 18.91-5.93-5.84-12.22-9.8-17.44-10.7a10.113 10.113 0 0 0-8.06 1.66c-2.7 2.06-2.77 2.13 15.22 39.56l1.5 3.11a1.4 1.4 0 0 0 .1.16l1.62 3.34s1.03 3.5 7.01 1.84c0 0 41.42-3.96 57.18-32.62q3.449-7.129 6.5-14.44zM8.32 122.56c.13-2.4-.03-7.75-3.47-10.5a137.69 137.69 0 0 0-4.74 31.15A16.8 16.8 0 0 1 9 146.89c-.77-4.95-2.4-13.33-.67-24.33zM164.3 248.1c-6.76-7.32-7.91-21.01-3.39-40.88.36-1.56.75-3.11 1.14-4.64-6.43 6.89-17.15 13.62-23.74 20-7.29 7.06-16.47 18.36-17.35 30.49a117.618 117.618 0 0 0 22.07.9c12.8-.94 18.96-4.84 21.27-5.87zm78.05-172.48a59.759 59.759 0 0 1 8 13.03c4.62 8.7 19.69 33.45 39.58 28.71a174.484 174.484 0 0 0-4.7-21.13c-.14-.42-.28-.84-.44-1.27l.07-.02a151.509 151.509 0 0 0-7.57-20.05c-11.42 4.78-24.85 3.24-34.94.73zm-20.73-51.14a3.33 3.33 0 0 1 .83 3.72c-4.93 11.9-16.15 21.7-25.75 28.34 8.8-.13 20.44 1.6 34.07 8.22 4.35 1.84 27.06 10.8 43.6 4.16a2.853 2.853 0 0 1-.16-.3c-.33-.64-.69-1.27-1.03-1.9a143.62 143.62 0 0 0-47.55-50.24A119.98 119.98 0 0 0 178.26 0a42.24 42.24 0 0 1-2.56 24.54c25.38-11.14 38.9-6.48 45.92-.06zM170.88 245.1q15.624-7.155 30.58-15.65a17.891 17.891 0 0 1-1.86-.87c-12.33-6.74-19.23-29.94-22.34-50.21q-.656 1.723-1.4 3.41a198.8 198.8 0 0 0-8.45 27c-5.38 23.63-1.34 32.84 3.47 36.31zm79.76-116.84c-15.5 8.61-30.77 12.94-45.65 12.94a75.8 75.8 0 0 1-24.566-4.1c2.736 11.035.726 22.165 2.346 32.225.75.26 1.52.53 2.3.77 22.85 7.49 40.6 8.79 51.33 3.76a20.56 20.56 0 0 0 7.53-5.87c7.5-9.45 7.05-29.18 6.7-39.73z" fill="#ff6b00"/><path data-name="Path 2" d="m214.72 221.1.02.03c15.93-9.4 25.5-31.11 28.86-43.75a30.005 30.005 0 0 1-4.37 2.52c-5.49 2.57-11.97 3.63-18.9 3.63-11.8 0-24.9-3.06-36.58-6.83 2.98 19.53 9.5 40.81 19.06 46.04 3.57 1.95 7.47 1.42 11.91-1.64zm-36.02-91.73a74.292 74.292 0 0 0 8.33 2.8c20.11 5.38 41.4 1.55 63.3-11.4-.22-12.1-2.58-21.69-6.02-29.29-.93-1.78-1.43-2.9-1.5-3.04h.01a50.44 50.44 0 0 0-15.96-18.15c-14.86-6.98-27.03-7.6-34.99-6.71 22.76 8.95 26.64 21.84 26.82 22.46l.16.54a2.63 2.63 0 0 1-1.36 3.07l-.5.25c-21.88 11.08-42.58 4.89-53.89-.42 3.33 7.87 7.75 18.39 9.47 22.46l.04-.02q1.065 2.43 2.08 5.06l.04.1a118.853 118.853 0 0 1 3.96 12.29zm74.17 96.23c-5.85-8.44-7.77-20.73-8.05-32.03a136.261 136.261 0 0 1-6.17 12.73l.01.01a17.309 17.309 0 0 1-1.09 2.08c-3.4 6.68-14.38 30.08-9.28 45.11a16.8 16.8 0 0 0 8.26 9.79 136.924 136.924 0 0 0 27.84-28.6 23.66 23.66 0 0 1-11.52-9.08zM29.54 192.73c-7.56-9.9-13.02-18.42-15.77-27.4-1.51-4.94-6.61-14.24-13.77-15.38a145.342 145.342 0 0 0 6.45 41.94 52.835 52.835 0 0 1 23.09.84z" fill="#ff6b00"/><path data-name="Path 3" d="M221.97 255.62c-3.47-10.28-.9-23.15 2.6-33.56q-2.982 2.347-6.11 4.5l.02.03-1.08.68q-3.846 2.623-7.82 5.05l.02.03c-1.56.97-37.54 23.73-20.37 56.22a145.85 145.85 0 0 0 41.9-20.81 23.14 23.14 0 0 1-9.16-12.14zm68.88-131.64a28.753 28.753 0 0 1-6.02.66c-9.88 0-19.66-5.29-28.68-15.62a.56.56 0 0 0-.08-.09 97.206 97.206 0 0 1 .93 13.58c.1 1.4.18 2.8.24 4.19.7 7.93 3.46 25.53 14.15 34.97 5.21 4.61 11.8 6.71 19.63 6.29.07-.31.14-.67.2-1.04a146.706 146.706 0 0 0 1.11-18.03 202.523 202.523 0 0 0-1.48-24.91z" fill="#ff6b00"/><path data-name="Path 4" d="M266.97 166.64a42.989 42.989 0 0 1-10.73-15.57 156.494 156.494 0 0 1-2.84 15.99c-.87 5.13-6.01 38.98 4.94 54.76a16.747 16.747 0 0 0 10.02 7.14 139.73 139.73 0 0 0 12.86-24.3l.04.02a144.7 144.7 0 0 0 8.81-30.03c-9.05.23-16.8-2.45-23.1-8.01zM60.63 233.3a112.824 112.824 0 0 1-8.57-15.05c-4.17-7.29-16.8-23.95-43.45-19.97a146.37 146.37 0 0 0 22.94 41.19c7.95-8.38 19.15-8.72 29.08-6.17zm84.29 27.27c-9.72.81-21.12-.02-32.16-1.89-8.06-.85-30.53-1.68-46.25 12.7a145.24 145.24 0 0 0 61.2 22.52c-.27-9.79 4.27-19.9 13.3-29.46 1.3-1.4 2.62-2.68 3.9-3.87zm-71.79-14.71c-3.67-2.2-25.38-14.35-37.1-1.47a135.248 135.248 0 0 0 24.9 23.11c8.63-8.43 19.03-12.58 28.53-14.47a65.431 65.431 0 0 1-16.33-7.17zm114.27-1.36c-8.2 4.12-30.28 11.59-42.91 26.01-5.66 6.46-10.62 14.73-10.1 23.87a131.963 131.963 0 0 0 28-.24l1.96-.22.8-.1a143.885 143.885 0 0 0 17.55-3.38c-9.31-18.76-3.49-34.69 4.7-45.94zM57.8 169.46c.41.32 1.12.78 3.42.78 2.76 0 7.82-.67 17.44-3.11a223.274 223.274 0 0 0 34.75-12c1.55-.72 5.5-2.64 10.06-4.9a18.683 18.683 0 0 1 3.7 6.06c26-5.68 35.89 5.6 46.77 9.82 2.23-10.62 1.87-24.53-.84-31.88-25.26-11.28-41.35-33.17-47.29-42.44-5.94 4.62-14.8 10.77-20.18 21.65-10.94 22.12-22.48 42.01-43.1 48.35-3.53 1.09-5.83 1.96-6.13 4.52a3.53 3.53 0 0 0 1.4 3.15z" fill="#ff6b00"/><path data-name="Path 5" d="M75.26 122.46c6.03-4.34 16.9-12.1 20.7-15.22 6.92-5.69 26.05-20.8 30.87-24.61a1.16 1.16 0 0 1 1.76.4c14.9 29.65 42.11 42.59 42.11 42.59q-1.755-5.43-4.2-11.04l.03-.01-5.7-13.45-3.6-8.49c-2.04-4.77-3.62-8.5-4.08-9.52l-4.34-9.93a.355.355 0 0 1 .54-.42l8.8 6.33c.25.18 25.63 17.91 52.85 6.27-2.76-4.4-10.9-13.6-32.66-19.13l-7.43-1.89a.587.587 0 0 1-.1-1.1l6.93-3.26c.29-.13 28.06-13.37 37.5-32.08-12.42-8.5-34.1.8-46.32 7.34l-13.93 7.48a.345.345 0 0 1-.42-.53l10.24-12.03a36.433 36.433 0 0 0 6.8-29.47c-6.79-1.05-29.8-2.65-50.15 18.62l-4.06 4.25a.62.62 0 0 1-1.06-.37l-1.7-16.83c-10.16 4.35-37.01 19.38-40.98 57.9A190.75 190.75 0 0 1 67 99.75l-.02-.02-.4 1.41q-1.59 5-3.45 9.38a45.08 45.08 0 0 1-3.38 6.07c-2.23 3.34-1.23 5.57-.3 6.49 1.8 1.84 10.7 3.06 15.81-.62zM105.4 59.4c4.51-2.9 9.3 1.9 6.41 6.42a2.44 2.44 0 0 1-.75.75 4.583 4.583 0 0 1-6.42-6.41 2.749 2.749 0 0 1 .76-.76zm-23.79 0c4.52-2.9 9.3 1.9 6.41 6.42a2.44 2.44 0 0 1-.75.75c-4.52 2.9-9.31-1.9-6.41-6.41a2.714 2.714 0 0 1 .75-.76z" fill="#ff6b00"/></svg>