<svg xmlns="http://www.w3.org/2000/svg" viewBox="0 0 5.5 5.5" xml:space="preserve"><path d="M4.09 1.45a.343.343 0 0 0-.34 0l-.78.46-.53.3-.78.46c-.1.06-.23.06-.34 0L.7 2.31a.345.345 0 0 1-.17-.29v-.71c0-.12.06-.23.17-.29l.61-.35c.1-.06.23-.06.34 0l.61.35c.1.06.17.17.17.29v.46l.53-.31V1c0-.12-.06-.23-.17-.29L1.66.05a.343.343 0 0 0-.34 0L.17.71C.06.77 0 .88 0 1v1.33c0 .12.06.23.17.29l1.15.66c.1.06.23.06.34 0l.78-.45.53-.31.78-.45c.1-.06.23-.06.34 0l.61.35c.1.06.17.17.17.29v.71c0 .12-.06.23-.17.29l-.61.36c-.1.06-.23.06-.34 0l-.61-.35a.345.345 0 0 1-.17-.29v-.46l-.53.31v.46c0 .12.06.23.17.29l1.15.66c.1.06.23.06.34 0l1.15-.66c.1-.06.17-.17.17-.29V2.41c0-.12-.06-.23-.17-.29l-1.16-.67z" style="fill:#8247e5"/></svg>