<svg viewBox="0 0 231.07 231.07" xmlns="http://www.w3.org/2000/svg" xmlns:xlink="http://www.w3.org/1999/xlink"><defs><linearGradient gradientTransform="matrix(98.88 -49.806 -49.806 -98.88 518.44 970.01)" gradientUnits="userSpaceOnUse" id="a" x2="1"><stop offset="0" stop-color="#8277a6"/><stop offset="1" stop-color="#655880"/></linearGradient><linearGradient gradientTransform="matrix(71.844 105.37 105.37 -71.844 587.26 874.18)" gradientUnits="userSpaceOnUse" id="b" x2="1"><stop offset="0" stop-color="#665a82"/><stop offset=".237" stop-color="#73638d"/><stop offset="1" stop-color="#b4a6d1"/></linearGradient><linearGradient gradientTransform="translate(-.025 2048.4) scale(96.735)" gradientUnits="userSpaceOnUse" id="c" x2="1"><stop offset="0" stop-color="#73638d"/><stop offset=".609" stop-color="#b4a6d1"/><stop offset="1" stop-color="#b4a6d1"/></linearGradient><linearGradient gradientTransform="matrix(75.533 83.327 83.327 -75.533 640.81 953.56)" gradientUnits="userSpaceOnUse" id="d" x2="1"><stop offset="0" stop-color="#b0a0ce"/><stop offset="1" stop-color="#cec6e2"/></linearGradient><linearGradient gradientTransform="matrix(10.653 31.958 31.958 -10.653 547.86 960.58)" gradientUnits="userSpaceOnUse" id="e" x2="1"><stop offset="0" stop-color="#887cae"/><stop offset="1" stop-color="#7a6e9b"/></linearGradient><linearGradient gradientTransform="matrix(-50.172 0 0 50.172 607.88 1048.4)" gradientUnits="userSpaceOnUse" id="f" x2="1"><stop offset="0" stop-color="#b0a0ce"/><stop offset="1" stop-color="#887cae"/></linearGradient><linearGradient gradientTransform="scale(48.8 -48.8) rotate(43.505 32.774 5.137)" gradientUnits="userSpaceOnUse" id="g" x2="1"><stop offset="0" stop-color="#b0a0ce"/><stop offset="1" stop-color="#cec6e2"/></linearGradient><linearGradient gradientTransform="matrix(98.88 -49.806 -49.806 -98.88 518.44 970.01)" gradientUnits="userSpaceOnUse" id="h" x2="1" xlink:href="#a"/><linearGradient gradientTransform="matrix(71.844 105.37 105.37 -71.844 587.26 874.18)" gradientUnits="userSpaceOnUse" id="j" x2="1" xlink:href="#b"/><linearGradient gradientTransform="translate(-.025 2048.4) scale(96.735)" gradientUnits="userSpaceOnUse" id="l" x2="1" xlink:href="#c"/><linearGradient gradientTransform="matrix(75.533 83.327 83.327 -75.533 640.81 953.56)" gradientUnits="userSpaceOnUse" id="m" x2="1" xlink:href="#d"/><linearGradient gradientTransform="matrix(10.653 31.958 31.958 -10.653 547.86 960.58)" gradientUnits="userSpaceOnUse" id="o" x2="1" xlink:href="#e"/><linearGradient gradientTransform="matrix(-50.172 0 0 50.172 607.88 1048.4)" gradientUnits="userSpaceOnUse" id="q" x2="1" xlink:href="#f"/><linearGradient gradientTransform="scale(48.8 -48.8) rotate(43.505 32.774 5.137)" gradientUnits="userSpaceOnUse" id="s" x2="1" xlink:href="#g"/><clipPath id="i"><path d="M0 2000h2000V0H0z"/></clipPath><clipPath id="k"><path d="M0 2000h2000V0H0z"/></clipPath><clipPath id="n"><path d="M0 2000h2000V0H0z"/></clipPath><clipPath id="p"><path d="M0 2000h2000V0H0z"/></clipPath><clipPath id="r"><path d="M0 2000h2000V0H0z"/></clipPath><clipPath id="t"><path d="M0 2000h2000V0H0z"/></clipPath></defs><path d="m498 932.51 96.808-49.373v96.809z" fill="url(#h)" transform="matrix(.98806 0 0 -.98806 -491.993 1103.608)"/><g clip-path="url(#i)" transform="matrix(.98806 0 0 -.98806 -491.993 1103.608)"><path d="m594.81 883.14-96.808 49.372 96.808 47.437Z" fill="none" stroke="#726792" stroke-miterlimit="10" stroke-width=".05"/></g><path d="m594.81 883.14 96.654 49.167-96.654 47.642z" fill="url(#j)" transform="matrix(.98806 0 0 -.98806 -491.993 1103.608)"/><g clip-path="url(#k)" transform="matrix(.98806 0 0 -.98806 -491.993 1103.608)"><path d="m0 0 96.654-47.642L0-96.809Z" fill="none" stroke="url(#l)" stroke-miterlimit="10" stroke-width=".05" transform="translate(594.81 979.95)"/></g><path d="m594.81 979.95 96.654-47.642-39.488 75.547z" fill="url(#m)" transform="matrix(.98806 0 0 -.98806 -491.993 1103.608)"/><g clip-path="url(#n)" transform="matrix(.98806 0 0 -.98806 -491.993 1103.608)"><path d="m651.97 1007.9 39.489-75.546-96.654 47.641z" fill="none" stroke="#b6a7d2" stroke-miterlimit="10" stroke-width=".05"/></g><path d="m498 932.51 96.808 47.436-57.104 28.027z" fill="url(#o)" transform="matrix(.98806 0 0 -.98806 -491.993 1103.608)"/><g clip-path="url(#p)" transform="matrix(.98806 0 0 -.98806 -491.993 1103.608)"><path d="m537.7 1008 57.104-28.026-96.808-47.437z" fill="none" stroke="#8073a3" stroke-miterlimit="10" stroke-width=".05"/></g><path d="m537.7 1008 57.104-28.027v136.91z" fill="url(#q)" transform="matrix(.98806 0 0 -.98806 -491.993 1103.608)"/><g clip-path="url(#r)" transform="matrix(.98806 0 0 -.98806 -491.993 1103.608)"><path d="M594.81 979.95v136.91l-57.104-108.89z" fill="none" stroke="#9689bd" stroke-miterlimit="10" stroke-width=".05"/></g><path d="m594.81 979.95 57.166 27.905-57.166 109.01z" fill="url(#s)" transform="matrix(.98806 0 0 -.98806 -491.993 1103.608)"/><g clip-path="url(#t)" transform="matrix(.98806 0 0 -.98806 -491.993 1103.608)"><path d="M594.81 979.95v136.91l57.165-109.01z" fill="none" stroke="#b0a0ce" stroke-miterlimit="10" stroke-width=".05"/></g><path d="m498 932.51 96.808-49.373v96.809z" fill="url(#h)" transform="matrix(.98806 0 0 -.98806 -491.993 1103.608)"/><g clip-path="url(#i)" transform="matrix(.98806 0 0 -.98806 -491.993 1103.608)"><path d="m594.81 883.14-96.808 49.372 96.808 47.437Z" fill="none" stroke="#726792" stroke-miterlimit="10" stroke-width=".05"/></g><path d="m594.81 883.14 96.654 49.167-96.654 47.642z" fill="url(#j)" transform="matrix(.98806 0 0 -.98806 -491.993 1103.608)"/><g clip-path="url(#k)" transform="matrix(.98806 0 0 -.98806 -491.993 1103.608)"><path d="m0 0 96.654-47.642L0-96.809Z" fill="none" stroke="url(#l)" stroke-miterlimit="10" stroke-width=".05" transform="translate(594.81 979.95)"/></g><path d="m594.81 979.95 96.654-47.642-39.488 75.547z" fill="url(#m)" transform="matrix(.98806 0 0 -.98806 -491.993 1103.608)"/><g clip-path="url(#n)" transform="matrix(.98806 0 0 -.98806 -491.993 1103.608)"><path d="m651.97 1007.9 39.489-75.546-96.654 47.641z" fill="none" stroke="#b6a7d2" stroke-miterlimit="10" stroke-width=".05"/></g><path d="m498 932.51 96.808 47.436-57.104 28.027z" fill="url(#o)" transform="matrix(.98806 0 0 -.98806 -491.993 1103.608)"/><g clip-path="url(#p)" transform="matrix(.98806 0 0 -.98806 -491.993 1103.608)"><path d="m537.7 1008 57.104-28.026-96.808-47.437z" fill="none" stroke="#8073a3" stroke-miterlimit="10" stroke-width=".05"/></g><path d="m537.7 1008 57.104-28.027v136.91z" fill="url(#q)" transform="matrix(.98806 0 0 -.98806 -491.993 1103.608)"/><g clip-path="url(#r)" transform="matrix(.98806 0 0 -.98806 -491.993 1103.608)"><path d="M594.81 979.95v136.91l-57.104-108.89z" fill="none" stroke="#9689bd" stroke-miterlimit="10" stroke-width=".05"/></g><path d="m594.81 979.95 57.166 27.905-57.166 109.01z" fill="url(#s)" transform="matrix(.98806 0 0 -.98806 -491.993 1103.608)"/><g clip-path="url(#t)" transform="matrix(.98806 0 0 -.98806 -491.993 1103.608)"><path d="M594.81 979.95v136.91l57.165-109.01z" fill="none" stroke="#b0a0ce" stroke-miterlimit="10" stroke-width=".05"/></g></svg>
