<svg xmlns="http://www.w3.org/2000/svg" viewBox="0 0 81 88" class="w-6 h-8"><g data-name="Group 4686"><g data-name="Group 4685"><circle data-name="Ellipse 67" cx="40.5" cy="40.5" r="40.5" transform="translate(0 7)" fill="#716ac1"/><g data-name="Group 4662"><g data-name="Group 68"><g data-name="Group 64"><circle data-name="Ellipse 58" cx="40.292" cy="40.292" r="40.292" fill="#fff"/><path data-name="Path 27" d="M40.291 2.518A37.774 37.774 0 1 1 2.518 40.291 37.817 37.817 0 0 1 40.291 2.518m0-2.518a40.292 40.292 0 1 0 40.293 40.291A40.291 40.291 0 0 0 40.291 0z" fill="#0d124d"/></g></g></g></g><g data-name="Group 4664" fill="#0d124d"><path data-name="Path 17" d="M40.292 34.051V15.498L24.521 40.545z" opacity=".6"/><path data-name="Path 18" d="M40.292 34.051V15.498l15.771 25.048z" opacity=".8"/><path data-name="Path 19" d="M40.292 34.052v15.771l-15.771-9.277z" opacity=".8"/><path data-name="Path 20" d="M40.292 34.052v15.771l15.771-9.277z"/><path data-name="Path 21" d="m24.521 44.257 15.771 9.277v12.06z" opacity=".6"/><path data-name="Path 22" d="m56.063 44.257-15.771 9.277v12.06z" opacity=".8"/></g></g></svg>