<?xml version="1.0" encoding="UTF-8"?>
<svg viewBox="2203 0 800 800" version="1.1" xmlns="http://www.w3.org/2000/svg">
    <title>bunny-label</title>
    <g id="bunny-label" stroke="none" stroke-width="1" fill="none" fill-rule="evenodd">
        <g id="Group" transform="translate(2203.000000, 0.000000)" fill="#EC6998" fill-rule="nonzero">
            <g id="Combined-Shape">
                <path d="M289.679376,539.592068 C306.002442,539.592068 319.685011,544.988669 330.727085,555.78187 C341.769159,566.575071 347.290195,580.366383 347.290195,597.155807 C347.290195,613.945231 341.769159,627.616619 330.727085,638.169972 C319.685011,648.723324 306.002442,654 289.679376,654 C273.836401,654 260.273854,648.723324 248.991736,638.169972 C237.709617,627.616619 232.068557,613.945231 232.068557,597.155807 C232.068557,580.366383 237.709617,566.575071 248.991736,555.78187 C260.273854,544.988669 273.836401,539.592068 289.679376,539.592068 Z M510.040759,539.592068 C526.363824,539.592068 540.046394,544.988669 551.088467,555.78187 C562.130541,566.575071 567.651578,580.366383 567.651578,597.155807 C567.651578,613.945231 562.130541,627.616619 551.088467,638.169972 C540.046394,648.723324 526.363824,654 510.040759,654 C494.197784,654 480.635237,648.723324 469.353118,638.169972 C458.070999,627.616619 452.42994,613.945231 452.42994,597.155807 C452.42994,580.366383 458.070999,566.575071 469.353118,555.78187 C480.635237,544.988669 494.197784,539.592068 510.040759,539.592068 Z M336.488167,146 L336.488167,279.835694 L336.486569,282.128983 C336.46916,294.600728 336.309509,306.740845 336.007616,318.549334 C356.724668,316.005084 377.888985,314.733711 399.5,314.733711 C421.617197,314.733711 443.266525,316.065338 464.447985,318.728593 C464.116954,306.108025 463.952104,293.143438 463.952104,279.835694 L463.952104,279.835694 L463.952104,146 L556.849549,146 L556.849549,279.835694 L556.847951,282.128983 C556.820126,302.063071 556.428916,321.149954 555.674321,339.389631 C561.63908,341.382934 567.562124,343.498073 573.442665,345.734183 C627.792872,366.401165 676.311983,394.543437 719,430.161001 L719,430.161001 L682.033058,486.225685 L680.648945,485.204036 C641.845168,456.672008 598.958398,434.366822 551.988636,418.28848 C551.289388,418.049118 550.589425,417.811517 549.888748,417.575677 C547.536504,441.335808 544.815627,465.218512 541.726709,489.223796 L541.726709,489.223796 L479.795079,489.223796 L479.146362,484.645606 C475.10763,455.883812 471.77381,427.21006 469.144902,398.62435 C446.57156,395.463934 423.356328,393.883853 399.5,393.883853 C376.146942,393.883853 353.428695,395.397971 331.34526,398.426207 C328.612373,428.495317 325.285194,458.760856 321.365327,489.223796 L321.365327,489.223796 L259.433696,489.223796 L258.78498,484.645606 C255.619779,462.104659 252.887538,439.617788 250.588257,417.184993 C249.505018,417.549269 248.422331,417.916751 247.341426,418.28848 C200.032541,434.558231 156.57438,457.203966 116.966942,486.225685 L116.966942,486.225685 L80,430.161001 L81.3358987,429.050385 C123.699464,393.957951 171.773276,366.185884 225.557335,345.734183 C231.910336,343.318418 238.312944,341.043842 244.765159,338.910455 C243.982184,320.035059 243.590721,300.342817 243.590721,279.835694 L243.590721,279.835694 L243.590721,146 L336.488167,146 Z"></path>
            </g>
        </g>
    </g>
</svg>
