<svg width="1000" height="1000" xmlns="http://www.w3.org/2000/svg">

 <title>dforce</title>
 <g>
  <title>background</title>
  <rect fill="none" id="canvas_background" height="1002" width="1002" y="-1" x="-1"/>
 </g>
 <g>
  <title>Layer 1</title>
  <path fill="#d5a24e" d="m183.736912,648.206245l0,215.08l-36.84,0l0,-76.7q0,-18.71 -12.89,-31.3a44,44 0 0 0 -62.28,62.28a39.67,39.67 0 0 0 14.27,9.67a45.79,45.79 0 0 0 17,3.22a41.85,41.85 0 0 0 16.26,-3.07l13.19,32.83q-14.12,7.06 -32.52,7.06a76.38,76.38 0 0 1 -31.14,-6.29a75.36,75.36 0 0 1 -24.7,-17.34a79.92,79.92 0 0 1 -16.19,-25.77a87.74,87.74 0 0 1 0,-62.9a79.92,79.92 0 0 1 16.26,-25.77a75.45,75.45 0 0 1 24.7,-17.34a76.38,76.38 0 0 1 31.14,-6.29a71.4,71.4 0 0 1 26.39,4.6a80.35,80.35 0 0 1 20.51,11.66l0,-73.63l36.84,0z" class="cls-1" id="_复合路径_"/>
  <path fill="#070237" d="m257.366912,685.326245l0,52.16l80.08,0l9.2,36.82l-89.28,0l0,89l-36.82,0l0,-214.8l144.51,0l0,36.82l-107.69,0z" class="cls-2" id="_复合路径_2"/>
  <path fill="#070237" d="m449.126912,705.576245a79.67,79.67 0 0 1 31.6,6.29a80.85,80.85 0 0 1 43.11,43.11a81.77,81.77 0 0 1 0,62.9a80.85,80.85 0 0 1 -43.11,43.11a82.53,82.53 0 0 1 -63.2,0a80.85,80.85 0 0 1 -43.11,-43.11a81.76,81.76 0 0 1 0,-62.9a80.85,80.85 0 0 1 43.11,-43.11a79.66,79.66 0 0 1 31.6,-6.29zm0,36.82a44,44 0 0 0 -31.3,75.17a39.67,39.67 0 0 0 14.27,9.67a45.79,45.79 0 0 0 17,3.22a44.65,44.65 0 0 0 16.88,-3.22a43.14,43.14 0 0 0 14.42,-9.67a44.07,44.07 0 0 0 0,-62.28q-13.5,-12.89 -31.27,-12.89z" class="cls-2" id="_复合路径_3"/>
  <path fill="#070237" d="m614.046912,709.876245a62.91,62.91 0 0 1 24.7,-4.6l0,36.82a42.61,42.61 0 0 0 -31.3,12.89q-12.89,13.5 -12.89,31.3l0,77l-36.82,0l0,-153.72l36.82,0l0,12a78.77,78.77 0 0 1 19.49,-11.69z" class="cls-2" id="_复合路径_4"/>
  <path fill="#070237" d="m795.526912,843.646245a81.07,81.07 0 0 1 -25.77,17.34a82.53,82.53 0 0 1 -63.2,0a80.85,80.85 0 0 1 -43.11,-43.11a81.76,81.76 0 0 1 0,-62.9a80.85,80.85 0 0 1 43.11,-43.11a82.54,82.54 0 0 1 63.2,0a81.18,81.18 0 0 1 25.77,17.34l-26.08,26.08a42.61,42.61 0 0 0 -31.3,-12.89q-17.8,0 -31.3,12.89a44.07,44.07 0 0 0 0,62.28a43.08,43.08 0 0 0 14.42,9.67a44.62,44.62 0 0 0 16.88,3.22q18.71,0 31.3,-12.89l26.08,26.08z" class="cls-2" id="_复合路径_5"/>
  <path fill="#070237" d="m935.126912,804.986245l-80.39,0a38.08,38.08 0 0 0 8.9,12.58a43.08,43.08 0 0 0 14.42,9.67a44.62,44.62 0 0 0 16.88,3.22a43,43 0 0 0 22.4,-5.83l38.35,15.34a77.31,77.31 0 0 1 -26.69,20.1a81.23,81.23 0 0 1 -108.77,-42.19a81.76,81.76 0 0 1 0,-62.9a80.85,80.85 0 0 1 43.11,-43.11a82.54,82.54 0 0 1 63.2,0a80.85,80.85 0 0 1 43.11,43.11a79.67,79.67 0 0 1 6.29,31.6a75.82,75.82 0 0 1 -2.15,18.41l-38.66,0zm-40.23,-62.59q-17.8,0 -31.3,12.89a41.59,41.59 0 0 0 -8.9,12.89l80.39,0a41.77,41.77 0 0 0 -8.9,-12.89a42.61,42.61 0 0 0 -31.29,-12.89z" class="cls-2" id="_复合路径_6"/>
  <path fill="#070237" id="svg_1" d="m495.091125,505.064489l-97.55,0l0,-312.72l36.83,0l0,275.85l60.72,0c51.8,0 94.66,-16.63 127.38,-49.43s49.13,-76.85 49.13,-131.28c0,-52 -16.49,-94 -49,-124.83c-32.74,-31 -74.46,-46.72 -124,-46.72l-101.17,0l0,-36.87l101.1,0c59.28,0 109.52,19.11 149.33,56.81c40.16,38 60.52,89 60.52,151.57c0,64.54 -20.15,117.46 -59.88,157.29s-91.51,60.33 -153.41,60.33z" class="cls-2"/>
  <path fill="#d5a24e" id="svg_2" d="m453.461125,443.184489l0,0c54.13,0 99.17,-14.4 133.86,-42.81c35.17,-28.79 53,-67.47 53,-115c0,-45.76 -17.91,-82.82 -53.24,-110.15c-34.65,-26.8 -78.47,-38.66 -130.25,-38.66l-115,0l0,306.62l36.26,0l0,-270.85l82.34,0c20.84,0 40.13,2.69 57.33,8c17,5.25 32.53,11.5 46.08,22c13.32,10.3 23.43,22.49 30,36.22s10,29.73 10,47.27c0,18.42 -3.4,35.17 -10.11,49.78s-16.64,27.38 -30.06,38.33a140.37,140.37 0 0 1 -46.7,25.06c-17.67,5.62 -37.69,8.47 -59.5,8.47l-4,0.13l-0.01,35.59z" class="cls-1"/>
 </g>
</svg>