<svg data-name="Component 1 – 1" xmlns="http://www.w3.org/2000/svg" viewBox="0 0 80 80"><g data-name="Page-1"><g data-name="Intro-to-Fantom"><path d="M36.2.77a8.058 8.058 0 0 1 6.873 0l19.92 10.47a3.357 3.357 0 0 1 1.937 2.489h.019v52.629a3.273 3.273 0 0 1-1.956 2.742L43.077 79.567a8.058 8.058 0 0 1-6.873 0L16.288 69.1a3.241 3.241 0 0 1-1.914-2.739V13.729a3.232 3.232 0 0 1 1.914-2.489zm25.613 42.321-18.736 9.85a8.058 8.058 0 0 1-6.873 0l-18.7-9.828v23.141l18.7 9.777a9.154 9.154 0 0 0 3.008 1.158l.429.027a7.9 7.9 0 0 0 3.3-1.095l18.873-9.954zM11.135 65.214a9.661 9.661 0 0 0 .7 4.275 5.454 5.454 0 0 0 2.03 2.085l.061.041c.233.156.49.32.8.513l.368.225 1.131.679-1.617 2.668-1.266-.76-.213-.13a28.05 28.05 0 0 1-.953-.608C9.151 72.172 8.023 69.958 8 65.354v-.14zm26.934-36.228a2.852 2.852 0 0 0-.4.171l-19.917 10.47-.06.033-.017.01.031.018.045.025 19.916 10.47a2.853 2.853 0 0 0 .4.171zm3.143 0-.002 21.366a2.853 2.853 0 0 0 .4-.171l19.916-10.47.06-.033.017-.01-.031-.018-.045-.025-19.914-10.469a2.852 2.852 0 0 0-.401-.17zm20.6-11.522-17.863 9.391 17.865 9.391zm-44.306.022.002 18.738 17.823-9.369zM41.613 3.529a4.969 4.969 0 0 0-3.945 0L17.752 14l-.06.033-.017.01.031.018.045.025 19.916 10.47a4.969 4.969 0 0 0 3.945 0l19.916-10.47.06-.033.017-.01-.031-.018-.045-.025zm23.144 1.148 1.266.761.213.13c.366.225.67.418.953.608 3.025 2.03 4.154 4.244 4.176 8.848v.14H68.23a9.661 9.661 0 0 0-.7-4.275A5.454 5.454 0 0 0 65.5 8.8l-.061-.041a28.77 28.77 0 0 0-.8-.513l-.368-.225-1.131-.679z" fill="#1969ff" data-name="Fantom-Logo-blue"/></g></g></svg>