<svg width="100" height="100" viewBox="0 0 100 100" fill="none" xmlns="http://www.w3.org/2000/svg">
<path d="M74.2632 23.5016C72.4822 25.4912 68.3261 25.4719 66.5451 23.6813C64.7641 21.8907 64.1702 18.4248 66.5451 16.2363C68.9199 14.0477 72.4822 14.8458 74.2632 16.4375C76.0443 18.0291 76.0443 21.512 74.2632 23.5016Z" fill="#483E5E"/>
<path d="M55.5647 9.28517C53.6203 11.6684 52.8654 13.0566 51.3981 16.8555C49.4967 21.7783 47.787 27.214 47.0926 30.5786C46.3981 33.9431 47.7815 36.833 50.9348 38.8032C54.2706 40.8873 57.8663 42.5098 62.7274 44.3323C67.5884 46.1547 71.0762 48.7528 72.1873 51.4164C73.2984 54.0801 73.0458 59.2094 70.5459 64.1161C68.0459 69.0228 64.562 73.5824 58.451 78.0685C52.3399 82.5546 48.1656 83.6212 42.1228 85.0231C36.08 86.425 38.0644 89.8793 40.1477 90.5802C42.231 91.2812 46.814 91.9821 52.9253 91.7017C59.0365 91.4214 65.1397 89.8793 72.3618 86.2343C79.5839 82.5893 86.6671 76.2808 90.4247 67.8693C94.1822 59.4579 95.6806 47.5905 91.3266 40.1115C88.7966 35.7656 87.5005 34.7192 86.6671 31.9805C85.8338 29.2417 86.3673 27.1547 87.9195 25.2513C88.8145 24.1538 90.8148 23.049 92.6473 21.7277C94.0917 20.6863 95.8337 19.6437 97.0836 18.8025C98.3336 17.9614 98.7584 17.522 97.925 16.9612L97.8952 16.9411C97.0522 16.3738 95.3906 15.2553 92.5004 14.1762C89.5757 13.0842 89.0249 12.934 87.9195 12.8447C86.8141 12.7555 85.4253 13.7368 83.2031 15.4191C80.9809 17.1014 80.0087 17.4299 79.8698 19.3445C79.7309 21.259 79.1754 23.6904 77.6476 25.7933C76.1199 27.8961 74.0719 28.9638 71.3298 29.2417C68.5877 29.5196 64.8796 28.6686 63.0564 26.513C61.2332 24.3574 60.4985 23.1281 60.4985 20.0713C60.4985 17.0145 61.6756 14.8584 63.2406 13.3163C64.8055 11.7742 64.7312 11.2134 64.7312 10.5124C64.7312 9.8115 64.3675 7.42718 64.0632 6.31561C63.7589 5.20404 62.6672 5.02906 60.8848 5.61415C59.0184 6.22681 57.5091 6.90193 55.5647 9.28517Z" fill="#483E5E"/>
<path d="M28.0298 67.7948C27.1298 68.0324 26.4987 69.5764 24.732 72.6644C22.9653 75.7525 21.3078 78.0091 18.1451 81.4534C14.9825 84.8978 12.9958 86.323 7.9648 89.4111L7.83498 89.4908C2.90843 92.5146 1.45949 93.404 1.11764 94.3186C0.772803 95.2412 0.975638 96.4567 4.674 97.0268C8.37237 97.597 11.4556 97.725 16.7981 94.0431C22.1407 90.3612 26.3384 86.7981 31.8741 84.1852C37.4098 81.5722 39.1429 81.7364 45.3435 79.9094C51.5441 78.0825 57.1966 74.4973 61.0973 70.1408C64.9979 65.7842 66.9481 61.3931 67.7379 58.898C68.5278 56.4029 68.64 53.0781 66.5302 51.4151C64.5144 49.8262 63.4252 49.3485 58.9759 47.6855C54.2441 45.9169 52.6732 45.4737 49.1872 42.702C45.9021 40.09 46.097 39.4658 44.0327 39.1886C41.9684 38.9114 40.4038 41.9993 39.7072 43.5452C39.1831 44.7085 39.0935 46.7621 40.4813 48.6951C41.8691 50.628 43.1595 52.7555 46.9607 54.9153C50.762 57.0751 52.533 57.4207 55.1248 57.8527C57.7166 58.2846 58.7286 58.898 58.0321 60.1283C57.3355 61.3586 55.9424 61.9552 53.5741 61.9552C51.2058 61.9552 47.8624 60.8655 44.519 58.898C42.1612 57.5105 40.479 55.9468 39.25 54.4009C38.0554 52.8982 37.339 52.6799 36.2314 52.6799C35.1238 52.6799 34.2127 53.3826 32.888 55.3501C31.5632 57.3176 30.588 59.4489 30.4487 60.6034C30.3094 61.7578 30.1844 63.0454 32.274 64.5913C34.3637 66.1372 36.1692 66.9774 38.5375 67.399C40.9058 67.8206 42.708 68.5604 40.9732 70.1408C39.2385 71.7212 37.1356 71.3711 35.4639 70.9495C33.7922 70.5279 31.3665 69.2201 30.4487 68.6262C29.5308 68.0324 28.9298 67.5573 28.0298 67.7948Z" fill="#483E5E"/>
<path d="M80.534 12.3007C81.7909 11.5186 83.1799 10.4918 83.1799 9.77366C83.1799 9.05548 82.4724 8.19365 79.5012 6.32638C76.5299 4.4591 72.4268 2.33835 69.7385 2.01718C67.0502 1.69602 68.2148 5.96789 68.5316 7.65728C68.8484 9.34668 68.9429 10.6619 70.0601 10.7985C71.1773 10.935 72.0152 11.0716 72.9928 11.3447C73.9703 11.6179 75.2272 12.2068 76.6237 13.0263C78.0202 13.8457 79.2771 13.0829 80.534 12.3007Z" fill="#483E5E"/>
</svg>
