<svg xmlns="http://www.w3.org/2000/svg" viewBox="0 0 280 380"><g><path d="M172.684 109.816c-1.179 7.525-2.1 12.677-2.732 15.469l-9.685 45.781-3.226.648c-2.144.647-3.972.963-5.469.963-1.943 0-3.77.332-5.483.964-2.374 0-4.518.116-6.448.332a93.894 93.894 0 00-6.446.963c-3.439.648-6.563.965-9.354.965-1.497 0-2.69-.101-3.541-.317 1.28-3.654 2.577-7.41 3.87-11.284a253.48 253.48 0 003.542-11.612c.864-2.994 2.206-6.016 2.42-8.823 1.73-5.295 2.706-9.971 4.027-14.71.432-1.28.964-2.789 1.612-4.518.648-1.713.964-3.54.964-5.468.106-1.158 0-1.624.052-2.985-.51-3.581-1.03-4.876-2.787-6.527-2.043-1.613-3.713-2.635-4.993-3.067-3.022-1.08-6.448-1.713-10.319-1.928-3.872-.217-7.31-.332-10.317-.332-1.512 0-3.383.058-5.644.159-2.259.115-4.347.49-6.288 1.137-1.93.65-3.598 1.612-4.995 2.892-1.396 1.298-2.506 2.893-2.506 5.254 0 1.727-.1 3.553-.316 5.481-.215 1.93-.129 4.003-.56 5.715-.431 2.145-.862 4.245-1.294 6.289a62.014 62.014 0 00-.965 5.96c-.647 4.735-1.296 9.41-1.93 14.015-.648 4.637-3.221 16.192-7.741 34.67-4.519 18.48-7.787 30.943-9.83 37.39a372.92 372.92 0 00-5.642 19.673 79.547 79.547 0 01-1.452 4.505 54.39 54.39 0 00-1.453 4.836 256.443 256.443 0 00-1.283 5.324 24.46 24.46 0 00-.647 5.643c0 1.928.531 4.303 1.611 7.095 1.065 2.792 2.619 5.468 4.677 8.06 2.03 2.577 4.663 4.718 7.887 6.448 3.224 1.712 6.88 2.576 10.968 2.576 4.085 0 6.821-1.396 8.217-4.19 1.395-2.792 2.416-5.813 3.066-9.036.432-2.145.688-3.917.805-5.312.1-1.396.319-2.633.648-3.713.316-1.065.69-2.259 1.123-3.54.432-1.297 1.08-3.008 1.941-5.167 3.427-8.592 5.959-17.084 7.572-25.46 1.61-8.39 4.188-14.13 7.743-17.253 3.54-3.108 9.124-4.837 16.765-5.155 7.612-.33 15.415-1.338 23.37-3.065a2114.313 2114.313 0 00-6.778 29.821c-2.143 9.786-5.05 24.338-8.705 43.69-.848 3.658-1.554 7.24-2.086 10.796-.548 3.54-1.532 7.023-2.117 10.63-.982 6.051-.228 7.853.952 11.61 1.18 3.753 2.908 7.093 5.153 9.985a25.835 25.835 0 004.318 4.376c-1.584.058-3.183.088-4.779.088C60.691 326.557 0 264.064 0 186.58c0-77.5 62.819-140.32 140.304-140.32 17.645 0 34.02 1.942 49.564 7.887-1.485 2.993-2.342 5.198-3.632 8.43-1.929 3.873-2.991 7.902-4.171 12.091-1.195 4.188-3.035 8.23-3.884 11.452-1.941 8.176-4.316 16.18-5.497 23.696M280.621 186.58c0 66.877-46.785 122.819-109.433 136.879-.186-10.23.187-18.9 1.655-28.107.432-2.69.965-5.541 1.612-8.55a83.317 83.317 0 011.77-8.863c.762-2.908 2.1-10.48 4.031-22.726A800.92 800.92 0 01188 223.78c4.828-18.423 9.898-37.54 13.21-51.419.432-.646.764-1.612.98-2.908.416-1.064.748-2.086.963-3.066.217-.962.433-1.554.647-1.77 4.506-19.773 7.413-31.69 8.692-35.776a262.174 262.174 0 003.554-12.248 125.89 125.89 0 002.738-11.284 80.648 80.648 0 013.065-11.297c1.496-4.935 3.872-9.872 7.093-14.823l.534-.95c31.23 25.732 51.146 64.705 51.146 108.34" fill-rule="evenodd"/></g><g><path d="M198.893 81.297c-3.829-9.145-.858-20.55 6.659-24.584-4.772 5.41-4.82 11.162-2.952 17.525.96-1.547 1.747-2.815 2.762-4.445-.746 4.29-1.418 8.16-2.088 12.031l.25.118c1.885-3.324 3.77-6.648 5.932-10.464l-.61 4.783c3.87-1.865 7.733-8.239 8.579-14.118 2.543 6.63-2.688 16.229-10.529 22.33.326-2.175.616-4.127.91-6.08-.08-.049-.163-.097-.24-.145-1.292 2.238-2.598 4.467-3.866 6.713-1.248 2.206-2.464 4.432-4.046 6.561.894-5.095 1.792-10.192 2.688-15.287-.09-.046-.17-.094-.255-.14l-3.194 5.202" fill-rule="evenodd"/><path d="M192.968 57.8l5.519-13.628 7.842-5.315C210.947 19.427 228.647 3.195 236.19 0c3.195 7.543 4.611 31.518-5.592 48.685l1.933 9.275-5.519 13.627-7.459-10.924c-4.77 2.02-4.77 2.02-8.188.636-3.419-1.385-3.419-1.385-5.439-6.154L192.968 57.8m27.851-30.226a5.51 5.51 0 104.298 10.148 5.51 5.51 0 00-4.298-10.148z"/></g></svg>
