<?xml version="1.0" encoding="utf-8"?>
<!-- Generator: Adobe Illustrator 23.0.2, SVG Export Plug-In . SVG Version: 6.00 Build 0)  -->
<svg version="1.1" id="Layer_1" xmlns="http://www.w3.org/2000/svg" xmlns:xlink="http://www.w3.org/1999/xlink" x="0px" y="0px"
	 viewBox="0 0 330.6 127.6" style="enable-background:new 0 0 330.6 127.6;" xml:space="preserve">
<style type="text/css">
	.st0{fill:#000000;}
	.st1{fill:#64D0E4;}
</style>
<g>
	<g>
		<g>
			<path class="st0" d="M325.8,122.7L325.8,122.7c-2.7,0-4.9-2.2-4.9-4.9V77.7c0-13.3-5.5-33.9-33.6-33.6
				c-27.2,0.3-33.1,21.5-33.6,33.6v40.1c0,2.7-2.2,4.9-4.9,4.9l0,0c-2.7,0-4.9-2.2-4.9-4.9V77.7c0-13,4-23.6,12-31.6
				c7.9-7.8,18.3-11.7,31.3-11.7s23.5,3.9,31.3,11.7c8,8,12,18.6,12,31.6v40.1C330.6,120.6,328.5,122.7,325.8,122.7z"/>
		</g>
	</g>
	<g>
		<g>
			<path class="st0" d="M4.4,1L4.4,1c2.5,0,4.5,2,4.5,4.4v90.8c0.2,12.4,7.7,16.6,12.3,17.3c3,0.5,21.4,0.4,29.9,0.3
				c2.3,0,4.3,1.9,4.3,4.2l0,0c0,2.4-1.9,4.3-4.2,4.3c-7.8,0-23.9,0.1-27.1-0.1c-4.2-0.2-12-2.2-16.8-6.6C2.4,111.3,0,106,0,99.8
				V5.4C0,3,1.9,1,4.4,1z"/>
		</g>
	</g>
	<g>
		<g>
			<path class="st0" d="M125.3,82.5c1,0,1.9-0.5,2.3-1.4c4.6-9.4,5.4-37.3-27.6-37.8c-8.5-0.1-20,4-26.1,10.8
				c-4.4,4.8-7.7,12.3-8.6,20.4c-1.6,14.6,2.9,23.2,8.8,29.3c4.5,4.7,11.4,8.9,23.4,9.9c8.7,0.7,23.9,0.1,31.6-0.3
				c2.7-0.1,4.9,2,4.9,4.7l0,0c0,2.6-2.1,4.7-4.7,4.7H98.5c-13-0.2-23.4-4.3-31.2-12.2c-7.9-8.1-11.9-18.7-11.9-31.8
				c0-13.2,4.2-23.7,12.1-32c6.3-6.6,18.6-11.9,31.8-11.9c11.1,0,22.3,3.1,30,10.1c8.8,8,10.7,20,9.6,27.7
				c-0.7,5.5-3.6,12.6-7.1,16.8c-0.8,0.9-1.9,1.4-3.1,1.4c-7.3,0-36,0.2-48.7,0.2c-3,0-5-2.9-4.1-5.7v0c0.6-1.7,2.2-2.9,4-2.9
				L125.3,82.5z"/>
		</g>
	</g>
	<g>
		<g>
			<path class="st1" d="M191.2,44.3c-14.6,0.2-22.9,6.2-27.3,13.2c-3.7,5.8-6.5,14.9-6.5,24.6c0,9.7,3.2,20.1,9,26.1
				c5.6,5.8,16.9,10.7,25.7,10.4c13.9-0.5,21.4-3.7,25.9-8.6c6-6.5,5.8-25.4,5.8-37.5l-0.6-67.1c0-3,2.3-5.4,5.3-5.5l0,0
				c3,0,5.5,2.4,5.5,5.4l-0.4,77.1c-0.5,24.5-3.9,29.6-10.2,35.6c-5.5,5.3-16.3,9.5-30.1,9.5c-13.8,0-24.9-4-33.2-12.1
				c-8.5-8.3-12.7-19.7-12.7-34.2c0-11.8,2.6-21.3,7.8-28.7c4.6-6.8,11-11.7,19-14.8c7.6-3,15.6-4,24-3c4.3,0.5,11,2.5,15.6,5.6
				c1.3,0.9,2,2.4,2,3.9c0,0.1,0,0.1,0,0.2c0,4.2-4.5,6.6-8.1,4.4C202.4,45.7,196,44.2,191.2,44.3z"/>
		</g>
	</g>
</g>
</svg>
