<svg viewBox="0 0 30 30" xmlns="http://www.w3.org/2000/svg" fill="#28286E"><path d="m14.556 16.924-2.576 2.65-.005.005a.04.04 0 0 1-.022.007.041.041 0 0 1-.04-.042c0-.005 0-.01.002-.014l.98-3.761a.797.797 0 0 0-.187-.791l-2.576-2.651-.004-.005a.043.043 0 0 1-.007-.023c0-.023.018-.042.04-.042a.04.04 0 0 1 .014.002l3.656 1.01c.262.085.56.021.768-.193l2.576-2.65.006-.005a.04.04 0 0 1 .022-.007c.022 0 .04.02.04.042 0 .005 0 .01-.002.014l-.98 3.761a.797.797 0 0 0 .186.791l2.577 2.651.004.005a.043.043 0 0 1 .006.023.041.041 0 0 1-.053.04l-3.656-1.01a.744.744 0 0 0-.769.193m14.488-2.2-6.153-6.332a.744.744 0 0 0-.769-.192l-4.046 1.117h-.001a.04.04 0 0 1-.013.001.041.041 0 0 1-.04-.042c0-.014.007-.027.019-.035.44-.302 1.11-.85 2.712-2.497a.399.399 0 0 0 0-.552L14.846.114a.372.372 0 0 0-.537 0L8.156 6.446a.797.797 0 0 0-.187.79l1.085 4.165v.001a.04.04 0 0 1 .002.012.041.041 0 0 1-.04.042.04.04 0 0 1-.035-.02v.001c-.294-.454-.825-1.143-2.426-2.79a.372.372 0 0 0-.537 0L.11 14.723a.399.399 0 0 0 0 .552l6.154 6.332a.744.744 0 0 0 .768.192l4.047-1.117h.001a.04.04 0 0 1 .012-.001c.023 0 .04.019.04.042a.042.042 0 0 1-.018.035c-.441.302-1.111.849-2.712 2.497a.399.399 0 0 0 0 .552l5.906 6.078a.372.372 0 0 0 .537 0L21 23.554a.797.797 0 0 0 .186-.79l-1.085-4.165a.044.044 0 0 1-.001-.013.04.04 0 0 1 .04-.042.04.04 0 0 1 .035.02v-.001c.293.454.825 1.143 2.426 2.79a.372.372 0 0 0 .537 0l5.906-6.077a.399.399 0 0 0 0-.552" fill-rule="evenodd"/></svg>
