<svg width="200" height="200" xmlns="http://www.w3.org/2000/svg" class="sand-dollar-hero">
 <defs>
  <clipPath id="clip0">
   <path id="svg_1" d="m0,0l450,0l0,450l-450,0l0,-450z" fill="#fff"/>
  </clipPath>
 </defs>
 <g>
  <title>background</title>
  <rect fill="none" id="canvas_background" height="202" width="202" y="-1" x="-1"/>
 </g>
 <g>
  <title>Layer 1</title>
  <path id="svg_124" d="m132.363,93.830998l-64.873,0c-0.665,0 -1.182,0.517 -1.182,1.182l0,10.935c0,0.665 0.517,1.182 1.182,1.182l24.604,0l0,33.323c0,0.665 0.518,1.182 1.183,1.182l13.447,0c0.665,0 1.182,-0.517 1.182,-1.182l0,-33.323l24.604,0c0.665,0 1.182,-0.517 1.182,-1.182l0,-10.935c-0.147,-0.665 -0.664,-1.182 -1.329,-1.182zm-32.437,-15.516c5.542,0 9.975,-4.508 9.975,-9.975c0,-5.542 -4.507,-9.975 -9.975,-9.975c-5.541,0 -9.974,4.507 -9.974,9.975a9.934,9.934 0 0 0 9.974,9.975z" fill="#000"/>
  <path id="svg_125" clip-rule="evenodd" d="m99.999496,174.228497c40.996,0 74.229,-33.233 74.229,-74.229c0,-40.995 -33.233,-74.229 -74.229,-74.229c-40.995,0 -74.229,33.234 -74.229,74.229c0,40.996 33.234,74.229 74.229,74.229zm0,20.716c52.437,0 94.945,-42.508 94.945,-94.945c0,-52.436 -42.508,-94.944 -94.945,-94.944c-52.436,0 -94.944,42.508 -94.944,94.944c0,52.437 42.508,94.945 94.944,94.945z" fill-rule="evenodd" fill="#000"/>
 </g>
</svg>