<svg viewBox="0 0 48 48" xmlns="http://www.w3.org/2000/svg"><path d="M0 24C0 10.745 10.745 0 24 0s24 10.745 24 24-10.745 24-24 24S0 37.255 0 24z" fill="#006AE3"/><path d="M23.009 34.119V14.15h2.174v19.968h-2.174z" fill="#fff"/><path d="m34.076 20.803-6.714 1.781-1.498-6.97 1.997-.45.787 3.302s1.814-2.976-.605-6.058c-1.425-1.584-2.102-1.651-3.7-1.9-1.406-.202-4.675.273-5.65 4.089-.412 2.458.054 4.277 3.221 6.658l-.177 2.65s-3.537-2.492-4.45-4.24c-.705-1.382-1.914-4.113.27-7.914 1.175-1.901 3.494-3.725 7.578-3.533 2.054.086 7.07 2.597 6.292 8.462-.134 1.1-.706 2.563-.706 2.563l2.755-.614.6 2.174zm-3.834 15.624c-1.229 1.868-3.595 3.63-7.67 3.332-2.054-.14-6.998-2.784-6.066-8.626.163-1.094.772-2.54.772-2.54l-2.77.538-.541-2.184 6.762-1.603 1.315 7.008-2.01.399-.702-3.327s-1.89 2.923.442 6.072c1.382 1.623 2.054 1.704 3.652 1.997 1.397.24 4.68-.154 5.755-3.94.475-2.444.058-4.278-3.043-6.745l.25-2.645s3.47 2.583 4.334 4.354c.662 1.406 1.8 4.171-.48 7.91z" fill="#fff"/></svg>