<svg xmlns="http://www.w3.org/2000/svg" fill="none" viewBox="96 64 546 546" aria-hidden="true" width="24px"><mask id="a" x="0" y="0" maskUnits="userSpaceOnUse" style="mask-type:alpha"><path fill="#C4C4C4" d="M0 0h684v684H0z"/></mask><g mask="url(#a)"><g filter="url(#b)"><path fill="url(#c)" d="M376 536c113.218 0 205-92.229 205-206s-91.782-206-205-206-205 92.229-205 206 91.782 206 205 206Z"/></g><path fill="#937DFF" d="m426.672 310.553-.051 110.159.188 55.122L477.7 445.14l-.102-165.281-50.926 30.694Z"/><path fill="#FFBE44" d="m477.595 279.857-50.926-30.677L376 279.857l50.942 30.694 50.653-30.694Z"/><path fill="#937DFF" d="m325.263 245.542-.154 65.079 50.892-30.712-.103-65.061-50.635 30.694Z"/><path fill="#FFBE44" d="m375.899 214.849-50.925-30.677-50.669 30.677 50.959 30.694 50.635-30.694Zm.05 65.145-.17-.103-50.67 30.676 50.875 30.66-.035-61.233Z"/><path fill="#937DFF" d="M375.951 388.542c0-18.386-9.618-35.432-25.318-44.891-11.24-6.764-25.539 1.373-25.539 14.883v74.71l50.874-30.677-.017-14.025Z"/><path fill="#FFBE44" d="m375.984 402.566-50.875 30.694 50.875 30.66v-61.354Z"/></g><defs><linearGradient id="c" x1="376" x2="376" y1="124" y2="536" gradientUnits="userSpaceOnUse"><stop stop-color="#231D65"/><stop offset="1" stop-color="#1B1652"/></linearGradient><filter id="b" width="510" height="512" x="121" y="74" color-interpolation-filters="sRGB" filterUnits="userSpaceOnUse"><feFlood flood-opacity="0" result="BackgroundImageFix"/><feColorMatrix in="SourceAlpha" result="hardAlpha" values="0 0 0 0 0 0 0 0 0 0 0 0 0 0 0 0 0 0 127 0"/><feOffset/><feComposite in2="hardAlpha" operator="out"/><feColorMatrix values="0 0 0 0 0.335667 0 0 0 0 0 0 0 0 0 0.883333 0 0 0 0.8 0"/><feBlend in2="BackgroundImageFix" result="effect1_dropShadow_6801_141238"/><feBlend in="SourceGraphic" in2="effect1_dropShadow_6801_141238" result="shape"/></filter></defs></svg>