<svg xmlns="http://www.w3.org/2000/svg" viewBox="0 0 195 195" aria-hidden="true" width="24px"><defs><linearGradient id="a" x1="50%" x2="50%" y1="89.212%" y2="10.541%"><stop offset="0%" stop-color="#002D72"/><stop offset="100%" stop-color="#002D72" stop-opacity="0"/></linearGradient><linearGradient id="b" x1="50%" x2="50%" y1="89.212%" y2="10.541%"><stop offset="0%" stop-color="#002D72" stop-opacity="0"/><stop offset="100%" stop-color="#002D72"/></linearGradient></defs><g fill="none" fill-rule="evenodd"><path fill="#FEFEFE" d="M97.382 5.4 16.637 51.461v92.126l80.745 46.067 80.744-46.067V51.461z"/><path fill="#002D72" d="M97.382 5.4 16.637 51.461v92.126l80.745 46.067 80.744-46.067V51.461L97.382 5.401zm-31.88 39.828h63.545l7.66 32.011H58.131l7.372-32.01zm18.309 54.725-6.93-17.878h41.148l-6.784 17.878 1.97 19.973-15.833.073-15.685.001 2.115-20.046zm20.212 41.17v-6.342l14.225-13.482.001-21.274 18.606-11.966 21.231 15.789-28.897 49.75h-11.452l-13.713-12.476zm-67.34-37.275 21.3-15.645 18.824 11.822v21.273l14.224 13.482v6.342l-13.712 12.62H65.718l-29.034-49.894z"/><path fill="url(#a)" d="M32.15 149.015H20.698L6.986 136.539v-6.342l14.224-13.482V95.44l18.605-11.965 21.232 15.789-28.897 49.75zM.344.817v39.828h31.664l7.662 32.011H.344v4.835H20.99L14.207 95.37l1.97 19.973-15.833.073v69.656l80.744-46.066V46.878L.344.817z" style="mix-blend-mode:multiply" transform="translate(97.038 4.583)"/><path fill="url(#b)" d="m74.396 136.539-13.713 12.62H49.08L20.046 99.265l21.3-15.645 18.825 11.821v21.274l14.225 13.482v6.342zm-9.338-21.124 2.115-20.046-6.929-17.878h20.5v-4.835h-39.25l7.373-32.01h31.879V.816L0 46.878v92.127l80.745 46.066v-69.656H65.058z" style="mix-blend-mode:multiply" transform="translate(16.637 4.583)"/></g></svg>