<svg xmlns="http://www.w3.org/2000/svg" xml:space="preserve" viewBox="0 0 229 229" aria-hidden="true" width="24px"><path fill="url(#a)" d="m47.807 79.35 15.778-28.76h133.843c13.649 0 26.007-3.488 31.499-15.982L239.27 9.932c2.049-4.662-1.366-9.893-6.458-9.893H7.424c-5.144 0-8.558 5.328-6.41 10l33.883 69.517c2.563 5.573 10.526 5.446 12.91-.206z"/><path fill="url(#b)" d="M78.407 182.091c-.501 0-1.002.06-1.469.241-.718.278-1.77.794-2.153 1.538-1.145 2.228 1.037 4.926 2.867 6.656l36.639 35.349c5.841 5.522 15.453 1.381 15.453-6.656v-31.403a5.725 5.725 0 0 0-5.725-5.725H78.407z"/><path fill="url(#c)" d="M74.785 84.768a9.16 9.16 0 0 1 9.16-9.16h36.639a9.16 9.16 0 0 1 9.16 9.16v18.319h55.005c6.524 0 10.957 6.627 8.466 12.657l-10.067 24.978a5.725 5.725 0 0 1-5.31 3.585H80.51a5.725 5.725 0 0 1-5.725-5.725V84.768z"/><defs><linearGradient id="a" x1="124.125" x2="124.178" y1="3.343" y2="228.09" gradientUnits="userSpaceOnUse"><stop stop-color="#2F80FA"/><stop offset="1" stop-color="#E84DEB"/></linearGradient><linearGradient id="b" x1="124.125" x2="124.178" y1="3.343" y2="228.09" gradientUnits="userSpaceOnUse"><stop stop-color="#2F80FA"/><stop offset="1" stop-color="#E84DEB"/></linearGradient><linearGradient id="c" x1="124.125" x2="124.178" y1="3.343" y2="228.09" gradientUnits="userSpaceOnUse"><stop stop-color="#2F80FA"/><stop offset="1" stop-color="#E84DEB"/></linearGradient></defs></svg>