<svg xmlns="http://www.w3.org/2000/svg" viewBox="75 0 250 300" aria-hidden="true" width="24px"><defs><linearGradient id="a" x1="10.568%" x2="91.988%" y1="83.719%" y2="12.076%"><stop offset="0%" stop-color="#0AE0DE"/><stop offset="56.446%" stop-color="#FE85C9"/><stop offset="100%" stop-color="#FFD988"/></linearGradient></defs><g fill="none"><path fill="url(#a)" d="M139.64 40.333c-.004-.005-.004-.014-.008-.019l-.082-.15a3.133 3.133 0 0 0-1.176-1.198L72.114.431a3.172 3.172 0 0 0-3.167-.014L1.888 38.526a3.178 3.178 0 0 0-1.293 1.398A3.17 3.17 0 0 0 0 41.771l.036 77.13c0 1.135.609 2.184 1.589 2.751l66.269 38.218c.576.477 1.293.74 2.033.74.018 0 .036-.005.054-.005.014 0 .032.005.046.005.554 0 1.112-.145 1.607-.436.154-.09.29-.195.426-.304l66.282-38.19a3.172 3.172 0 0 0 1.59-2.751l.068-77.13a3.065 3.065 0 0 0-.36-1.466Zm-66.309 60.495-.14-18.714 16.13-9.45c1.998-1.158 3.133-1.24 3.469-1.167.118.309.168 1.348-.559 2.8-.24.468-.553 1.022-.885 1.607-2.156 3.8-5.764 10.154-2.837 17.24l.055.122c2.401 5.188 6.631 7.108 8.937 7.789a12.5 12.5 0 0 0 3.554.503c6.273 0 12.587-4.402 15.528-9.427 2.473-4.276 3.608-9.064 3.281-13.84-.34-4.96-2.142-8.555-5.519-10.984-2.183-1.57-3.35-3.113-3.29-4.348.072-1.48 1.901-3.39 4.915-5.129l17.684-10.462-.064 69.718-60.44 34.823-.25-20.607c-.01-5.946-1.661-10.026-4.907-12.119-2.995-1.929-6.853-1.852-11.47.236-2.01.912-4.125.722-6.867-.617-3.209-1.566-5.778-3.994-7.634-7.208-2.202-3.85-2.388-10.322.658-13.217 1.17-1.112 3.186-2.383 6.195-2.138 4.485.622 6.881 4.698 8.81 7.975.373.635.727 1.234 1.103 1.82 2.456 3.704 6.119 5.47 9.332 4.502 1.57-.472 5.225-2.369 5.211-9.708ZM70.5 6.835l60.1 34.955-17.843 10.557c-5.151 2.973-7.861 6.44-8.052 10.299-.177 3.563 1.816 6.867 5.928 9.822 1.793 1.29 2.683 3.218 2.892 6.26.245 3.563-.581 6.999-2.438 10.212-2.238 3.826-7.752 7.217-11.783 6.023-1.548-.458-3.658-1.58-4.947-4.307-1.698-4.194.64-8.306 2.514-11.61a53.31 53.31 0 0 0 1.026-1.866c1.988-3.976 1.688-8.034-.754-10.331-1.198-1.126-4.666-3.35-11.016.327l-16.14 9.454L53.8 67.294c-1.992-1.162-2.623-2.106-2.728-2.433.209-.254 1.085-.812 2.71-.903.526-.023 1.162-.023 1.834-.023 4.366-.005 11.678-.014 16.385-6.069.027-.036.055-.068.077-.104 3.318-4.652 2.896-9.278 2.347-11.62-1.734-7.412-10.267-12.082-17.193-12.164-4.957-.032-9.664 1.348-13.65 3.994-4.143 2.75-6.372 6.096-6.812 10.231-.286 2.673-1.049 4.453-2.151 5.011-1.321.667-3.886.027-6.89-1.73L9.885 41.3 70.499 6.835ZM6.359 46.601l18.183 10.38c5.134 3.005 9.486 3.645 12.936 1.902 3.182-1.607 5.07-4.974 5.601-10.013.232-2.197 1.47-3.926 4.008-5.61 2.973-1.974 6.355-2.968 10.081-2.937 4.435.05 10.108 3.169 11.066 7.258.368 1.575.44 3.963-1.294 6.427-2.805 3.55-7.534 3.559-11.333 3.563-.736 0-1.435 0-2.13.032-4.438.245-7.815 2.506-8.605 5.77-.386 1.597-.6 5.71 5.737 9.408l16.227 9.36.145 18.714c.005 2.31-.485 3.331-.717 3.586-.327-.05-1.253-.527-2.151-1.88a46.865 46.865 0 0 1-.95-1.57c-2.214-3.763-5.922-10.063-13.525-11.057l-.132-.014c-5.692-.508-9.468 2.202-11.206 3.859-5.51 5.247-5.225 14.974-1.784 20.988 2.474 4.275 6.055 7.648 10.358 9.75 4.47 2.183 8.483 2.41 12.273.694 2.451-1.108 4.371-1.353 5.41-.686 1.244.804 1.988 3.337 1.998 6.818l.25 20.548-60.396-34.832-.05-70.458Z" transform="translate(130 67)"/><path fill="#FFF" d="M55.008 320.063v-29.899l24.67 42.43h13.467v-65.561h-15.11v37.376l-21.698-37.493-16.337.232v52.915h15.008Zm74.578 13.662c10.164 0 17.477-3.235 21.94-9.706l-10.403-7.049c-2.404 2.997-5.906 4.495-10.507 4.495-3.021 0-5.665-.698-7.931-2.094-2.267-1.396-3.571-3.354-3.915-5.874H154c.137-2.18.206-3.644.206-4.393 0-7.424-2.37-13.451-7.108-18.083-4.67-4.7-10.506-7.049-17.51-7.049-7.143 0-13.117 2.282-17.924 6.845-4.807 4.563-7.21 10.523-7.21 17.878 0 7.356 2.403 13.383 7.21 18.083 4.876 4.631 10.85 6.947 17.923 6.947Zm9.92-29.4h-20.354c.537-2.49 1.847-4.44 3.93-5.85 2.082-1.408 4.265-2.096 6.549-2.064 2.284.033 4.417.738 6.398 2.114 1.982 1.376 3.14 3.31 3.476 5.8Zm43.74 29.4c5.468 0 10.287-1.294 14.457-3.882 4.17-2.52 6.255-6.198 6.255-11.034 0-3.405-1.538-6.572-4.615-9.5-2.187-2.044-4.99-3.508-8.407-4.394l-8.1-2.145c-2.735-.75-4.136-1.941-4.205-3.576-.068-1.09.36-1.958 1.282-2.605.923-.647 2.17-.97 3.743-.97 3.486 0 5.297 1.396 5.434 4.188h13.432c-.068-5.448-2.016-9.433-5.844-11.953-3.828-2.588-8.443-3.882-13.843-3.882-4.921 0-9.262 1.396-13.022 4.189-3.691 2.724-5.57 5.857-5.64 9.399-.068 2.724.48 5.346 1.641 7.866 1.71 3.337 5.947 5.891 12.715 7.662l6.254 1.635c1.71.476 2.923 1.021 3.64 1.634.718.613 1.077 1.43 1.077 2.452 0 1.158-.547 2.094-1.64 2.81-1.094.715-2.496 1.106-4.204 1.174-1.846 0-3.47-.561-4.87-1.685-1.402-1.124-2.137-2.401-2.205-3.831h-13.33c.137 5.108 2.153 9.126 6.05 12.055 3.964 2.928 8.613 4.393 13.944 4.393Zm50.276-1.131v-36.243h10.012v-9.486h-10.012V267.01h-14.097v19.854h-6.97v9.486h6.97v36.243h14.097Zm41.93 1.13c10.163 0 17.477-3.234 21.94-9.705l-10.403-7.049c-2.404 2.997-5.906 4.495-10.507 4.495-3.022 0-5.665-.698-7.932-2.094-2.266-1.396-3.57-3.354-3.914-5.874h35.229c.137-2.18.206-3.644.206-4.393 0-7.424-2.37-13.451-7.108-18.083-4.67-4.7-10.507-7.049-17.511-7.049-7.142 0-13.116 2.282-17.923 6.845-4.807 4.563-7.211 10.523-7.211 17.878 0 7.356 2.404 13.383 7.21 18.083 4.876 4.631 10.85 6.947 17.924 6.947Zm9.919-29.399h-20.353c.537-2.49 1.847-4.44 3.93-5.85 2.082-1.408 4.265-2.096 6.549-2.064 2.283.033 4.416.738 6.398 2.114 1.981 1.376 3.14 3.31 3.476 5.8Zm46.699 29.4c3.115 0 5.925-.613 8.43-1.838s4.333-2.927 5.484-5.104v5.92H360v-65.47l-14.016-.183v23.796c-1.15-2.11-2.996-3.777-5.535-5.002-2.54-1.225-5.332-1.838-8.379-1.838-6.23 0-11.646 2.314-16.25 6.942-4.469 4.56-6.703 10.584-6.703 18.07 0 7.283 2.234 13.238 6.703 17.867 4.536 4.56 9.953 6.84 16.25 6.84Zm-.339-13.57c-3.21 0-5.898-1.06-8.061-3.18-2.164-2.12-3.246-4.862-3.246-8.228 0-3.23 1.082-5.906 3.246-8.026 2.163-2.12 4.85-3.18 8.061-3.18 3.211 0 5.898 1.026 8.062 3.08 2.164 2.052 3.246 4.761 3.246 8.126 0 3.231-1.1 5.94-3.298 8.128-2.199 2.187-4.869 3.28-8.01 3.28Z"/></g></svg>