<svg xmlns="http://www.w3.org/2000/svg" viewBox="0 0 708.661 708.661" aria-hidden="true" width="24px"><path d="M354.328 379.985A307.324 307.323 0 0 0 47.008 687.31a307.324 307.323 0 0 0 119.635 243.126H47.008v85.642h237.338V897.303A221.54 221.539 0 0 1 132.792 687.31a221.54 221.539 0 0 1 221.536-221.54 221.54 221.539 0 0 1 221.54 221.54 221.54 221.539 0 0 1-151.551 209.9v118.867h237.338v-85.642h-119.96a307.324 307.323 0 0 0 119.96-243.126 307.324 307.323 0 0 0-307.326-307.325z" style="opacity:1;fill:#000;fill-opacity:1;stroke:#000;stroke-width:.10000001;stroke-linecap:square;stroke-linejoin:miter;stroke-miterlimit:4;stroke-dasharray:none;stroke-opacity:1" transform="translate(0 -343.7)"/></svg>