<svg xmlns="http://www.w3.org/2000/svg" viewBox="0 0 500 500" aria-hidden="true" width="24px"><defs><style>.cls-1 {
        fill: #03bce4;
      }

      .cls-2 {
        fill: #fff;
      }

      .cls-3 {
        fill: #76e4ad;
      }</style></defs><g id="Perpetual_Protocol_PERP_" data-name="Perpetual Protocol (PERP)"><path d="M491.48,310.2c-33.2,133.43-168.17,214.56-301.63,181.37C56.39,458.16-24.77,323.22,8.43,189.8,41.85,56.37,176.83-24.76,310.29,8.43,443.74,41.84,524.9,176.78,491.48,310.2Z" class="cls-1"/><path d="M399.87,194.54q-21.62-21.66-43.72-42.84a46.91,46.91,0,0,0-62.79-2.53c-2.39,2-4.65,4.06-7,6.1C274.47,168,261.79,179.92,249,191.76c-9.49,10.41-20.08,19.72-29.91,29.8l-6.42,6.6h0c-11.12,10.84-22.3,21.62-33.29,32.58-2.14,2.14-3.19,2.18-5.35,0q-15.17-15.19-30.73-30c-2.28-2.18-2-3.25.13-5.32q33.36-32.53,66.47-65.33c2.53-2.51,4-2.79,6.68-.06,10.65,10.73,21.59,21.17,32.42,31.72,12.79-11.84,25.47-23.77,37.39-36.49-13.68-13.44-27-27.23-41.12-40.24-18.58-17.15-46.65-16.84-64.28.31q-40.1,39-79.9,78.28c-20.42,20.17-20,49.45.55,69.52,31.32,30.57,62.49,61.3,93.81,91.88,10.23,10,20.1,20.35,30.89,29.75h0l.86.91c.44.51.89,1,1.31,1.54,11.92,14.64,30.59,12.74,41.85,1.53,42.91-42.7,86.43-84.77,129.55-127.26C418.76,242.92,418.65,213.34,399.87,194.54ZM283.76,302.11c-10.67,10.3-21.22,20.72-31.82,31.1-.76.75-1.44,1.65-2.7,1.48q-14.07-13.94-28.15-27.85c-6.94-6.83-7-6.84,0-13.79,8.63-8.52,17.34-17,26-25.47.76-.75,1.38-1.63,2.07-2.46-.24-.43-.42-.92-.69-1.33.27.41.45.9.69,1.33,3,.63,4.47,3.32,6.45,5.22,9.44,9.05,18.7,18.29,28.14,27.34C285.59,299.42,285.56,300.38,283.76,302.11ZM357.21,230c-10.7,10.51-21.43,21-32.08,31.53-1.34,1.32-2.06,1.47-3.5.05q-15.84-15.69-31.88-31.15c-2-1.88-1.87-2.94,0-4.77Q305.52,210.47,321,195c1.74-1.74,2.72-1.83,4.49-.07,10.46,10.36,21,20.61,31.54,30.92.65.63,1.53,1.14,1.62,2.47C358.26,228.82,357.77,229.45,357.21,230Z" class="cls-2"/><path d="M221,455.93l1.08,1.17Z" class="cls-3"/></g></svg>