<svg xmlns="http://www.w3.org/2000/svg" fill="none" viewBox="0 0 318 318" aria-hidden="true" width="24px"><path fill="url(#a)" d="M0 0h318v318H0z"/><path fill="#fff" d="M165.033 61.663c30.41 0 55.063 25.064 55.063 55.982v32.19c0 30.919-24.653 55.983-55.063 55.983-4.777 0-9.412-.619-13.831-1.781l.001 3.8c0 22.618-18.122 40.996-40.615 41.362l-.683.005V126.043l.063-.002.002-8.396c0-30.918 24.653-55.982 55.063-55.982zm0 41.987c-7.603 0-13.766 6.266-13.766 13.995v32.19c0 7.73 6.163 13.996 13.766 13.996s13.766-6.266 13.766-13.996v-32.19c0-7.729-6.163-13.995-13.766-13.995z"/><defs><linearGradient id="a" x1="159" x2="159" y1="0" y2="318" gradientUnits="userSpaceOnUse"><stop stop-color="#7E46F2"/><stop offset="1" stop-color="#46279A"/></linearGradient></defs></svg>