<svg xmlns="http://www.w3.org/2000/svg" viewBox="0 0 100 100" aria-hidden="true" width="24px"><defs><linearGradient id="a" x1="50%" x2="50%" y1="0%" y2="100%"><stop offset="0%" stop-color="#3100FF"/><stop offset="100%" stop-color="#3100FF" stop-opacity="0"/></linearGradient></defs><g fill="none" fill-rule="evenodd"><g fill="url(#a)" transform="translate(.224 26.165)"><ellipse cx="14.833" cy="14.256" rx="14.833" ry="14.227" transform="rotate(-90 16.134 14.067)"/><ellipse cx="14.833" cy="14.256" rx="14.833" ry="14.227" transform="rotate(90 7.972 22.009)"/></g><path fill="#0F0835" d="M51.017 61.348c-3.907 0-7.08-.907-9.592-2.337l2.197-6.662h.175c1.22 4.883 5.022 7.394 8.545 7.394 1.988 0 3.453-1.15 3.453-3 0-1.116-.453-2.162-2.476-3.069l-5.79-2.65c-3.418-1.605-5.197-4.465-5.197-7.534 0-3.802 2.406-7.953 9.382-7.953 3.14 0 6.767 1.012 8.824 2.163l-2.51 5.72h-.175c-1.395-4.29-4.5-6.348-7.534-6.348-2.546 0-3.453 1.29-3.453 2.441 0 1.151.593 2.233 2.442 3.14l5.964 2.825c3.836 1.779 4.987 3.976 4.987 7.01 0 4.953-3.697 8.86-9.242 8.86zm20.913-5.372c1.744 0 3.034-.523 3.976-1.848l.28.07c-.943 5.37-4.57 6.975-7.36 6.975-4.011 0-7.953-3.209-7.953-9.312 0-5.86 3.453-10.046 8.197-10.046 2.965 0 7.185 1.57 7.185 8.197H66.21c.523 3.941 2.616 5.964 5.72 5.964zm-3.627-13.01c-1.43 0-2.233 1.849-2.233 4.988 0 .349 0 .663.035.977h4.325c0-4.604-.732-5.965-2.127-5.965zm21.122 12.94.314.105c-.767 2.581-2.86 5.162-6.487 5.162-3.314 0-4.779-2.127-4.779-5.022V43.315h-1.709v-.174c2.686-2.302 5.546-4.43 8.301-6.836h.035v6.103h3.209v.872H85.1v11.93c0 1.5.663 2.476 1.884 2.476 1.36 0 2.127-.907 2.441-1.779z"/></g></svg>