<svg xmlns="http://www.w3.org/2000/svg" fill="none" viewBox="0 0 103 103" aria-hidden="true" width="24px"><path fill="#FF6521" d="M45.4591 33.9055C46.0073 33.3469 46.7623 33.0056 47.6002 33.0056C48.438 33.0056 49.1827 33.3366 49.7206 33.8848L63.0222 47.1864C64.0979 48.2621 65.8459 48.2621 66.9216 47.1864L77.5029 36.6051C78.5786 35.5294 78.5786 33.7814 77.5029 32.7057L55.337 10.5087C51.0755 6.24725 44.1558 6.24725 39.8943 10.5087L17.6974 32.7057C16.6217 33.7814 16.6217 35.5294 17.6974 36.6051L28.2787 47.1864C29.3544 48.2621 31.1024 48.2621 32.1782 47.1864L45.4591 33.9055Z"/><path fill="#202020" d="M92.0148 47.1967L87.2052 42.387C86.1295 41.3113 84.3814 41.3113 83.3057 42.387L49.7207 75.972C49.1828 76.5098 48.4278 76.8512 47.6003 76.8512C46.7728 76.8512 46.0281 76.5202 45.4799 75.9823L11.9052 42.387C10.8295 41.3113 9.0815 41.3113 8.00579 42.387L3.19611 47.1967C-1.06537 51.4581 -1.06537 58.3779 3.19611 62.6394L39.8841 99.3274C44.1456 103.589 51.0653 103.589 55.3268 99.3274L92.0148 62.6394C96.2763 58.3779 96.2763 51.4581 92.0148 47.1967"/></svg>