<svg xmlns="http://www.w3.org/2000/svg" fill="none" viewBox="0 0 30 30" aria-hidden="true" width="24px"><g clip-path="url(#clip0_1786_17697)"><g clip-path="url(#clip1_1786_17697)"><path fill="#CDADEF" d="M17.9122 24.401C17.7138 25.1015 17.2985 25.721 16.7259 26.1706C16.1521 26.619 15.451 26.874 14.7233 26.8991H9.87368L0 6.25439H9.86112L14.7931 16.5816C14.7931 16.5816 18.3923 22.704 17.9122 24.401Z"/><path fill="url(#paint0_linear_1786_17697)" d="M17.9121 24.4011C18.3922 22.7041 14.7944 16.5859 14.7944 16.5859H20.1269L17.9121 24.4011Z"/><path fill="#CDADEF" d="M20.127 16.586H29.7564V6.25879H25.9102C25.1796 6.25919 24.468 6.49182 23.8783 6.92308C23.2884 7.35508 22.8515 7.96363 22.6306 8.66057L20.127 16.586Z"/></g></g><defs><linearGradient id="paint0_linear_1786_17697" x1="17.6163" x2="15.3136" y1="16.0389" y2="24.203" gradientUnits="userSpaceOnUse"><stop stop-color="#CDADEF"/><stop offset="1" stop-color="#8458B3"/></linearGradient><clipPath id="clip0_1786_17697"><rect width="145" height="26.6554" fill="white" transform="translate(0 0.671875)"/></clipPath><clipPath id="clip1_1786_17697"><rect width="29.7564" height="20.6447" fill="white" transform="translate(0 6.25439)"/></clipPath></defs></svg>