<svg xmlns="http://www.w3.org/2000/svg" fill="none" viewBox="0 0 28 32" aria-hidden="true" width="24px"><g clip-path="url(#clip0_3515_379400)"><path fill="#00C5C1" d="M8.71094 9.09346L13.9343 0.00012207L19.1642 9.09346L13.9343 12.1268L8.71094 9.09346Z"/><path fill="#00C5C1" d="M4.35938 16.6809L6.97436 12.1276L13.9432 16.1676L20.9187 12.1276L23.5337 16.6809L13.9432 22.2409L4.35938 16.6809Z"/><path fill="#00C5C1" d="M0 24.2673L2.61498 19.714L13.9377 26.2807L25.2737 19.714L27.8755 24.2673L27.4971 24.3473C23.5879 25.1807 18.2053 28.3007 15.5505 31.2873C15.3489 31.5128 15.1022 31.693 14.8266 31.8165C14.5511 31.9399 14.2527 32.0036 13.951 32.0036C13.6493 32.0036 13.3509 31.9399 13.0754 31.8165C12.7998 31.693 12.5531 31.5128 12.3515 31.2873C9.69667 28.3007 4.29415 25.1807 0.404858 24.3473L0 24.2673Z"/><path fill="#009A96" d="M13.9343 12.1268L8.71094 9.09346L13.9343 0.00012207V12.1268Z"/><path fill="#009A96" d="M13.9432 22.2409L4.35938 16.6809L6.97436 12.1276L13.9432 16.1676V22.2409Z"/><path fill="#009A96" d="M13.9377 32.0007C13.6364 32.0002 13.3384 31.9365 13.063 31.8137C12.7875 31.6909 12.5407 31.5116 12.3382 31.2873C9.6834 28.3007 4.28087 25.1807 0.391584 24.3473L0 24.2673L2.61498 19.714L13.9377 26.2807V32.0007Z"/></g></svg>