<svg xmlns="http://www.w3.org/2000/svg" version="1.2" viewBox="0 0 40 44" aria-hidden="true" width="24px"><title>mahalend-svg</title><defs><linearGradient id="g1" x1="12.7" x2="23.6" y1="32.7" y2="34.7" gradientUnits="userSpaceOnUse"><stop offset="0" stop-color="#ff8506"/><stop offset=".581" stop-color="#fd3947"/><stop offset="1" stop-color="#fb0078"/></linearGradient><linearGradient id="g2" x1="24" x2="32.3" y1="32.2" y2="29.6" gradientUnits="userSpaceOnUse"><stop offset="0" stop-color="#ff8506"/><stop offset=".581" stop-color="#fd3947"/><stop offset="1" stop-color="#fb0078"/></linearGradient></defs><style>.s0 { fill: none;stroke: url(#g1);stroke-width: 1.5 } 
		.s1 { fill: none;stroke: url(#g2);stroke-width: 1.5 } 
		.s2 { fill: #ffffff }</style><path id="Layer" fill-rule="evenodd" d="m27.9 12.9q-0.9-0.5-1.9-0.7-1-0.1-2 0.2-1 0.2-1.9 0.9-0.8 0.6-1.3 1.5l-8.7 15.1q-0.1 0.1-0.1 0.3-0.1 0.2 0 0.4 0 0.1 0.2 0.3 0.1 0.1 0.2 0.2 0.9 0.5 1.9 0.7 1.1 0.1 2.1-0.2 1-0.2 1.8-0.9 0.8-0.6 1.3-1.5l8.7-15.1q0.1-0.1 0.2-0.3 0-0.2-0.1-0.4 0-0.1-0.1-0.3-0.1-0.1-0.3-0.2z" class="s0"/><path id="Layer" fill-rule="evenodd" d="m23.2 30.9c0 0.5 0.4 0.9 0.9 0.9h2.8q1 0 2-0.4 0.9-0.4 1.7-1.1 0.7-0.7 1.1-1.7 0.4-0.9 0.4-2 0-0.2-0.1-0.3-0.1-0.2-0.2-0.3-0.1-0.2-0.3-0.2-0.1-0.1-0.3-0.1h-2.8q-1 0-2 0.4-0.9 0.4-1.7 1.1-0.7 0.8-1.1 1.7-0.4 1-0.4 2z" class="s1"/><path id="Layer" fill-rule="evenodd" d="m68.3 16.7v10.3h-2.1v-6.6l-4.2 6.6h-2.4l-4.2-6.6v6.6h-2.2v-10.3h2.2l5.4 8.5 5.4-8.5zm12.6 7.9h-5.3l-1.1 2.4h-2.3l4.9-10.3h2.3l4.9 10.3h-2.3zm-0.8-1.6l-1.9-4.2-1.9 4.2zm19.9-6.4v10.4h-2.2v-4.3h-7.6v4.3h-2.1v-10.4h2.1v4.3h7.6v-4.3c0 0 2.2 0 2.2 0zm12.5 8h-5.3l-1.1 2.4h-2.3l4.9-10.4h2.3l4.9 10.4h-2.3zm-0.7-1.6l-2-4.3-1.9 4.3zm17 2.1v1.8h-7.7-1.3v-10.3h2.2v8.5zm14.5 0v1.8h-10.2v-10.3h10.2v1.7h-8v2.8h6.5v1.3h-6.5v2.7zm16.5-8.5v10.3h-2.1l-7.7-7.5v7.5h-2.1v-10.3h2.1l7.7 7.5v-7.5zm16.9 5.1c0 2.7-1.7 5.2-6.1 5.2h-5.9v-10.3h5.9c4.6 0 6.1 2.4 6.1 5.1zm-2.2 0c0-1.8-0.9-3.3-4-3.3h-3.7v6.7h3.7c3.1 0 4-1.6 4-3.4z" class="s2"/><path id="Layer" fill-rule="evenodd" d="m84.4 27h-2.4l-1.1-2.3h-5.6l-1 2.3h-2.4l4.7-10.1c0.3-0.5 0.9-0.9 1.5-0.9q0.3 0 0.5 0 0.2 0.1 0.4 0.2 0.2 0.2 0.4 0.3 0.1 0.2 0.2 0.5c0 0 4.8 10 4.8 10zm-4.3-4.2l-2-4.3-1.9 4.3zm36.3 4.2h-2.4l-1-2.3h-5.6l-1 2.3h-2.4l4.7-10.1c0.2-0.5 0.8-0.9 1.5-0.9q0.2 0 0.5 0 0.2 0.1 0.4 0.2 0.2 0.2 0.4 0.3 0.1 0.2 0.2 0.5zm-4.3-4.2l-1.9-4.3-2 4.3z" class="s2"/></svg>