<svg fill="none" height="29" viewBox="0 0 21 29" width="21" xmlns="http://www.w3.org/2000/svg"><path d="M19.9022 17.1166C20.092 16.1801 20.1936 15.2165 20.1936 14.2257C20.1936 13.1671 20.0784 12.1424 19.8615 11.1516C18.1262 10.3983 16.2146 9.98438 14.2081 9.98438C10.2832 9.98438 6.73122 11.5723 4.16211 14.1443C6.73122 16.7162 10.2832 18.3042 14.2081 18.3042C16.2349 18.3042 18.1601 17.8835 19.9022 17.1166Z" fill="url(#paint0_radial_3723_11810)"></path> <path d="M19.8547 11.1564C18.1194 10.4032 16.2078 9.98922 14.2013 9.98922C10.2832 9.98922 6.73121 11.5772 4.1621 14.1423C1.59299 11.5704 0 8.00766 0 4.07848C0 3.0877 0.10168 2.12407 0.291483 1.18758C2.0336 0.420742 3.95874 0 5.98556 0C12.7846 0 18.4651 4.77067 19.8683 11.1564H19.8547Z" fill="url(#paint1_linear_3723_11810)"></path> <path d="M19.8547 17.1304C18.1194 17.8837 16.2078 18.2977 14.2013 18.2977C10.2832 18.2977 6.73121 16.7097 4.1621 14.1445C1.59299 16.7165 0 20.2792 0 24.2084C0 25.1992 0.10168 26.1628 0.291483 27.0993C2.0336 27.8594 3.95874 28.2869 5.98556 28.2869C12.7846 28.2869 18.4651 23.5162 19.8683 17.1304H19.8547Z" fill="url(#paint2_linear_3723_11810)"></path> <defs><radialGradient id="paint0_radial_3723_11810" cx="0" cy="0" gradientTransform="translate(7.01593 14.1171) scale(14.0996 11.9459)" gradientUnits="userSpaceOnUse" r="1"><stop stop-color="#3C69FF"></stop> <stop offset="1" stop-color="#0034AA"></stop></radialGradient> <linearGradient id="paint1_linear_3723_11810" gradientUnits="userSpaceOnUse" x1="3.49101" x2="7.63411" y1="2.47695" y2="14.1123"><stop stop-color="#2D5AF1"></stop> <stop offset="1" stop-color="#0034AA"></stop></linearGradient> <linearGradient id="paint2_linear_3723_11810" gradientUnits="userSpaceOnUse" x1="0.61008" x2="14.8801" y1="22.9394" y2="20.4"><stop stop-color="#2D5CF3"></stop> <stop offset="1" stop-color="#0034AA"></stop></linearGradient></defs></svg>