<?xml version="1.0" ?>
<svg data-name="layer 1" id="layer_1" viewBox="0 0 128 128" xmlns="http://www.w3.org/2000/svg">
    <title/>
    <path d="M109.5,19.05,109,18.5A64.5,64.5,0,0,0,95.38,8.24a63,63,0,0,0-11.25-5,60.67,60.67,0,0,0-7.63-2A63.83,63.83,0,0,0,27.26,11.62a65.2,65.2,0,0,0-8.67,7.32,64.25,64.25,0,0,0-9.67,12.5A62.83,62.83,0,0,0,4.55,40.3,64,64,0,0,0,.71,73.52,62.5,62.5,0,0,0,2.2,80.67,63.86,63.86,0,0,0,18.5,109c.09.1.44.46.55.55a64,64,0,0,0,11.2,8.85,64.23,64.23,0,0,0,14,6.54,61.14,61.14,0,0,0,6.18,1.67,64.37,64.37,0,0,0,28-.21,65.1,65.1,0,0,0,8.32-2.55,63.63,63.63,0,0,0,13.11-6.86A63.82,63.82,0,0,0,128,64a63.86,63.86,0,0,0-5.34-25.59,65.32,65.32,0,0,0-3.16-6.25,63.92,63.92,0,0,0-4.59-6.89A62.78,62.78,0,0,0,109.5,19.05ZM64,4a59.79,59.79,0,0,1,41,16.21L20.21,105A60,60,0,0,1,64,4Zm0,120a59.79,59.79,0,0,1-41-16.21L107.79,23A60,60,0,0,1,64,124Z"/>
</svg>
