<svg width="1080" height="1080" viewBox="0 0 1080 1080" fill="none" xmlns="http://www.w3.org/2000/svg">
<g clip-path="url(#clip0_1_226)">
<circle cx="540" cy="540" r="540" fill="#00FF00"/>
<path d="M540.038 216C475.953 215.991 413.304 234.986 360.016 270.584C306.727 306.182 265.192 356.784 240.663 415.989C216.135 475.194 209.715 540.343 222.215 603.198C234.715 666.052 265.574 723.787 310.889 769.102C356.204 814.418 413.939 845.276 476.794 857.776C539.648 870.277 604.797 863.856 664.002 839.328C723.207 814.799 773.809 773.264 809.407 719.976C845.005 666.687 864 604.038 863.991 539.953C863.991 454.036 829.861 371.637 769.108 310.884C708.355 250.131 625.956 216 540.038 216ZM540.038 793.241C475.975 793.298 414.275 769.051 367.391 725.393C320.507 681.735 291.931 621.917 287.429 558.012C282.927 494.107 302.835 430.873 343.136 381.074C383.436 331.274 441.127 298.616 504.565 289.691V444.569C482.134 452.89 463.341 468.832 451.474 489.607C439.607 510.382 435.42 534.667 439.647 558.216C443.874 581.765 456.245 603.079 474.597 618.43C492.948 633.78 516.112 642.191 540.038 642.191C563.963 642.191 587.127 633.78 605.479 618.43C623.83 603.079 636.201 581.765 640.428 558.216C644.655 534.667 640.469 510.382 628.602 489.607C616.735 468.832 597.942 452.89 575.51 444.569V289.459C638.949 298.383 696.64 331.041 736.94 380.841C777.24 430.641 797.149 493.874 792.647 557.779C788.145 621.684 759.568 681.502 712.685 725.16C665.801 768.818 604.101 793.066 540.038 793.008V793.241Z" fill="black"/>
</g>
<defs>
<clipPath id="clip0_1_226">
<rect width="1080" height="1080" fill="white"/>
</clipPath>
</defs>
</svg>
