<svg
	version="1.1"
	id="nftperp-logo-icon-pr"
	xmlns="http://www.w3.org/2000/svg"
	xmlns:xlink="http://www.w3.org/1999/xlink"
	xml:space="preserve"
	x="0px"
	y="0px"
	viewBox="0 0 600 600"
	style="enable-background:new 0 0 600 600;"
>
<style type="text/css">
	.st0 { fill: url(#np_logo_gradient_id); }
</style>
<metadata>
	<sfw>
		<slices></slices>
		<sliceSourceBounds bottomLeftOrigin="true" height="494.2" width="600" x="0" y="-547.1"></sliceSourceBounds>
	</sfw>
</metadata>
<linearGradient id="np_logo_gradient_id" gradientUnits="userSpaceOnUse" x1="-1.818989e-12" y1="300" x2="600" y2="300">
	<stop offset="0" style="stop-color:#FF1A40"/>
	<stop offset="1" style="stop-color:#4F0FFF"/>
</linearGradient>
<path class="st0" d="M579.8,75.1c-12.4-11.9-28.9-18.4-46.4-18.4c-7.6,0-15.3,1.2-22.6,3.7c-0.3,0.1-0.7,0.2-1,0.3c0,0,0,0-0.1,0
	L310,134.4c-11.5,3.9-35.9,12.8-35.9,12.8l-65.6-71.6c-13.1-14.4-31.9-22.7-51.3-22.7c0,0,0,0,0,0c-6.3,0-12.5,0.8-18.6,2.5
	c-25.4,6.9-44.5,27.2-49.8,52.9l0,0.1L2.5,462.2c-6.7,24.8,0.4,50.6,18.6,67.4c12.2,11.3,28.2,17.5,45.1,17.5
	c8.2,0,16.4-1.5,24.2-4.3l200.5-73.2c0,0,0,0,0.1,0c0.7-0.3,40.1-14.3,40.1-14.3l58.8,65.8c13.8,15.6,33.6,24.5,54.4,24.5
	c5.8,0,11.6-0.7,17.3-2.1c26.3-6.4,46.7-26.6,53.3-52.9l2.6-10.5l0-0.1l0.1-0.3c5.7-23.7,78.3-330.5,80.1-338.3
	C604.1,117.2,597.3,91.8,579.8,75.1z M152.6,472.4l-77,27.7c-17.8,6.6-33.6-7.9-28.3-26.3L71,377.5c1.3-5.9,8.6-7.2,12.5-2.6
	l72.4,86.3C159.2,464.5,157.2,470.4,152.6,472.4z M275.7,426.9l-54.6,20.4c-2.6,1.3-5.9,0-7.9-2L89.4,307.1c-1.3-2-2-3.9-1.3-6.6
	l15.8-63.2c1.3-5.3,8.6-7.2,12.5-3.3L279,415.1C281.7,419,280.3,424.9,275.7,426.9z M473.9,469.1l-2.6,10.5
	c-5.3,21.1-32.3,27.7-46.7,11.2L143.4,176.1c-11.2-12.5-15.8-29.6-11.8-45.4l2.6-13.2c3.9-19.1,28.3-25.7,41.5-11.2L460.1,417
	C473.3,430.9,478.5,450,473.9,469.1z M513.4,303.1l-15.8,63.2c-1.3,5.3-8.6,7.2-12.5,3.3l-162-181.1c-3.3-4-2-9.9,2.6-11.2
	l54.7-20.4c2.6-1.3,5.9,0,7.9,2l123.1,138.3C513.4,298.5,514.1,301.2,513.4,303.1z M554.3,130l-23.7,96.1c-1.3,5.9-8.6,7.2-12.5,2.6
	l-72.4-86.3c-3.3-3.9-1.3-9.9,3.3-11.2l77-27.7C543.7,97.7,559.5,111.5,554.3,130z"/>
</svg>
