<?xml version="1.0" encoding="UTF-8"?>
<svg id="Layer_2" data-name="Layer 2" xmlns="http://www.w3.org/2000/svg" viewBox="0 0 400 400">
  <defs>
    <style>
      .cls-1 {
        fill: #000;
      }

      .cls-1, .cls-2 {
        stroke-width: 0px;
      }

      .cls-2 {
        fill: red;
      }
    </style>
  </defs>
  <g id="Layer_1-2" data-name="Layer 1">
    <g>
      <rect class="cls-1" x="0" y="0" width="400" height="400" rx="200" ry="200"/>
      <path class="cls-2" d="M305.2,284.05l-6.57,7.83-6.11,8.22-7.03,7.44-3.17,2.84-5.56,4.75-5.47.9-3.92-.94-6.3-3.72-9.07-6.04-10.21-9.35-6.52-6.26-9.82-9.81-9.21-7.73-5.38-2.94-4.38-1.32-4.16,1.22-6.41,4.83-3.48,4.15-6.26,6.52-16.01,21.89-6.64,6.98-3.48,4.15-6.33,5.68-6.32.98-7.53-3.18-9.67-8.12-11.59-10.51-6.98-6.65-10.91-7.58-6.98-6.64-2.45-3.63-4.83-6.41-.98-6.32,4.49-7.22,6.11-8.22,5.72-7.76,16.84-17.27,5.34-7.3,2.32-2.76,3.57-8-.98-6.32-5.14-5.1-30.4-25.51-6.98-6.64-4.15-3.48-5.36-7.64-1.83-6.24,4.1-6.76,3.02-4.53,7.03-7.44,6.72-6.14,6.65-6.98,8.74-12.29,7.49-7.06,6.79-5.29,6.32-.98,6.76,4.1,11.52,9.66,14.43,13.68,15.97,11.83,6.3,3.72,4,1.78,5.01-1.29,5.17-4.29,5.87-6.06,5.34-7.3,14.93-19.66,9.66-11.52,5.95-5.21,4.93-2.14,3.85.09,4.99,3.4,3.61,2.25,6.52,6.26,10.36,11.04,7.37,6.18,11.37,7.97,10.6,8.89,4.29,5.17,1.68,4.55-.86,4.77-3.72,6.3-13.14,15.66-6.64,6.98-9.81,9.82-4.95,6.84-3.09,3.68-2.87,6.23-.86,4.77,1.6,3.7,4.29,5.17,11.06,9.28,25.11,18.72,6.98,6.64,3.3,3.55,5.21,5.95,1.05,7.16-3.11,8.38-6.57,7.83-10.12,11.13ZM118.27,123.28l3.45,5.25.09-3.85-1.46-2.01-2.08.61ZM101.17,147.4l-.07-.85-2.15-.24.07.85,1.38,1.16.77-.92ZM111.81,142.2l-.15-1.69-1.69.15-.77.92.46.39.07.85,1.31.31.77-.92ZM117.76,136.98l-.07-.85-1.69.15-.39.46.07.85,1.69-.15.39-.46ZM114.82,142.36l.22,2.54,1.84,1.55,10.64-5.2-10.78-1.19-1.93,2.3ZM110.16,152.58l.63-2.62-.46-.39-1.31-.31-1.55,1.84.22,2.54,2.47-1.07ZM126.95,129.78l.15,1.69,1.77.7,1.55-1.84-2.23-1.08-1.23.53ZM128.85,136.87l-2.3-1.93-2.15-.24.76,3.78,3,.16.7-1.77ZM119.93,156.85l4.31.48-2.38-2.78-3.61-2.24-.61-2.08-3.15-1.86,2.53,4.47.85-.07,2.06,4.09ZM114.77,156.45l-1.38-1.16-2.47,1.07.61,2.08,1.31.31,1.93-2.3ZM124.58,146.63l.68,2.93,3.39-.3-.09,3.85,2.25-3.61-6.23-2.87ZM132.99,140.34l-.24,2.15,7.77,1.03-.07-.85-6.23-2.87-1.23.54ZM137.11,153.22l2.17-4.46-2.91-4.01-.85.07-.46-.39-2.15-.24-1.09,2.23,5.29,6.79ZM119.52,162.01l4.07,2.63-1.07-2.47-1.38-1.16-1.62,1ZM142.92,141.61l-.02,4.7,2.52,4.47,2.08-.61,1.32-4.38-2.91-4.01-3-.16ZM127.92,160.42l-.85.07-.31,1.31,1.38,1.16,1.62-.99-1.84-1.55ZM127.26,172.43l-2.23-1.09,2.87-6.23-6.63,2.29,2.99,4.86,3,.16ZM148.24,139.01l4.44,6.87,1.22,4.16-3.48,4.15-11.71,2.73-.62,2.62,1.99,3.24,5.4-1.75-.61-2.08,2.01-1.46,4.15,3.48,4.62-.83.7-1.77-.99-1.62-1.62,1-1.38-1.16,3.57-8-.61-2.08,1.78-4-8.84-3.49ZM136.56,156.68l-1.69.15-.24,2.16,1.38,1.16.55-3.46ZM135.68,166.15l2.08-.61.92.77,7.16-1.05-.15-1.69-11.93.19-1.01,3.08.92.77,1.69-.15.31-1.31ZM135.96,174.23l-.99-1.62.24-2.15-2.23-1.08-2.54.22-4.18,5.91.92.77,7.62-.67,1.16-1.38ZM140.21,169.16l-.16,3-2.01,1.46.15,1.69,1.69-.15,3.09-3.69-.3-3.39-2.47,1.07ZM192.17,241.02l.4-5.16,2.78-2.38-2.3-1.93-2.85,1.53.46.39-1.77-.7-.76-3.78,1.23-.53.55-3.46-1.77-.7-2.01,1.46-.92-.77.39-.46-1.84-1.55,1.16-1.38-.54-1.23,4.25-5.07,2.23,1.09.77-.92-.15-1.69-1.31-.31.77-.92-.68-2.93-2.08.61-1.93,2.3-1.38-1.16-.15-1.69,2.01-1.46-.22-2.54-2.3-1.93,1.47-2.69-1.09,2.23,4.61,3.87.77-.92-.61-2.08-1.84-1.55-.37-4.24,2.25-3.61,2.54-.22,2.39-1.92,2.16.24.3,3.39-.39.46-.85.07.07.85.46.39,2.08-.61,1.46,2.01-3.42,9.69,1.23-.54-.39.46-.31,1.31,2.08-.61.39-.46-.07-.85-.46-.39-.85.07,3.94-3.76,1.69-.15,4.92,2.56.83,4.62,3,.16.31-1.31,1.69-.15.92.77,3.7-1.6-.61-2.08-15.99-7.14-1.29-5.01,2.8-7.07-1.07-2.47-3-.16-2.39,1.92-4.59-8.56-4.01,2.91-4.15-3.48-.85.07.31-1.31,2.85-1.53,1.4-3.54-.46-.39-.07-.85-.92-.77,3.31-1.14-2.23-1.09-2.01,1.46-2.84-3.17-4.68-4.71-.13-6.39-2.3-1.93,1.47-2.69-2.62-.62-2.01,1.46-.85.07-1.84-1.55-1.14-3.31-1.47,2.69,1.75,5.4-7.4,3.21,1.38,1.16,8.55.11,1.84,1.55-17.02.64-.62,2.62-4.33,4.22,2.82,7.86,5.47-.91,2.69,1.47-7.4,3.21.61,2.08-2.17,4.46-6.87,4.44-2.15-.24-3.69-3.09.24-2.15,2.08-.61,1.16-1.38-.15-1.69-5.86,1.37-.37-4.24-.46-.39-2.93.68-1.16,1.38-1.69.15-.7,1.77,14.81,13.22,1.16-1.38,3.32-1.14-.63,2.62,3.28,8.25,2.39-1.92-2.21-5.78.7-1.77-.76-3.77,4.18-5.91,3.85.09,1.47-2.69.92.77,3.94-3.76.94-3.92-1.07-2.47-2.16-.24-.46-.39,2.41-6.61,3.7-1.6,1.99,3.24-1.09,2.23-1.69.15-.77.92,13.7.51.39-.46,1,1.62-1.62,1-1.09,2.23.46.39-1.55,1.84.15,1.69-.77.92-6.78.59-3.55,3.3,2.3,1.93,1.14,3.31,2.23,1.09,2.08-.61,1.55-1.84-.07-.85,2.15.24,1.55-1.84-1.22-4.16,2.01-1.46.31-1.31,2.99,4.86-.02,4.7-2.71,3.22-8.47.74-1.47,2.69,2.84,3.17,2.16.24-3.32,1.14-4.15-3.48-2.47,1.07-1.47,2.69-2.47,1.07-1-1.62,2.41-6.61-7.55,1.51-.53-1.23-1.69.15-.31,1.31,1.77.7,1.53,2.85-.24,2.16,1,1.62,1.31.31.21,7.24,6.5-8.68,6.46.72-.77.92.07.85-3-.16-3.87,4.61,2.07,4.09-.31,1.31-2.39,1.92-.63,2.62,3.46.55,2.71-3.22.85-.07,1.92,2.39-.16,3-3.24,1.99,2.23,1.09,2.85-1.53,1.53,2.85-1.86,3.15-.46-.39-1.23.53-2.62-.62-2.47,1.07-2.3-1.93-2.01,1.46,1,1.62,2.23,1.08-1.03,7.77-3-.16-1.01,3.08,6.09-3.52.09-3.85,1.23-.53-.61-2.08-1.77-.7,1.55-1.84,2.62.62,2.01-1.46-2.24,3.61.91,5.47,1.38,1.16,1.16-1.38.16-3,.77-.92,2.23,1.09,1.16-1.38-.61-2.08,1.23-.54,1.31.31.76,3.78-1.23.54-1.78,4-5.32,2.6-1.47,2.69,4.55-1.68,3.3,3.55,5.01-1.29.7-1.77,2.08-.61.15,1.69,1.69-.15,1.55-1.84ZM157.66,153.98l-.31,1.31,1.38,1.16.85-.07-1.07-2.47-.85.07ZM146.27,175.04l.54,1.23,1.31.31,1.55-1.84-.15-1.69-1.31-.31-1.62.99-.31,1.31ZM171.52,175.81l1.77.7,1.62-1,.31-1.31-2.23-1.09-2.01,1.46.53,1.23ZM216.64,130.46l-1.09,2.23.61,2.08,4.4-3.37-1-1.62-2.93.68ZM221.89,127.02l-.31,1.31,1.38,1.16.85-.07.77-.92-1.84-1.55-.85.07ZM244.09,185.68l.77-.92,2.93-.68,1.16-1.38-8.09.28-4.06-7.33-.8,10.31-1.55,1.84-2.51-9.17,2.1-5.3-.68-2.93-6.45-5.41-7.86,2.82.52,5.93-1.47,2.69-3.21-7.4-6.61-2.41-5.29-6.79,1.16-1.38-.54-1.23,1.09-2.23,4.62-.83-.24,2.15,1.84,1.55,2.08-.61-1.37-5.86,4.62-.83-.68-2.93-1.38-1.16-.15-1.69-2.23-1.09-1.09,2.23-1.62.99-5.25,3.45-1.64,5.69-4.01,2.91,1.38,1.16,1.14,3.31-.39.46-2.23-1.09-8.25,3.28,1.92,2.39,11.79-1.88,4.53,3.02,1.29,5.01,3.15,1.86-.77.92,3.76,3.94,3.92.94,2.47-1.07.24-2.15.39-.46,7.07,2.8,1.14,3.31-3.17,2.84-1.84-1.55-.15-1.69-1.77-.7-.66,12.01,3.68,3.09.77-.92.85-.07,5.1-5.14,3.46.55,5.32-2.6,1.38,1.16.85-.07.62-2.62-1.46-2.01.39-.46-.07-.85ZM148.25,226.93l5.84,3.33.85-.07.39-.46,5.68,6.33,1.31.31,1.23-.54-5.73-11.88.62-2.62-3.15-1.86-2.71,3.22,1.77.7,1.62-1,.46.39-3.24,1.99-.46-.39-.77.92-.07-.85-.39.46-2.15-.24-1.38-1.16.31-1.31-1.31-.31-1.23.53-1.18,6.08,2.15.24,1.55-1.84ZM236.39,117.21l.07.85.92.77,1.31.31.39-.46-.07-.85-.46-.39-2.16-.24ZM217.84,139.32l.74,8.47,1.38,1.16,5.25-3.45-.61-2.08-6.38-4.56-.39.46ZM227.18,133.81l-5.32,2.6-.55,3.46,1.93-2.3,2.76,2.32,3.46.55-2.29-6.63ZM198.8,170.44l-2.23-1.09-4.01,2.91.53,1.23,1.77.7,3.63-2.45.31-1.31ZM243.72,113.16l.53,1.23,2.08-.61,1.93-2.3,1.77.7,2.08-.61-4.92-2.56-3.48,4.15ZM161.3,215.12l2.93-.68-1.46-2.01-1.77-.7.3,3.39ZM239.68,125.46l-1.46-2.01-2.54.22.07.85,2.38,2.78,1.55-1.84ZM137.56,246.22l2.63-4.07-2.15-.24-.39.46-.85.07-2.01,1.46.61,2.08,2.15.24ZM244.92,122.01l.77-.92-2.3-1.93-2.54.22,1.07,2.47,3.08,1.01-.07-.85ZM233.51,128.14l-1.16,1.38.15,1.69,3.09-3.69-2.08.61ZM147.69,235.09l.09-3.85-4.71,4.68,1,1.62,1.69-.15,1.93-2.3ZM114.76,273.4l-.61-2.08-.85.07-.7,1.77,1.38,1.16.77-.92ZM232.57,132.06l-2.63,4.07,4.01-2.91-1.38-1.16ZM160.04,225.05l4.86-2.99,1.4-3.54-2.69-1.47-3.17,2.84-.4,5.16ZM226.49,155.21l-.99-1.62-2.16-.24-.92-.77-.85.07-.61-2.08-2.08.61-.24,2.15,6.69,3.26,1.16-1.38ZM204.25,174.23l-2.08.61-1.16,1.38-1.77-.7-1.62.99-1.32,4.38,1.77.7,1.55-1.84,6.69,3.26-1.13-8.01,1.23-.53-.15-1.69-1.31-.31-.7,1.77ZM127.33,265.9l-.61-2.08-3.31,1.14-.7,1.77.53,1.23,1.69-.15,2.39-1.92ZM180.38,198.94l1.99,3.24-1.62,1-3.85-.09,3.48-4.15ZM241.67,128.7l.07.85-4.09,2.06-.4,5.16,8.96-9.75-4.55,1.68ZM136.85,252.69l3.22,2.71,1.69-.15,3.69,3.09,14.91-14.96.48-4.31-9.59,12.36-2.54.22-2.3-1.93,1.09-2.23-3.61-2.25-7.03,7.44ZM151.99,235.57l.54,1.23,2.08-.61.31-1.31-1.84-1.55-1.09,2.23ZM231.77,142.37l.85-.07,1.55-1.84-.07-.85-1.31-.31-1.55,1.84.53,1.23ZM230.44,146.76l-2.69-1.47-1.16,1.38.15,1.69,1.31.31,1,1.62-1.25,5.23,1.6,3.7.85-.07.39-.46-.19-11.93ZM221.46,161.2l-.54-1.23-1.31-.31-1.62,1,.07.85,1.84,1.55.85-.07.7-1.77ZM120.75,278.42l2.15.24,2.71-3.22-.46-.39-.85.07-.77.92-2.93.68.15,1.69ZM187.15,198.35l-1.47,2.69,1.47-2.69ZM252.16,121.81l-.31,1.31.92.77,1.69-.15-.15-1.69-.92-.77-.39.46-.85.07ZM256.87,117.13l3.85.09,2.01-1.46-.07-.85-.92-.77-4.86,2.99ZM151.89,244.12l1.77.7-.07-.85-1.46-2.01-.77.92.54,1.23ZM264.29,109.22l-.24,2.16,1.69-.15.24-2.15-1.69.15ZM122.83,277.82l.07.85-.46-.39.39-.46ZM121.26,284.35l-.53-1.23-.92-.77-2.01,1.46,1.38,1.16,1.69-.15.39-.46ZM252.61,126.89l-2.54.22-1.55,1.84,5.27,11.49,1.12-11.62-2.3-1.93ZM140.28,262.63l.31-1.31-.46-.39-1.69.15.07.85-.39.46,2.15.24ZM193.07,202.53l-3.24,1.99,2.91,4.01.46.39,1.55-1.84-.12-11.09-3.17,2.84,1.6,3.7ZM236.06,147.55l-2.01,1.46,2.23,1.09,2.01-1.46-2.23-1.09ZM246.17,141.11l-4.24.37,3.15,1.86,3.72-6.3-2.93.68.3,3.39ZM247.16,167.06l-1.69.15-4.53-3.02-.83-4.62-2.84-3.17.4-5.16-5.4,1.75.91,5.47,2.54-.22,1.46,2.01-3.48,4.15.83,4.62,2.23,1.09,1.16-1.38-1-1.62,1.16-1.38,1.69-.15,6.76,4.1,2.01-1.46,4.46,2.17,3.49-8.84-9.33,5.51ZM138.79,270.02l3.32-1.14.7-1.77-2.69-1.47-1.23.54-1.09,2.23,1,1.62ZM257.38,127.75l.15,1.69.85-.07.46.39.39-.46-.07-.85-1.77-.7ZM215.09,200.6l3.54,1.4,2.38,2.78,3.46.55,2.01-1.46,1.14,3.31.85-.07.39-.46-.15-1.69-1.46-2.01.39-.46-3.92-.94-.99-1.62-1.69.15-.46-.39-.39.46-4.38-1.32-1.92-2.39-.44-5.08-3.68-3.09-1.09,2.23-.92-.77-.85.07-.24,2.15-1.69.15-.4,5.16,3.08,1.01,2.01-1.46-.54-1.23,1.16-1.38,3.98,6.48-3.46-.55,2.45,3.63,1.62-1,.24-2.15ZM136.84,277.02l-.07-.85-1.31-.31-1.16,1.38.07.85,2.47-1.07ZM250.39,145.44l-2.23-1.09-6.33,5.68,4.46,2.17,4.01-2.91-.07-.85.39-.46-.22-2.54ZM163.96,250.32l-2.84-3.17-5.48,5.6,1.77.7,3.55-3.3,3,.16ZM171.97,249.19l-1.29-5.01-5.54.06,6.06,5.87.77-.92ZM194.49,213.93l.16-3-.85.07-1.08,2.23,1.77.7ZM256.57,138.07l-.31,1.31.54,1.23,1.31.31,2.39-1.92.24-2.15-2.16-.24-2.01,1.46ZM187.53,222.22l3.46.55,2.99,4.86,1.31.31.77-.92,1.46,2.01,1.31.31,2.14,4.93,5.62.79-12.2-12.59,2.85-1.53.46.39,6.55-3.13-.94,3.92,5.56-4.75-.07-.85,2.85-1.53-13.39-1.82-2.76-2.32.76,3.78-.77.92-.24,2.16-7.71,4.52ZM148.42,267.89l1.77.7,3.63-2.45-.3-3.39-2.25,3.61-1.69.15-1.16,1.38ZM217.76,187.13l1,1.62.92.77,1.93-2.3-1-1.62-2.15-.24-.7,1.77ZM255.62,146.69l-2.23-1.09-.85.07-.77.92.13,6.39.46.39.85-.07,2.41-6.61ZM133.09,292.71l.31-1.31-.46-.39-2.15-.24.15,1.69,2.15.24ZM253.27,158.84l.62-2.62-3.46-.55-6.17,2.67,1.07,2.47,4.38,1.32,3.55-3.3ZM201.12,211.64l2.08-.61,1.16-1.38-1.38-1.16-2.01,1.46.15,1.69ZM165.78,256.56l-.07-.85-.46-.39-2.16-.24-1.16,1.38,1.77.7,2.08-.61ZM263.96,139.56l-.7,1.77,1.84,1.55.77-.92.16-3-2.08.61ZM230.02,180.94l-.39.46-.07-.85.46.39ZM240.75,171.89l.39-.46-1.31-.31-1.93,2.3,2.93-.68-.07-.85ZM162.21,264.55l-2.01,1.46,1.84,1.55,3.46.55,3.17-2.84-5.86,1.37-.61-2.08ZM149.81,288.69l-.22-2.54-1.46-2.01-2.62-.62-1.09,2.23,1.38,1.16,1.69-.15,2.3,1.93ZM179.74,250.21l-1.84-1.55-1.69.15-1.16,1.38,4.7.02ZM171.33,256.5l-2.01,1.46-.7,1.77.46.39.85-.07,1.16-1.38.24-2.15ZM228.04,197.33l-.39.46-.46-.39.85-.07ZM212.53,229.85l2.63-4.07-7.22-4.49.3,3.39,3.85.09.46.39-.02,4.7ZM147.22,303l.31-1.31-1-1.62-.53-1.23-.77.92.3,3.39,1.69-.15ZM221.36,213.71l-1.31-.31-1.62.99-.31,1.31,1.07,2.47,8.55.11-.07-.85-6.3-3.72ZM222.84,230.65l2.48-5.77-3.91-5.63-3.39.3-1.47,2.69,5.07,4.25,1.22,4.16ZM205.63,243.68l-1.07-2.47-2.3-1.93-2.01,1.46,5.38,2.94ZM209.14,254.47l-1.92-2.39,3.09-3.68.55-3.46-8.32,2.44.15,1.69,1.84,1.55,1.14,3.31,3.46.55ZM213.03,240.47l-1.84-1.55-2.01,1.46,2.3,1.93,1.69-.15-.15-1.69ZM230.98,216.28l2.27,11.33,2.93-.68,2.1-5.31-3.83-4.79-3.46-.55ZM246.29,240.12l.62-2.62-1-1.62-2.08.61-1.77-.7,4.65-10.22-1.07-2.47,2.94-5.38-10.68-5.04,1.22,4.16,2.3,1.93,2.82,7.86-14.12,9.35-5.62-.79,1.9,7.09,6.7-1.44-.68-2.93,3.24-1.99,4.29,5.17,6.32-.98ZM222.52,236.66l-.61-2.08-1.69.15-.62,2.62,1.46,2.01,1.47-2.69ZM233.11,245.55l-.15-1.69-3.46-.55-3.24,1.99-8.23-1.41-1.16,1.38,1.14,3.32,1.69-.15,3.17-2.84,1.84,1.55,8.4-1.59ZM220.45,256.9l-1.29-5.01-2.69-1.47-2.54.22-.62,2.62-.46-.39-2.32,2.76-2.08.61-.7,1.77,1.38,1.16,10.17-.89,1.16-1.38ZM229.54,253.54l-.37-4.24-.85.07-2.01,1.46-.24,2.15-.77.92.07.85-2.47,1.07.22,2.54,2.15.24,1.09-2.23.85-.07,2.32-2.76ZM251.47,235.83l-.68-2.93-1.77-.7-.31,1.31.54,1.23,2.23,1.09ZM234.07,256.56l-.31,1.31,1,1.62,1.31.31,1.93-2.3-.53-1.23-1.77-.7-1.62,1ZM239.87,273.98l.7-1.77-1.92-2.39,4.03-7.61-9.32.81-1-1.62-1.69.15-.7,1.77,2.23,1.09.61,2.08,1.84,1.55-1.47,2.69,1.46,2.01,5.23,1.25ZM249.3,240.29l.53,1.23,1.77.7,2.08-.61,1.16-1.38-3.15-1.86-2.39,1.92ZM249.35,270.16l.31-1.31-.54-1.23-1.77-.7-2.39,1.92.53,1.23,1.77.7,2.08-.61ZM267.3,265.6l-2.84-3.17-3.31,1.14-9.74,10.67.22,2.54,1.38,1.16,9.2-11.9,2.62.62,2.47-1.07ZM274.72,257.7l.24-2.15-2.76-2.32-2.08.61-.24,2.15,1.46,2.01,1.77.7,1.62-1ZM271.64,281.02l-2.99-4.86-.44-5.08-3.33,5.84,5.14,5.1,1.62-.99ZM260.76,288.37l-.07-.85-.92-.77-2.01,1.46.54,1.23,1.31.31,1.16-1.38ZM280.6,271.27l1.23-.53-.07-.85-.46-.39-1.31-.31-1.62,1,2.23,1.08ZM265.88,298.16l-1.07-2.47-3.08-1.01,2.91,4.01.85-.07.39-.46ZM293.42,261.61l-.7,1.77,1.07,2.47,1.23-.54.31-1.31-.15-1.69-.92-.77-.85.07ZM275.92,290.88l1.09-2.23-.53-1.23-.85.07-1.09,2.23.53,1.23.85-.07Z"/>
    </g>
  </g>
</svg>