<svg width="120" height="120" viewBox="0 0 120 120" fill="none" xmlns="http://www.w3.org/2000/svg">
<circle cx="60" cy="60" r="60" fill="black"/>
<path d="M96.4044 97.3649L48.7568 63.7536L23.8337 74.8786C23.6647 74.9778 23.4675 75.0181 23.2731 74.9932C23.0787 74.9684 22.898 74.8797 22.7594 74.7411C22.6208 74.6026 22.5321 74.4219 22.5072 74.2276C22.4823 74.0332 22.5227 73.836 22.6219 73.6671L33.7309 48.7389L22.6219 23.8333C22.5227 23.6644 22.4823 23.4672 22.5072 23.2729C22.5321 23.0785 22.6208 22.8978 22.7594 22.7593C22.898 22.6207 23.0787 22.532 23.2731 22.5072C23.4675 22.4823 23.6647 22.5226 23.8337 22.6218L48.7681 33.7093L73.6611 22.6218C73.8302 22.5226 74.0274 22.4823 74.2218 22.5072C74.4162 22.532 74.5969 22.6207 74.7355 22.7593C74.8741 22.8978 74.9628 23.0785 74.9877 23.2729C75.0125 23.4672 74.9722 23.6644 74.873 23.8333L63.7452 48.7389L97.3649 96.4047C97.463 96.5369 97.5103 96.6999 97.4981 96.8641C97.486 97.0282 97.4153 97.1825 97.2989 97.2989C97.1825 97.4153 97.0281 97.486 96.8639 97.4981C96.6997 97.5102 96.5367 97.4629 96.4044 97.3649Z" fill="white"/>
</svg>
