<?xml version="1.0" encoding="UTF-8" standalone="no"?>
<!-- Created with Inkscape (http://www.inkscape.org/) -->

<svg
   width="24.651953mm"
   height="14.874948mm"
   viewBox="0 0 24.651953 14.874948"
   version="1.1"
   id="svg1"
   xmlns="http://www.w3.org/2000/svg"
   xmlns:svg="http://www.w3.org/2000/svg">
  <defs
     id="defs1">
    <filter
       style="color-interpolation-filters:sRGB"
       id="filter16-3-6"
       x="-0.11546032"
       y="-0.098380387"
       width="1.2138407"
       height="1.2275046">
      <feFlood
         result="flood"
         in="SourceGraphic"
         flood-opacity="0.211765"
         flood-color="rgb(0,0,0)"
         id="feFlood15-3-1" />
      <feGaussianBlur
         result="blur"
         in="SourceGraphic"
         stdDeviation="24.000000"
         id="feGaussianBlur15-2-7" />
      <feOffset
         result="offset"
         in="blur"
         dx="-10.000000"
         dy="18.000000"
         id="feOffset15-1-3" />
      <feComposite
         result="comp1"
         operator="in"
         in="flood"
         in2="offset"
         id="feComposite15-4-9" />
      <feComposite
         result="comp2"
         operator="over"
         in="SourceGraphic"
         in2="comp1"
         id="feComposite16-0-8" />
    </filter>
    <linearGradient
       id="paint3_linear_8189_40944"
       x1="11.3625"
       y1="41.5"
       x2="11.3625"
       y2="15.409"
       gradientUnits="userSpaceOnUse"
       gradientTransform="matrix(0.1921335,0,0,0.1921335,31.918517,71.07685)">
      <stop
         stop-color="#363636"
         id="stop10" />
      <stop
         offset="1"
         stop-color="#333232"
         id="stop11" />
    </linearGradient>
    <linearGradient
       id="paint2_linear_8189_40944"
       x1="44.771702"
       y1="8.9049902"
       x2="10.6717"
       y2="44.6021"
       gradientUnits="userSpaceOnUse"
       gradientTransform="matrix(0.1921335,0,0,0.1921335,31.918517,71.07685)">
      <stop
         stop-color="#996939"
         id="stop8" />
      <stop
         offset="1"
         stop-color="#D0A875"
         id="stop9" />
    </linearGradient>
    <linearGradient
       id="paint1_linear_8189_40944"
       x1="22.5002"
       y1="41.5"
       x2="28.950199"
       y2="-37.2705"
       gradientUnits="userSpaceOnUse"
       gradientTransform="matrix(0.1921335,0,0,0.1921335,31.918517,71.07685)">
      <stop
         stop-color="#272728"
         id="stop6" />
      <stop
         offset="1"
         stop-color="#4B4B4B"
         id="stop7" />
    </linearGradient>
    <linearGradient
       id="paint0_linear_8189_40944"
       x1="82.020203"
       y1="20.8855"
       x2="-26.4816"
       y2="20.8855"
       gradientUnits="userSpaceOnUse"
       gradientTransform="matrix(0.1921335,0,0,0.1921335,31.918517,71.07685)">
      <stop
         stop-color="#996939"
         id="stop4" />
      <stop
         offset="1"
         stop-color="#D0A875"
         id="stop5" />
    </linearGradient>
    <linearGradient
       id="a"
       x1="1621.495"
       x2="1621.495"
       y1="225.489"
       y2="-30.511"
       gradientTransform="matrix(0.75,0,0,-0.75,-853.271,169.115)"
       gradientUnits="userSpaceOnUse">
      <stop
         offset="0"
         style="stop-color:#090220"
         id="stop1" />
      <stop
         offset="1"
         style="stop-color:#170659"
         id="stop2" />
    </linearGradient>
    <filter
       style="color-interpolation-filters:sRGB"
       id="filter16-3-7"
       x="-0.11546032"
       y="-0.098380387"
       width="1.2138407"
       height="1.2275046">
      <feFlood
         result="flood"
         in="SourceGraphic"
         flood-opacity="0.211765"
         flood-color="rgb(0,0,0)"
         id="feFlood15-3-0" />
      <feGaussianBlur
         result="blur"
         in="SourceGraphic"
         stdDeviation="24.000000"
         id="feGaussianBlur15-2-9" />
      <feOffset
         result="offset"
         in="blur"
         dx="-10.000000"
         dy="18.000000"
         id="feOffset15-1-7" />
      <feComposite
         result="comp1"
         operator="in"
         in="flood"
         in2="offset"
         id="feComposite15-4-3" />
      <feComposite
         result="comp2"
         operator="over"
         in="SourceGraphic"
         in2="comp1"
         id="feComposite16-0-1" />
    </filter>
  </defs>
  <g
     id="layer1"
     transform="translate(-15.431836,-68.844175)">
    <g
       id="g200-8-0"
       transform="matrix(0.02069753,0,0,0.02069753,11.07704,18.864869)"
       style="filter:url(#filter16-3-6)">
      <circle
         style="fill:#ffffff;fill-opacity:1;stroke:none;stroke-width:1.1;stroke-dasharray:none;stroke-opacity:1"
         id="path65-1-4-6"
         cx="93.054199"
         cy="118.05384"
         r="52.777012"
         transform="matrix(5.5467573,0,0,5.5467573,54.59395,2110.2725)" />
    </g>
    <g
       id="g18"
       transform="translate(-13.241598,1.1699952)">
      <path
         d="m 36.188684,71.172917 4.279774,2.532031 v 2.532089 l -4.279774,-2.532089 z"
         fill="url(#paint0_linear_8189_40944)"
         id="path1"
         style="fill:url(#paint0_linear_8189_40944);stroke-width:0.192133" />
      <path
         d="m 36.188684,79.05039 4.279774,-2.506477 v -2.506477 l -4.279774,2.506477 z"
         fill="url(#paint1_linear_8189_40944)"
         id="path2"
         style="fill:url(#paint1_linear_8189_40944);stroke-width:0.192133" />
      <path
         d="m 36.188684,71.172917 -4.1741,2.532031 v 2.532089 l 4.1741,-2.532089 z"
         fill="url(#paint2_linear_8189_40944)"
         id="path3"
         style="fill:url(#paint2_linear_8189_40944);stroke-width:0.192133" />
      <path
         d="m 36.188684,79.05039 -4.1741,-2.506477 v -2.506477 l 4.1741,2.506477 z"
         fill="url(#paint3_linear_8189_40944)"
         id="path4"
         style="fill:url(#paint3_linear_8189_40944);stroke-width:0.192133" />
    </g>
    <g
       id="g19"
       transform="translate(-3.2695305,-0.15361212)">
      <g
         id="g200-8-6"
         transform="matrix(0.02069753,0,0,0.02069753,24.28915,19.018481)"
         style="filter:url(#filter16-3-7)">
        <circle
           style="fill:#ffffff;fill-opacity:1;stroke:none;stroke-width:1.1;stroke-dasharray:none;stroke-opacity:1"
           id="path65-1-4-4"
           cx="93.054199"
           cy="118.05384"
           r="52.777012"
           transform="matrix(5.5467573,0,0,5.5467573,54.59395,2110.2725)" />
      </g>
      <g
         transform="matrix(0.0125805,0,0,0.0125805,31.686399,71.868233)"
         id="g2">
        <linearGradient
           id="linearGradient4"
           x1="1621.495"
           x2="1621.495"
           y1="225.489"
           y2="-30.511"
           gradientTransform="matrix(0.75,0,0,-0.75,-853.271,169.115)"
           gradientUnits="userSpaceOnUse">
          <stop
             offset="0"
             style="stop-color:#090220"
             id="stop3" />
          <stop
             offset="1"
             style="stop-color:#170659"
             id="stop4-4" />
        </linearGradient>
        <circle
           cx="362.79999"
           cy="362.79999"
           r="362.79999"
           style="fill:url(#a)"
           id="circle2" />
        <path
           d="M 243.3,272.6 C 240.4,269 236,267 231.3,267 h -96.9 c -0.8,0 -1.5,-0.3 -2.1,-0.8 -0.5,-0.5 -0.8,-1.1 -0.8,-1.8 v -65.3 c 0,-0.7 0.3,-1.3 0.8,-1.8 0.6,-0.6 1.3,-0.9 2.1,-0.8 h 102.4 c 25.8,0 48.1,10.6 66.9,31.7 l 24.9,30.4 -48.5,59.1 z m 179,-44.7 C 441,207 463.4,196.5 489.5,196.5 h 102.1 c 0.7,-0.1 1.4,0.2 1.9,0.6 0.5,0.5 0.7,1.2 0.6,2 v 65.3 c 0,0.7 -0.2,1.3 -0.6,1.8 -0.5,0.6 -1.2,0.9 -1.9,0.8 h -96.9 c -4.6,-0.1 -9,2 -12,5.6 L 411.3,359.5 483,447 c 2.9,3.3 7.2,5.3 11.6,5.2 h 96.9 c 0.7,-0.1 1.5,0.3 1.9,0.8 0.4,0.6 0.7,1.4 0.6,2.1 v 65.3 c 0,0.7 -0.2,1.3 -0.6,1.8 -0.5,0.6 -1.2,0.9 -1.9,0.8 h -102 c -26.1,0 -48.3,-10.6 -66.9,-31.7 l -59.4,-72.5 -59.4,72.5 C 285.1,512.4 262.7,523 236.6,523 H 134.4 c -0.7,0.1 -1.5,-0.3 -1.9,-0.8 -0.5,-0.6 -0.7,-1.4 -0.6,-2.1 v -65.3 c 0,-0.7 0.2,-1.3 0.6,-1.8 0.5,-0.6 1.2,-0.9 1.9,-0.8 h 96.9 c 4.6,0 9,-2.1 12,-5.6 L 313.4,361 Z"
           style="fill:#00d1ff"
           id="path2-1" />
      </g>
    </g>
  </g>
</svg>
