<svg
      xmlns="http://www.w3.org/2000/svg"
      viewBox="0 0 444 444"
      width='100%'
      height='100%'
      fill='black'
      name="FraxlendIcon"
    >
      <path d="M221.74 134.49c-57.96 0-115.92.02-173.87-.06-2.96 0-6.14-.33-8.84-1.44-3.9-1.59-5.55-5.31-5.53-9.36.02-4.8 2.98-7.84 7.03-10.04 15.3-8.27 30.56-16.59 45.84-24.88 41.78-22.67 83.64-45.2 125.27-68.14 7.26-4 13.14-4.07 20.44-.06 56.51 30.98 113.2 61.62 169.83 92.39 1.81.98 3.66 2.04 5.15 3.43 5.89 5.5 3.45 15.45-4.34 17.54-2.26.61-4.74.59-7.12.59-57.95.03-115.9.03-173.86.03Zm97.51 183.27c-8.06 8.43-15.67 16.38-23.63 24.69-8.46-8.06-17.05-15.86-25.14-24.14-3.33-3.41-5.55-3.77-9.93-1.46-28.24 14.87-56.07 13.06-83.77-3.34-9.08 9.48-18.31 19.11-28.02 29.24-8.2-7.83-16.32-15.58-24.72-23.59 9.7-10.18 19.25-20.2 28.91-30.34-8.27-13.62-12.59-28.21-12.44-44.08.14-15.73 4.66-30.12 13.15-43.72-8.95-8.58-17.9-17.16-27.34-26.22 7.79-8.17 15.54-16.28 23.6-24.73 9.44 9 18.64 17.78 27.92 26.63 29.69-17 59.16-16.94 89.09.73 8.59-8.98 17.37-18.16 26.45-27.65l24.71 23.6c-9.08 9.56-18.05 18.99-27.2 28.62 16.66 29.19 16.65 58.36-.68 87.95 9.41 9.03 19.05 18.25 29.04 27.81Zm-97.19-121.08c-27.08-.04-48.97 21.52-49.08 48.34-.12 27.17 21.62 49.26 48.63 49.42 26.9.16 49.17-22.03 49.15-48.97 0-26.89-21.83-48.75-48.7-48.79Zm220.04 202.9v26.88H1.9v-26.88h440.2Zm-35.7-42.08v26.87H37.52V357.5H406.4Zm-48.95-192.38H343v-16.01h63.51v15.91h-14.06v161.93h14.04v16.17h-63.58v-15.77h14.54V165.12ZM86.7 327.09h14.09v16.03H37.37v-15.8h14.38V165.25H37.28v-15.99h63.55v15.75H86.7v162.08Z" />
    </svg>
