<?xml version="1.0" encoding="UTF-8" standalone="no"?>
<!-- Created with Inkscape (http://www.inkscape.org/) -->

<svg
   width="24.443106mm"
   height="14.874965mm"
   viewBox="0 0 24.443106 14.874965"
   version="1.1"
   id="svg1"
   xml:space="preserve"
   xmlns="http://www.w3.org/2000/svg"
   xmlns:svg="http://www.w3.org/2000/svg"><defs
     id="defs1"><filter
       style="color-interpolation-filters:sRGB"
       id="filter16-3-2-0-4"
       x="-0.11546032"
       y="-0.098380387"
       width="1.2138407"
       height="1.2275046"><feFlood
         result="flood"
         in="SourceGraphic"
         flood-opacity="0.211765"
         flood-color="rgb(0,0,0)"
         id="feFlood15-3-9-3-8" /><feGaussianBlur
         result="blur"
         in="SourceGraphic"
         stdDeviation="24.000000"
         id="feGaussianBlur15-2-79-2-6" /><feOffset
         result="offset"
         in="blur"
         dx="-10.000000"
         dy="18.000000"
         id="feOffset15-1-2-1-7" /><feComposite
         result="comp1"
         operator="in"
         in="flood"
         in2="offset"
         id="feComposite15-4-2-8-9" /><feComposite
         result="comp2"
         operator="over"
         in="SourceGraphic"
         in2="comp1"
         id="feComposite16-0-3-0-0" /></filter><filter
       style="color-interpolation-filters:sRGB"
       id="filter16-3-51-9"
       x="-0.11546032"
       y="-0.098380387"
       width="1.2138407"
       height="1.2275046"><feFlood
         result="flood"
         in="SourceGraphic"
         flood-opacity="0.211765"
         flood-color="rgb(0,0,0)"
         id="feFlood15-3-6-8" /><feGaussianBlur
         result="blur"
         in="SourceGraphic"
         stdDeviation="24.000000"
         id="feGaussianBlur15-2-05-3" /><feOffset
         result="offset"
         in="blur"
         dx="-10.000000"
         dy="18.000000"
         id="feOffset15-1-8-8" /><feComposite
         result="comp1"
         operator="in"
         in="flood"
         in2="offset"
         id="feComposite15-4-87-61" /><feComposite
         result="comp2"
         operator="over"
         in="SourceGraphic"
         in2="comp1"
         id="feComposite16-0-2-6" /></filter><filter
       style="color-interpolation-filters:sRGB"
       id="filter16-3-20-1-8"
       x="-0.11546032"
       y="-0.098380387"
       width="1.2138407"
       height="1.2275046"><feFlood
         result="flood"
         in="SourceGraphic"
         flood-opacity="0.211765"
         flood-color="rgb(0,0,0)"
         id="feFlood15-3-3-4-0" /><feGaussianBlur
         result="blur"
         in="SourceGraphic"
         stdDeviation="24.000000"
         id="feGaussianBlur15-2-8-1-1" /><feOffset
         result="offset"
         in="blur"
         dx="-10.000000"
         dy="18.000000"
         id="feOffset15-1-21-7-91" /><feComposite
         result="comp1"
         operator="in"
         in="flood"
         in2="offset"
         id="feComposite15-4-6-1-7" /><feComposite
         result="comp2"
         operator="over"
         in="SourceGraphic"
         in2="comp1"
         id="feComposite16-0-83-9-46" /></filter><mask
       id="b-7-6"
       width="699"
       height="699"
       x="0"
       y="0"
       maskUnits="userSpaceOnUse"><path
         fill="#ffffff"
         d="M 699,0 H 0 v 699 h 699 z"
         id="path1-2-5-8" /></mask><mask
       id="c-6-6"
       width="3"
       height="26"
       x="22"
       y="9"
       maskUnits="userSpaceOnUse"><path
         fill="#152e51"
         fill-rule="evenodd"
         d="M 22.062,34.212 V 9.934 h 2.02 v 24.278 z"
         clip-rule="evenodd"
         id="path4-9-1-6" /></mask><linearGradient
       id="paint0_linear_1169_22468"
       x1="49.5"
       y1="7"
       x2="49"
       y2="93"
       gradientUnits="userSpaceOnUse"><stop
         stop-color="#3068EF"
         id="stop2-3" /><stop
         offset="1"
         stop-color="#1322AC"
         id="stop3-8" /></linearGradient></defs><g
     id="layer1"
     transform="translate(-13.888275,-208.29049)"><g
       id="g21-9-9"
       transform="translate(0.33215529,120.42714)"><g
         id="g200-8-3-9-9"
         transform="matrix(0.02069753,0,0,0.02069753,9.2013237,37.884045)"
         style="filter:url(#filter16-3-2-0-4)"><circle
           style="fill:#ffffff;fill-opacity:1;stroke:none;stroke-width:1.1;stroke-dasharray:none;stroke-opacity:1"
           id="path65-1-4-2-1-7"
           cx="93.054199"
           cy="118.05384"
           r="52.777012"
           transform="matrix(5.5467573,0,0,5.5467573,54.59395,2110.2725)" /></g><path
         style="fill:#190b6c;stroke-width:0.0814592"
         d="m 17.492305,95.127777 v -4.102205 h 1.027315 1.027316 l 0.0036,3.078446 0.0036,3.078456 h 0.502898 0.502899 l 0.0072,-1.020167 0.0072,-1.020158 0.513673,-0.0035 0.513676,-0.0035 V 93.60594 c 0,-1.207594 -0.0037,-1.531667 -0.01796,-1.54084 -0.0099,-0.0062 -0.231334,-0.01483 -0.492123,-0.01884 l -0.47416,-0.0072 -0.0037,-0.506488 -0.0037,-0.506488 h 1.005883 1.005884 l 0.0036,1.023758 0.0036,1.023758 0.513674,0.0035 0.513675,0.0035 v -1.027503 -1.027536 h 0.510092 0.510082 v 1.027349 1.027348 h -0.510067 -0.510083 v 1.01011 c 0,0.766481 -0.0042,1.014263 -0.01724,1.027349 -0.01308,0.01313 -0.260891,0.01724 -1.027445,0.01724 h -1.010201 l 0.0036,1.023748 0.0036,1.023759 1.016571,0.0035 1.016573,0.0035 v 1.020061 1.020069 h -3.07482 -3.074863 z"
         id="path13-4-6" /></g><g
       style="fill:none"
       id="g1536"
       transform="matrix(0.09854705,0,0,0.09854705,20.494581,210.5572)"><g
         id="g1537"><g
           id="g200-8-7-6"
           transform="matrix(0.2100269,0,0,0.2100269,-65.106515,-530.1632)"
           style="filter:url(#filter16-3-51-9)"><circle
             style="fill:#ffffff;fill-opacity:1;stroke:none;stroke-width:1.1;stroke-dasharray:none;stroke-opacity:1"
             id="path65-1-4-45-1"
             cx="93.054199"
             cy="118.05384"
             r="52.777012"
             transform="matrix(5.5467573,0,0,5.5467573,54.59395,2110.2725)" /></g><path
           d="m 72.8564,37.9017 -0.0644,0.0677 c -0.0301,0.0311 -0.0606,0.062 -0.0914,0.0927 l -17.6624,17.634 c -3.0768,3.0719 -8.0653,3.0719 -11.1421,0 l -4.8775,-4.8694 c -0.3458,-0.3439 -0.3465,-0.9031 -0.0023,-1.2485 0.1013,-0.1016 0.2258,-0.177 0.3627,-0.2198 5.2279,-1.6138 9.4758,-3.4767 12.7435,-5.5885 7.7822,-5.0296 14.6935,-6.9856 20.7339,-5.8682 z M 69.1535,23.3958 c 6.5211,2.0549 5.76,6.8521 5.8465,8.7433 C 67.8584,28.3943 59.2669,29.7669 49.2254,36.2566 41.741,41.0937 35.4716,43.088 30.4173,42.2395 25.363,41.391 24.226,35.2183 24,33.578 c 5.5538,2.8081 12.9966,1.1964 22.3283,-4.8346 8.6957,-5.6199 16.3041,-7.4025 22.8252,-5.3476 z M 55.0382,9.30389 l 4.583,4.57501 c 0.3452,0.3444 0.3457,0.9036 0.0013,1.2489 -0.1229,0.1232 -0.2794,0.2073 -0.4499,0.2416 -6.6346,1.3366 -11.9406,3.2902 -15.918,5.8608 -6.8157,4.4049 -12.6238,6.4523 -17.4243,6.1422 l 5e-4,-0.0013 18.0653,-18.06721 c 3.0768,-3.07185 8.0653,-3.07185 11.1421,0 z"
           fill="url(#paint0_linear_1169_22468)"
           id="path1-0"
           style="fill:url(#paint0_linear_1169_22468)" /><path
           d="m 25.7905,77.556 c -0.0908,-0.8495 -0.4734,-1.5109 -1.1478,-1.9842 -0.6678,-0.4734 -1.5368,-0.7101 -2.6067,-0.7101 -0.7522,0 -1.3974,0.1135 -1.9356,0.3405 -0.5382,0.2269 -0.9499,0.5349 -1.2353,0.924 -0.2853,0.389 -0.4312,0.8332 -0.4377,1.3325 0,0.415 0.0941,0.7749 0.2821,1.0797 0.1945,0.3047 0.4572,0.5641 0.7879,0.7781 0.3307,0.2075 0.697,0.3826 1.0991,0.5252 0.402,0.1427 0.8073,0.2627 1.2158,0.3599 l 1.8675,0.4669 c 0.7522,0.1751 1.4752,0.4118 2.169,0.71 0.7004,0.2983 1.3261,0.6744 1.8773,1.1283 0.5576,0.4539 0.9986,1.0019 1.3228,1.6438 0.3242,0.642 0.4863,1.3942 0.4863,2.2566 0,1.1672 -0.2983,2.195 -0.8948,3.0833 -0.5966,0.8819 -1.459,1.5725 -2.5873,2.0718 -1.1218,0.4928 -2.4803,0.7392 -4.0754,0.7392 -1.5498,0 -2.8953,-0.2399 -4.0366,-0.7197 C 16.8063,91.1019 15.918,90.4016 15.276,89.4808 14.6406,88.56 14.2969,87.4382 14.245,86.1154 h 3.5502 c 0.0519,0.6938 0.2659,1.2709 0.642,1.7313 0.3761,0.4604 0.8656,0.8041 1.4687,1.0311 0.6095,0.2269 1.2904,0.3404 2.0426,0.3404 0.7846,0 1.4719,-0.1167 2.062,-0.3502 0.5966,-0.2399 1.0635,-0.5706 1.4006,-0.9921 0.3372,-0.428 0.5091,-0.9272 0.5156,-1.4979 -0.0065,-0.5187 -0.1589,-0.9467 -0.4572,-1.2839 -0.2983,-0.3437 -0.7165,-0.629 -1.2547,-0.8559 -0.5317,-0.2335 -1.1543,-0.441 -1.8675,-0.6225 L 20.081,83.0321 c -1.6406,-0.4215 -2.9375,-1.0602 -3.8907,-1.9162 -0.9467,-0.8624 -1.4201,-2.0069 -1.4201,-3.4335 0,-1.1736 0.3178,-2.2014 0.9532,-3.0833 0.642,-0.8819 1.5142,-1.566 2.6165,-2.0523 1.1024,-0.4928 2.3506,-0.7392 3.7447,-0.7392 1.4136,0 2.6522,0.2464 3.7156,0.7392 1.0699,0.4863 1.9097,1.1639 2.5192,2.0329 0.6095,0.8624 0.924,1.8545 0.9435,2.9763 z M 35.68,92 31.4587,77.0599 h 3.5891 l 2.6262,10.5048 h 0.1361 l 2.6846,-10.5048 h 3.5502 l 2.6845,10.4464 h 0.1459 l 2.5873,-10.4464 h 3.5988 L 48.8304,92 h -3.667 L 42.3622,81.9038 H 42.1579 L 39.3567,92 Z m 26.026,0.2918 c -1.4979,0 -2.7916,-0.3113 -3.8809,-0.9338 -1.0829,-0.6289 -1.9162,-1.5173 -2.4998,-2.665 -0.5836,-1.1543 -0.8754,-2.5128 -0.8754,-4.0755 0,-1.5368 0.2918,-2.8856 0.8754,-4.0463 0.5901,-1.1672 1.4136,-2.075 2.4706,-2.7234 1.0569,-0.6549 2.2987,-0.9824 3.7253,-0.9824 0.9207,0 1.7897,0.1491 2.6067,0.4474 0.8235,0.2918 1.5498,0.7457 2.1787,1.3618 0.6355,0.616 1.1348,1.4006 1.4979,2.3538 0.3632,0.9467 0.5447,2.075 0.5447,3.3848 v 1.0797 H 56.1034 v -2.3733 h 8.8707 c -0.0065,-0.6744 -0.1524,-1.2742 -0.4377,-1.7994 -0.2853,-0.5317 -0.6841,-0.95 -1.1964,-1.2547 -0.5057,-0.3048 -1.0958,-0.4572 -1.7702,-0.4572 -0.7198,0 -1.352,0.1751 -1.8967,0.5252 -0.5447,0.3437 -0.9694,0.7976 -1.2742,1.3618 -0.2983,0.5576 -0.4506,1.1704 -0.4571,1.8383 v 2.0718 c 0,0.8689 0.1588,1.6146 0.4766,2.2371 0.3177,0.616 0.7619,1.0894 1.3325,1.4201 0.5706,0.3242 1.2385,0.4863 2.0037,0.4863 0.5123,0 0.9759,-0.0713 1.3909,-0.214 0.415,-0.1491 0.7749,-0.3664 1.0797,-0.6517 0.3047,-0.2853 0.5349,-0.6387 0.6905,-1.0602 l 3.2876,0.3696 c -0.2075,0.8689 -0.603,1.6276 -1.1866,2.2761 -0.5771,0.6419 -1.3163,1.1412 -2.2177,1.4979 -0.9013,0.3501 -1.9323,0.5252 -3.093,0.5252 z M 74.849,72.0799 V 92 H 71.328 V 72.0799 Z m 7.1418,0 V 92 h -3.521 V 72.0799 Z"
           fill="#000000"
           id="path2-6" /></g></g><g
       id="g23-2-8"
       transform="translate(-14.096246,119.43864)"><g
         id="g200-8-97-3-6"
         transform="matrix(0.02069753,0,0,0.02069753,33.363459,38.872539)"
         style="filter:url(#filter16-3-20-1-8)"><circle
           style="fill:#ffffff;fill-opacity:1;stroke:none;stroke-width:1.1;stroke-dasharray:none;stroke-opacity:1"
           id="path65-1-4-34-8-0"
           cx="93.054199"
           cy="118.05384"
           r="52.777012"
           transform="matrix(5.5467573,0,0,5.5467573,54.59395,2110.2725)" /></g><g
         style="fill:none"
         id="g22-3-3"
         transform="matrix(0.24161114,0,0,0.24161114,37.966971,88.709935)"><circle
           cx="23.059"
           cy="41.105999"
           r="9.059"
           fill="#1e4480"
           id="circle1-3-10" /><g
           mask="url(#a-86)"
           id="g2-1-0-4"><path
             fill="#ffffff"
             d="m 46.933,25.467 c 0,9.094 -7.372,16.466 -16.466,16.466 C 21.372,41.933 14,34.561 14,25.467 14,16.372 21.372,9 30.467,9 c 9.094,0 16.466,7.372 16.466,16.467 z"
             id="path2-5-8-8" /></g><circle
           cx="30.466999"
           cy="25.466999"
           r="16.466999"
           fill="#dedede"
           id="circle2-6-3-7" /><g
           mask="url(#b-7-6)"
           id="g6-7-4"><circle
             cx="23.059"
             cy="41.105999"
             r="9.059"
             fill="#152e51"
             id="circle4-0-6" /><mask
             id="mask1-9-7"
             width="3"
             height="26"
             x="22"
             y="9"
             maskUnits="userSpaceOnUse"><path
               fill="#152e51"
               fill-rule="evenodd"
               d="M 22.062,34.212 V 9.934 h 2.02 v 24.278 z"
               clip-rule="evenodd"
               id="path1-39-9" /></mask><g
             mask="url(#c-6-6)"
             id="g5-3-5"><path
               fill="#152e51"
               d="m 46.933,25.467 c 0,9.094 -7.372,16.466 -16.466,16.466 C 21.372,41.933 14,34.561 14,25.467 14,16.372 21.372,9 30.467,9 c 9.094,0 16.466,7.372 16.466,16.467 z"
               id="path5-8-7" /></g></g></g></g></g><style
     id="style1">.st0{fill:#1682fe}.st1{fill:#60d8a4}.st2{fill:#f4bb3b}.st3{fill:#ff5a5a}</style></svg>
