<svg width="256" height="256" viewBox="0 0 256 256" fill="none" xmlns="http://www.w3.org/2000/svg">
<g clip-path="url(#clip0_2025_209)">
<path d="M168.963 143.835L233.192 79.8473C235.573 77.48 237.463 74.6654 238.753 71.5654C240.043 68.4654 240.708 65.141 240.709 61.7833L240.818 10.0254C240.748 7.16141 239.688 4.66972 237.939 2.89404L114.711 125.729C112.329 128.104 110.439 130.926 109.15 134.033C107.86 137.14 107.197 140.471 107.197 143.835C107.197 147.198 107.86 150.529 109.15 153.636C110.439 156.743 112.329 159.565 114.711 161.94L201.61 248.543C203.988 250.913 206.809 252.791 209.912 254.07C213.016 255.35 216.341 256.006 219.698 256C223.055 255.994 226.378 255.328 229.477 254.038C232.577 252.748 235.392 250.86 237.762 248.483C240.131 246.105 242.01 243.284 243.289 240.18C244.569 237.077 245.224 233.752 245.219 230.395C245.213 227.038 244.547 223.715 243.257 220.615C241.967 217.516 240.079 214.701 237.702 212.331L168.963 143.835Z" fill="#0100BE"/>
<path d="M230.763 0.00151997H37.2732C21.5498 0.00151997 10 11.8195 10 27.9725V229.903C10 244.286 21.1358 255.94 36.0364 255.94C50.4164 255.94 62.0729 244.96 62.0729 229.903V49.8248H190.849L237.939 2.89417C236.997 1.95579 235.877 1.21617 234.644 0.719247C233.412 0.222329 232.092 -0.0217476 230.763 0.00151997Z" fill="#2B6FF4"/>
</g>
<defs>
<clipPath id="clip0_2025_209">
<rect width="256" height="256" fill="white"/>
</clipPath>
</defs>
</svg>
