<svg xmlns="http://www.w3.org/2000/svg" viewBox="0 0 72 72">
  <style type="text/css">
    .st0 {
      fill: #4A98EA;
    }

    .st1 {
      fill: url(#SVGID_1_);
    }
  </style>
  <path class="st0"
    d="M264.9 70.7c1-.2 1.6-1.3 1.3-2.5-.3-1.1-1.3-1.9-2.3-1.7s-1.6 1.3-1.3 2.5c.3 1.2 1.3 1.9 2.3 1.7z" />
  <linearGradient id="SVGID_1_" gradientUnits="userSpaceOnUse" x1="29.325" y1="48.784" x2="91.21" y2="71.312"
    gradientTransform="matrix(1 0 0 -1 0 120)">
    <stop offset="0" stop-color="#29BCFA" />
    <stop offset=".43" stop-color="#6464E4" />
    <stop offset="1" stop-color="#B45AFA" />
  </linearGradient>
  <path class="st1"
    d="M95.8 64.4l-2.7-10.5c-.1-.3-.3-.6-.6-.6l-10.5-2.6h-.2c-.2 0-.5.1-.7.2l-17.6 17.6-2.3-9.1c-.1-.3-.3-.6-.6-.6l-9-2.2 17.5-17.6c.1-.1.2-.2.2-.4.1-.2.1-.4.1-.6l-2.7-10.5c-.1-.3-.3-.6-.6-.6l-10.4-2.6c-.2-.1-.4 0-.6.1-.1 0-.1.1-.1.1l-.1.1-30.1 30-.1.1c-.2.2-.3.5-.2.8l2.9 10.2c.1.3.3.5.6.6l9.8 2.8 2.8 9.8c.1.3.3.5.6.6l9.8 2.8 2.8 9.8c.1.3.3.5.6.6l10.2 2.9h.30000000000000004c.2 0 .4-.1.6-.3l30.1-30.1c.1-.1.2-.2.2-.4 0 0 .1-.2 0-.4zm-13.5 11.7l-2.2-8.6 4.9-4.9 8.4 2.4-11.1 11.1zm-17 17.1l-2.2-8.6 8.8-8.8 8.4 2.4-15 15zm6.8-20l-2.1-7.3 7.5 1.9-5.4 5.4zm6.6-4.2l1.9 7.5-7.3-2.1 5.4-5.4zm.3-2.7l-8.6-2.1 11-11 2.4 8.3-4.8 4.8zm-10.7 0l2.4 8.3-8.8 8.8-8.6-2.1 15-15zm23.2-11.5l2.2 8.6-8.3-2.4-2.4-8.3 8.5 2.1zm-39.5 25.2l-2.2-8.6 3.2-3.2 8.4 2.4-9.4 9.4zm1.2-14.4l-2.1-7.3 7.5 1.9-5.4 5.4zm8.6 3.3l-7.3-2.1 5.4-5.4 1.9 7.5zm-10-1.9l-3.1 3.1-8.6-2.1 9.3-9.3 2.4 8.3zm-9.8-27.2l2.4 8.3-8.8 8.8-8.6-2.1 15-15zm13-13l2.4 8.3-4.7 4.7-8.6-2.1 10.9-10.9zm1 22.8l-2.2-8.6 4.8-4.8 8.4 2.4-11 11zm-10.3-2.9l-2.1-7.3 7.5 1.9-5.4 5.4zm6.7-4.2l1.9 7.5-7.3-2.1 5.4-5.4zm-6.8 6.8l8.4 2.4-15 15-2.2-8.6 8.8-8.8zm19.5-20.9l2.2 8.6-8.3-2.4-2.4-8.3 8.5 2.1zm-38.6 28.1l7.5 1.9-5.4 5.4-2.1-7.3zm3.3 8.6l5.4-5.4 1.9 7.5-7.3-2.1zm12.3 12.9l-2.4-8.3 8.5 2.1 2.2 8.6-8.3-2.4zm10.8 4.9l7.5 1.9-5.4 5.4-2.1-7.3zm3.3 8.6l5.4-5.4 1.9 7.5-7.3-2.1z"
    transform="translate(-24 -24)" />
</svg>