<?xml version="1.0" encoding="UTF-8" standalone="no"?>
<!-- Created with Inkscape (http://www.inkscape.org/) -->

<svg
   width="24.509266mm"
   height="14.874953mm"
   viewBox="0 0 24.509266 14.874953"
   version="1.1"
   id="svg1"
   xml:space="preserve"
   inkscape:version="1.3.2 (091e20e, 2023-11-25)"
   sodipodi:docname="bundle-logos.svg"
   xmlns:inkscape="http://www.inkscape.org/namespaces/inkscape"
   xmlns:sodipodi="http://sodipodi.sourceforge.net/DTD/sodipodi-0.dtd"
   xmlns="http://www.w3.org/2000/svg"
   xmlns:svg="http://www.w3.org/2000/svg"><sodipodi:namedview
     id="namedview1"
     pagecolor="#ffffff"
     bordercolor="#000000"
     borderopacity="0.25"
     inkscape:showpageshadow="2"
     inkscape:pageopacity="0.0"
     inkscape:pagecheckerboard="0"
     inkscape:deskcolor="#d1d1d1"
     inkscape:document-units="px"
     inkscape:zoom="4.1598238"
     inkscape:cx="161.42511"
     inkscape:cy="527.66658"
     inkscape:window-width="2560"
     inkscape:window-height="1141"
     inkscape:window-x="0"
     inkscape:window-y="25"
     inkscape:window-maximized="0"
     inkscape:current-layer="layer25"
     showguides="true"><sodipodi:guide
       position="0.28878819,387.73375"
       orientation="1,0"
       id="guide1530"
       inkscape:locked="false" /><sodipodi:guide
       position="-24.820229,402.83417"
       orientation="1,0"
       id="guide1531"
       inkscape:locked="false" /><sodipodi:guide
       position="25.445998,396.08334"
       orientation="1,0"
       id="guide1539"
       inkscape:locked="false" /><sodipodi:guide
       position="50.59116,401.03526"
       orientation="1,0"
       id="guide1540"
       inkscape:locked="false" /><sodipodi:guide
       position="19.42461,149.61649"
       orientation="0,-1"
       id="guide1557"
       inkscape:locked="false" /><sodipodi:guide
       position="-10.221743,373.21307"
       orientation="0,-1"
       id="guide1558"
       inkscape:locked="false" /><sodipodi:guide
       position="100.85739,410.31259"
       orientation="1,0"
       id="guide1561"
       inkscape:locked="false" /><sodipodi:guide
       position="125.97877,413.0079"
       orientation="1,0"
       id="guide1562"
       inkscape:locked="false" /><sodipodi:guide
       position="75.712221,405.73417"
       orientation="1,0"
       id="guide1563"
       inkscape:locked="false" /><sodipodi:guide
       position="2.7024062,388.04702"
       orientation="0,-1"
       id="guide1564"
       inkscape:locked="false" /></sodipodi:namedview><defs
     id="defs1"><filter
       style="color-interpolation-filters:sRGB"
       inkscape:label="Drop Shadow"
       id="filter16-3"
       x="-0.11546032"
       y="-0.098380387"
       width="1.2138407"
       height="1.2275046"><feFlood
         result="flood"
         in="SourceGraphic"
         flood-opacity="0.211765"
         flood-color="rgb(0,0,0)"
         id="feFlood15-3" /><feGaussianBlur
         result="blur"
         in="SourceGraphic"
         stdDeviation="24.000000"
         id="feGaussianBlur15-2" /><feOffset
         result="offset"
         in="blur"
         dx="-10.000000"
         dy="18.000000"
         id="feOffset15-1" /><feComposite
         result="comp1"
         operator="in"
         in="flood"
         in2="offset"
         id="feComposite15-4" /><feComposite
         result="comp2"
         operator="over"
         in="SourceGraphic"
         in2="comp1"
         id="feComposite16-0" /></filter><filter
       style="color-interpolation-filters:sRGB"
       inkscape:label="Drop Shadow"
       id="filter16-3-2-0-7-9"
       x="-0.11546032"
       y="-0.098380387"
       width="1.2138407"
       height="1.2275046"><feFlood
         result="flood"
         in="SourceGraphic"
         flood-opacity="0.211765"
         flood-color="rgb(0,0,0)"
         id="feFlood15-3-9-3-6-9" /><feGaussianBlur
         result="blur"
         in="SourceGraphic"
         stdDeviation="24.000000"
         id="feGaussianBlur15-2-79-2-3-7" /><feOffset
         result="offset"
         in="blur"
         dx="-10.000000"
         dy="18.000000"
         id="feOffset15-1-2-1-3-0" /><feComposite
         result="comp1"
         operator="in"
         in="flood"
         in2="offset"
         id="feComposite15-4-2-8-6-3" /><feComposite
         result="comp2"
         operator="over"
         in="SourceGraphic"
         in2="comp1"
         id="feComposite16-0-3-0-2-9" /></filter><filter
       style="color-interpolation-filters:sRGB"
       inkscape:label="Drop Shadow"
       id="filter16-3-20-1-902-2"
       x="-0.11546032"
       y="-0.098380387"
       width="1.2138407"
       height="1.2275046"><feFlood
         result="flood"
         in="SourceGraphic"
         flood-opacity="0.211765"
         flood-color="rgb(0,0,0)"
         id="feFlood15-3-3-4-3-3" /><feGaussianBlur
         result="blur"
         in="SourceGraphic"
         stdDeviation="24.000000"
         id="feGaussianBlur15-2-8-1-99-7" /><feOffset
         result="offset"
         in="blur"
         dx="-10.000000"
         dy="18.000000"
         id="feOffset15-1-21-7-7-1" /><feComposite
         result="comp1"
         operator="in"
         in="flood"
         in2="offset"
         id="feComposite15-4-6-1-03-8" /><feComposite
         result="comp2"
         operator="over"
         in="SourceGraphic"
         in2="comp1"
         id="feComposite16-0-83-9-9-9" /></filter><mask
       id="b-7-8-3"
       width="699"
       height="699"
       x="0"
       y="0"
       maskUnits="userSpaceOnUse"><path
         fill="#ffffff"
         d="M 699,0 H 0 v 699 h 699 z"
         id="path1-2-5-6-7" /></mask><mask
       id="c-6-57-4"
       width="3"
       height="26"
       x="22"
       y="9"
       maskUnits="userSpaceOnUse"><path
         fill="#152e51"
         fill-rule="evenodd"
         d="M 22.062,34.212 V 9.934 h 2.02 v 24.278 z"
         clip-rule="evenodd"
         id="path4-9-1-62-8" /></mask><linearGradient
       id="paint0_linear_932_1246-0"
       x1="275.60501"
       y1="147"
       x2="371.388"
       y2="302.827"
       gradientUnits="userSpaceOnUse"><stop
         offset="0.0677083"
         stop-color="#874FFF"
         id="stop2-1" /><stop
         offset="0.463542"
         stop-color="#36AFE2"
         id="stop3-9" /><stop
         offset="0.859375"
         stop-color="#41FF54"
         id="stop4-45" /></linearGradient></defs><style
     id="style1">.st0{fill:#1682fe}.st1{fill:#60d8a4}.st2{fill:#f4bb3b}.st3{fill:#ff5a5a}</style><g
     inkscape:groupmode="layer"
     id="layer22"
     inkscape:label="eigenlayer-puffer-pendle"
     transform="translate(-24.820229,-91.047006)"><g
       id="g3074"
       transform="translate(11.264109,3.1836575)"
       inkscape:export-filename="../eigenlayer-renzo.svg"
       inkscape:export-xdpi="96"
       inkscape:export-ydpi="96"
       inkscape:label="eigenlayer"
       style="display:inline"><g
         id="g3073"
         transform="matrix(0.02069753,0,0,0.02069753,9.2013237,37.884045)"
         style="filter:url(#filter16-3-2-0-7-9)"><circle
           style="fill:#ffffff;fill-opacity:1;stroke:none;stroke-width:1.1;stroke-dasharray:none;stroke-opacity:1"
           id="circle3072"
           cx="93.054199"
           cy="118.05384"
           r="52.777012"
           transform="matrix(5.5467573,0,0,5.5467573,54.59395,2110.2725)" /></g><path
         style="fill:#190b6c;stroke-width:0.0814592"
         d="m 17.492305,95.127777 v -4.102205 h 1.027315 1.027316 l 0.0036,3.078446 0.0036,3.078456 h 0.502898 0.502899 l 0.0072,-1.020167 0.0072,-1.020158 0.513673,-0.0035 0.513676,-0.0035 V 93.60594 c 0,-1.207594 -0.0037,-1.531667 -0.01796,-1.54084 -0.0099,-0.0062 -0.231334,-0.01483 -0.492123,-0.01884 l -0.47416,-0.0072 -0.0037,-0.506488 -0.0037,-0.506488 h 1.005883 1.005884 l 0.0036,1.023758 0.0036,1.023758 0.513674,0.0035 0.513675,0.0035 v -1.027503 -1.027536 h 0.510092 0.510082 v 1.027349 1.027348 h -0.510067 -0.510083 v 1.01011 c 0,0.766481 -0.0042,1.014263 -0.01724,1.027349 -0.01308,0.01313 -0.260891,0.01724 -1.027445,0.01724 h -1.010201 l 0.0036,1.023748 0.0036,1.023759 1.016571,0.0035 1.016573,0.0035 v 1.020061 1.020069 h -3.07482 -3.074863 z"
         id="path3073" /></g><g
       id="g3072"
       transform="translate(-8.9452289,2.1951635)"
       inkscape:label="pendle"
       style="display:inline"><g
         id="g3066"
         transform="matrix(0.02069753,0,0,0.02069753,33.363459,38.872539)"
         style="filter:url(#filter16-3-20-1-902-2)"><circle
           style="fill:#ffffff;fill-opacity:1;stroke:none;stroke-width:1.1;stroke-dasharray:none;stroke-opacity:1"
           id="circle3065"
           cx="93.054199"
           cy="118.05384"
           r="52.777012"
           transform="matrix(5.5467573,0,0,5.5467573,54.59395,2110.2725)" /></g><g
         style="fill:none"
         id="g3071"
         transform="matrix(0.24161114,0,0,0.24161114,37.966971,88.709935)"><circle
           cx="23.059"
           cy="41.105999"
           r="9.059"
           fill="#1e4480"
           id="circle3066" /><g
           mask="url(#a-86)"
           id="g3067"><path
             fill="#ffffff"
             d="m 46.933,25.467 c 0,9.094 -7.372,16.466 -16.466,16.466 C 21.372,41.933 14,34.561 14,25.467 14,16.372 21.372,9 30.467,9 c 9.094,0 16.466,7.372 16.466,16.467 z"
             id="path3066" /></g><circle
           cx="30.466999"
           cy="25.466999"
           r="16.466999"
           fill="#dedede"
           id="circle3067" /><g
           mask="url(#b-7-8-3)"
           id="g3070"><circle
             cx="23.059"
             cy="41.105999"
             r="9.059"
             fill="#152e51"
             id="circle3068" /><mask
             id="mask3068"
             width="3"
             height="26"
             x="22"
             y="9"
             maskUnits="userSpaceOnUse"><path
               fill="#152e51"
               fill-rule="evenodd"
               d="M 22.062,34.212 V 9.934 h 2.02 v 24.278 z"
               clip-rule="evenodd"
               id="path3068" /></mask><g
             mask="url(#c-6-57-4)"
             id="g3069"><path
               fill="#152e51"
               d="m 46.933,25.467 c 0,9.094 -7.372,16.466 -16.466,16.466 C 21.372,41.933 14,34.561 14,25.467 14,16.372 21.372,9 30.467,9 c 9.094,0 16.466,7.372 16.466,16.467 z"
               id="path3069" /></g></g></g></g><g
       id="g3053"
       transform="matrix(0.02069753,0,0,0.02069753,65.565801,-21.02251)"
       style="filter:url(#filter16-3)"
       inkscape:label="puffer"><circle
         style="fill:#ffffff;fill-opacity:1;stroke:none;stroke-width:6.10143;stroke-dasharray:none;stroke-opacity:1"
         id="circle3052"
         cx="-1134.7975"
         cy="5764.9736"
         r="292.74127" /><g
         style="fill:none"
         id="g3077"
         transform="matrix(1.7410642,0,0,1.7410642,-1575.6257,5319.2612)"><rect
           width="247.84935"
           height="224.53416"
           fill="#ffffff"
           id="rect1-4"
           x="129.78508"
           y="143.73293" /><path
           fill-rule="evenodd"
           clip-rule="evenodd"
           d="m 230.18,155.054 c -0.682,-4.029 4.99,-5.657 6.549,-1.88 l 3.04,7.365 c 0.096,0.234 0.169,0.471 0.221,0.708 7.288,-1.757 14.63,-2.641 21.9,-2.71 -0.008,-0.244 0.005,-0.494 0.042,-0.745 l 1.16,-7.864 c 0.596,-4.042 6.494,-3.838 6.809,0.236 l 0.613,7.925 c 0.02,0.254 0.016,0.505 -0.009,0.749 7.394,0.586 14.66,2.011 21.662,4.215 0.067,-0.235 0.157,-0.468 0.27,-0.695 l 3.54,-7.134 c 1.816,-3.661 7.362,-1.644 6.403,2.328 l -1.869,7.741 c -0.06,0.247 -0.14,0.483 -0.239,0.706 6.804,2.817 13.288,6.394 19.315,10.67 0.134,-0.194 0.286,-0.381 0.458,-0.556 l 5.571,-5.691 c 2.858,-2.92 7.51,0.711 5.37,4.193 l -4.17,6.785 c -0.126,0.204 -0.266,0.394 -0.419,0.567 6.127,5.216 11.654,11.226 16.405,17.951 -0.011,-0.648 -0.015,-1.291 -0.019,-1.923 v -0.113 c -0.014,-3.224 2.901,-5.702 6.205,-6.164 1.579,-0.209 3.182,0.111 4.56,0.911 1.377,0.8 2.45,2.034 3.051,3.509 1.881,4.784 2.198,10.039 0.907,15.014 -0.105,0.448 -0.229,0.895 -0.369,1.402 v 0 0.001 l -10e-4,0.002 v 0.001 l -0.003,0.01 c -0.053,0.19 -0.108,0.389 -0.165,0.599 4.829,2.722 8.616,6.973 10.763,12.083 1.726,4.115 0.089,8.318 -3.714,9.987 -1.959,0.842 -3.877,0.621 -5.634,-0.299 1.552,6.834 2.341,13.709 2.413,20.522 0.204,-0.001 0.411,0.013 0.62,0.044 l 7.862,1.159 c 4.043,0.597 3.839,6.495 -0.235,6.81 l -7.924,0.613 c -0.208,0.016 -0.413,0.017 -0.614,0.003 -0.58,7.405 -2.001,14.682 -4.203,21.695 0.185,0.061 0.368,0.136 0.548,0.225 l 7.133,3.539 c 3.661,1.816 1.644,7.363 -2.328,6.404 l -7.741,-1.869 c -0.193,-0.047 -0.38,-0.107 -0.558,-0.178 -2.818,6.817 -6.399,13.314 -10.682,19.352 0.146,0.109 0.286,0.229 0.421,0.36 l 5.69,5.57 c 2.92,2.859 -0.712,7.51 -4.193,5.371 l -6.784,-4.17 c -0.155,-0.095 -0.302,-0.199 -0.439,-0.31 -4.747,5.576 -10.152,10.656 -16.155,15.106 0.099,0.143 0.191,0.294 0.274,0.453 l 3.684,7.042 c 1.894,3.621 -2.998,6.923 -5.648,3.812 l -5.153,-6.05 c -0.117,-0.137 -0.223,-0.279 -0.318,-0.426 -5.074,3.105 -10.504,5.789 -16.262,7.989 -1.258,0.481 -2.52,0.934 -3.785,1.36 0.05,0.163 0.089,0.332 0.119,0.506 l 1.33,7.854 c 0.682,4.029 -4.99,5.658 -6.549,1.88 l -3.039,-7.364 c -0.066,-0.159 -0.121,-0.319 -0.165,-0.48 -7.307,1.764 -14.668,2.652 -21.956,2.719 -0.004,0.168 -0.018,0.338 -0.044,0.509 l -1.159,7.862 c -0.596,4.043 -6.494,3.839 -6.809,-0.236 l -0.613,-7.923 c -0.014,-0.174 -0.016,-0.346 -0.008,-0.516 -7.412,-0.59 -14.695,-2.024 -21.712,-4.239 -0.057,0.164 -0.124,0.326 -0.204,0.486 l -3.539,7.133 c -1.816,3.66 -7.362,1.644 -6.403,-2.329 l 1.869,-7.739 c 0.043,-0.177 0.096,-0.347 0.159,-0.512 -6.815,-2.829 -13.308,-6.423 -19.342,-10.718 -0.106,0.142 -0.224,0.279 -0.352,0.409 l -5.57,5.691 c -2.858,2.92 -7.51,-0.712 -5.37,-4.193 l 4.169,-6.784 c 0.096,-0.156 0.2,-0.302 0.312,-0.44 -5.567,-4.756 -10.636,-10.168 -15.075,-16.177 -0.152,0.108 -0.314,0.208 -0.486,0.297 l -7.041,3.683 c -3.621,1.894 -6.923,-2.997 -3.812,-5.647 l 6.049,-5.153 c 0.152,-0.129 0.31,-0.245 0.472,-0.348 -2.428,-3.984 -4.598,-8.187 -6.478,-12.594 l -13.358,17.708 c -1.77,2.347 -5.223,2.597 -7.072,0.312 -12.656,-15.646 -14.22,-36.338 -12.98,-48.979 0.299,-3.04 3.481,-4.716 6.295,-3.529 l 20.007,8.44 c -0.501,-3.886 -0.763,-7.77 -0.795,-11.635 -0.209,0.002 -0.422,-0.012 -0.637,-0.044 l -7.862,-1.159 c -4.043,-0.596 -3.839,-6.494 0.235,-6.81 l 7.924,-0.613 c 0.221,-0.017 0.439,-0.016 0.653,0.001 0.597,-7.398 2.034,-14.668 4.25,-21.672 -0.214,-0.065 -0.426,-0.149 -0.634,-0.252 l -7.133,-3.539 c -3.661,-1.816 -1.644,-7.362 2.328,-6.403 l 7.741,1.869 c 0.23,0.055 0.45,0.129 0.659,0.218 2.828,-6.801 6.417,-13.281 10.705,-19.303 -0.19,-0.131 -0.372,-0.281 -0.544,-0.449 l -5.691,-5.571 c -2.92,-2.858 0.712,-7.51 4.193,-5.37 l 6.785,4.169 c 0.204,0.126 0.394,0.267 0.567,0.419 4.747,-5.556 10.149,-10.617 16.146,-15.051 -0.146,-0.19 -0.278,-0.395 -0.394,-0.616 l -3.684,-7.043 c -1.894,-3.621 2.998,-6.922 5.648,-3.812 l 5.154,6.051 c 0.164,0.193 0.307,0.396 0.429,0.607 5.048,-3.081 10.447,-5.746 16.17,-7.933 1.275,-0.488 2.555,-0.947 3.837,-1.378 -0.083,-0.23 -0.148,-0.472 -0.19,-0.723 z m -46.148,131.564 c 16.63,43.519 65.389,65.317 108.907,48.687 43.113,-16.475 64.908,-64.484 49.141,-107.691 -5.228,4.392 -11.501,8.371 -18.795,11.044 -16.364,5.998 -28.858,8.611 -39.402,9.644 -11.991,16.49 -32.378,23.37 -42.241,24.786 l 1.257,-24.692 c -6.424,0.267 -13.326,1.113 -21.398,3.186 -15.155,3.893 -29.271,10.243 -42.084,17.616 0.894,5.841 2.42,11.676 4.615,17.42 z m 21.494,2.123 c -4.041,0.719 -7.9,-1.974 -8.62,-6.015 -0.719,-4.042 1.974,-7.901 6.015,-8.62 4.042,-0.719 7.901,1.974 8.62,6.015 0.719,4.042 -1.974,7.901 -6.015,8.62 z m 34.262,0.895 c -2.638,0.47 -5.156,-1.288 -5.626,-3.925 -0.469,-2.638 1.289,-5.157 3.926,-5.626 2.638,-0.469 5.156,1.288 5.626,3.926 0.469,2.637 -1.289,5.156 -3.926,5.625 z m 43.509,-1.699 c -2.638,0.469 -5.157,-1.288 -5.626,-3.926 -0.469,-2.637 1.288,-5.156 3.926,-5.625 2.637,-0.47 5.156,1.288 5.625,3.926 0.47,2.637 -1.288,5.156 -3.925,5.625 z m 9.061,23.237 c 0.469,2.638 2.988,4.396 5.625,3.926 2.638,-0.469 4.396,-2.988 3.926,-5.625 -0.469,-2.638 -2.988,-4.396 -5.625,-3.926 -2.638,0.469 -4.396,2.988 -3.926,5.625 z m -50.847,11.839 c -2.638,0.47 -5.157,-1.288 -5.626,-3.926 -0.469,-2.637 1.288,-5.156 3.926,-5.625 2.637,-0.47 5.156,1.288 5.625,3.926 0.47,2.637 -1.288,5.156 -3.925,5.625 z m -26.177,-20.501 c 0.469,2.637 2.988,4.395 5.625,3.926 2.638,-0.47 4.396,-2.988 3.926,-5.626 -0.469,-2.637 -2.988,-4.395 -5.625,-3.926 -2.638,0.47 -4.396,2.988 -3.926,5.626 z m 47.362,1.562 c -2.637,0.469 -5.156,-1.288 -5.625,-3.926 -0.47,-2.637 1.288,-5.156 3.926,-5.625 2.637,-0.47 5.156,1.288 5.625,3.925 0.47,2.638 -1.288,5.157 -3.926,5.626 z m 41.406,-19.841 c 0.72,4.042 4.579,6.735 8.62,6.016 4.041,-0.72 6.734,-4.579 6.015,-8.62 -0.719,-4.041 -4.578,-6.734 -8.619,-6.015 -4.042,0.719 -6.735,4.578 -6.016,8.619 z m -41.602,37.67 c 0.719,4.041 4.578,6.734 8.619,6.015 4.041,-0.719 6.734,-4.578 6.015,-8.619 -0.719,-4.041 -4.578,-6.734 -8.619,-6.015 -4.042,0.719 -6.735,4.578 -6.015,8.619 z m 56.829,-114.039 c 1.487,6.535 -2.37,12.985 -8.616,14.407 -6.246,1.421 -12.515,-2.724 -14.002,-9.26 -1.487,-6.535 2.37,-12.985 8.616,-14.407 6.245,-1.421 12.514,2.724 14.002,9.26 z"
           fill="url(#paint0_linear_932_1246)"
           id="path1-5"
           style="fill:url(#paint0_linear_932_1246-0)" /><path
           d="m 311.186,216.592 c 2.813,-0.641 4.494,-3.791 3.755,-7.037 -0.738,-3.246 -3.618,-5.358 -6.431,-4.718 -2.813,0.64 -4.494,3.79 -3.755,7.036 0.739,3.246 3.618,5.359 6.431,4.719 z"
           fill="#4a98ea"
           id="path2-3" /></g></g></g></svg>
