<svg xmlns="http://www.w3.org/2000/svg" width="24" fill="none" aria-hidden="true" viewBox="0 0 40 40"><path fill="url(#a)" d="M20 40c11.046 0 20-8.954 20-20S31.046 0 20 0 0 8.954 0 20s8.954 20 20 20Z"/><g clip-path="url(#b)"><path fill="#A9D6FF" d="M11.304 24.723v6.16c0 .379.322.536.422.572a.69.69 0 0 0 .737-.143l5.272-5.051c.487-.63.666-1.023.666-1.023.286-.58.286-1.138.007-1.696-.415-.83-1.474-1.674-3.07-2.475l-2.725 1.517c-.808.457-1.31 1.266-1.31 2.139Z" opacity=".9"/><path fill="url(#c)" d="M8.571 11.023v6.46a1.84 1.84 0 0 0 1.317 1.753c2.633.758 7.218 2.39 8.327 4.786.143.315.23.623.258.945a7.6 7.6 0 0 0 .916-4.436 7.61 7.61 0 0 0-3.22-5.501l-6.532-4.558a.643.643 0 0 0-.386-.128.65.65 0 0 0-.322.078.69.69 0 0 0-.358.601Z"/><path fill="#A9D6FF" d="M28.692 24.723v6.16c0 .379-.322.536-.423.572a.69.69 0 0 1-.736-.143L22.26 26.26c-.487-.63-.665-1.023-.665-1.023-.287-.58-.287-1.138-.008-1.696.415-.83 1.474-1.674 3.07-2.475l2.725 1.517c.816.457 1.31 1.266 1.31 2.139Z" opacity=".9"/><path fill="url(#d)" d="M31.428 11.022v6.46a1.84 1.84 0 0 1-1.316 1.753c-2.633.759-7.218 2.39-8.327 4.787a2.863 2.863 0 0 0-.258.944 7.599 7.599 0 0 1-.916-4.436 7.611 7.611 0 0 1 3.22-5.501l6.532-4.557a.643.643 0 0 1 .386-.13c.114 0 .215.022.322.08a.69.69 0 0 1 .357.6Z"/></g><defs><linearGradient id="c" x1="19.775" x2="8.571" y1="24.873" y2="24.873" gradientUnits="userSpaceOnUse"><stop offset=".068" stop-color="#EFFDFF"/><stop offset="1" stop-color="#A9D6FF"/></linearGradient><linearGradient id="d" x1="20.604" x2="31.343" y1="24.872" y2="24.872" gradientUnits="userSpaceOnUse"><stop offset=".068" stop-color="#EFFDFF"/><stop offset="1" stop-color="#A9D6FF"/></linearGradient><radialGradient id="a" cx="0" cy="0" r="1" gradientTransform="rotate(54.167 -2.82 17.56) scale(33.1388)" gradientUnits="userSpaceOnUse"><stop stop-color="#194497"/><stop offset="1" stop-color="#03215B"/></radialGradient><clipPath id="b"><path fill="#fff" d="M5 8.2h30v23.57H5z"/></clipPath></defs></svg>