<svg width="460" height="460" viewBox="0 0 460 460" fill="none" xmlns="http://www.w3.org/2000/svg">
<path fill-rule="evenodd" clip-rule="evenodd" d="M201.491 48.5372C222.494 39.6516 242.568 41.1832 256.653 45.1599C264.738 47.4428 271.564 50.2651 282.02 58.9747C292.475 67.6842 297.935 80.3055 294.107 79.5445C293.772 79.478 293.441 79.412 293.111 79.3463L293.092 79.3425C287.542 78.2366 282.625 77.257 275.428 76.5869C267.797 75.8764 257.279 76.79 253.365 77.2045C234.905 79.1592 222.866 86.7055 213.561 92.5603C197.594 102.606 181.533 118.744 169.094 135.938C158.347 150.792 146.752 171.185 137.648 195.95C132.86 208.971 129.443 223.759 129.443 234.083C129.443 239.475 129.846 247.743 133.868 255.871C141.294 241.569 153.909 217.577 163.298 201.316C178.593 174.825 199.714 140.907 225.84 124.455C254.471 106.426 290.658 106.256 322.951 124.901C342.273 136.056 351.76 147.104 369.386 170.387C379.916 184.297 387.236 198.15 394.29 211.5C395.746 214.256 397.191 216.989 398.65 219.698C401.66 225.286 407.941 239.02 414.717 262.586C421.494 286.152 422.489 312.599 420.754 326.594C417.948 349.226 406.584 365.844 396.098 376.054C390.078 381.915 384.221 386.415 371.451 391.115C358.68 395.815 345.02 394.233 347.593 391.298C347.822 391.036 348.049 390.777 348.275 390.52C352.008 386.266 355.315 382.498 359.494 376.601C363.925 370.347 368.392 360.781 369.99 357.185C377.528 340.22 377.012 326.021 376.594 315.035C375.877 296.184 369.932 274.206 361.262 254.837C353.771 238.102 341.907 217.865 325.013 197.598C316.129 186.941 305.031 176.587 296.091 171.425C291.603 168.835 284.629 165.237 276.059 164.446C284.708 177.986 299.329 201.136 308.789 217.522C324.084 244.014 342.897 279.264 344.081 310.116C345.379 343.926 327.434 375.349 295.14 393.994C275.819 405.149 261.507 407.841 232.531 411.464C215.219 413.629 199.562 413.041 184.473 412.475C181.359 412.358 178.269 412.243 175.194 412.152C168.849 411.965 153.815 410.537 130.018 404.623C106.221 398.709 82.8196 386.347 71.5675 377.847C53.3707 364.1 44.6603 345.95 41.0617 331.764C38.996 323.62 38.0272 316.298 40.3422 302.888C42.6573 289.479 50.8574 278.439 52.1127 282.136C52.2245 282.465 52.3352 282.791 52.4451 283.115C54.2626 288.475 55.8726 293.223 58.8905 299.79C62.091 306.755 68.1411 315.406 70.4568 318.589C81.3799 333.598 93.9347 340.251 103.658 345.383C120.341 354.187 142.347 360.028 163.457 362.203C181.695 364.083 205.153 363.928 231.152 359.431C244.823 357.066 259.338 352.631 268.279 347.469C273.043 344.718 280.191 340.107 285.239 332.279C269.379 332.998 241.12 334.14 221.726 334.14C191.136 334.14 151.202 332.807 123.891 318.407C93.9617 302.626 75.7212 271.373 75.7212 234.083C75.7212 211.773 80.5455 198.032 91.8958 171.127C98.677 155.052 107.015 141.786 115.049 129.002L115.049 129.002L115.049 129.001C116.707 126.363 118.353 123.746 119.968 121.128C123.303 115.727 132.057 103.421 149.077 85.7689C166.097 68.117 188.503 54.0317 201.491 48.5372ZM284.056 281.607C282.451 277.974 280.541 274.15 278.295 270.126C258.513 234.692 241.053 204.88 231.991 189.575C229.375 193.066 226.741 197 224.101 201.423C203.817 235.415 187.061 264.819 178.153 280.629C182.225 281.084 186.637 281.36 191.416 281.429C231.789 282.011 266.192 281.801 284.056 281.607Z" fill="url(#paint0_linear_459_8145)"/>
<defs>
<linearGradient id="paint0_linear_459_8145" x1="4.69787" y1="177.852" x2="158.985" y2="451.783" gradientUnits="userSpaceOnUse">
<stop stop-color="#A79DFF"/>
<stop offset="1" stop-color="#6B70ED"/>
</linearGradient>
</defs>
</svg>
