<svg width="251" height="336" viewBox="0 0 251 336" fill="none" xmlns="http://www.w3.org/2000/svg">
<path d="M250.361 203.665C251.96 271.836 194.817 336.583 125.083 335.321C53.4801 336.673 -4.33869 267.894 0.256184 198.123C1.04769 172.046 9.52637 146.785 24.627 125.514C25.2802 124.432 25.7532 124.387 26.6767 125.288C38.4376 136.879 52.1657 146.284 67.2196 153.066C68.3458 153.539 68.4359 153.877 67.7152 154.823C56.495 170.522 51.095 189.641 52.444 208.892C53.0296 259.017 108.754 300.65 155.603 276.116C198.399 254.917 211.237 194.518 183.826 156.31C181.19 153.674 181.686 152.998 185.042 152.007C194.975 147.312 204.301 141.427 212.814 134.48C216.686 131.471 220.357 128.212 223.806 124.725C224.707 123.802 225.112 124.027 225.765 124.928C242.087 147.91 250.698 175.477 250.361 203.665Z" fill="black"/>
<path d="M26.2938 0.00780055H50.3493C52.6016 0.00780055 52.3088 -0.240012 52.3539 2.05789C51.025 59.6406 118.326 103.819 166.55 65.8359C176.392 58.2434 184.363 48.4963 189.853 37.3429C195.343 26.1895 198.204 13.9264 198.218 1.49468C198.218 0.413313 198.421 0.00780055 199.637 0.00780055C216.155 0.00780055 232.627 0.00780055 249.055 0.00780055C250.181 0.00780055 250.429 0.345727 250.429 1.40456C251.375 93.7712 152.585 163.745 68.4134 117.629C26.4739 95.0778 0.00840601 49.0072 0.166073 1.56226C0.00840601 0.368256 0.43636 0.00780055 1.67517 0.00780055C9.87386 0.00780055 18.0275 0.00780055 26.2938 0.00780055Z" fill="black"/>
</svg>
