<?xml version="1.0" encoding="utf-8"?>
<svg xmlns="http://www.w3.org/2000/svg" fill="none" height="150" viewBox="0 0 150 150" width="150">
<path clip-rule="evenodd" d="M127.118 22.8814H33.0508V0H127.119C139.756 0 150 10.2443 150 22.8814H150V22.8809H127.118V22.8814ZM127.119 33.0504V127.119V150C139.756 150 150 139.756 150 127.119V30.5085H150V33.0504H127.119ZM22.8814 0V22.8814V116.949H0V22.8814C0 10.2443 10.2443 0 22.8814 0ZM119.492 127.119H22.8814H0C0 139.756 10.2443 150 22.8814 150H116.949V127.119H119.492V127.119Z" fill="#0497EC" fill-rule="evenodd"/>
<path clip-rule="evenodd" d="M69.3507 45.7617C68.9641 45.7617 68.6507 46.0751 68.6507 46.4617V66.1026H49.0071C48.6205 66.1026 48.3071 66.416 48.3071 66.8026L48.3071 80.6568C48.3071 81.0434 48.6205 81.3568 49.0071 81.3568H68.6507V100.994C68.6507 101.381 68.9641 101.694 69.3507 101.694H83.205C83.5916 101.694 83.905 101.38 83.905 100.994V81.3568H103.539C103.926 81.3568 104.239 81.0434 104.239 80.6568V66.8026C104.239 66.416 103.926 66.1026 103.539 66.1026H83.905V46.4617C83.905 46.0751 83.5916 45.7617 83.205 45.7617H69.3507Z" fill="#0497EC" fill-rule="evenodd"/>
</svg>