<?xml version="1.0" encoding="utf-8"?>
<!-- Generator: Adobe Illustrator 27.6.1, SVG Export Plug-In . SVG Version: 6.00 Build 0)  -->
<svg version="1.1" id="Ebene_1" xmlns="http://www.w3.org/2000/svg" xmlns:xlink="http://www.w3.org/1999/xlink" x="0px"
	y="0px" viewBox="0 0 446.2 76.9" style="enable-background:new 0 0 446.2 76.9;" xml:space="preserve">
	<style type="text/css">
		.st0 {
			fill: #FF0000;
		}
	</style>
	<g>
		<rect x="69.5" y="9.8" class="st0" width="9.1" height="57.3" />
		<rect x="367.9" y="9.8" class="st0" width="9.1" height="57.3" />
		<path class="st0" d="M172.5,53.4V9.7h-9.1v57.3v0H202v-8.8h-24.5C174.8,58.3,172.5,56.1,172.5,53.4" />
		<path class="st0" d="M247.8,18.7V9.8h-38.5v57.3v0h38.5v-8.9l-25.2,0.1c-2.7,0-5-2.2-5-5v-5.6c0-2.7,2.2-5,5-5h25.2v-8.8h-25.2
		c-2.7,0-5-2.2-5-5v-5.6c0-2.7,2.2-5,5-5L247.8,18.7z" />
		<path class="st0" d="M155.2,42.1h-13.6l-9.8-32.3h-22l-9.8,32.3H86.3v8.8h11l-4.9,16.2h9.3l4.7-16.2h14.8h13.9l4.7,16.2h9.3
		l-4.9-16.2h11V42.1z M108.9,42.1l5.8-20c0.6-2.1,2.6-3.6,4.8-3.6h2.4c2.2,0,4.1,1.5,4.8,3.6l5.8,20H108.9z" />
		<path class="st0" d="M60,38.4L60,38.4c0,16.8-11.7,28.7-28.7,28.7H12.5v-8.9l18.7,0.1c11.9,0,19.8-7.7,19.8-19.9
		c0-12.1-7.9-19.9-19.8-19.9l-18.7,0.1V9.8h18.9C48.4,9.8,60,21.6,60,38.4" />
		<path class="st0" d="M256.9,38.4L256.9,38.4c0-16.8,11.7-28.7,28.7-28.7h18.9v8.9l-18.7-0.1c-11.9,0-19.8,7.7-19.8,19.9
		c0,12.1,7.9,19.9,19.8,19.9l18.7-0.1v8.9h-18.9C268.6,67.1,256.9,55.3,256.9,38.4" />
		<path class="st0" d="M386.1,38.4L386.1,38.4c0-16.8,11.7-28.7,28.7-28.7h18.9v8.9L415,18.6c-11.9,0-19.8,7.7-19.8,19.9
		c0,12.1,7.9,19.9,19.8,19.9l18.7-0.1v8.9h-18.9C397.8,67.1,386.1,55.3,386.1,38.4" />
		<path class="st0" d="M313,9.8v8.9l14-0.1c2.8,0,5,2.2,5,5v43.6h9.1V23.6c0-2.8,2.2-5,5-5l14,0.1V9.8H313z" />
	</g>
</svg>