<?xml version="1.0" encoding="UTF-8"?>
<svg id="Layer_1" data-name="Layer 1" xmlns="http://www.w3.org/2000/svg" viewBox="0 0 2346.08 2346.08">
  <defs>
    <style>
      .cls-1 {
        fill: #252327;
      }

      .cls-2 {
        fill: #4d77c5;
      }
    </style>
  </defs>
  <circle class="cls-1" cx="1173.04" cy="1173.04" r="1173.04" />
  <g transform="translate(-326.96, -326.96)">
    <path class="cls-2" d="m765.59,1118.26v978.97h108.61V901.29c-68.47,50.98-108.61,131.51-108.61,216.97Z" />
    <path class="cls-2"
      d="m1853.41,901.29v870.85c68.47-51.47,108.86-132.01,108.86-217.71v-544.77h163.53v544.28c0,240.12-195.05,434.69-434.69,434.69V901.29h-108.86c-300.71,0-544.28,243.57-544.28,544.28h0v652.64h380.75v-870.85c-68.47,51.47-108.86,132.01-108.61,217.71v544.28h-163.53v-544.28h0c0-240.12,195.05-434.69,434.69-434.69v1088.31h108.61c300.71,0,544.28-243.57,544.28-544.28v-652.64l-380.75-.49h0Z" />
  </g>
</svg>