<?xml version="1.0" encoding="UTF-8" standalone="no"?>
<!-- Created with Inkscape (http://www.inkscape.org/) -->

<svg
   width="9.0266047mm"
   height="6.379355mm"
   viewBox="0 0 9.0266047 6.379355"
   version="1.1"
   id="svg1"
   xml:space="preserve"
   xmlns="http://www.w3.org/2000/svg"
   xmlns:svg="http://www.w3.org/2000/svg"><defs
     id="defs1"><filter
       style="color-interpolation-filters:sRGB"
       id="filter16-3-8-0-3-8"
       x="-0.11546032"
       y="-0.098380387"
       width="1.2138407"
       height="1.2275046"><feFlood
         result="flood"
         in="SourceGraphic"
         flood-opacity="0.211765"
         flood-color="rgb(0,0,0)"
         id="feFlood15-3-95-39-9-5" /><feGaussianBlur
         result="blur"
         in="SourceGraphic"
         stdDeviation="24.000000"
         id="feGaussianBlur15-2-82-9-9-9" /><feOffset
         result="offset"
         in="blur"
         dx="-10.000000"
         dy="18.000000"
         id="feOffset15-1-32-9-7-4" /><feComposite
         result="comp1"
         operator="in"
         in="flood"
         in2="offset"
         id="feComposite15-4-66-1-0-3" /><feComposite
         result="comp2"
         operator="over"
         in="SourceGraphic"
         in2="comp1"
         id="feComposite16-0-63-7-3-9" /></filter><clipPath
       id="a-2-2-9-0"><path
         fill="#ffffff"
         d="M 0,0 H 699 V 699 H 0 Z"
         id="path5-3-3-8-5" /></clipPath><mask
       id="b-65-6-6"
       width="699"
       height="699"
       x="0"
       y="0"
       maskUnits="userSpaceOnUse"><path
         fill="#ffffff"
         d="M 699,0 H 0 v 699 h 699 z"
         id="path1-2-58-5-3" /></mask><filter
       style="color-interpolation-filters:sRGB"
       id="filter16-3-39-0"
       x="-0.11546032"
       y="-0.098380387"
       width="1.2138407"
       height="1.2275046"><feFlood
         result="flood"
         in="SourceGraphic"
         flood-opacity="0.211765"
         flood-color="rgb(0,0,0)"
         id="feFlood15-3-86-9" /><feGaussianBlur
         result="blur"
         in="SourceGraphic"
         stdDeviation="24.000000"
         id="feGaussianBlur15-2-57-375" /><feOffset
         result="offset"
         in="blur"
         dx="-10.000000"
         dy="18.000000"
         id="feOffset15-1-62-7" /><feComposite
         result="comp1"
         operator="in"
         in="flood"
         in2="offset"
         id="feComposite15-4-70-2" /><feComposite
         result="comp2"
         operator="over"
         in="SourceGraphic"
         in2="comp1"
         id="feComposite16-0-399-97" /></filter></defs><style
     id="style1">.st0{fill:#1682fe}.st1{fill:#60d8a4}.st2{fill:#f4bb3b}.st3{fill:#ff5a5a}</style><g
     id="layer30"
     transform="translate(-1.6194615,-219.01402)"><g
       id="g3111-2-0"
       transform="matrix(0.42689209,0,0,0.42689209,-4.0438583,173.07448)"
       style="display:inline"><g
         id="g3105-7-8"
         transform="matrix(0.02069753,0,0,0.02069753,8.9116006,57.634634)"
         style="filter:url(#filter16-3-8-0-3-8)"><circle
           style="fill:#ffffff;fill-opacity:1;stroke:none;stroke-width:1.1;stroke-dasharray:none;stroke-opacity:1"
           id="circle3104-0-4"
           cx="93.054199"
           cy="118.05384"
           r="52.777012"
           transform="matrix(5.5467573,0,0,5.5467573,54.59395,2110.2725)" /></g><g
         style="fill:none"
         id="g3110-3-0"
         transform="matrix(0.01434363,0,0,0.01434363,15.774768,109.86137)"><g
           clip-path="url(#a-2-2-9-0)"
           id="g3109-9-4"><mask
             id="mask3105-9-6"
             width="699"
             height="699"
             x="0"
             y="0"
             maskUnits="userSpaceOnUse"><path
               fill="#ffffff"
               d="M 699,0 H 0 v 699 h 699 z"
               id="path3105-9-4" /></mask><g
             fill="#000000"
             mask="url(#b-65-6-6)"
             id="g3108-1-6"><path
               d="m 349.5,37.298 c 42.164,0 83.048,8.252 121.516,24.522 a 312.26,312.26 0 0 1 53.021,28.778 314.686,314.686 0 0 1 46.233,38.143 314.875,314.875 0 0 1 38.145,46.23 311.98,311.98 0 0 1 28.776,53.017 c 16.268,38.467 24.518,79.346 24.518,121.51 0,42.164 -8.25,83.043 -24.518,121.51 a 312.26,312.26 0 0 1 -28.776,53.017 314.605,314.605 0 0 1 -38.145,46.229 314.672,314.672 0 0 1 -46.233,38.144 311.918,311.918 0 0 1 -53.021,28.778 c -38.468,16.27 -79.352,24.522 -121.516,24.522 -42.164,0 -83.048,-8.252 -121.516,-24.522 A 312.199,312.199 0 0 1 174.963,608.398 314.672,314.672 0 0 1 128.73,570.254 314.8,314.8 0 0 1 90.585,524.025 312.004,312.004 0 0 1 61.809,471.008 C 45.54,432.541 37.29,391.662 37.29,349.498 c 0,-42.164 8.25,-83.043 24.518,-121.51 a 312.292,312.292 0 0 1 28.776,-53.017 314.652,314.652 0 0 1 38.145,-46.23 314.686,314.686 0 0 1 46.233,-38.143 311.966,311.966 0 0 1 53.021,-28.778 C 266.451,45.55 307.335,37.298 349.499,37.298 Z M 349.5,0 C 156.475,0 0,156.475 0,349.502 0,542.529 156.475,699.004 349.5,699.004 542.525,699.004 699,542.529 699,349.502 699,156.475 542.525,0 349.5,0 Z"
               id="path3106-7-4" /><path
               d="m 243.446,215.58 v -25.769 c 0,-20.845 13.64,-37.787 34.184,-41.413 15.526,-2.739 29.875,0.162 41.298,12.043 7.487,7.783 11.349,17.186 11.498,27.995 0.129,8.964 0.029,17.932 0.029,27.02 H 377.6 c 0.033,-0.559 0.091,-1.152 0.091,-1.749 v -24.451 c 0.062,-23.154 18.356,-41.442 41.502,-41.654 7.98,-0.083 15.745,0.709 22.851,4.559 14.581,7.911 22.209,20.224 22.619,36.809 0.216,8.757 0.038,17.526 0.038,26.581 h 61.274 c 11.456,0 19.027,7.626 20.067,19.031 0.89,9.76 -1.62,18.649 -4.848,27.58 a 91.19,91.19 0 0 1 -14.196,25.595 c -4.802,6.104 -10.209,11.786 -15.745,17.232 -7.193,7.045 -14.755,13.721 -22.242,20.46 -4.094,3.68 -7.778,7.65 -10.127,12.669 -0.676,1.442 -1.243,3.1 -1.243,4.662 -0.071,37.551 0.083,75.107 -0.104,112.658 -0.219,45.127 -33.599,85.372 -77.898,93.938 a 118.285,118.285 0 0 1 -20.754,2.035 c -19.475,0.265 -38.949,0.095 -58.424,0.091 -47.53,0 -87.357,-32.412 -96.659,-78.953 a 102.187,102.187 0 0 1 -1.807,-19.527 c -0.17,-36.586 -0.074,-73.171 -0.112,-109.757 a 8.78,8.78 0 0 0 -0.729,-3.315 c -2.971,-6.905 -8.212,-11.969 -13.674,-16.901 a 1295.996,1295.996 0 0 1 -21.877,-20.24 c -8.416,-7.953 -15.965,-16.697 -21.435,-26.938 -6.161,-11.517 -11.39,-23.469 -11.386,-36.921 a 38.993,38.993 0 0 1 0.995,-9.014 c 2.071,-8.529 9.629,-14.314 18.488,-14.327 22.926,-0.029 45.856,-0.029 68.782,0 z m 67.73,41.418 h -74.952 c -4.819,0 -8.958,3.237 -9.58,7.957 a 25.773,25.773 0 0 0 0.116,8.231 c 1.658,8.388 5.3,15.984 11.142,22.217 5.842,6.233 12.198,11.778 18.132,17.82 4.483,4.559 7.33,9.984 7.322,16.669 -0.042,40.999 -0.042,81.998 0,122.997 a 59.404,59.404 0 0 0 0.538,8.67 c 4.144,28.148 27.762,48.488 56.207,48.488 19.541,0 39.081,-0.009 58.622,-0.021 2.9,0.029 5.797,-0.137 8.676,-0.497 27.89,-3.834 48.678,-27.655 48.716,-55.811 0,-6.834 -0.058,-13.676 0.045,-20.502 0,-1.587 -0.447,-2.238 -1.964,-2.706 a 175.127,175.127 0 0 1 -40.987,-18.612 c -29.419,-18.276 -51.956,-42.76 -66.566,-74.31 -7.006,-15.135 -11.813,-30.954 -13.499,-47.548 -1.106,-10.874 -1.334,-21.852 -1.968,-33.042 z m 122.088,109.914 c 0.124,-10.261 -8.092,-18.678 -18.352,-18.798 -10.259,-0.124 -18.674,8.094 -18.795,18.355 -0.124,10.261 8.093,18.678 18.352,18.798 h 0.046 c 10.217,0.137 18.612,-8.036 18.749,-18.251 z"
               id="path3107-2-3" /><path
               d="m 318.479,366.763 c -0.037,10.261 -8.386,18.554 -18.645,18.517 -10.26,-0.038 -18.551,-8.388 -18.514,-18.65 0.038,-10.261 8.387,-18.553 18.646,-18.516 h 0.066 c 10.218,0.033 18.48,8.342 18.447,18.566 z"
               id="path3108-3-8" /></g></g></g></g><g
       id="g3112-72-53"
       transform="matrix(0.00883561,0,0,0.00883561,2.5077249,197.70761)"
       style="filter:url(#filter16-3-39-0)"><circle
         style="fill:#ffffff;fill-opacity:1;stroke:none;stroke-width:1.1;stroke-dasharray:none;stroke-opacity:1"
         id="circle3111-3-0"
         cx="93.054199"
         cy="118.05384"
         r="52.777012"
         transform="matrix(5.5467573,0,0,5.5467573,54.59395,2110.2725)" /><path
         class="st1"
         d="M 602.89192,3003.5864 V 2820.133 c 43.74315,4.6868 73.42599,24.7729 73.42599,24.7729 l 27.89746,-31.4684 c -45.7518,-32.5841 -113.59832,-33.9232 -113.59832,-33.9232 l -11.15894,-123.195 c 7.36493,-4.9099 12.27486,-13.1676 12.27486,-22.7643 0,-14.953 -12.27486,-27.2278 -27.22792,-27.2278 -14.95296,0 -27.22782,12.2748 -27.22782,27.2278 0,9.5967 4.90992,18.0776 12.27486,22.7643 l -11.15895,123.195 c 0,0 -67.84661,1.1159 -113.59831,33.9232 l 27.89737,31.4684 c 0,0 29.68292,-20.0861 73.42599,-24.7729 v 183.4534 c -170.95534,-126.7658 -185.01566,-310.8888 -184.5693,-372.04 0,-12.7212 7.58812,-24.3265 19.19343,-29.4597 34.14649,-15.1761 112.03604,-44.859 203.53955,-44.859 91.5036,0 169.39315,29.6829 203.53964,44.859 11.60531,5.1332 19.19334,16.7385 19.19334,29.4597 0.44636,61.1512 -13.61387,245.2742 -184.12293,372.04 z"
         id="path1-86"
         style="stroke-width:2.23179" /></g></g><style
     type="text/css"
     id="style1-5">
	.st0{fill:#FAFAFA;}
	.st1{fill:#FFAF1D;}
	.st2{fill:#161616;}
</style></svg>
