<svg width="208" height="214" viewBox="0 0 208 214" fill="none" xmlns="http://www.w3.org/2000/svg">
<path d="M78.7889 78.3511L43.9095 20.238L64.0178 8.57368L96.7032 68.041C96.7432 68.0303 96.7832 68.0196 96.8232 68.0089C96.8445 68.0033 96.8658 67.9976 96.8872 67.992L95.6076 0.5H118.827L117.547 67.9801C117.647 68.0063 117.747 68.0329 117.846 68.0599L150.294 9.02382L170.403 20.6881L135.755 78.415C135.802 78.4617 135.849 78.5086 135.896 78.5556L192.964 43.9797L204.574 64.1828L146.346 96.4895C146.381 96.617 146.416 96.7448 146.45 96.8728L207 95.5992V117.367H118.352V145.771L184.947 145.771V166.057H117.927L118.352 188.487V213.5H95.6076L96.871 146.859C96.7999 146.841 96.7288 146.821 96.6578 146.802C96.6043 146.788 96.5509 146.773 96.4976 146.759L64.4026 205.152L44.2944 193.487L78.605 136.322C78.4901 136.207 78.3758 136.091 78.2623 135.975L20.9762 170.683L9.36668 150.48L68.0177 117.938C67.992 117.841 67.9667 117.744 67.9417 117.647L1 118.928L1 95.5992L68.0271 96.8819C68.059 96.762 68.0914 96.6422 68.1244 96.5227L9.27174 63.8693L20.8813 43.6661L78.5394 78.5997C78.6222 78.5165 78.7054 78.4336 78.7889 78.3511Z" fill="#131313"/>
</svg>
