<svg width="64" height="26" viewBox="0 0 64 26" fill="none" xmlns="http://www.w3.org/2000/svg">
<path fill-rule="evenodd" clip-rule="evenodd" d="M4.36467 5.34349L4.39085 11.0936L17.7225 24.7436H11.5553L0.00292841 12.9151L0 0.855469H17.7225V5.34349L11.0814 13.1376L7.9738 9.99336L11.8 5.34349H4.36467ZM0.00336527 24.8555V17.8717L4.63577 22.5045L2.64133 24.8555H0.00336527Z" fill="#696EFF"/>
<path d="M0.0200195 18.0469V25.1421H2.71293L4.74892 22.7536L0.0200195 18.0469Z" fill="#696EFF"/>
<path fill-rule="evenodd" clip-rule="evenodd" d="M21.478 0.855469H39.8306V5.3467H21.478V0.855469ZM25.9956 13.2061L25.9956 24.8552H21.4781L21.4781 13.2061H25.9956ZM21.478 8.71479H36.5878L41.1054 13.206H21.478V8.71479ZM45.1952 8.71479V12.5083L41.3794 8.71479H45.1952Z" fill="white"/>
<path fill-rule="evenodd" clip-rule="evenodd" d="M33.4247 0.855471L39.8135 0.855469L63.9541 24.8555L57.5653 24.8555L33.4247 0.855471ZM33.3364 24.8553L43.098 15.1878L46.2993 18.3704L39.7764 24.8553L33.3364 24.8553ZM51.5058 7.10572C51.2869 7.11357 51.1159 7.28106 51.1247 7.47901C51.1334 7.67696 51.3186 7.83155 51.5376 7.82357C51.7566 7.81572 51.9276 7.64823 51.9188 7.45028C51.9101 7.25232 51.7248 7.09774 51.5058 7.10572ZM54.1134 4.6585C54.107 4.51572 54.2303 4.395 54.3883 4.38928C54.5462 4.38357 54.6798 4.495 54.6861 4.63778C54.6924 4.78056 54.5691 4.90129 54.4112 4.907C54.2532 4.91271 54.1197 4.80128 54.1134 4.6585ZM54.8706 3.96197C54.7385 3.96675 54.6354 4.06769 54.6407 4.18709C54.646 4.30649 54.7578 4.39973 54.8897 4.39495C55.0218 4.39017 55.1249 4.28923 55.1196 4.16983C55.1144 4.05043 55.0025 3.95719 54.8706 3.96197ZM55.0972 3.76506C55.0925 3.65895 55.1842 3.56916 55.3016 3.56491C55.419 3.56066 55.5183 3.64354 55.523 3.74966C55.5277 3.85578 55.436 3.94556 55.3186 3.94981C55.2012 3.95406 55.1019 3.87118 55.0972 3.76506ZM55.6921 3.2176C55.5941 3.22119 55.5175 3.2961 55.5215 3.38468C55.5254 3.47327 55.6083 3.54247 55.7063 3.53888C55.8043 3.5353 55.8809 3.46039 55.8769 3.3718C55.8729 3.28321 55.7901 3.21402 55.6921 3.2176ZM56.2304 2.70866C56.2269 2.62937 56.2954 2.5623 56.3831 2.55911C56.4708 2.55592 56.545 2.61781 56.5485 2.6971C56.5521 2.77639 56.4836 2.84346 56.3959 2.84665C56.3082 2.84984 56.234 2.78795 56.2304 2.70866ZM56.0437 2.88981C55.956 2.893 55.8876 2.96007 55.8911 3.03936C55.8946 3.11865 55.9688 3.18054 56.0565 3.17736C56.1442 3.17417 56.2127 3.1071 56.2092 3.02781C56.2057 2.94851 56.1315 2.88662 56.0437 2.88981ZM57.5122 1.49269C57.5095 1.43358 57.5606 1.38351 57.6262 1.38112C57.6915 1.37887 57.7469 1.42495 57.7496 1.48419C57.7521 1.54329 57.7011 1.59336 57.6356 1.59575C57.5702 1.59801 57.5148 1.55179 57.5122 1.49269ZM57.3114 1.69135C57.2476 1.69361 57.1976 1.74249 57.2001 1.80013C57.2026 1.85777 57.2567 1.90293 57.3206 1.90053C57.3844 1.89828 57.4343 1.8494 57.4317 1.79176C57.4292 1.73398 57.3751 1.68896 57.3114 1.69135ZM56.8881 2.0941C56.8853 2.03021 56.9404 1.97629 57.011 1.97377C57.0816 1.97124 57.1413 2.02105 57.1441 2.0848C57.1469 2.14868 57.0918 2.20261 57.0212 2.20513C56.9507 2.20765 56.8909 2.15785 56.8881 2.0941ZM56.7092 2.25853C56.6325 2.26132 56.5726 2.31989 56.5756 2.38935C56.5787 2.45868 56.6437 2.51287 56.7204 2.51008C56.7971 2.50729 56.857 2.44872 56.8539 2.37939C56.8508 2.31006 56.786 2.25587 56.7093 2.25866L56.7092 2.25853ZM58.1252 0.93053C58.1234 0.890821 58.1576 0.857242 58.2015 0.855643C58.2454 0.854044 58.2826 0.884958 58.2844 0.924667C58.2861 0.964375 58.2519 0.997954 58.208 0.999553C58.1641 1.00115 58.1269 0.970238 58.1252 0.93053ZM57.9263 1.09919C57.8676 1.10132 57.8218 1.14621 57.8242 1.1992C57.8265 1.2522 57.8762 1.29364 57.9348 1.29151C57.9934 1.28939 58.0392 1.24449 58.0369 1.1915C58.0345 1.13851 57.9849 1.09707 57.9263 1.09919ZM53.5639 5.21399C53.5299 5.0308 53.695 4.86916 53.8996 4.88526C54.0391 4.89617 54.1556 4.99342 54.1787 5.1182C54.2127 5.30126 54.0476 5.46303 53.843 5.44693C53.7035 5.43602 53.587 5.33877 53.5639 5.21399ZM53.3135 5.41751C53.1416 5.42376 53.0073 5.55507 53.0143 5.71045C53.0212 5.86583 53.1666 5.98716 53.3383 5.98091C53.5102 5.97465 53.6444 5.84335 53.6375 5.68797C53.6306 5.53258 53.4852 5.41126 53.3135 5.41751ZM52.421 6.26434C52.4135 6.09499 52.5599 5.95158 52.7474 5.9448C52.9348 5.93801 53.0934 6.07038 53.1009 6.23987C53.1084 6.40922 52.962 6.55263 52.7745 6.55941C52.5872 6.5662 52.4285 6.43383 52.421 6.26434ZM52.1461 6.5111C51.9456 6.51829 51.7891 6.67167 51.797 6.85287C51.805 7.03406 51.9746 7.1756 52.1751 7.16842C52.3755 7.16124 52.5321 7.00785 52.5242 6.82666C52.5162 6.64547 52.3465 6.50392 52.1461 6.5111ZM51.9299 8.23986C51.9202 8.01929 52.1107 7.83251 52.3549 7.82373C52.599 7.81495 52.8055 7.98723 52.8152 8.20793C52.8249 8.4285 52.6344 8.61528 52.3902 8.62406C52.1461 8.63284 51.9396 8.46056 51.9299 8.23986ZM55.5688 4.79562C55.3925 4.802 55.2547 4.9369 55.2618 5.09627C55.2689 5.25564 55.418 5.38016 55.5944 5.37378C55.7707 5.36739 55.9085 5.2325 55.9014 5.07312C55.8943 4.91375 55.7451 4.78923 55.5688 4.79562ZM55.8492 4.56908C55.8433 4.436 55.9583 4.32337 56.1056 4.31806C56.2528 4.31274 56.3774 4.41674 56.3832 4.54982C56.3891 4.6829 56.2741 4.79553 56.1269 4.80084C55.9796 4.80615 55.855 4.70216 55.8492 4.56908ZM56.5868 3.87612C56.456 3.8809 56.3538 3.98091 56.3589 4.09925C56.3642 4.21758 56.4748 4.30989 56.6057 4.30524C56.7365 4.30046 56.8388 4.20045 56.8336 4.08211C56.8283 3.96377 56.7177 3.87147 56.5868 3.87612ZM56.831 3.67452C56.8268 3.57584 56.912 3.4923 57.0213 3.48832H57.0212C57.1303 3.48446 57.2227 3.56163 57.2271 3.66031C57.2316 3.75899 57.1462 3.84253 57.037 3.84652C56.9279 3.85037 56.8354 3.77334 56.831 3.67452ZM57.7917 2.75423C57.694 2.75781 57.6176 2.83259 57.6216 2.92091C57.6255 3.00923 57.7081 3.0783 57.806 3.07471C57.9037 3.07112 57.9801 2.99635 57.9761 2.90803C57.9721 2.81971 57.8895 2.75064 57.7917 2.75423ZM57.2441 3.29063C57.2402 3.20231 57.3166 3.12754 57.4143 3.12395C57.5121 3.12037 57.5947 3.18943 57.5986 3.27775C57.6026 3.36607 57.5262 3.44085 57.4285 3.44443C57.3307 3.44802 57.2481 3.37896 57.2441 3.29063ZM59.1773 1.44114C59.1043 1.44379 59.0473 1.49958 59.0502 1.56558C59.0532 1.63159 59.1149 1.68299 59.1879 1.68047C59.2609 1.67781 59.3178 1.62203 59.315 1.55602C59.312 1.49001 59.2503 1.43848 59.1773 1.44114ZM58.7031 1.90825C58.7001 1.84384 58.7558 1.78939 58.8269 1.78686L58.8271 1.78699C58.8982 1.78434 58.9584 1.83468 58.9612 1.89896C58.9642 1.96324 58.9085 2.01769 58.8374 2.02022C58.7661 2.02287 58.7059 1.97254 58.7031 1.90825ZM58.4919 2.10304C58.4133 2.10583 58.3517 2.166 58.3549 2.23719C58.358 2.30824 58.4246 2.36376 58.5033 2.36097C58.5819 2.35818 58.6433 2.29801 58.6403 2.22683C58.6372 2.15577 58.5706 2.10012 58.4919 2.10304ZM58.0068 2.56532C58.0033 2.48802 58.0701 2.42254 58.1556 2.41949L58.1558 2.41962C58.2413 2.41644 58.3136 2.47687 58.317 2.55416C58.3203 2.63133 58.2536 2.69681 58.1681 2.69986C58.0826 2.70292 58.0102 2.64262 58.0068 2.56532ZM59.8189 0.855646C59.77 0.857378 59.7318 0.894822 59.7337 0.939061C59.7356 0.9833 59.7771 1.01781 59.826 1.01608C59.8749 1.01435 59.9131 0.976904 59.9112 0.932665C59.9093 0.888425 59.8679 0.853914 59.8189 0.855646ZM59.3989 1.23808C59.3962 1.17898 59.4473 1.12891 59.5127 1.12652C59.5782 1.12413 59.6335 1.17035 59.6361 1.22945C59.6388 1.28869 59.5877 1.33863 59.5223 1.34102C59.4567 1.34341 59.4015 1.29719 59.3989 1.23808ZM55.0236 5.3473C54.7955 5.32934 54.6114 5.5096 54.6493 5.71367C54.6752 5.85283 54.805 5.96125 54.9606 5.97349C55.1887 5.99145 55.3728 5.81119 55.3348 5.60698C55.3089 5.46783 55.1791 5.35941 55.0236 5.3473ZM54.0358 6.26896C54.0281 6.09575 54.1778 5.94928 54.3694 5.94236C54.561 5.93545 54.723 6.07061 54.7307 6.24382C54.7383 6.41703 54.5887 6.5635 54.397 6.57042C54.2054 6.57733 54.0434 6.44217 54.0358 6.26896ZM53.7384 6.52952C53.5295 6.53711 53.3663 6.69688 53.3747 6.88579C53.383 7.07469 53.5598 7.22223 53.7688 7.21478C53.9777 7.20719 54.1409 7.04742 54.1326 6.85851C54.1242 6.66961 53.9474 6.52207 53.7384 6.52966V6.52952ZM52.6794 7.54087C52.6704 7.33893 52.8449 7.16798 53.0685 7.15986C53.2919 7.15175 53.481 7.30953 53.4899 7.5116C53.4989 7.71355 53.3244 7.8845 53.1008 7.89261C52.8774 7.90073 52.6883 7.74295 52.6794 7.54087ZM53.3875 8.67883C53.1135 8.68867 52.8993 8.89833 52.9104 9.14604C52.9213 9.39375 53.1532 9.58731 53.4272 9.57733C53.7012 9.56749 53.9154 9.35783 53.9043 9.11012C53.8934 8.86241 53.6615 8.66885 53.3875 8.67883ZM56.652 5.61688C56.644 5.43795 56.7987 5.28656 56.9966 5.27937L56.9968 5.27951C57.1947 5.27232 57.3622 5.41214 57.3701 5.59107C57.3779 5.77 57.2233 5.92139 57.0253 5.92858C56.8274 5.93563 56.6599 5.79594 56.652 5.61688ZM57.5994 4.7439C57.4341 4.74987 57.305 4.87631 57.3116 5.02573C57.3182 5.17515 57.4581 5.29189 57.6234 5.28591C57.7886 5.27994 57.9178 5.1535 57.9112 5.00408C57.9046 4.85466 57.7647 4.73792 57.5994 4.7439ZM57.8833 4.49733C57.8775 4.36452 57.9922 4.25216 58.1391 4.24684C58.286 4.24153 58.4103 4.34526 58.4162 4.47807C58.4221 4.61089 58.3074 4.72325 58.1604 4.72856C58.0135 4.73388 57.8892 4.63015 57.8833 4.49733ZM58.6272 3.81222C58.5045 3.8166 58.4087 3.9105 58.4136 4.02127C58.4184 4.13217 58.5223 4.21877 58.645 4.21438C58.7676 4.21 58.8634 4.1161 58.8584 4.0052C58.8536 3.8943 58.7497 3.8077 58.6272 3.81222ZM59.3012 3.17453C59.2968 3.07532 59.3826 2.99138 59.4924 2.98739C59.6021 2.98341 59.695 3.06097 59.6994 3.16018C59.7037 3.2594 59.618 3.34334 59.5083 3.34732C59.3985 3.35131 59.3057 3.27374 59.3012 3.17453ZM59.0676 3.40199C58.9578 3.40597 58.872 3.48991 58.8764 3.58913C58.8808 3.68834 58.9737 3.7659 59.0835 3.76192C59.1932 3.75793 59.2789 3.674 59.2746 3.57478C59.2702 3.47557 59.1773 3.39801 59.0676 3.40199ZM60.9057 1.65305C60.9025 1.57894 60.9664 1.51626 61.0484 1.51333C61.1303 1.51041 61.1997 1.56819 61.2029 1.6423C61.2062 1.71641 61.1422 1.7791 61.0603 1.78202C60.9783 1.78494 60.9089 1.72717 60.9057 1.65305ZM60.6542 1.90246C60.5743 1.90538 60.5118 1.96648 60.5151 2.03873C60.5183 2.11098 60.5859 2.16729 60.6658 2.16451C60.7457 2.16158 60.808 2.10049 60.8049 2.02837C60.8017 1.95612 60.7341 1.89967 60.6542 1.90259V1.90246ZM60.1245 2.40646C60.1209 2.32664 60.19 2.25904 60.2783 2.25585L60.2781 2.25572C60.3666 2.25253 60.4412 2.31495 60.4447 2.39478C60.4483 2.4746 60.3794 2.5422 60.2911 2.54539C60.2028 2.54858 60.128 2.48629 60.1245 2.40646ZM59.9005 2.61193C59.8046 2.61538 59.7295 2.68883 59.7333 2.77556C59.7372 2.86228 59.8184 2.93015 59.9144 2.92657C60.0103 2.92311 60.0854 2.84967 60.0814 2.76294C60.0776 2.67621 59.9963 2.60834 59.9004 2.61179L59.9005 2.61193ZM61.6727 0.949333C61.6705 0.89963 61.7134 0.857656 61.7684 0.855657C61.8234 0.853659 61.8698 0.892434 61.872 0.942137C61.8742 0.99184 61.8313 1.03381 61.7763 1.03581C61.7213 1.03781 61.6749 0.999035 61.6727 0.949333ZM61.4242 1.16026C61.3508 1.16291 61.2935 1.21909 61.2964 1.2855C61.2993 1.35191 61.3615 1.40384 61.435 1.40118C61.5084 1.39853 61.5657 1.34235 61.5628 1.27594C61.5598 1.20953 61.4977 1.15773 61.4242 1.16039V1.16026ZM55.9639 6.31044C55.9213 6.08136 56.1281 5.87901 56.3842 5.8991V5.89897C56.5587 5.91267 56.7046 6.0344 56.7336 6.19058C56.7761 6.4198 56.5693 6.62214 56.3133 6.60205C56.1387 6.58835 55.9929 6.46662 55.9639 6.31044ZM55.6496 6.56624C55.4346 6.57396 55.2665 6.73852 55.275 6.93288C55.2836 7.12737 55.4656 7.27917 55.6808 7.27145C55.8959 7.26373 56.0638 7.09917 56.0553 6.90481C56.0468 6.71031 55.8647 6.55852 55.6496 6.56624ZM54.5329 7.62625C54.5235 7.41419 54.7068 7.23473 54.9414 7.22621C55.176 7.2177 55.3745 7.38346 55.3839 7.59552C55.3934 7.80757 55.21 7.98703 54.9754 7.99555C54.7408 8.00406 54.5423 7.8383 54.5329 7.62625ZM54.1886 7.93446C53.9377 7.94351 53.7416 8.13548 53.7516 8.3623C53.7617 8.58912 53.974 8.76632 54.2249 8.75727C54.4758 8.74823 54.6719 8.55626 54.6619 8.32944C54.6519 8.10262 54.4395 7.92542 54.1886 7.93446ZM53.879 10.0614C53.867 9.78663 54.1046 9.5542 54.409 9.54317C54.7133 9.53227 54.9707 9.74689 54.9829 10.0217C54.995 10.2965 54.7573 10.529 54.453 10.54C54.1486 10.5509 53.8912 10.3363 53.879 10.0614ZM58.416 5.76694C58.1961 5.77493 58.0245 5.94308 58.0332 6.1417C58.042 6.34045 58.2279 6.4957 58.4478 6.48772C58.6676 6.47974 58.8394 6.31158 58.8305 6.11283C58.8217 5.91408 58.6357 5.75883 58.4158 5.76681L58.416 5.76694ZM58.7661 5.4867C58.7587 5.32041 58.9025 5.1798 59.0863 5.17314C59.2703 5.16663 59.4258 5.29633 59.4332 5.46262C59.4405 5.62892 59.2967 5.76953 59.1129 5.77618C58.929 5.78284 58.7734 5.653 58.7661 5.4867ZM59.6853 4.62134C59.5222 4.62718 59.3947 4.75203 59.4013 4.89945C59.4078 5.04688 59.5459 5.16216 59.709 5.15632C59.872 5.15047 59.9996 5.02563 59.993 4.8782C59.9865 4.73078 59.8484 4.61549 59.6853 4.62147V4.62134ZM59.9896 4.37022C59.9842 4.2471 60.0906 4.14297 60.2268 4.13806C60.363 4.13314 60.4782 4.2293 60.4836 4.35242C60.489 4.47554 60.3827 4.57967 60.2465 4.58458C60.1103 4.58949 59.9951 4.49334 59.9896 4.37022ZM61.1876 3.22299C61.0657 3.22738 60.9705 3.32061 60.9755 3.43085C60.9803 3.54095 61.0834 3.62702 61.2054 3.62263C61.3273 3.61825 61.4224 3.52502 61.4176 3.41478C61.4127 3.30468 61.3096 3.21861 61.1876 3.22299ZM60.5048 3.89228C60.4998 3.78205 60.595 3.68881 60.7169 3.68443C60.8389 3.67991 60.942 3.76598 60.9468 3.87621C60.9517 3.98645 60.8566 4.07968 60.7347 4.08407C60.6127 4.08845 60.5096 4.00239 60.5048 3.89228ZM62.915 1.58603C62.8241 1.58935 62.753 1.65894 62.7567 1.74115C62.7603 1.82337 62.8373 1.88765 62.9283 1.88433C63.0192 1.88101 63.0903 1.81141 63.0866 1.7292C63.083 1.64699 63.0061 1.58271 62.915 1.58603ZM62.324 2.16898C62.3205 2.08876 62.3899 2.02089 62.4786 2.0177H62.4784C62.5672 2.01438 62.6423 2.07707 62.6458 2.15729C62.6493 2.23751 62.5801 2.30538 62.4914 2.30856C62.4026 2.31175 62.3276 2.2492 62.324 2.16898ZM62.0607 2.41036C61.9625 2.41394 61.886 2.48885 61.89 2.57757C61.8939 2.66616 61.9769 2.73549 62.0749 2.7319C62.1731 2.72831 62.2496 2.65341 62.2457 2.56469C62.2417 2.47597 62.1588 2.40677 62.0607 2.41036ZM61.4554 2.98714C61.4511 2.89085 61.5345 2.8093 61.6411 2.80545C61.7476 2.8016 61.8379 2.87677 61.8421 2.9732C61.8464 3.06949 61.7632 3.15104 61.6565 3.15489C61.5499 3.15874 61.4597 3.08343 61.4554 2.98714ZM63.7151 0.855659C63.6542 0.857917 63.6068 0.904402 63.6091 0.959388C63.6116 1.01437 63.6631 1.05727 63.7239 1.05515C63.7847 1.05289 63.8322 1.0064 63.8298 0.951419C63.8273 0.896433 63.7759 0.853534 63.7151 0.855659ZM63.1912 1.33291C63.188 1.25919 63.2517 1.19677 63.3333 1.19385C63.4148 1.19093 63.4839 1.24857 63.4871 1.32228C63.4903 1.39599 63.4266 1.45842 63.345 1.46134C63.2635 1.46426 63.1944 1.40662 63.1912 1.33291ZM57.7362 6.45677C57.4519 6.43442 57.2223 6.65912 57.2695 6.91361C57.3018 7.08708 57.4637 7.22225 57.6575 7.23741C57.9418 7.25976 58.1714 7.03507 58.1241 6.78058C58.0919 6.6071 57.93 6.47194 57.7362 6.45677ZM56.5054 7.60466C56.4958 7.38874 56.6824 7.20609 56.9213 7.19744C57.1601 7.18879 57.3622 7.35748 57.3718 7.57339C57.3813 7.78931 57.1947 7.97196 56.9559 7.98061C56.717 7.98912 56.515 7.82057 56.5054 7.60466ZM56.1344 7.92959C55.874 7.93904 55.6704 8.13832 55.6807 8.37379C55.6912 8.60926 55.9116 8.79338 56.1721 8.78393C56.4326 8.77449 56.6361 8.5752 56.6258 8.33973C56.6154 8.10426 56.3949 7.92028 56.1344 7.92959ZM54.8136 9.19144C54.8025 8.93961 55.0202 8.72649 55.2988 8.71638C55.5774 8.7064 55.8131 8.90316 55.8243 9.15499C55.8353 9.40682 55.6177 9.61994 55.3391 9.63005C55.0605 9.64003 54.8247 9.44327 54.8136 9.19144Z" fill="white"/>
</svg>
