<?xml version="1.0" encoding="utf-8"?>
<!-- Generator: Adobe Illustrator 26.5.1, SVG Export Plug-In . SVG Version: 6.00 Build 0)  -->
<svg version="1.1" id="a" xmlns="http://www.w3.org/2000/svg" xmlns:xlink="http://www.w3.org/1999/xlink" x="0px" y="0px"
	 viewBox="0 0 121.3 102.1" style="enable-background:new 0 0 121.3 102.1;" xml:space="preserve">
<style type="text/css">
	.st0{fill:#FF7900;}
	.st1{fill:none;}
</style>
<g>
	<path class="st0" d="M121.3,25.2c0,1.6-0.4,3.2-1.1,4.7c-1.3,3-3.9,5.7-7.5,8.2c-2.4,1.7-5.3,3.3-8.6,4.7
		c-10,4.3-23.6,7.1-38.8,7.6v-5.3c0-4.9,3-9.2,7.6-10.8l6.2-2.2c5.8-1.9,9.5-4.8,9.5-7.9c0-5.8-12.5-10.6-28-10.6s-28,4.7-28,10.6
		c0,3.1,3.5,5.8,9.1,7.8l0.2,0.1l6.4,2.3c4.6,1.6,7.6,6,7.6,10.8v5.3c-15.2-0.5-28.8-3.3-38.9-7.6c-3.3-1.4-6.2-3-8.6-4.7
		c-3.6-2.5-6.1-5.3-7.5-8.2c-0.7-1.5-1-3.1-1-4.7C0,11.3,27.2,0,60.7,0S121.3,11.3,121.3,25.2L121.3,25.2z"/>
	<path class="st0" d="M86.3,62.6v11.4c-7.8,1.5-16.5,2.4-25.7,2.4c-22,0-41.2-4.9-51.9-12.2c-3.7-2.5-6.4-5.4-7.7-8.4
		c-0.7-1.5-1-3.1-1-4.7c0-2.9,1.2-5.7,3.3-8.2c1.4,1.7,3.1,3.2,5.2,4.7c4.9,3.4,11.7,6.3,19.8,8.5h0c8.1,2.1,17.6,3.5,27.7,3.8v4.7
		c0,2.6,2.1,4.7,4.7,4.7l0,0c2.6,0,4.7-2.1,4.7-4.7v-4.7c5.6-0.2,11-0.7,16.1-1.4C84,58,86.3,59.9,86.3,62.6L86.3,62.6z"/>
	<path class="st0" d="M121.3,51.1c0,1.6-0.4,3.2-1.1,4.7c-1.4,3-4,5.9-7.7,8.4c-4.3,3-10.1,5.5-16.9,7.5V58.4c0-1.8,1.2-3.5,2.9-4.1
		c5.7-1.9,10.5-4.2,14.2-6.8c2.1-1.5,3.9-3,5.2-4.7C120.2,45.4,121.3,48.2,121.3,51.1z"/>
	<path class="st0" d="M121.3,77.1c0,13.8-27.2,25-60.7,25S0,90.9,0,77.1c0-2.9,1.2-5.7,3.4-8.3c8.3,9.8,30.8,16.9,57.2,16.9
		c9.2,0,17.9-0.8,25.7-2.4V88c0,2.6,2.1,4.7,4.7,4.7l0,0c2.6,0,4.7-2.1,4.7-4.7v-7c10.2-3,18-7.3,22.2-12.2
		C120.1,71.4,121.3,74.2,121.3,77.1L121.3,77.1z"/>
	<line class="st1" x1="79.6" y1="31.8" x2="79.2" y2="32"/>
</g>
</svg>
