<svg width="100" height="100" viewBox="0 0 100 100" fill="none" xmlns="http://www.w3.org/2000/svg">
<g clip-path="url(#clip0_1083_2155)">
<path d="M34.0995 23.4064C35.9357 23.9072 37.7719 24.2411 39.6081 24.7419C41.4443 25.2426 43.2805 25.5765 45.1167 26.0773C45.6175 26.2442 45.7844 26.0773 45.9514 25.5765C46.6191 22.7387 47.2868 20.0679 47.9545 17.2301C48.1214 16.7293 48.2883 16.5624 48.7891 16.7293C50.4584 17.2301 51.9607 17.564 53.63 17.8978C54.1308 18.0648 54.1308 18.2317 53.9639 18.5655C53.2962 21.2364 52.6285 24.0742 51.9607 26.745C51.9607 26.9119 51.9607 27.0788 51.7938 27.4127C53.1292 27.7466 54.6316 28.0804 55.967 28.4143C56.1339 28.4143 56.3009 28.0804 56.4678 27.9135C56.9686 25.7434 57.4694 23.7403 58.1371 21.5702C58.304 20.9025 58.4709 20.2348 58.6378 19.5671C58.6378 19.2333 58.8048 19.0663 59.1386 19.2333C60.8079 19.734 62.4772 20.0679 64.3134 20.5687C64.4803 20.5687 64.4803 20.7356 64.6472 20.7356C64.1464 22.9057 63.6457 24.9088 63.1449 26.9119C62.978 27.7466 62.811 28.5812 62.4772 29.4158C62.3102 29.9166 62.4772 30.0835 62.978 30.2505C64.8142 31.0851 66.6504 31.9197 68.4866 32.7544C70.1558 33.7559 71.6582 35.0914 72.8267 36.7606C74.329 39.2646 74.496 41.9354 73.8282 44.6062C73.3275 46.4424 72.6597 48.1117 71.3243 49.4471C70.3228 50.4487 68.9873 51.1164 67.6519 51.6172C67.485 51.6172 67.3181 51.7841 66.9842 51.7841C67.6519 52.2849 68.3196 52.6188 68.9873 53.1195C70.9905 54.6219 72.3259 56.4581 72.9936 58.7951C73.3275 60.6313 73.1605 62.6344 72.6598 64.4706C71.992 66.8076 71.1574 68.8107 69.6551 70.6469C67.8189 72.817 65.4819 73.9855 62.811 74.3193C59.3056 74.8201 55.967 74.4863 52.6285 73.9855C52.1277 73.8185 51.7938 73.9855 51.6269 74.4863C50.9592 77.1571 50.2915 79.9949 49.6238 82.6657C49.4568 83.3334 49.4568 83.5003 48.6222 83.1665C47.1198 82.8326 45.4506 82.3318 43.9482 81.998C43.4474 81.8311 43.4474 81.6641 43.6144 81.3303C44.2821 78.4925 44.9498 75.6547 45.7844 72.9839C45.7844 72.65 45.9514 72.4831 45.6175 72.3162C44.2821 71.9823 42.9467 71.6485 41.4443 71.3146C41.1105 72.817 40.6097 74.3193 40.2758 75.8217C39.942 77.324 39.4412 78.8264 39.1073 80.3287C38.9404 80.6626 38.9404 80.8295 38.4396 80.6626C36.7703 80.1618 35.1011 79.8279 33.4318 79.4941C32.931 79.3272 32.931 79.1602 33.0979 78.8264C33.7656 75.9886 34.4334 73.1508 35.268 70.48C35.268 70.3131 35.4349 70.1461 35.4349 69.8123C31.5956 68.8107 27.7563 67.8092 23.75 66.8076C24.0839 66.1399 24.2508 65.6391 24.5846 64.9714C25.2523 63.469 25.9201 61.9667 26.4208 60.6313C26.5878 60.1305 26.7547 60.1305 27.2555 60.1305C28.424 60.4643 29.7594 60.7982 30.9279 60.9651C32.2633 61.299 33.2649 60.6313 33.4318 59.4628C35.6019 50.9495 37.7719 42.4362 39.775 33.7559C40.1089 32.4205 39.2743 30.9182 37.7719 30.4174C36.2696 29.9166 34.7672 29.5828 33.4318 29.2489C33.0979 29.2489 32.931 29.082 33.0979 28.7481C33.5987 26.9119 34.0995 24.9088 34.6003 23.0726C33.9326 23.5734 33.9326 23.5734 34.0995 23.4064ZM42.6128 64.6375C42.7797 64.6375 42.9467 64.8045 42.9467 64.8045C45.6175 65.4722 48.4553 66.3068 51.293 66.4737C53.2962 66.6407 55.1324 66.6407 56.9686 65.973C60.1402 64.9714 61.4756 60.7982 59.6394 58.1274C58.8048 56.7919 57.4693 55.9573 56.1339 55.1227C53.1292 53.4534 49.6238 52.7857 46.2852 52.118C45.7844 51.951 45.7844 52.118 45.6175 52.6188C45.2836 54.288 44.7829 55.7904 44.449 57.4596C43.7813 59.7966 43.2805 62.1336 42.6128 64.6375ZM56.6347 47.6109C56.9686 47.6109 57.8032 47.444 58.4709 47.2771C61.6425 46.6094 63.3118 42.937 61.6425 40.0992C60.8079 38.5968 59.3056 37.5953 57.8032 36.9276C55.4662 35.926 53.1292 35.4252 50.6253 34.7575C50.1245 34.5906 49.9576 34.7575 49.7907 35.2583C48.956 38.7638 48.1214 42.1023 47.1198 45.6078C46.9529 45.9417 47.1198 46.1086 47.4537 46.2755C48.1214 46.4424 48.6222 46.6094 49.2899 46.7763C51.7938 47.1101 53.9639 47.6109 56.6347 47.6109Z" fill="white"/>
<circle cx="50" cy="50" r="50" fill="url(#paint0_linear_1083_2155)"/>
<circle cx="50" cy="50" r="50" fill="url(#paint1_linear_1083_2155)"/>
<path d="M51.1929 85.1615C59.9034 84.6066 64.3258 80.739 64.4183 74.9335C64.5234 68.2409 53.3369 53.8385 51.6848 47.8438C50.4194 43.2489 51.4746 37.2752 56.3847 36.3714C61.6396 35.4045 65.0027 40.1969 65.0027 45.6325C65.0027 53.8847 64.1829 70.242 69.0258 73.5504C72.082 75.6355 78.4256 73.3655 82.6589 63.9488L82.4739 64.3734C84.4918 59.9215 85.6184 54.9777 85.6184 49.7691C85.6184 30.2254 69.774 14.381 50.2303 14.381C49.9234 14.381 49.6207 14.3852 49.318 14.3936V14.381C40.6076 14.9359 36.1851 18.8035 36.0926 24.609C35.9876 31.3016 44.6685 39.9069 46.3207 45.8974C47.586 50.4922 46.5309 56.4659 41.6207 57.3697C36.3659 58.3366 33.7217 52.8212 33.0028 48.1086C31.7585 39.9531 36.3281 29.2963 31.481 25.9921C28.4248 23.9069 22.0643 26.0803 17.8352 35.4928L18.0833 34.9463C16.0024 39.4571 14.8379 44.4765 14.8379 49.7691C14.8379 69.3129 30.6823 85.1573 50.2261 85.1573C50.8356 85.1573 51.4452 85.1405 52.0463 85.1111" fill="white"/>
</g>
<defs>
<linearGradient id="paint0_linear_1083_2155" x1="100" y1="1.94444" x2="-18.0626" y2="45.7338" gradientUnits="userSpaceOnUse">
<stop stop-color="#F87A31"/>
<stop offset="1" stop-color="#FE9D66"/>
</linearGradient>
<linearGradient id="paint1_linear_1083_2155" x1="61.2069" y1="50" x2="-28.7747" y2="8.28356" gradientUnits="userSpaceOnUse">
<stop stop-color="#FF8C73" stop-opacity="0"/>
<stop offset="1" stop-color="#FF8C73"/>
</linearGradient>
<clipPath id="clip0_1083_2155">
<rect width="100" height="100" rx="50" fill="white"/>
</clipPath>
</defs>
</svg>
