<?xml version="1.0" encoding="utf-8"?>
<!-- Generator: Adobe Illustrator 26.3.1, SVG Export Plug-In . SVG Version: 6.00 Build 0)  -->
<svg version="1.1" id="Layer_1" xmlns="http://www.w3.org/2000/svg" xmlns:xlink="http://www.w3.org/1999/xlink" x="0px" y="0px"
	 viewBox="0 0 400 400" style="enable-background:new 0 0 400 400;" xml:space="preserve">
<style type="text/css">
	.st0{fill:#191918;}
	.st1{fill:#007FED;}
	.st2{fill:url(#SVGID_1_);}
	.st3{fill:#393939;}
	.st4{fill:url(#SVGID_00000173131622175565658070000004554737897567213465_);}
	.st5{fill:#008CA3;}
	.st6{fill:#28ACAC;}
	.st7{fill:url(#SVGID_00000072277643064306317550000017865234603591319958_);}
	.st8{fill:url(#SVGID_00000073703145532547436590000015505770722988121530_);}
</style>
<circle class="st0" cx="200" cy="200" r="200"/>
<g>
	<polygon class="st1" points="200,358.7 154,256.2 107.9,229 	"/>
	
		<linearGradient id="SVGID_1_" gradientUnits="userSpaceOnUse" x1="200" y1="108.15" x2="292.1" y2="108.15" gradientTransform="matrix(1 0 0 -1 0 402)">
		<stop  offset="2.355528e-04" style="stop-color:#0069E0"/>
		<stop  offset="0.9848" style="stop-color:#0069E0"/>
	</linearGradient>
	<polyline class="st2" points="292.1,229 200,358.7 246,256.2 292.1,229 	"/>
	<g>
		<path class="st3" d="M154,265.9L154,265.9L154,265.9z"/>
		<path class="st3" d="M200,211.5L200,211.5L200,211.5z"/>
	</g>
	
		<linearGradient id="SVGID_00000004543232702091842580000015511155095244578233_" gradientUnits="userSpaceOnUse" x1="200" y1="105.5009" x2="200" y2="187.2009" gradientTransform="matrix(1 0 0 -1 0 402)">
		<stop  offset="0.25" style="stop-color:#00A5E6"/>
		<stop  offset="1" style="stop-color:#0098E6"/>
	</linearGradient>
	<polygon style="fill:url(#SVGID_00000004543232702091842580000015511155095244578233_);" points="200,174.5 107.9,229 107.9,229 
		107.9,229 154,256.2 200,229 200,229 246,256.2 292.1,229 	"/>
	<polygon class="st5" points="200,194.1 200,41.3 154,221.3 	"/>
	<polygon class="st6" points="200,194.1 200,41.3 246,221.3 	"/>
	<polygon class="st6" points="107.9,194.1 200,41.3 154,221.3 	"/>
	<polyline class="st5" points="292.1,194.1 200,41.3 246,221.3 292.1,194.1 	"/>
	
		<linearGradient id="SVGID_00000078047164290399318130000005618623188090987413_" gradientUnits="userSpaceOnUse" x1="154" y1="108.15" x2="200" y2="108.15" gradientTransform="matrix(1 0 0 -1 0 402)">
		<stop  offset="2.355528e-04" style="stop-color:#0069E0"/>
		<stop  offset="0.9848" style="stop-color:#0069E0"/>
	</linearGradient>
	<polygon style="fill:url(#SVGID_00000078047164290399318130000005618623188090987413_);" points="200,358.7 154,256.2 200,229 	"/>
	<polygon class="st1" points="200,358.7 246,256.2 200,229 	"/>
	
		<linearGradient id="SVGID_00000177475260439590470930000012889424475618506670_" gradientUnits="userSpaceOnUse" x1="200" y1="180.7" x2="200" y2="262.4" gradientTransform="matrix(1 0 0 -1 0 402)">
		<stop  offset="0" style="stop-color:#00A5E6;stop-opacity:0.8"/>
		<stop  offset="0.6" style="stop-color:#42E4AE;stop-opacity:0.6"/>
	</linearGradient>
	<polygon style="fill:url(#SVGID_00000177475260439590470930000012889424475618506670_);" points="200,139.6 107.9,194.1 
		107.9,194.1 107.9,194.1 154,221.3 200,194.1 200,194.1 246,221.3 292.1,194.1 	"/>
</g>
</svg>
