<svg width="1079" height="1079" viewBox="0 0 1079 1079" fill="none" xmlns="http://www.w3.org/2000/svg">
<g filter="url(#filter0_d_201_18)">
<path d="M500.64 434.64C500.206 434.637 499.854 434.285 499.854 433.851C499.854 433.541 500.047 433.272 500.282 433.07C500.317 433.041 500.351 433.009 500.384 432.976L548.823 384.537C559.456 373.904 575.544 370.232 588.721 377.478C603.839 385.791 617.846 396.255 630.265 408.674C664.852 443.261 684.283 490.172 684.283 539.085C684.283 587.999 664.852 634.91 630.265 669.497C617.941 681.821 604.053 692.22 589.067 700.502C575.883 707.789 559.759 704.125 549.108 693.474L499.996 644.361C499.905 644.27 499.854 644.147 499.854 644.018C499.854 643.751 500.071 643.534 500.339 643.533C527.865 643.405 554.236 632.415 573.71 612.941C593.297 593.354 604.302 566.787 604.302 539.085C604.302 511.384 593.297 484.817 573.71 465.229C554.307 445.827 528.058 434.846 500.64 434.64Z" fill="#D9D9D9"/>
<path d="M500.64 434.64C500.206 434.637 499.854 434.285 499.854 433.851C499.854 433.541 500.047 433.272 500.282 433.07C500.317 433.041 500.351 433.009 500.384 432.976L548.823 384.537C559.456 373.904 575.544 370.232 588.721 377.478C603.839 385.791 617.846 396.255 630.265 408.674C664.852 443.261 684.283 490.172 684.283 539.085C684.283 587.999 664.852 634.91 630.265 669.497C617.941 681.821 604.053 692.22 589.067 700.502C575.883 707.789 559.759 704.125 549.108 693.474L499.996 644.361C499.905 644.27 499.854 644.147 499.854 644.018C499.854 643.751 500.071 643.534 500.339 643.533C527.865 643.405 554.236 632.415 573.71 612.941C593.297 593.354 604.302 566.787 604.302 539.085C604.302 511.384 593.297 484.817 573.71 465.229C554.307 445.827 528.058 434.846 500.64 434.64Z" fill="url(#paint0_linear_201_18)"/>
<path d="M499.853 644.219C471.969 644.219 445.228 633.143 425.512 613.426C405.795 593.71 394.719 566.969 394.719 539.086C394.719 511.202 405.795 484.461 425.512 464.745C445.228 445.028 471.969 433.952 499.853 433.952C499.853 433.952 461.987 475.382 461.987 539.086C461.987 602.79 499.853 644.219 499.853 644.219Z" fill="#D9D9D9"/>
<path d="M499.853 644.219C471.969 644.219 445.228 633.143 425.512 613.426C405.795 593.71 394.719 566.969 394.719 539.086C394.719 511.202 405.795 484.461 425.512 464.745C445.228 445.028 471.969 433.952 499.853 433.952C499.853 433.952 461.987 475.382 461.987 539.086C461.987 602.79 499.853 644.219 499.853 644.219Z" fill="url(#paint1_linear_201_18)"/>
</g>
<defs>
<filter id="filter0_d_201_18" x="294.719" y="273.712" width="489.564" height="530.588" filterUnits="userSpaceOnUse" color-interpolation-filters="sRGB">
<feFlood flood-opacity="0" result="BackgroundImageFix"/>
<feColorMatrix in="SourceAlpha" type="matrix" values="0 0 0 0 0 0 0 0 0 0 0 0 0 0 0 0 0 0 127 0" result="hardAlpha"/>
<feOffset/>
<feGaussianBlur stdDeviation="50"/>
<feComposite in2="hardAlpha" operator="out"/>
<feColorMatrix type="matrix" values="0 0 0 0 0.992157 0 0 0 0 0.678431 0 0 0 0 0.254902 0 0 0 0.15 0"/>
<feBlend mode="normal" in2="BackgroundImageFix" result="effect1_dropShadow_201_18"/>
<feBlend mode="normal" in="SourceGraphic" in2="effect1_dropShadow_201_18" result="shape"/>
</filter>
<linearGradient id="paint0_linear_201_18" x1="558.074" y1="27.465" x2="587.261" y2="971.49" gradientUnits="userSpaceOnUse">
<stop offset="0.309597" stop-color="#FF9401"/>
<stop offset="0.766276" stop-color="#FBC67E"/>
</linearGradient>
<linearGradient id="paint1_linear_201_18" x1="427.907" y1="226.357" x2="447.039" y2="803.381" gradientUnits="userSpaceOnUse">
<stop offset="0.309597" stop-color="#FF9401"/>
<stop offset="0.766276" stop-color="#FBC67E"/>
</linearGradient>
</defs>
</svg>
