<svg width="376" height="376" viewBox="0 0 376 376" fill="none" xmlns="http://www.w3.org/2000/svg">
<path fill-rule="evenodd" clip-rule="evenodd" d="M0.138184 187.56C0.138184 137.78 19.7308 90.7717 55.3203 55.1821C90.9098 19.5926 137.918 0 187.698 0H196.468V65.0399L111.695 147.585V227.552L196.468 310.097V375.119H187.698C137.918 375.119 90.9098 355.527 55.3203 319.937C19.7308 284.348 0.138184 237.339 0.138184 187.56ZM370.944 147.339L370.996 147.602V147.62C373.838 160.705 375.276 174.158 375.276 187.577C375.276 200.995 373.838 214.449 370.996 227.534L370.944 227.797C363.893 256.107 351.456 279.348 342.265 293.854L342.072 294.152C338.038 300.011 333.618 305.676 328.952 311.009L322.866 317.972L234.567 231.971V143.164L322.866 57.1636L328.952 64.1272C333.6 69.4595 338.02 75.125 342.072 80.9835L342.265 81.2817C351.456 95.7876 363.893 119.029 370.944 147.339Z" fill="#87CB7A"/>
</svg>
