<?xml version="1.0" encoding="utf-8"?>
<!-- Generator: Adobe Illustrator 27.0.1, SVG Export Plug-In . SVG Version: 6.00 Build 0)  -->
<svg version="1.1" id="Capa_1" xmlns="http://www.w3.org/2000/svg" xmlns:xlink="http://www.w3.org/1999/xlink" x="0px" y="0px"
	 viewBox="0 0 1050 1080" style="enable-background:new 0 0 1050 1080;" xml:space="preserve">
<style type="text/css">
	.st0{fill:#0055B2;}
	.st1{fill:#84B1E3;}
</style>
<g id="XMLID_00000026150640099861317100000009642176844133173683_">
	<g id="XMLID_00000114773788042924473230000004113521243187583166_">
		<path id="XMLID_00000072994965230364163170000017503344001183036814_" class="st0" d="M652.3,554.9c-31.7,96.3-86.6,172-164,225.6
			c-25.5-19.8-67.4-57.1-105.1-113.1c-23.9-35.5-42.6-73.1-56.4-112.6h222.6v-98.5h-246c-6.9-50.9-6.7-104.5,0.8-160.6h378
			c2.6,36.7,3.6,94.8-6.4,160.6h99.6c16-119.9,0.4-214-0.4-218.2l-7-41H221.5l-7.6,40.1c-44.1,231.3,24.9,393.9,90.5,489.6
			C375.9,831,458.7,880.3,462.2,882.3l25.1,14.7l25-14.8c119.9-71.1,202.9-183.4,243-327.3H652.3z"/>
		<path id="XMLID_00000051377056761743736400000010965130880144583074_" class="st1" d="M775.1,456.1c-0.4,3.3-0.8,6.6-1.3,9.9
			c-4.3,31.4-10.6,61-18.6,88.9l101.6,0.2c5.6-23.4,10.2-47.5,13.6-72.5c1.2-8.9,2.3-17.6,3.2-26.3L775.1,456.1z"/>
	</g>
</g>
</svg>
