<svg xmlns="http://www.w3.org/2000/svg" fill="none" viewBox="0 0 40 40" aria-hidden="true" width="24px"><path fill="url(#paint0_radial_1403_829)" d="M20 40C31.0457 40 40 31.0457 40 20C40 8.95431 31.0457 0 20 0C8.95431 0 0 8.95431 0 20C0 31.0457 8.95431 40 20 40Z"/><g clip-path="url(#clip0_1403_829)"><path fill="#A9D6FF" d="M11.3037 24.7227V30.8824C11.3037 31.2616 11.6256 31.419 11.7258 31.4548C11.826 31.4977 12.1622 31.5907 12.4627 31.3116L17.7353 26.2608C18.2218 25.6313 18.4006 25.2378 18.4006 25.2378C18.6868 24.6583 18.6868 24.1003 18.4078 23.5423C17.9928 22.7124 16.934 21.8682 15.3387 21.0669L12.6129 22.5836C11.8045 23.0415 11.3037 23.8499 11.3037 24.7227Z" opacity="0.9"/><path fill="url(#paint1_linear_1403_829)" d="M8.57143 11.0232V17.4833C8.57143 18.2918 9.11518 19.0072 9.88782 19.2361C12.5205 19.9945 17.1063 21.6256 18.2152 24.0222C18.3583 24.337 18.4442 24.6447 18.4728 24.9666C19.2097 23.6288 19.5459 22.0906 19.3885 20.531C19.1739 18.3204 18.0006 16.3101 16.1691 15.0295L9.63743 10.4723C9.52293 10.3864 9.387 10.3435 9.25107 10.3435C9.1366 10.3435 9.03646 10.365 8.92914 10.4222C8.7145 10.5438 8.57143 10.7656 8.57143 11.0232Z"/><path fill="#A9D6FF" d="M28.6915 24.7227V30.8824C28.6915 31.2616 28.3696 31.419 28.2694 31.4548C28.1692 31.4977 27.833 31.5907 27.5325 31.3116L22.2599 26.2608C21.7734 25.6313 21.5946 25.2378 21.5946 25.2378C21.3084 24.6583 21.3084 24.1003 21.5874 23.5423C22.0024 22.7124 23.0612 21.8682 24.6565 21.0669L27.3823 22.5836C28.1979 23.0415 28.6915 23.8499 28.6915 24.7227Z" opacity="0.9"/><path fill="url(#paint2_linear_1403_829)" d="M31.4285 11.0224V17.4826C31.4285 18.291 30.8847 19.0065 30.1121 19.2354C27.4794 19.9937 22.8936 21.6249 21.7847 24.0215C21.6416 24.3363 21.5557 24.6439 21.5271 24.9658C20.7902 23.628 20.454 22.0899 20.6114 20.5303C20.826 18.3197 21.9993 16.3093 23.8308 15.0287L30.3625 10.4715C30.477 10.3857 30.6129 10.3428 30.7489 10.3428C30.8633 10.3428 30.9635 10.3642 31.0707 10.4215C31.2854 10.5431 31.4285 10.7649 31.4285 11.0224Z"/></g><defs><radialGradient id="paint0_radial_1403_829" cx="0" cy="0" r="1" gradientTransform="translate(13.0667 9.56667) rotate(54.1675) scale(33.1388)" gradientUnits="userSpaceOnUse"><stop stop-color="#194497"/><stop offset="1" stop-color="#03215B"/></radialGradient><linearGradient id="paint1_linear_1403_829" x1="19.7749" x2="8.57143" y1="24.8727" y2="24.8727" gradientUnits="userSpaceOnUse"><stop offset="0.0677083" stop-color="#EFFDFF"/><stop offset="1" stop-color="#A9D6FF"/></linearGradient><linearGradient id="paint2_linear_1403_829" x1="20.6037" x2="31.3427" y1="24.8719" y2="24.8719" gradientUnits="userSpaceOnUse"><stop offset="0.0677083" stop-color="#EFFDFF"/><stop offset="1" stop-color="#A9D6FF"/></linearGradient><clipPath id="clip0_1403_829"><rect width="30" height="23.5714" fill="white" transform="translate(5 8.19995)"/></clipPath></defs></svg>