<svg width="65" height="64" viewBox="0 0 65 64" fill="none" xmlns="http://www.w3.org/2000/svg">
<rect x="0.582031" width="64" height="64" rx="32" fill="#26E99A"/>
<path d="M26.5399 16.8105H21.4815C20.782 16.8105 20.2149 17.3781 20.2149 18.0781V23.1402C20.2149 23.8403 19.6478 24.4078 18.9482 24.4078H13.8487C13.1491 24.4078 12.582 24.9753 12.582 25.6754V38.3347C12.582 39.0347 13.1491 39.6022 13.8487 39.6022H18.9482C19.6478 39.6022 20.2149 40.1698 20.2149 40.8698V45.9319C20.2149 46.632 20.782 47.1995 21.4815 47.1995H26.5399C27.2395 47.1995 27.8066 46.632 27.8066 45.9319V40.8698C27.8066 40.1698 28.3737 39.6022 29.0732 39.6022H42.9901V32.005H29.0732C28.3737 32.005 27.8066 31.4375 27.8066 30.7374V18.0781C27.8066 17.3781 27.2395 16.8105 26.5399 16.8105Z" fill="#111629"/>
<path d="M50.5822 45.9317V40.8696C50.5822 40.1696 50.0151 39.6021 49.3155 39.6021H42.9905V45.9317C42.9905 46.6318 43.5576 47.1993 44.2571 47.1993H49.3155C50.0151 47.1993 50.5822 46.6318 50.5822 45.9317Z" fill="#111629"/>
<path d="M50.5816 24.398C50.5816 20.2022 47.1827 16.8008 42.9899 16.8008H36.6649C35.9653 16.8008 35.3982 17.3683 35.3982 18.0684V23.1304C35.3982 23.8305 35.9653 24.398 36.6649 24.398H41.7233C42.4228 24.398 42.9899 24.9655 42.9899 25.6656V32.0061H49.315C50.0145 32.0061 50.5816 31.4386 50.5816 30.7385V24.4089C50.5816 24.4052 50.5816 24.4017 50.5816 24.398Z" fill="#111629"/>
</svg>
