<svg width="335" height="335" viewBox="0 0 335 335" fill="none" xmlns="http://www.w3.org/2000/svg">
<path d="M137.084 262.125C137.084 261.144 137.563 260.225 138.368 259.664L177.282 232.528C178.479 231.694 180.102 231.841 181.129 232.877L196.598 248.489C197.155 249.051 197.467 249.81 197.467 250.601V331.433C197.467 333.09 196.124 334.433 194.467 334.433H140.084C138.427 334.433 137.084 333.09 137.084 331.433L137.084 262.125Z" fill="black"/>
<path d="M197.468 72.3084C197.468 73.2892 196.988 74.2081 196.184 74.7692L157.27 101.905C156.073 102.739 154.45 102.592 153.423 101.556L137.953 85.9437C137.397 85.3819 137.084 84.6231 137.084 83.8322L137.084 3.00009C137.084 1.34324 138.427 9.13498e-05 140.084 9.12049e-05L194.468 8.64506e-05C196.125 8.63057e-05 197.468 1.34323 197.468 3.00009L197.468 72.3084Z" fill="black"/>
<path d="M213.448 255.696C212.76 255.004 212.452 254.022 212.621 253.061L220.737 206.948C220.992 205.499 222.261 204.449 223.732 204.469L245.441 204.761C246.226 204.771 246.976 205.089 247.529 205.646L304.271 262.745C305.439 263.92 305.433 265.819 304.258 266.987L266.342 304.666C265.166 305.834 263.267 305.828 262.099 304.653L213.448 255.696Z" fill="black"/>
<path d="M121.389 78.7394C122.077 79.4311 122.385 80.4137 122.216 81.3741L114.1 127.487C113.845 128.936 112.576 129.987 111.105 129.967L89.3955 129.675C88.6106 129.664 87.8611 129.347 87.3078 128.79L30.5658 71.691C29.3979 70.5158 29.4039 68.6163 30.5791 67.4484L68.4954 29.7691C69.6706 28.6012 71.5701 28.6071 72.738 29.7824L121.389 78.7394Z" fill="black"/>
<path d="M262.341 197.243C261.366 197.24 260.453 196.763 259.894 195.965L233.026 157.619C232.182 156.414 232.336 154.774 233.39 153.748L248.947 138.604C249.51 138.056 250.264 137.751 251.049 137.753L331.547 138.006C333.204 138.011 334.543 139.358 334.538 141.015L334.37 194.469C334.365 196.126 333.018 197.465 331.361 197.46L262.341 197.243Z" fill="black"/>
<path d="M72.2056 137.19C73.1807 137.193 74.0935 137.67 74.6531 138.468L101.521 176.814C102.365 178.019 102.211 179.659 101.157 180.685L85.5995 195.83C85.0371 196.377 84.2824 196.682 83.4975 196.68L2.99986 196.428C1.34301 196.422 0.00408956 195.075 0.00928244 193.418L0.176819 139.964C0.182012 138.307 1.52936 136.968 3.18621 136.973L72.2056 137.19Z" fill="black"/>
<path d="M255.68 121.196C254.988 121.884 254.005 122.192 253.045 122.023L206.932 113.907C205.483 113.652 204.432 112.383 204.452 110.912L204.744 89.2026C204.755 88.4177 205.072 87.6683 205.629 87.115L262.728 30.3729C263.903 29.2051 265.803 29.211 266.971 30.3862L304.65 68.3025C305.818 69.4778 305.812 71.3773 304.637 72.5451L255.68 121.196Z" fill="black"/>
<path d="M78.8674 213.228C79.559 212.54 80.5417 212.232 81.502 212.401L127.615 220.517C129.064 220.772 130.115 222.041 130.095 223.512L129.803 245.221C129.792 246.006 129.475 246.756 128.918 247.309L71.819 304.051C70.6437 305.219 68.7443 305.213 67.5764 304.038L29.897 266.121C28.7291 264.946 28.7351 263.047 29.9103 261.879L78.8674 213.228Z" fill="black"/>
</svg>
