<svg width="200" height="144" viewBox="0 0 200 144" fill="none" xmlns="http://www.w3.org/2000/svg">
<path fill-rule="evenodd" clip-rule="evenodd" d="M160.237 102.226L154.23 110.331L151.212 114.402L151.2 114.387L151.198 114.39L173.146 144.001H199.917L164.789 96.1001L160.237 102.226Z" fill="black"/>
<path fill-rule="evenodd" clip-rule="evenodd" d="M124.049 40.5439H96.4663L134.603 91.9966L96.4663 143.999H123.238L161.783 91.9966L124.049 40.5439Z" fill="#595DC1"/>
<path fill-rule="evenodd" clip-rule="evenodd" d="M172.335 40.5439L151.207 69.3537L156.922 77.1678L161.784 83.7971L164.786 87.8904L164.775 87.905L164.794 87.9312L199.917 40.5439H172.335Z" fill="black"/>
<path fill-rule="evenodd" clip-rule="evenodd" d="M88.6213 23.7357V0H41.937C18.7759 0 0 18.774 0 41.933C0 53.7251 4.86795 64.3804 12.7041 71.9993C4.86795 79.6181 0 90.2733 0 102.065C0 125.224 18.7759 143.998 41.937 143.998H88.6213V120.263H41.937C31.8859 120.263 23.738 112.116 23.738 102.065C23.738 92.015 31.8859 83.8681 41.937 83.8681H79.8618V83.866V60.1325V60.1304H41.937C31.8859 60.1304 23.738 51.9832 23.738 41.933C23.738 31.8829 31.8859 23.7357 41.937 23.7357H88.6213Z" fill="black"/>
</svg>
