<?xml version="1.0" encoding="utf-8"?>
<!-- Generator: Adobe Illustrator 28.2.0, SVG Export Plug-In . SVG Version: 6.00 Build 0)  -->
<svg version="1.1" id="USDT" xmlns="http://www.w3.org/2000/svg" xmlns:xlink="http://www.w3.org/1999/xlink" x="0px" y="0px"
	 viewBox="0 0 500 500" style="enable-background:new 0 0 500 500;" xml:space="preserve">
<style type="text/css">
	.st0{fill:#FFFFFF;}
	.st1{fill:#FC0DC8;}
</style>
<g>
	<circle class="st0" cx="249" cy="250" r="241.5"/>
	<g>
		<g>
			<path class="st1" d="M111.1,353l-13.8-13.8l-58.9-58.9l0,0L7.5,249.6c0,0,0,0,0,0.3c0,133.3,108.2,241.6,241.5,241.6h0.3
				L111.1,353L111.1,353z"/>
		</g>
		<g>
			<path class="st1" d="M490.5,249.9C490.5,116.6,382.4,8.5,249,8.5S7.5,116.3,7.5,249.6l30.9-30.9l0,0L193,64.1h47L54.5,249.6
				l238,237.9c6.4-1.3,12.9-2.6,19.3-4.5L78.3,249.6L263.8,64.1h47L125,249.6l221.3,221.2C431.3,433.5,490.5,348.5,490.5,249.9z
				 M301.8,291.9c-8.4,7.4-18.7,12.6-30.3,13.8c-2.6,0.3-5.2,0.6-7.7,0.6s-5.2-0.3-7.7-0.6c-11.6-1.6-21.9-6.4-30.3-13.8
				c-11.6-10.3-18.7-25.4-18.7-42.2c0-14.5,5.5-27.7,14.5-37.7c10.3-11.6,25.4-19,42.2-19s31.9,7.4,42.2,19
				c9,10,14.5,23.2,14.5,37.7C320.5,266.4,313.4,281.5,301.8,291.9z M403.6,306.3c-2.6,0-5.2-0.3-7.7-0.6
				c-11.6-1.6-21.9-6.4-30.3-13.8c-11.6-10.3-18.7-25.4-18.7-42.2c0-14.5,5.5-27.7,14.5-37.7c10.3-11.6,25.4-19,42.2-19
				c16.7,0,31.9,7.4,42.2,19c9,10,14.5,23.2,14.5,37.7c0,16.7-7.4,31.9-18.7,42.2c-8.4,7.4-18.7,12.6-30.3,13.8
				C408.8,306.3,406.2,306.3,403.6,306.3z"/>
		</g>
		<g>
			<path class="st1" d="M7.5,249.6L7.5,249.6L7.5,249.6z"/>
		</g>
	</g>
</g>
</svg>
