<svg width="99" height="99" viewBox="0 0 99 99" fill="none" xmlns="http://www.w3.org/2000/svg">
<path d="M70.4423 0H28.5577C12.7857 0 0 12.7857 0 28.5577V70.4423C0 86.2143 12.7857 99 28.5577 99H70.4423C86.2143 99 99 86.2143 99 70.4423V28.5577C99 12.7857 86.2143 0 70.4423 0Z" fill="white"/>
<mask id="mask0_1091_100450" style="mask-type:luminance" maskUnits="userSpaceOnUse" x="13" y="18" width="71" height="63">
<path d="M84 18H13V80.1251H84V18Z" fill="white"/>
</mask>
<g mask="url(#mask0_1091_100450)">
<path d="M78.2679 58.3225C78.5011 58.5093 78.6544 58.6705 78.8839 58.862C79.023 58.978 79.024 58.978 79.1605 58.8515C79.2553 58.7632 79.3475 58.6709 79.4448 58.5843C79.8372 58.2314 80.3653 58.2486 80.7307 58.6327C80.8761 58.7867 81.0132 58.9494 81.1413 59.1199C81.4572 59.5383 81.4257 60.0853 81.069 60.4662C80.9688 60.5729 80.8627 60.674 80.7543 60.7716C80.6644 60.8526 80.6613 60.9314 80.7252 61.0329C80.857 61.2422 80.9848 61.4541 81.1087 61.6687C81.2657 61.9403 81.4055 62.2232 81.5383 62.5087C81.6643 62.7807 81.6643 62.7789 81.9264 62.6913C82.0531 62.6447 82.1821 62.6062 82.3132 62.5755C82.7397 62.4883 83.1439 62.7076 83.326 63.1301C83.4363 63.3905 83.5188 63.6633 83.5718 63.9435C83.6503 64.3426 83.4209 64.7855 83.0544 64.9822C82.9122 65.0577 82.7563 65.0907 82.6079 65.1471C82.4283 65.2157 82.4126 65.2293 82.4421 65.4159C82.5368 66.0039 82.6036 66.5947 82.6079 67.192C82.6091 67.3224 82.6552 67.3968 82.7837 67.4081C82.8936 67.4176 83.0027 67.4393 83.1125 67.4515C83.5489 67.4995 83.8458 67.7306 83.9752 68.1864C83.9864 68.226 84.015 69.0477 83.9768 69.2702C83.893 69.7619 83.5328 70.1123 83.0591 70.1321C82.9569 70.1372 82.8545 70.1302 82.7536 70.1116C82.5669 70.0755 82.4432 70.159 82.3982 70.3505C82.2871 70.8218 82.1375 71.2795 81.9771 71.7337C81.9297 71.865 81.957 71.9802 82.0599 72.0725C82.1136 72.1209 82.3204 72.3579 82.3539 72.4366C82.4306 72.6176 82.0987 72.3359 82.0222 72.289C81.8464 72.1816 79.6951 70.9185 78.8941 70.4653C78.9515 70.0152 79.1584 69.4392 79.2419 68.9953C79.6664 66.7333 79.2271 64.67 77.9979 62.7862C76.9754 61.2196 75.5755 60.2174 73.8562 59.7202C72.343 59.2826 70.8431 59.3715 69.3716 59.943C68.1544 60.4157 66.8215 61.1908 66.0901 62.4111C66.0063 62.5104 65.9667 62.4991 65.8342 62.4364C65.3766 62.1937 63.5831 60.9519 62.854 60.5006C62.5306 60.1557 62.317 59.5913 62.5596 59.1747C62.7328 58.8774 62.9656 58.6366 63.2153 58.42C63.5663 58.1161 64.0749 58.1247 64.4474 58.4105C64.9099 58.7648 64.9094 58.7632 65.3587 58.3825C65.593 58.1834 65.8429 58.0069 66.0893 57.8251C66.3183 57.6561 66.3354 57.588 66.2279 57.3228C65.935 56.5999 66.1229 56.0505 66.7833 55.6931C66.9578 55.5944 67.1403 55.5122 67.3284 55.4475C67.8323 55.2843 68.297 55.4755 68.571 55.9531C68.8568 56.4513 68.8554 56.4505 69.3933 56.319C69.6776 56.2491 69.966 56.1996 70.253 56.144C70.5399 56.0884 70.5836 56.0402 70.5999 55.7382C70.6064 55.5873 70.6279 55.4375 70.6641 55.2913C70.74 54.9995 70.8773 54.7433 71.1618 54.6285C71.7041 54.4087 72.2517 54.3666 72.784 54.6553C73.098 54.8258 73.2444 55.1187 73.2484 55.4983C73.2544 56.0672 73.2581 56.0719 73.7807 56.1619C74.1241 56.2211 74.4605 56.3093 74.7982 56.394C75.0544 56.4583 75.1205 56.433 75.2205 56.1705C75.4731 55.5061 76.1013 55.1671 76.8423 55.554C77.0525 55.6638 77.2728 55.744 77.4566 55.921C77.8268 56.2779 77.853 56.8049 77.7006 57.1893C77.679 57.2435 77.6532 57.2951 77.6321 57.3496C77.5306 57.6165 77.5198 57.7727 77.5198 57.7727C77.5198 57.7727 78.0382 58.1383 78.2679 58.3225Z" fill="#5F5F5F"/>
<path d="M78.7771 70.2494C78.9926 70.4685 81.8704 72.1424 82.1184 72.3006C82.1923 72.3106 82.2492 72.3625 82.3157 72.3913L82.3121 72.3887C82.3636 72.4379 82.4127 72.49 82.4592 72.5445L82.4566 72.5409C82.6845 72.8803 82.683 73.2419 82.5514 73.6165C82.4676 73.8154 82.367 74.0058 82.2507 74.1853C81.9798 74.6191 81.4798 74.7552 81.0402 74.5198C80.9065 74.4482 80.7769 74.3686 80.6499 74.2829C80.5577 74.2216 80.4942 74.2381 80.4295 74.329C80.0772 74.8242 79.6858 75.2865 79.2594 75.7107C79.1734 75.796 79.1632 75.8705 79.2357 75.9693C79.3188 76.0809 79.3963 76.1977 79.471 76.316C79.7748 76.7949 79.6931 77.3474 79.2633 77.7022C79.1139 77.8255 78.9612 77.9452 78.8027 78.055C78.3762 78.3495 77.8762 78.2665 77.5513 77.8499C77.4614 77.733 77.3773 77.6113 77.2991 77.4852C77.2299 77.3747 77.1605 77.3496 77.0447 77.4198C76.5571 77.715 76.0421 77.9479 75.5163 78.1541C75.3249 78.2297 75.3267 78.2326 75.3641 78.445C75.3773 78.519 75.3879 78.5939 75.4013 78.6678C75.5236 79.2909 75.384 79.6284 74.8714 79.948C74.739 80.0261 74.5871 80.014 74.4449 80.0538C74.1974 80.1169 73.9472 80.1119 73.6951 80.0984C73.6126 80.0551 73.5304 80.0085 73.4497 79.9613C73.2073 79.7463 73.0989 79.4633 73.0361 79.1387C72.9509 78.699 73.0027 78.7704 72.6219 78.7893C72.1175 78.8145 71.612 78.8123 71.1077 78.7825C70.912 78.7709 70.9115 78.7701 70.8666 78.963C70.8457 79.0526 70.8219 79.1419 70.8091 79.2331C70.7275 79.8088 70.2911 80.2414 69.5959 80.1004C69.4258 80.0656 69.2572 80.019 69.091 79.9669C68.6156 79.8185 68.3406 79.331 68.4359 78.8129C68.4597 78.6814 68.4885 78.5506 68.5127 78.4187C68.5454 78.2395 68.5433 78.2302 68.3741 78.1627C68.049 78.0328 67.7252 77.9 67.4124 77.7398C67.2276 77.645 67.0449 77.546 66.8627 77.4459C66.6731 77.3422 66.6742 77.3408 66.5418 77.5295C66.4708 77.6304 66.4045 77.7348 66.3307 77.832C66.0066 78.264 65.4951 78.3547 65.0631 78.0526C64.8985 77.9374 64.738 77.8142 64.5836 77.6841C64.1893 77.3513 64.1043 76.8052 64.3753 76.354C64.4558 76.2199 64.5454 76.0916 64.636 75.9648C64.6987 75.8768 64.7028 75.8065 64.6219 75.7256C64.1899 75.2952 63.7935 74.8262 63.4372 74.3235C63.3695 74.2277 63.3029 74.2282 63.2152 74.2866C63.1085 74.3579 62.9977 74.4233 62.8869 74.4883C62.3892 74.7763 61.8707 74.6342 61.5786 74.1163C61.4741 73.9308 61.3462 73.7606 61.2744 73.5525C61.0961 73.037 61.2464 72.5594 61.6913 72.272C61.7861 72.211 61.8828 72.1545 61.9757 72.0934C62.14 71.9865 62.1442 71.9834 62.0717 71.7966C61.9212 71.4089 61.7918 71.0123 61.684 70.6088C61.6367 70.4323 61.5917 70.2528 61.5522 70.0734C61.5239 69.9424 61.4594 69.8916 61.3326 69.9199C61.2317 69.9396 61.1299 69.9539 61.0277 69.9628C60.4257 70.0302 59.9795 69.6469 59.9167 69.0085C59.8994 68.832 59.881 68.6579 59.8693 68.4822C59.8531 68.228 59.9295 67.9769 60.0823 67.7807C60.2352 67.5845 60.453 67.4584 60.691 67.4281C60.8239 67.4107 60.9577 67.3997 61.09 67.3777C61.2624 67.3474 61.2682 67.3437 61.2708 67.1522C61.2786 66.7328 61.3086 66.3142 61.3609 65.8984C61.3826 65.7156 61.4401 65.538 61.4277 65.3507C61.4146 65.2226 61.3635 65.1432 61.2668 65.1033C61.2004 65.0827 61.1848 65.074 61.0859 65.0478C60.8912 64.9973 60.7144 64.9076 60.5734 64.7559" fill="#414141"/>
<path d="M61.4439 65.4604C61.4662 65.3322 61.4143 65.139 61.2903 65.1023C61.184 65.0705 61.0139 65.0027 60.9081 64.9689C60.488 64.8342 60.2244 64.4816 60.1783 64.0078C60.1249 63.8063 60.292 63.154 60.3679 62.9424C60.5375 62.4765 60.9534 62.2047 61.4221 62.2801C61.5233 62.2958 61.6226 62.3231 61.7182 62.3618C61.8953 62.4349 62.0315 62.3773 62.1098 62.1984C62.3026 61.7579 62.5913 61.3213 62.7768 60.878C62.9565 60.4495 62.8292 60.485 62.892 60.4998C63.0455 60.6405 65.2866 61.7994 65.9929 62.4053C65.5327 62.9347 64.5105 65.3317 64.4678 66.1334" fill="#414141"/>
<path d="M66.0116 62.3697C67.4422 60.7251 68.4658 60.0191 69.878 59.5923C70.7372 59.3306 71.6338 59.2355 72.5249 59.3115C74.0241 59.4399 75.3782 59.9966 76.5703 60.9808C77.6217 61.8492 78.3873 62.9492 78.9096 64.2462C79.2294 65.0397 79.3981 65.869 79.477 66.7286C79.59 67.9595 79.3421 69.3346 78.945 70.482C78.8646 70.5575 77.4015 69.4924 77.245 69.2849C77.2092 69.173 77.2535 69.0705 77.2802 68.9666C77.4242 68.406 77.5172 67.8367 77.5007 67.2541C77.4219 64.4547 75.6287 62.1457 73.1486 61.5815C71.3181 61.1652 69.3774 61.5853 67.6008 63.5056C67.5562 63.5325 67.5421 63.4747 67.2405 63.2536C66.7341 62.9259 66.4848 62.7205 66.1389 62.4975C65.9404 62.3746 65.9504 62.4407 66.0116 62.3697Z" fill="#414141"/>
<path d="M78.9784 70.4026C78.9307 70.4833 78.8877 70.5669 78.8495 70.6531C78.4132 71.7714 77.7144 72.6894 76.8635 73.4669C75.7498 74.4851 74.4578 75.1199 72.9913 75.3238C72.6319 75.3742 72.2719 75.429 71.9086 75.4169C70.8586 75.3813 69.8436 75.1755 68.8739 74.7264C68.2589 74.4398 67.6831 74.0658 67.1623 73.6149C66.3517 72.9175 65.6931 72.0795 65.2094 71.0864C64.7651 70.1714 64.5094 69.2039 64.4009 68.1841C64.3061 67.3064 64.3805 66.4449 64.5533 65.5858C64.7509 64.6055 65.1197 63.7021 65.6343 62.8651C65.7076 62.7461 65.9206 62.476 65.9899 62.4082C66.3638 62.6149 67.3845 63.3316 67.5484 63.4873C67.6514 63.6308 67.4609 63.8196 67.4019 63.9116C67.0882 64.3994 66.8296 64.9142 66.6635 65.4801C66.0843 67.4514 66.3497 69.2861 67.5165 70.9353C68.49 72.3116 69.8141 73.066 71.4328 73.2389C73.7389 73.4852 76.1056 72.0926 77.0796 69.6346C77.1333 69.4989 77.1199 69.2848 77.3389 69.2741C77.4796 69.446 78.813 70.306 78.9784 70.4026Z" fill="#5F5F5F"/>
<path d="M77.3344 69.2741C77.1508 69.7748 76.9455 70.2631 76.6576 70.7087C75.7457 72.1202 74.5013 72.9961 72.9166 73.2977C71.3116 73.6032 69.8425 73.2222 68.5363 72.1953C67.3873 71.2916 66.6543 70.076 66.3712 68.5875C66.0368 66.8279 66.3881 65.2087 67.3676 63.7453C67.4041 63.6906 67.4387 63.6355 67.4755 63.5805C67.5123 63.5336 67.9993 62.962 68.2363 62.7508C69.2863 61.8151 70.4876 61.3355 71.8607 61.3077C74.4332 61.2558 76.7539 63.1082 77.423 65.7996C77.6908 66.8768 77.6837 67.9565 77.3924 69.0308C77.3706 69.1104 77.3536 69.1929 77.3344 69.2741Z" fill="#EDAE50"/>
<path d="M73.458 67.3518C73.5013 68.2731 72.7062 68.9862 71.952 68.9766C71.0914 68.9658 70.3849 68.2477 70.3926 67.3364C70.4001 66.446 71.0545 65.7095 71.9627 65.707C72.7193 65.7048 73.4998 66.4248 73.458 67.3518Z" fill="#414141"/>
<path d="M73.5459 64.2854C73.7209 64.2665 73.8666 64.3323 73.9876 64.4704C74.0948 64.5927 74.21 64.7076 74.3146 64.8324C74.5577 65.1215 74.4094 65.6505 74.0948 65.7547C73.9575 65.8 73.8315 65.803 73.7107 65.7186C73.4516 65.5376 73.2308 65.3087 73.0348 65.0577C72.8264 64.791 72.9324 64.4496 73.2419 64.3338C73.3392 64.2959 73.4425 64.2794 73.5459 64.2854Z" fill="#FF9400"/>
<path d="M32.2479 80.0033C31.8214 79.7646 31.5683 79.3936 31.4923 78.8843C31.4662 78.7105 31.4211 78.5407 31.3878 78.3678C31.364 78.2468 31.3067 78.2064 31.188 78.2166C30.4332 78.2842 29.6748 78.2926 28.9188 78.2417C28.8164 78.2352 28.7137 78.2292 28.6121 78.2166C28.5153 78.2049 28.4648 78.2475 28.4449 78.3468C28.4088 78.5273 28.3605 78.7052 28.3325 78.8872C28.246 79.4486 27.9569 79.8345 27.4648 80.0517C27.1498 80.1428 26.8351 80.1109 26.5205 80.049C26.2289 79.9912 25.9297 79.9642 25.6654 79.8013C25.564 79.7221 25.455 79.6535 25.3671 79.5548C25.0532 79.2021 24.9233 78.7901 25.0043 78.3096C25.0349 78.1281 25.0754 77.9489 25.1098 77.7679C25.1679 77.4588 25.1674 77.4571 24.8965 77.3553C24.2798 77.1221 23.6781 76.846 23.0955 76.5285C22.9553 76.453 22.8131 76.3773 22.679 76.2909C22.5766 76.2238 22.5085 76.238 22.4421 76.3412C22.3398 76.5004 22.2266 76.6513 22.1252 76.8114C21.6932 77.4936 20.8455 77.6935 20.1793 77.1468C20.0046 77.0034 19.8202 76.8733 19.6451 76.731C19.0269 76.2283 18.914 75.4275 19.3646 74.7489C19.4825 74.5706 19.6032 74.3942 19.7264 74.2195C19.785 74.1373 19.784 74.07 19.7098 74.0026C19.6737 73.9701 19.6415 73.9329 19.6072 73.8981C19.03 73.3144 18.4967 72.6833 18.0126 72.0106C17.8751 71.8196 17.874 71.8202 17.6722 71.9438C17.5353 72.0274 17.3993 72.1118 17.2626 72.1958C16.5437 72.6328 15.8294 72.4408 15.3851 71.6918C15.3243 71.5959 15.3012 71.5611 15.2375 71.446C15.159 71.2842 15.0642 71.1325 14.9932 70.9651C14.6901 70.251 14.9012 69.5203 15.5356 69.1171C15.6845 69.0223 15.8356 68.9315 15.9858 68.8376C16.1859 68.7116 16.188 68.71 16.102 68.491C15.8256 67.7864 15.5975 67.0615 15.4196 66.3219C15.3902 66.2001 15.358 66.0789 15.3342 65.9558C15.3106 65.8329 15.2433 65.7928 15.1302 65.8082C14.919 65.8366 14.7076 65.8695 14.4954 65.8822C13.9503 65.9157 13.5297 65.6852 13.2451 65.1879C13.1266 64.9833 13.0821 64.7538 13.0622 64.517C13.0475 64.3405 13.0148 64.182 13.0037 63.9926C12.9577 63.2776 13.3425 62.3796 14.1884 62.315C14.3692 62.3015 14.5491 62.2725 14.7294 62.2513C14.9379 62.2261 14.9454 62.2243 14.9501 62.0134C14.9636 61.3926 15.0112 60.7733 15.0922 60.1586C15.1254 59.9095 15.1634 59.6609 15.2046 59.4134C15.2441 59.177 15.2444 59.1719 15.0228 59.0948C14.8569 59.0374 14.6911 58.9832 14.5278 58.9241C13.8184 58.6696 13.452 57.9511 13.6511 57.1864C13.7245 56.9038 13.8148 56.6255 13.9117 56.3509C14.1603 55.6428 14.8409 55.2856 15.5231 55.4999C15.7274 55.564 15.9321 55.6279 16.1306 55.7086C16.2577 55.759 16.314 55.7168 16.3676 55.5976C16.4934 55.3177 16.6302 55.0432 16.7627 54.7672C16.8101 54.672 16.8536 54.5958 16.8966 54.5083C17.0388 54.2311 17.1897 53.9576 17.3705 53.7051C17.5332 53.5539 44.9252 70.6874 44.8478 70.8849C44.7953 70.9858 44.7531 71.0833 44.7026 71.1805C44.6059 71.3631 44.5147 71.5488 44.4118 71.7272C44.021 72.4035 43.3097 72.6095 42.6457 72.2408C42.4714 72.1437 42.3038 72.0323 42.1325 71.9284C41.9543 71.8206 41.9522 71.8196 41.8311 71.9859C41.5608 72.3574 41.2779 72.7179 40.9827 73.0672C40.7184 73.3792 40.4391 73.6749 40.1548 73.9654C40.0239 74.099 40.0242 74.103 40.1248 74.2551C40.2384 74.4265 40.3582 74.5928 40.4708 74.765C40.9074 75.4329 40.7903 76.2364 40.1839 76.7279C39.9896 76.8858 39.7921 77.0388 39.5914 77.1871C38.9614 77.6516 38.2127 77.5247 37.7469 76.875C37.6284 76.7082 37.516 76.5351 37.3974 76.3676C37.2903 76.2163 37.2863 76.2141 37.1294 76.3048C36.486 76.6794 35.8182 77.0043 35.1311 77.2774C35.0349 77.3152 34.938 77.3508 34.8422 77.3896C34.669 77.4598 34.6656 77.4624 34.7001 77.6668C34.7306 77.8483 34.7562 78.0322 34.8052 78.2085C34.9881 78.8673 34.6063 79.663 33.7581 79.943C33.3914 80.0643 32.5974 80.1523 32.2479 80.0033Z" fill="#414141"/>
<path d="M44.7965 70.9382C44.2212 70.583 39.1008 67.2274 38.7422 67.0169C38.5477 66.9124 38.6111 66.8998 38.729 66.6642C39.1479 65.7125 39.4296 64.6992 39.565 63.6584C39.6627 62.9003 39.6574 62.1388 39.5986 61.3754C39.5437 60.656 39.4165 59.9448 39.2195 59.2542C38.9685 58.374 38.6056 57.5502 38.1572 56.763C37.657 55.8853 37.0197 55.1356 36.3158 54.4443C35.7744 53.9127 35.1626 53.4812 34.5168 53.1061C33.5461 52.539 32.49 52.1562 31.3958 51.9752C30.7086 51.8618 30.015 51.8059 29.3215 51.8542C27.8454 51.9576 26.448 52.3703 25.1482 53.1303C24.123 53.7453 23.2053 54.5441 22.4357 55.4914C22.2395 55.7332 21.9602 56.2144 21.7679 56.4583C21.6576 56.5986 19.82 55.3307 17.3205 53.7579C17.4127 53.5853 17.5016 53.4441 17.6001 53.2934C17.6616 53.1991 17.6566 53.1278 17.5765 53.0532C17.4232 52.9084 17.2703 52.763 17.1198 52.6149C16.6412 52.1426 16.5292 51.5162 16.8291 50.9009C16.8975 50.76 17.0213 50.4288 17.2098 50.1881C17.3011 50.0717 17.4015 49.9656 17.5002 49.857C17.9826 49.3262 18.9206 49.3173 19.4241 49.8066C20.0335 50.3979 19.9535 50.2603 20.4667 49.8415C20.9053 49.4844 21.3491 49.1358 21.8131 48.8158C22.0629 48.6437 22.079 48.5604 21.9527 48.2721C21.812 47.9504 21.6852 47.6271 21.7124 47.2596C21.7462 46.806 21.9194 46.4178 22.268 46.1656C22.7655 45.8062 23.294 45.5104 23.9289 45.5287C24.4532 45.5444 24.8206 45.8216 25.0868 46.2758C25.1817 46.4391 25.2553 46.6177 25.3321 46.7925C25.4031 46.9564 25.5183 47.0098 25.6797 46.9646C26.3597 46.7754 27.0482 46.6319 27.7414 46.5127C27.9933 46.4694 28.0439 46.3908 28.0538 46.1245C28.0583 46.0322 28.0583 45.9397 28.0538 45.8473C27.9999 45.0014 28.616 44.2915 29.3441 44.2424C29.7456 44.215 30.1478 44.1829 30.5463 44.2674C31.1323 44.3936 31.7091 44.9644 31.651 45.7483C31.6429 45.8567 31.6489 45.9664 31.651 46.076C31.6562 46.3981 31.7131 46.477 32.0124 46.5226C32.6609 46.6192 33.3032 46.7586 33.9355 46.94C34.2699 47.0372 34.3219 47.002 34.4613 46.6693C34.5705 46.4087 34.68 46.1475 34.8729 45.9384C35.2629 45.5169 35.7484 45.449 36.2542 45.5678C36.6546 45.6621 37.0309 45.8554 37.3757 46.0943C37.9376 46.4841 38.1423 47.1839 37.9136 47.8647C37.8662 48.0067 37.8088 48.1453 37.7491 48.2823C37.6306 48.5513 37.6508 48.6496 37.8863 48.8082C38.3812 49.1379 38.8576 49.498 39.3133 49.8862C39.8126 50.3146 39.7235 50.3798 40.2746 49.8494C40.757 49.3849 41.502 49.3294 41.942 49.6477C42.388 49.9696 42.7759 50.3754 43.0335 50.8828C43.2626 51.335 43.2318 52.1662 42.7754 52.5838C42.6384 52.71 42.5171 52.8546 42.39 52.9924C42.2797 53.1122 42.2648 53.2429 42.352 53.3796C42.7599 54.0185 43.1251 54.6871 43.4447 55.3806C43.5231 55.5508 43.6579 55.5941 43.8238 55.5383C44.019 55.4714 44.2183 55.4183 44.4201 55.3797C44.96 55.2788 45.5546 55.5309 45.8318 56.0349C46.101 56.5232 46.2664 57.059 46.2832 57.6322C46.3015 58.2622 46.0065 58.6983 45.5012 58.9884C45.3335 59.0826 45.1566 59.1571 44.9738 59.2108C44.7807 59.2692 44.698 59.3942 44.7368 59.604C44.873 60.3553 44.9183 61.1163 44.9631 61.8783C44.9749 62.0798 45.0666 62.1912 45.2571 62.1971C45.3993 62.2016 45.5394 62.2297 45.6799 62.2495C46.4044 62.3502 46.8998 62.9496 46.9024 63.7292C46.9037 63.8801 46.8969 64.031 46.8823 64.1811C46.8585 64.4181 46.779 64.7576 46.7164 64.9792C46.5349 65.6247 45.9226 65.9781 45.2911 65.9354C45.0865 65.9218 44.8832 65.8868 44.6789 65.8653C44.4913 65.8458 44.4818 65.8482 44.4352 66.0463C44.2948 66.6407 44.1419 67.2309 43.9414 67.8061C43.8479 68.0736 43.7517 68.34 43.6461 68.6021C43.5987 68.7183 43.6186 68.7896 43.72 68.8504C43.9192 68.9701 44.1203 69.0875 44.3124 69.2198C44.8251 69.5728 45.037 70.2147 44.8504 70.8274C44.8352 70.8659 44.8172 70.9028 44.7965 70.9382Z" fill="#666059"/>
<path d="M23.9168 57.6905C24.1538 57.388 24.3787 57.0739 24.6382 56.7904C25.8621 55.4528 27.341 54.6674 29.0872 54.4584C30.6315 54.2734 32.0967 54.5592 33.45 55.369C35.5334 56.6159 36.776 58.5167 37.1681 61.0216C37.3956 62.4769 37.2232 63.8975 36.6798 65.2613C36.6492 65.3384 36.6275 65.4193 36.6017 65.4984C36.6607 65.6297 36.6033 65.7424 36.5517 65.8563C36.2882 66.4362 35.9414 66.956 35.5403 67.432C34.3865 68.8005 32.9745 69.7077 31.2607 70.0215C28.9858 70.4379 26.9334 69.878 25.1491 68.3136C23.7019 67.0445 22.8299 65.4013 22.5491 63.4313C22.3306 61.8979 22.5123 60.404 23.1097 58.977C23.2545 58.6309 23.4303 58.304 23.6074 57.976C23.6797 57.8395 23.774 57.7374 23.9168 57.6905Z" fill="#EDAE50"/>
<path d="M25.2275 62.2065C25.1883 59.3806 27.4611 57.227 29.872 57.2139C32.2365 57.2012 34.5961 59.2037 34.6002 62.2318C34.6042 65.0427 32.4592 67.1789 29.9556 67.2064C27.2282 67.2365 25.1775 64.8428 25.2275 62.2065Z" fill="#45423D"/>
<path d="M34.5232 57.5967C34.5622 58.0136 34.0713 58.3404 33.7301 58.0994C33.4986 57.9362 33.2798 57.7698 33.0964 57.5521C32.8322 57.239 32.8924 56.9144 33.2424 56.7098C33.5017 56.5585 33.7433 56.5477 33.9827 56.7646C34.1511 56.9171 34.3144 57.0711 34.4353 57.27C34.4966 57.3661 34.5273 57.4806 34.5232 57.5967Z" fill="#FF9400"/>
<path d="M26.1783 62.2398C26.1203 60.1981 27.6757 58.207 29.9333 58.2159C32.0422 58.2249 33.6884 60.0238 33.6674 62.2738C33.6467 64.4919 31.9175 66.2311 29.8626 66.2041C27.7318 66.1761 26.1208 64.2688 26.1783 62.2398Z" fill="#EDAE50"/>
<path d="M29.9043 63.8429C29.0642 63.8429 28.364 63.0999 28.3702 62.2046C28.3757 61.3223 29.0183 60.5842 29.914 60.5743C30.7311 60.5656 31.4445 61.2839 31.44 62.2184C31.4358 63.1292 30.7628 63.8439 29.9043 63.8429Z" fill="#414141"/>
<path d="M31.6779 59.5039C31.7661 59.5039 31.8524 59.5143 31.9271 59.567C32.2531 59.7968 32.4274 60.1164 32.4159 60.5366C32.4096 60.7525 32.1185 60.9796 31.9199 60.9318C31.5841 60.8506 31.3104 60.6736 31.1235 60.3556C30.9619 60.0804 30.9937 59.85 31.236 59.6555C31.367 59.551 31.5168 59.5084 31.6779 59.5039Z" fill="#FF9400"/>
<path d="M23.9139 57.6852C23.6693 58.0966 23.4326 58.5118 23.2435 58.9573C22.9258 59.7087 22.7194 60.5079 22.6319 61.3264C22.5156 62.3587 22.5959 63.4053 22.8679 64.4039C23.14 65.4025 23.5983 66.3326 24.2155 67.1388C25.154 68.3639 26.3363 69.2081 27.753 69.6789C28.574 69.9519 29.4195 70.0771 30.276 70.0169C32.5162 69.8594 34.3433 68.8448 35.7394 66.9671C36.0325 66.571 36.2853 66.1431 36.4938 65.6905C36.525 65.6231 36.5636 65.5597 36.5987 65.4943C36.7935 65.5914 38.3088 66.6323 38.5671 66.8247C38.6698 66.9004 38.6232 67.0011 38.5746 67.0933C38.3083 67.5989 38.0271 68.0945 37.6885 68.5499C36.9484 69.5461 36.0852 70.3952 35.0641 71.0608C34.073 71.7074 32.9843 72.1666 31.8461 72.4185C30.9655 72.6159 30.0736 72.6452 29.1842 72.5863C28.0012 72.5089 26.8676 72.1902 25.7885 71.6578C25.0493 71.2973 24.3564 70.8374 23.7269 70.2898C22.4888 69.2045 21.5284 67.8936 20.907 66.3103C20.5099 65.2939 20.2616 64.2188 20.1707 63.1226C20.0286 61.4875 20.2721 59.9138 20.8133 58.3841C21.0118 57.8239 21.2733 57.2984 21.553 56.7817C21.5805 56.7314 21.6112 56.6809 21.6431 56.6339C21.8129 56.377 21.8451 56.3689 22.0977 56.5221C22.522 56.7794 23.3378 57.3177 23.7531 57.5873C23.8088 57.6161 23.8623 57.6488 23.9139 57.6852Z" fill="#666059"/>
<path d="M37.0856 63.8668C37.2999 62.8526 37.32 61.8027 37.1446 60.7798C36.9693 59.7572 36.6022 58.7823 36.065 57.9138C35.1674 56.6825 34.0397 55.6454 32.7883 55.0049C32.0071 54.647 31.1701 54.4475 30.32 54.4168C28.0761 54.3319 26.1526 55.1226 24.5855 56.841C24.339 57.1163 24.1077 57.4063 23.8924 57.7095C23.708 57.5921 22.0105 56.6711 21.772 56.4518C21.6772 56.3646 22.4172 55.4726 22.7976 55.056C23.6288 54.1451 24.5683 53.3925 25.6479 52.8413C26.6585 52.2868 27.8135 51.97 28.9788 51.8382C29.8723 51.7355 30.7748 51.7609 31.6619 51.9137C32.8313 52.1186 33.9097 52.6026 34.9322 53.2495C35.6333 53.688 36.2788 54.2201 36.853 54.833C37.9812 56.0463 38.8115 57.4543 39.2793 59.0963C39.5774 60.1505 39.7218 61.2471 39.7074 62.3478C39.692 63.9896 39.3047 65.4985 38.7418 66.7133C38.6302 66.9543 38.7315 66.9482 38.408 66.7133C38.0106 66.4109 37.0191 65.7793 36.6005 65.4936C36.5745 65.4724 36.9163 64.6757 37.0856 63.8668Z" fill="#45423D"/>
<path d="M26.6675 21.0748C26.495 20.4909 26.3625 19.8957 26.2173 19.3041C26.1789 19.1483 26.2219 19.1064 26.3782 19.0662C35.0192 16.8311 45.5272 18.5389 50.9241 20.2778C51.7793 20.6041 52.6117 20.9836 53.3819 21.5025C53.7161 21.7278 54.0331 21.976 54.2824 22.3091C54.3519 22.4003 54.4143 22.4972 54.4693 22.5989C54.5999 22.8462 54.6291 23.0954 54.5064 23.3659C54.222 23.9933 53.9128 24.6066 53.5786 25.2058C53.3627 25.596 53.1406 25.9824 52.9218 26.3709C52.8186 26.5593 52.703 26.7396 52.5755 26.9104C52.4639 27.0211 52.3386 26.9678 52.2182 26.9392C51.6897 26.8132 51.1559 26.7146 50.6304 26.5769C50.5919 26.5669 50.5525 26.584 50.5135 26.5855C49.9632 26.3961 49.3821 26.3744 48.8234 26.2327C48.7502 26.214 48.6864 26.2612 48.6163 26.2486C47.6985 26.0589 46.7679 25.9629 45.8437 25.8279C45.5186 25.7803 45.1833 25.8054 44.8682 25.682C44.7477 25.5466 44.7261 25.3697 44.6855 25.199C44.4526 24.1924 44.1499 23.2155 43.5955 22.3479C43.5111 22.2161 43.4194 22.0902 43.3231 21.9678C43.0347 21.5995 42.6904 21.3805 42.223 21.3152C41.0034 21.1445 39.7821 20.9972 38.5573 20.8867C36.5193 20.702 34.4791 20.6705 32.4373 20.7012C31.4298 20.7161 30.4232 20.7874 29.4175 20.8796C28.5848 20.9553 27.754 21.0451 26.9255 21.1617C26.823 21.1723 26.7343 21.1657 26.6675 21.0748Z" fill="#EDAE50"/>
<path d="M55.3106 38.6512C54.7365 38.647 54.1627 38.6344 53.589 38.6429C53.4061 38.6454 53.3655 38.5323 53.3257 38.3924C53.1702 38.3419 53.1744 38.1907 53.1507 38.0647C52.965 37.0946 52.7905 36.1217 52.5885 35.155C52.0921 32.7785 51.5342 30.4187 50.8556 28.0926C50.7388 27.6919 50.613 27.2941 50.4988 26.8923C50.4638 26.7702 50.3975 26.6367 50.5098 26.5143C50.5513 26.4638 50.6068 26.4638 50.6613 26.4742C51.2999 26.6002 51.9381 26.7262 52.5653 26.9083C52.9771 28.1413 53.3236 29.3957 53.6432 30.6588C54.0776 32.3751 54.4504 34.1076 54.798 35.8459C54.9274 36.4952 55.3091 38.635 55.3106 38.6512Z" fill="#45423D"/>
<path d="M26.6662 21.0767C27.4209 20.9398 28.1827 20.86 28.9442 20.7874C29.4931 20.735 30.0452 20.7015 30.5956 20.6614C32.125 20.5485 33.6557 20.5508 35.1861 20.5783C36.2977 20.5982 37.4084 20.6609 38.5181 20.7547C39.2571 20.8172 39.9951 20.889 40.7314 20.9786C41.3499 21.0541 41.9635 21.1633 42.5823 21.249C42.7823 21.2765 42.933 21.3808 43.0758 21.5196C43.5685 21.9985 43.9164 22.5843 44.1896 23.2235C44.5147 23.9832 44.738 24.7777 44.886 25.5966C44.8517 25.7114 44.7636 25.713 44.6745 25.7072C44.2813 25.682 43.8874 25.6526 43.4959 25.6137C43.1502 25.5796 42.8034 25.5633 42.4583 25.5426C41.9084 25.5104 41.3576 25.4468 40.8048 25.4793C40.5915 25.4923 40.3814 25.435 40.1685 25.4315C39.8805 25.4269 39.7909 25.4932 39.6907 25.7773C39.1017 27.4526 38.6166 29.1625 38.1903 30.8921C37.5315 33.5638 37.0291 36.2705 36.6067 38.9944C36.4934 39.7224 36.4013 40.4538 36.3003 41.184C36.2796 41.3325 36.2646 41.4847 36.1756 41.6125C36.1062 41.6866 36.0178 41.6916 35.933 41.6681C35.5368 41.5593 35.1434 41.4378 34.7481 41.3259C34.7172 41.3184 34.6886 41.3031 34.6645 41.2811C34.6404 41.2592 34.6218 41.2313 34.6103 41.1999C34.5466 41.0176 34.5865 40.8324 34.6121 40.6529C35.015 37.7065 35.5081 34.7785 36.1567 31.8817C36.6154 29.8331 37.1381 27.805 37.8079 25.8216C37.9093 25.5217 37.8524 25.4345 37.5562 25.431C36.3823 25.4171 35.2102 25.4604 34.0368 25.5203C33.4472 25.5505 32.8578 25.5762 32.2698 25.6286C32.2304 25.6286 32.1908 25.6301 32.1512 25.6304C31.5372 25.6346 31.523 25.649 31.3294 26.2567C30.2027 29.7899 29.415 33.4119 28.8066 37.082C28.6244 38.1795 28.465 39.2808 28.3029 40.3818C28.2882 40.4826 28.2778 40.5819 28.2181 40.6663C28.1612 40.7638 28.0674 40.7769 27.9731 40.7923C27.4835 40.868 26.991 40.9206 26.5039 41.0126C26.3942 41.0336 26.2593 41.0585 26.2373 40.8704C26.319 40.2903 26.4008 39.7101 26.4828 39.1298C26.695 37.6206 26.9355 36.1167 27.2042 34.6182C27.5563 32.6546 27.959 30.7066 28.4567 28.7819C28.6937 27.8691 28.9385 26.9581 29.2363 26.0648C29.3406 25.7519 29.3401 25.7519 29.1148 25.5356C28.5712 25.0121 28.0294 24.4866 27.483 23.9662C27.3826 23.8726 27.3122 23.7477 27.2818 23.6094C27.0968 22.8465 26.9027 22.086 26.7117 21.3245C26.6787 21.2467 26.6627 21.162 26.6662 21.0767Z" fill="#45423D"/>
<path d="M26.6665 21.0723C26.6955 21.1524 26.7287 21.2317 26.7118 21.3211C26.6642 21.2456 26.6038 21.1711 26.6665 21.0723Z" fill="#A9A9A9"/>
<path d="M39.206 42.9825C38.298 42.4638 37.346 42.0549 36.3723 41.7008C36.2837 41.6685 36.1907 41.6445 36.123 41.5672C36.2233 40.8284 36.316 40.0884 36.425 39.3512C36.6777 37.6444 36.9728 35.9459 37.3105 34.2561C37.8247 31.6947 38.4398 29.1627 39.2487 26.6871C39.3781 26.2908 39.5122 25.8963 39.6467 25.5023C39.7148 25.3031 39.7179 25.3022 39.9185 25.3082C41.0385 25.342 42.1581 25.3876 43.2764 25.4622C43.8112 25.4978 44.3451 25.5502 44.8794 25.5952C45.7623 25.6854 46.6422 25.8011 47.5204 25.9334C47.8936 25.9898 48.2669 26.0417 48.6374 26.1152C48.8507 26.2056 48.9827 26.379 49.1115 26.5781C49.6004 27.336 49.9904 28.1544 50.3145 28.9977C50.6538 29.88 50.9642 30.7798 51.1737 31.712C51.2562 32.079 51.3733 32.4368 51.458 32.8025C51.7354 34.006 52.0427 35.2018 52.2669 36.4192C52.3817 37.0435 52.5038 37.6673 52.6552 38.2842C52.6955 38.4484 52.7623 38.6341 52.5635 38.7523C52.5422 38.7775 52.5247 38.8091 52.4987 38.8239C52.1469 39.0217 51.9093 39.3439 51.6785 39.6723C51.2927 40.2206 50.9107 40.7718 50.5272 41.322C50.4191 41.3723 50.3302 41.3306 50.2417 41.2633C49.78 40.9114 49.314 40.5657 48.8436 40.2261C48.6046 40.0528 48.586 39.9661 48.7464 39.7106C48.9742 39.3477 49.219 38.9973 49.4539 38.6397C49.5441 38.5021 49.6409 38.3682 49.7144 38.2195C49.8474 37.9497 49.7986 37.6809 49.5943 37.5198C49.39 37.3587 49.1356 37.3916 48.9395 37.6251C48.6924 37.9201 48.4977 38.258 48.2866 38.5829C47.6163 39.6102 46.945 40.6366 46.2723 41.6622C46.209 41.7586 46.1445 41.8548 46.1016 41.9646C46.0033 42.2142 46.0719 42.4714 46.2712 42.6096C46.4774 42.7528 46.7145 42.7246 46.8892 42.5119C47.1334 42.2145 47.3268 41.8757 47.5394 41.5541C47.6749 41.3477 47.81 41.141 47.9499 40.9381C48.0472 40.797 48.1548 40.776 48.295 40.8717C48.8064 41.2214 49.2946 41.6062 49.7934 41.9748C49.877 42.0366 49.9593 42.1097 49.9559 42.2362C49.8 42.5066 49.6446 42.7775 49.4875 43.047C49.4086 43.1824 49.324 43.3139 49.246 43.4502C48.9216 44.014 48.9116 44.5971 49.1912 45.1758C49.9443 46.7342 50.7268 48.2761 51.6097 49.757C51.7197 49.9414 51.8379 50.1193 51.9484 50.3025C52.2594 50.8185 52.7241 51.0253 53.2711 51.0428C53.7986 51.0593 54.3249 50.9978 54.8502 50.9487C54.8384 53.2819 54.2105 55.4166 53.0353 57.3808C52.8707 57.6557 52.6927 57.7732 52.3719 57.7631C51.5211 57.7361 50.6692 57.7581 49.8178 57.7605C49.6457 57.7355 49.6519 57.5736 49.6282 57.4521C49.5273 56.9515 49.3945 56.4608 49.2543 55.9715C48.7159 54.084 47.9353 52.2845 46.9344 50.6239C46.611 50.0869 46.2498 49.5799 45.9111 49.0553C45.5962 48.6183 45.2567 48.2022 44.9062 47.7984C44.2821 47.0794 43.6341 46.3843 42.9249 45.7568C41.8993 44.8544 40.8009 44.0503 39.6422 43.3535C39.4818 43.2509 39.2894 43.1871 39.206 42.9825Z" fill="#B9E1E1"/>
<path d="M52.5166 38.808C52.5823 38.6568 52.5766 38.4481 52.5425 38.3056C52.2432 37.0643 50.1296 28.41 48.9344 26.5055C48.7896 26.2745 48.7555 26.2134 48.6416 26.1123C49.2028 26.1587 49.7534 26.2847 50.3098 26.3674C50.3523 26.3725 50.3933 26.3884 50.429 26.4136C50.4647 26.4389 50.4943 26.4727 50.5155 26.5123C51.262 28.9237 51.9023 31.3665 52.4369 33.8406C52.7642 35.3484 53.1003 36.9685 53.3675 38.4898C53.3683 38.4934 53.3696 38.4968 53.3714 38.4997C53.4252 38.6058 53.4388 38.5765 53.1264 38.6183C52.9326 38.6446 52.6719 38.7367 52.5166 38.808Z" fill="#DCF9FB"/>
<path d="M34.6572 41.1682C34.1711 41.0673 33.6856 40.9571 33.1984 40.8685C32.6171 40.7639 32.031 40.6916 31.4427 40.6519C30.8859 40.6134 30.3337 40.6016 29.7758 40.6003C29.4624 40.6003 29.1449 40.6328 28.8295 40.6081C28.7003 40.5028 28.7236 40.3598 28.7422 40.2164C29.0098 38.1642 29.3209 36.1209 29.7263 34.0917C30.0107 32.6626 30.3309 31.2435 30.7249 29.8451C31.1013 28.5092 31.5396 27.1969 32.2189 25.9938C32.3213 25.8129 32.3375 25.6631 32.2291 25.4934C32.304 25.4616 32.3837 25.4617 32.4622 25.458C34.2502 25.3718 36.0381 25.2783 37.8289 25.2956C37.9062 25.2956 37.9865 25.2762 38.0617 25.3171C38.0917 25.4075 38.0414 25.4815 38.0157 25.5568C37.2261 27.8505 36.6294 30.2056 36.1156 32.5846C35.6799 34.603 35.318 36.6366 35.0062 38.6805C34.8805 39.5088 34.7738 40.3391 34.6572 41.1682Z" fill="#B9E1E1"/>
<path d="M32.3946 25.4612C32.7147 25.4214 32.6843 25.44 32.4925 25.7889C31.9741 26.7305 31.5377 27.6987 31.2042 28.7203C31.0109 29.3122 30.8234 29.9099 30.6787 30.5206C30.5207 31.187 30.334 31.8456 30.1875 32.5155C30.0388 33.1935 29.9135 33.8767 29.776 34.5572C29.6353 35.2541 29.4917 35.9502 29.3846 36.6536C29.2187 37.7459 29.0585 38.8389 28.9041 39.9326C28.8727 40.1552 28.8329 40.3792 28.8394 40.6071C28.7595 40.6452 28.2125 40.7051 28.1709 40.6071C28.2068 40.0711 28.3014 39.543 28.3794 39.0134C28.5722 37.7048 28.7891 36.4004 29.0296 35.1003C29.591 32.096 30.2827 29.1267 31.2097 26.2252C31.2682 26.0426 31.3375 25.8638 31.3894 25.6792C31.4196 25.5712 31.4801 25.5311 31.577 25.528C31.7991 25.5162 32.3551 25.4594 32.3946 25.4612Z" fill="#DCF9FB"/>
<path d="M61.9499 62.4211C61.3985 62.376 60.784 61.9144 60.3452 63.1064C59.9089 64.2879 60.5502 64.7432 60.4534 64.7033C60.4057 64.697 60.3577 64.6954 60.3097 64.6986C59.9485 64.7031 59.575 64.6396 59.2147 64.6391C59.0869 64.5768 59.117 64.4657 59.1383 64.358C59.32 63.4291 59.5982 62.5246 59.9677 61.6611C60.4568 60.5289 61.0556 59.4682 61.8059 58.5055C62.8485 57.1683 64.0703 56.0605 65.4909 55.2C66.9695 54.3043 68.5568 53.7504 70.2383 53.5089C71.0505 53.3924 71.8697 53.3488 72.6909 53.4101C73.0024 53.4332 73.2458 53.2981 73.4134 53.025C73.4817 52.9137 73.557 52.8291 73.674 52.7849C73.8093 52.7835 73.9323 52.8445 74.0615 52.8752C74.3458 52.943 74.3754 52.9321 74.5001 52.6585C74.7015 52.2163 74.9103 51.7786 75.1704 51.3705C75.2344 51.3265 75.2878 51.2672 75.3263 51.1973C75.6635 50.648 76.0949 50.1938 76.6018 49.821C76.616 49.8139 76.632 49.8112 76.6477 49.8131C76.8311 49.8131 76.879 49.9621 76.9233 50.1076C77.1174 50.7467 77.3356 51.3747 77.6056 51.9835C78.0525 52.9916 78.6046 53.9242 79.3131 54.7472C79.4188 54.8699 79.5521 54.9793 79.4903 55.1795C79.1212 55.8684 78.7523 56.5572 78.3832 57.2462C78.329 57.347 78.269 57.4453 78.2116 57.545C78.1091 57.7183 77.9933 57.8827 77.8655 58.0362C77.8323 58.0106 77.7971 57.9881 77.7602 57.9689C77.739 57.9577 77.6986 57.9199 77.678 57.9079C77.2915 57.6842 77.3463 57.6693 77.5388 57.2525C77.6596 56.9897 77.7223 56.7232 77.646 56.4268C77.6159 56.3044 77.5624 56.1901 77.4886 56.0908C77.415 55.9914 77.3228 55.9094 77.2179 55.8499C76.9707 55.7069 76.7144 55.5727 76.4318 55.5096C76.0355 55.4221 75.6217 55.6175 75.431 55.9986C75.3679 56.1246 75.3237 56.2598 75.265 56.3882C75.1811 56.5755 75.1327 56.6017 74.9501 56.5462C74.4639 56.3989 73.9729 56.2784 73.4697 56.2187C73.4223 56.2129 73.3777 56.1935 73.3306 56.1889C73.1963 56.1719 73.1397 56.088 73.141 55.9502C73.141 55.8158 73.1326 55.6812 73.141 55.547C73.1721 55.0391 72.8679 54.6957 72.4265 54.6031C72.108 54.5359 71.7798 54.5403 71.4631 54.6162C71.0585 54.7132 70.8188 54.976 70.7625 55.4226C70.7397 55.5884 70.7264 55.7555 70.7227 55.923C70.7203 56.1411 70.7062 56.1593 70.4992 56.2025C70.2439 56.2557 69.9864 56.296 69.7309 56.3476C69.4674 56.4011 69.2067 56.4678 68.9489 56.5475C68.7815 56.5997 68.742 56.5787 68.6721 56.4125C68.6078 56.2594 68.5473 56.1047 68.4643 55.9614C68.2456 55.5832 67.8502 55.4085 67.4453 55.5195C67.1545 55.6002 66.8779 55.7302 66.626 55.9046C66.259 56.1566 66.1247 56.6324 66.2801 57.0814C66.3264 57.2147 66.3945 57.3392 66.4485 57.4698C66.5168 57.6341 66.5108 57.6732 66.3753 57.7614C65.8968 58.0729 65.454 58.4366 65.0134 58.8041C64.8848 58.9118 64.8494 58.913 64.7291 58.7949C64.6218 58.6836 64.5083 58.5796 64.3888 58.4835C64.0501 58.223 63.5877 58.2196 63.2693 58.5055C63.0473 58.7051 62.8373 58.9223 62.6793 59.1887C62.4398 59.5921 62.4949 60.0709 62.8215 60.3986C62.9535 60.5312 62.9672 60.5412 63.1818 60.6973C62.8521 61.0481 62.208 61.9951 62.0194 62.3681" fill="#414141"/>
<path d="M57.5451 64.5927C56.2193 64.5911 54.8934 64.5898 53.5674 64.5883C51.4603 64.5883 49.353 64.5883 47.2456 64.5883C46.7598 64.5883 46.7515 64.572 46.8191 64.0649C46.8665 63.6953 46.8749 63.3266 46.68 62.9903C46.4698 62.6279 46.1728 62.3956 45.7741 62.3306C45.5796 62.2966 45.3832 62.2753 45.1862 62.267C44.9492 62.2597 44.9062 62.197 44.8975 61.9426C44.869 61.1209 44.8058 60.3043 44.6573 59.4945C44.5983 59.1744 44.6146 59.1474 44.9164 59.0587C45.1608 58.9871 45.3987 58.8981 45.6168 58.7587C46.1584 58.4119 46.3174 57.8196 46.1875 57.2107C46.1283 56.9334 46.0381 56.6624 45.9506 56.3929C45.7233 55.6939 45.1212 55.3301 44.4385 55.4661C44.2046 55.5129 43.9807 55.5923 43.7551 55.6678C43.5701 55.7309 43.5468 55.7246 43.4607 55.5333C43.1022 54.7291 42.6792 53.959 42.1966 53.232C42.1058 53.0965 42.1105 53.0538 42.2487 52.9435C42.4382 52.7908 42.5919 52.5969 42.7677 52.429C43.1906 52.0257 43.183 51.1768 42.9299 50.7716C42.6917 50.3902 42.3895 50.0658 42.0607 49.7808C41.6473 49.4211 40.9222 49.4081 40.4624 49.8477C40.3042 49.999 40.1245 50.125 39.9844 50.2977C39.9007 50.4012 39.8232 50.4035 39.7239 50.3144C39.4895 50.1028 39.2527 49.8938 39.0096 49.6941C38.6286 49.381 38.2276 49.0989 37.821 48.8238C37.4686 48.5852 37.4849 48.6389 37.6641 48.2439C37.7388 48.0867 37.8045 47.9248 37.8608 47.759C38.0657 47.1135 37.88 46.4064 37.2261 46.0535C36.9442 45.9022 36.661 45.7462 36.3571 45.6582C35.9304 45.5348 35.5141 45.5574 35.1392 45.8536C34.9871 45.9754 34.8652 46.1345 34.7838 46.3176C34.6829 46.5359 34.5943 46.7604 34.4976 46.9807C34.4243 47.1468 34.4083 47.1572 34.243 47.102C33.6094 46.8903 32.9615 46.7456 32.3063 46.6349C32.1507 46.6097 31.9945 46.5845 31.8385 46.5609C31.6127 46.5261 31.5951 46.5073 31.5911 46.2552C31.588 46.0454 31.5888 45.8354 31.5911 45.625C31.5964 45.0423 31.3067 44.6672 30.838 44.4239C30.7033 44.3516 30.5559 44.3101 30.4052 44.3021C30.0511 44.2894 29.6964 44.2654 29.3429 44.3274C28.6686 44.4474 28.25 44.948 28.2291 45.6729C28.2238 45.8573 28.2291 46.0421 28.2269 46.2273C28.2236 46.5104 28.2128 46.519 27.9566 46.5623C27.1694 46.6949 26.3845 46.8395 25.6196 47.0859C25.4372 47.1442 25.4153 47.1316 25.3319 46.9401C25.2526 46.7574 25.175 46.5736 25.0949 46.3909C24.7798 45.6648 24.0489 45.4301 23.3754 45.6912C23.1233 45.7884 22.877 45.9026 22.6384 46.0328C22.2467 46.2482 21.9884 46.5809 21.9038 47.0548C21.8603 47.3036 21.8823 47.5602 21.9672 47.7965C22.0408 48.0099 22.1381 48.2113 22.23 48.4157C22.308 48.5891 22.2992 48.6285 22.1501 48.7246C21.5216 49.1304 20.9343 49.5972 20.3611 50.0857C20.2873 50.1484 20.2189 50.2196 20.1477 50.2841C20.0253 50.3935 19.9876 50.3933 19.8634 50.2793C19.7263 50.1533 19.5847 50.0318 19.4563 49.8959C18.9722 49.384 18.0658 49.3871 17.596 49.9309C17.4573 50.0913 17.3254 50.2586 17.183 50.415C17.0111 50.6039 16.9998 50.5974 16.8233 50.4245C16.6737 50.2773 16.3206 49.9471 16.2954 49.9275C16.0601 49.6485 16.0698 49.6464 16.308 49.3603C18.3327 46.9293 20.8995 45.0788 23.7725 43.9788C25.2206 43.4244 26.7109 43.0629 28.2421 42.9225C29.1774 42.8398 30.1171 42.8305 31.0538 42.8942C32.3221 42.9752 33.579 43.1966 34.8042 43.5551C35.8093 43.8475 36.787 44.2376 37.7248 44.7209C38.3656 45.0423 38.9872 45.4054 39.5859 45.8083C40.4247 46.3731 41.2187 47.01 41.9601 47.7124C42.6693 48.39 43.3352 49.1172 43.9534 49.8892C44.0374 50.0001 44.1158 50.1154 44.1886 50.235C44.767 50.9293 45.2312 51.7097 45.6646 52.5079C46.5362 54.1064 47.1884 55.8294 47.601 57.6246C47.7451 58.2523 47.8412 58.8895 47.9474 59.525C48.0401 60.0795 48.4226 60.2692 48.8918 60.0009C49.4804 59.6643 49.8542 58.8643 49.7686 58.1559C49.75 58.0021 49.6501 57.8282 49.8054 57.6838C49.9283 57.6102 50.0638 57.6162 50.1977 57.6157C50.9086 57.6134 51.6181 57.6058 52.328 57.6192C52.6213 57.6247 52.8174 57.5083 52.9745 57.25C53.5618 56.2824 54.009 55.2266 54.3016 54.1177C54.5321 53.2524 54.698 52.3738 54.7541 51.4741C54.7609 51.3817 54.7595 51.2889 54.7499 51.1968C54.7375 51.0873 54.7634 50.9974 54.8585 50.9401C55.0124 50.9371 55.3493 50.9165 55.3645 50.9149C55.9541 50.8779 55.9541 50.8782 55.9554 51.5085C55.9554 51.9874 55.9525 52.4663 55.9567 52.9436C55.9606 53.3813 56.0702 53.5163 56.4723 53.6242C57.4356 53.8851 58.4103 53.9692 59.4039 53.9144C59.8627 53.8892 60.3114 53.8015 60.7669 53.7632C60.8611 53.7518 60.9533 53.7265 61.0408 53.6875C61.3174 53.5749 61.3986 53.4607 61.4027 53.1411C61.4098 52.5453 61.4005 51.9494 61.4078 51.3536C61.4096 51.2235 61.3842 51.0809 61.4927 50.9754C61.6716 50.8292 61.8424 50.941 62.0024 51.012C62.3975 51.1884 62.6946 51.502 62.9677 51.841C63.4728 52.4689 63.848 53.1859 64.2037 53.9154C64.2349 53.9741 64.2482 54.0418 64.2415 54.109C64.2289 54.272 64.1176 54.3534 64.0046 54.4315C63.0736 55.0715 62.2377 55.8312 61.469 56.679C60.5873 57.6508 59.8561 58.737 59.2368 59.9111C58.5174 61.2747 58.0283 62.7283 57.7394 64.2605C57.7145 64.3887 57.7392 64.571 57.5451 64.5927Z" fill="#45423D"/>
<path d="M57.5392 64.5922C57.5992 64.3061 57.6563 64.0193 57.7194 63.7353C58.2346 61.4003 59.2244 59.3164 60.6536 57.4653C61.6025 56.2283 62.7279 55.1572 63.9888 54.2913C64.0613 54.2408 64.1412 54.2005 64.186 54.1148C64.2429 54.0139 68.5436 51.0702 73.353 52.0162C73.6392 52.2373 73.6729 52.6624 73.5174 53.0478C73.3656 53.4238 73.0824 53.5424 72.6287 53.5308C72.2099 53.5199 71.7922 53.496 71.3754 53.5203C70.6745 53.5576 69.9773 53.6519 69.29 53.8022C67.407 54.2219 65.6919 55.0358 64.1533 56.2637C62.3557 57.6983 60.9987 59.5129 60.0672 61.6864C59.6897 62.574 59.4052 63.5034 59.2191 64.4573C59.2078 64.5146 59.0533 65.4367 59.0059 65.8436C58.9627 66.2217 58.7926 66.4854 58.4495 66.6101C57.9455 66.7932 57.4068 66.4019 57.3959 65.8358C57.39 65.5505 57.4479 65.2701 57.4881 64.9886C57.5043 64.8774 57.5218 64.6106 57.5392 64.5922Z" fill="#A19D98"/>
<path d="M53.428 62.6275C52.568 62.6275 51.7081 62.6302 50.8482 62.6262C50.4455 62.6242 50.1536 62.415 49.9875 62.0313C49.8214 61.6478 49.8725 61.2752 50.1138 60.9423C50.3051 60.6788 50.5791 60.5777 50.8837 60.5674C51.0886 60.5606 51.2938 60.5646 51.4997 60.565C52.9512 60.5659 54.4028 60.5669 55.8543 60.5679C56.1294 60.5679 56.3856 60.6183 56.6035 60.817C56.9045 61.0918 57.0271 61.537 56.9017 61.9338C56.8404 62.135 56.7211 62.3103 56.5608 62.4352C56.4003 62.56 56.207 62.6278 56.0083 62.6289C55.1483 62.6338 54.2886 62.6306 53.4287 62.6306L53.428 62.6275Z" fill="#FCBE4F"/>
<path d="M26.2327 40.8657C26.2864 40.9113 26.348 40.9126 26.4113 40.8992C26.9492 40.7872 27.4933 40.7227 28.0379 40.6627C28.0853 40.6572 28.0615 40.658 28.1959 40.6444C30.1082 40.4932 32.6572 40.6045 34.6618 41.1676C35.1037 41.2977 35.549 41.3944 35.9913 41.5235C36.0366 41.5262 38.202 42.3686 39.0432 42.8496C39.1186 42.9067 39.1553 42.9372 39.2092 42.9811C39.2438 43.3937 39.1231 43.7037 38.8967 43.9852C38.5813 44.3777 38.1643 44.659 37.698 44.8372C37.0983 44.56 36.5011 44.2758 35.8817 44.0486C34.7855 43.6458 33.6563 43.3537 32.5087 43.1761C31.5088 43.0247 30.4991 42.9599 29.4893 42.9821C28.2978 43.0032 27.1118 43.155 25.9495 43.4344C22.3422 44.2962 19.0715 46.3171 16.5805 49.2231C16.5009 49.3163 16.4196 49.4078 16.3398 49.5004C16.1739 49.694 16.1014 49.8195 15.9791 49.9735C15.776 50.2295 15.5783 50.4909 15.3805 50.7518C14.9184 51.3604 14.1063 51.3932 13.6004 50.755C13.258 50.3228 13.3161 49.6712 13.5947 49.2607C13.8987 48.8214 14.2234 48.3987 14.5679 47.9949C14.9201 47.5757 15.2633 47.1477 15.6492 46.7629C16.1902 46.224 16.7288 45.6809 17.3172 45.2002C19.3265 43.5588 21.5286 42.3071 23.9557 41.5167C24.597 41.3072 25.2483 41.1343 25.9071 40.9985C26.0232 40.9753 26.145 40.9664 26.2327 40.8657Z" fill="#EDAE50"/>
<path d="M45.9846 48.9814C46.5725 49.7212 47.0509 50.5406 47.513 51.3708C48.0565 52.3476 48.5084 53.3719 48.891 54.431C49.242 55.4033 49.5456 56.3909 49.7475 57.4117C49.7711 57.5267 49.7999 57.6386 49.8261 57.7541C49.879 58.067 49.9396 58.3771 49.8751 58.6999C49.7431 59.3618 49.4332 59.88 48.8411 60.1687C48.345 60.4103 47.9145 60.1575 47.8334 59.5832C47.6203 58.0708 47.2719 56.5944 46.7409 55.1698C46.1127 53.4846 45.2894 51.9183 44.2423 50.4845C44.1949 50.4186 44.1503 50.3491 44.1045 50.2812C44.2179 49.8812 44.4527 49.5575 44.6785 49.2252C44.8053 49.0383 45.0012 49.0689 45.1647 49.0143C45.4292 48.9258 45.7069 48.8533 45.9846 48.9814Z" fill="#EDAE50"/>
<path d="M45.8432 48.9453C44.5467 48.8339 44.1394 50.1941 44.098 50.2793C43.538 49.5539 42.9472 48.8593 42.3043 48.215C40.9977 46.9017 39.5151 45.802 37.9048 44.9518C37.8338 44.9147 37.7652 44.8761 37.6953 44.8366C37.7558 44.7609 38.2892 44.6498 38.734 44.0048C39.1102 43.4591 39.1989 43.0892 39.2065 42.9805C39.6309 43.1501 40.0016 43.4256 40.3864 43.6703C41.0518 44.0898 41.6914 44.5537 42.3015 45.0593C42.8527 45.5201 43.3875 46 43.8968 46.5158C44.2458 46.8686 44.5729 47.2423 44.9026 47.6124C45.2866 48.043 45.6735 48.4759 45.9773 48.9798" fill="#FF9400"/>
<path d="M79.4811 55.1743C79.3418 54.9268 79.1301 54.7458 78.9598 54.5244C78.0437 53.3361 77.387 51.9979 76.9248 50.5472C76.8717 50.3806 76.823 50.2122 76.77 50.0453C76.7477 49.9748 76.7309 49.8941 76.6361 49.8967C75.4686 48.8329 74.0591 48.2398 72.6788 47.5904C70.5934 46.6104 68.4162 45.9369 66.2137 45.3434C64.4861 44.8779 62.7359 44.5326 60.9805 44.2131C60.8207 44.1842 60.6499 44.1701 60.5396 44.0116C60.5108 43.8966 60.5108 43.7792 60.5105 43.6619C60.5083 42.2732 60.5089 40.8843 60.5126 39.4956C60.5126 39.3444 60.4688 39.1704 60.6224 39.0586C60.9686 39.149 61.326 39.149 61.6772 39.2009C62.3406 39.2988 63.0084 39.3716 63.6709 39.4781C64.5288 39.6148 65.3894 39.7363 66.2403 39.9178C66.8281 40.0438 67.4188 40.1499 68.0053 40.283C68.6925 40.4391 69.3797 40.5967 70.0584 40.7805C71.1896 41.0862 72.3207 41.3966 73.4233 41.8092C73.8622 41.9732 74.2975 42.1504 74.7418 42.296C75.1946 42.4443 75.5497 42.7401 75.8874 43.0733C76.6218 43.7981 77.3545 44.5246 78.0636 45.2779C78.5375 45.7818 79.0138 46.2824 79.4657 46.8097C79.6614 47.0381 79.878 47.247 80.0818 47.4691C80.4339 47.8537 80.7618 48.2623 81.1224 48.6388C81.412 48.9413 81.5832 49.3222 81.6046 49.7582C81.6345 50.3707 81.6159 50.9784 81.4697 51.5811C81.2006 52.6901 80.7039 53.6683 80.0307 54.5527C79.862 54.7727 79.6875 54.9893 79.4811 55.1743Z" fill="#EDAE50"/>
<path d="M49.9593 42.228L48.3278 41.0242C48.3006 41.0069 48.2751 40.9875 48.251 40.9656C48.1521 40.8649 48.0929 40.9113 48.0305 41.0161C47.9382 41.1718 47.8343 41.3203 47.7348 41.4714C47.499 41.828 47.2681 42.1884 47.0256 42.5397C46.8456 42.8006 46.6171 42.881 46.3649 42.797C45.9874 42.671 45.8171 42.2388 46.0041 41.8646C46.0628 41.7465 46.1407 41.6391 46.2129 41.5293C47.0426 40.264 47.8731 38.999 48.704 37.7342C48.7561 37.6503 48.8137 37.5702 48.8761 37.4947C49.0927 37.2467 49.4212 37.2079 49.6697 37.3939C49.7906 37.4838 49.876 37.6181 49.9096 37.7709C49.9433 37.9236 49.9227 38.0842 49.8519 38.2218C49.7783 38.3694 49.6837 38.5052 49.5934 38.6425C49.3358 39.0343 49.0757 39.4239 48.8164 39.8143C48.7131 39.9701 48.711 39.9733 48.8586 40.083C49.4148 40.4954 49.9717 40.9066 50.5294 41.3166L49.9593 42.228Z" fill="#45423E"/>
<path d="M56.6814 38.7481C56.7575 38.8053 56.7525 38.8925 56.7525 38.9748C56.7545 40.4467 56.7545 41.9184 56.7525 43.3897C56.7545 43.44 56.7464 43.4902 56.7287 43.5367C56.6312 43.6627 56.4918 43.6577 56.3601 43.6582C55.8718 43.6608 55.384 43.633 54.8965 43.6229C53.534 43.5917 52.1714 43.6106 50.8073 43.6134C50.7125 43.6134 50.6177 43.6189 50.5297 43.6637C50.4778 43.6889 50.4304 43.7253 50.4378 43.7945C50.4451 43.8639 50.4999 43.8853 50.5548 43.9006C50.5931 43.9112 50.6324 43.916 50.6719 43.915C51.3408 43.8997 52.0093 43.9291 52.6796 43.8846C53.3228 43.8415 53.9696 43.8546 54.6158 43.896C55.1731 43.9314 55.7324 43.9463 56.2909 43.9678C56.4331 43.9729 56.5753 43.9628 56.7017 44.0527C56.765 44.3899 56.8641 44.7236 56.7965 45.0747C56.7951 45.1067 56.7865 45.1381 56.7714 45.1659C56.6671 45.2981 56.5051 45.3008 56.3698 45.3608C56.1133 45.4742 55.9859 45.6593 55.994 45.9603C56.0307 47.3346 55.9288 48.7076 55.9466 50.0817C55.9487 50.2411 55.9517 50.3997 55.9684 50.5585C56.0041 50.9019 55.915 51.015 55.5893 51.0501C55.5029 51.0591 55.4162 51.0619 55.3286 51.0641C55.1772 51.0664 55.0258 51.0672 54.8747 51.0546C54.4317 51.1282 53.983 51.1335 53.5366 51.1657C52.7088 51.2249 52.1009 50.8668 51.6698 50.1071C51.0709 49.0534 50.4671 48.0034 49.9193 46.9178C49.6736 46.4308 49.4454 45.9347 49.1866 45.4543C48.7708 44.6825 48.7663 43.9281 49.2523 43.1896C49.4642 42.8678 49.6186 42.5051 49.8719 42.2135C50.0125 41.8624 50.2399 41.57 50.4441 41.2617C50.9132 40.5263 51.408 39.8109 51.9409 39.1264C52.1034 38.9174 52.3297 38.7887 52.5385 38.6387C52.8151 38.559 53.8181 38.5378 54.0726 38.5291C54.3615 38.5187 54.651 38.525 54.9404 38.5291C55.078 38.53 56.4159 38.6072 56.6814 38.7481Z" fill="#EDAE50"/>
<path d="M73.6868 52.8953C73.5976 52.8426 73.5421 52.7693 73.5481 52.6535C73.5663 52.3008 73.3516 52.1267 73.0891 51.9967C72.7392 51.8612 70.0745 51.5948 67.4255 52.5735C66.4938 52.8942 65.5954 53.2948 64.7502 53.8245C64.5946 53.9224 64.4222 53.9887 64.2763 54.1058C64.2556 54.1223 64.2166 54.1116 64.186 54.1137C63.9784 53.7978 63.8407 53.4399 63.6536 53.1116C63.3637 52.6034 63.0571 52.1104 62.6653 51.6819C62.3574 51.3457 62.0087 51.0879 61.5678 50.9933C61.4465 51.0031 61.4284 50.9088 61.4135 50.8168C61.4004 50.7088 61.3958 50.5996 61.3997 50.4907C61.3997 49.7283 61.3869 48.9655 61.4028 48.2034C61.4175 47.482 61.34 46.7644 61.3494 46.0438C61.353 45.7695 61.231 45.5835 60.9941 45.4769C60.8996 45.4345 60.8079 45.3857 60.7194 45.3307C60.6518 45.2885 60.5787 45.2448 60.6083 45.1373L60.6172 44.592C60.6957 44.4764 60.8024 44.4927 60.9161 44.5108C62.2274 44.7206 63.5295 44.9797 64.8226 45.2885C66.3776 45.6624 67.9234 46.0731 69.4371 46.6081C70.6502 47.0366 71.8509 47.5024 73.0134 48.0725C73.5646 48.343 74.1271 48.5916 74.6308 48.9581C74.8203 49.0959 74.9727 49.2791 75.1168 49.47C75.4599 49.9237 75.3732 50.4505 75.3411 50.9666C75.3314 51.1278 75.2591 51.2776 75.2464 51.44C74.9496 51.92 74.6963 52.4289 74.4897 52.9599C74.4475 53.0702 74.3909 53.1111 74.2728 53.0687C74.0821 52.9997 73.8834 52.9524 73.6868 52.8953Z" fill="#EDAE50"/>
<path d="M75.2465 51.4429C75.1803 51.308 75.1908 51.1621 75.2154 51.024C75.2672 50.7321 75.2489 50.439 75.2489 50.1461C75.2489 49.859 75.0996 49.6361 74.9361 49.4315C74.7307 49.176 74.4792 48.9668 74.1963 48.8167C72.8728 48.1015 71.503 47.5061 70.101 46.9892C69.0877 46.6151 68.0657 46.2738 67.0271 45.9911C65.7143 45.6337 64.3967 45.304 63.0632 45.0333C62.2969 44.878 61.5247 44.7616 60.7579 44.61C60.7118 44.601 60.6631 44.5992 60.6172 44.594C60.6172 44.4091 60.6172 44.2248 60.6172 44.041C61.0883 44.0886 61.5517 44.1882 62.0167 44.2772C62.6215 44.3928 63.2249 44.5156 63.8274 44.6456C64.4598 44.7836 65.0927 44.9173 65.7182 45.0939C66.1972 45.2292 66.6821 45.344 67.1624 45.4771C68.3377 45.8029 69.4989 46.177 70.6458 46.5994C71.5774 46.9428 72.4783 47.3682 73.3842 47.7796C74.2461 48.1727 75.0821 48.6273 75.8863 49.1407C76.1221 49.2906 76.3389 49.4749 76.5616 49.6476C76.6405 49.7087 76.7114 49.7823 76.6258 49.8965C76.3254 50.1799 76.0154 50.4511 75.7492 50.7741C75.5716 50.9892 75.4147 51.2199 75.2465 51.4429Z" fill="#FF9400"/>
<path d="M56.6899 43.5328L56.6913 44.0856C55.1137 43.9476 52.1725 43.9476 50.6878 44.0366C50.5749 44.0308 50.4625 44.0185 50.3511 43.9995C50.2681 43.9797 50.1403 43.866 50.1426 43.7949C50.1463 43.6644 50.217 43.6013 50.3084 43.553C50.4229 43.492 50.5757 43.4807 50.7043 43.4807C52.1247 43.4807 53.5456 43.4579 54.9652 43.4943C55.5397 43.5088 56.115 43.5179 56.6899 43.5328Z" fill="#FF9400"/>
<path d="M81.0409 50.239C81.0487 50.7812 80.9461 51.28 80.8004 51.7701C80.5427 52.637 80.1228 53.4109 79.5888 54.1169C79.4804 54.2602 79.4748 54.2607 79.3615 54.1192C78.842 53.4696 78.4263 52.7494 78.0702 51.9878C77.8025 51.4157 77.5832 50.8228 77.387 50.2199C77.3263 50.0331 77.3335 49.9997 77.5093 49.9039C78.1242 49.5681 78.7687 49.3297 79.4563 49.2254C79.7693 49.1777 80.0853 49.1785 80.3984 49.1376C80.43 49.1347 80.4617 49.134 80.4932 49.1356C80.7912 49.1415 80.8377 49.1817 80.9497 49.4703C81.049 49.7274 81.047 49.994 81.0409 50.239Z" fill="#FEFEFE"/>
<path d="M60.5853 39.1791C60.5853 40.7813 60.6028 44.2956 60.6395 45.2814C60.5517 45.4003 60.4375 45.3569 60.3343 45.3257C59.2235 44.9807 58.105 45.0318 56.9832 45.2502C56.8884 45.2683 56.7965 45.2932 56.7166 45.2109L56.7108 45.2188C56.6589 45.1433 56.7108 37.3136 56.7042 36.8123C56.701 36.5971 56.7349 36.402 56.8357 36.2129C56.9593 35.9805 57.0671 35.7389 57.1821 35.5009C57.198 35.4836 57.2193 35.4728 57.242 35.4707C58.5354 36.0581 59.6039 36.74 60.5776 37.7993C60.5633 38.1821 60.5776 38.6947 60.5853 39.1791Z" fill="#414141"/>
<path d="M57.2462 35.3818H57.2269L57.208 35.3781C57.3013 35.141 57.3068 34.8924 57.3059 34.6399C57.3031 33.8857 57.3146 33.1313 57.3078 32.3775C57.3054 32.1025 57.3833 31.8796 57.5448 31.6647C58.341 30.6037 59.2062 29.6033 60.1339 28.6709C60.7234 28.0779 61.3492 27.5272 62.0369 27.0625C62.1676 27.0958 62.1118 27.1862 62.0822 27.2558C61.6604 28.2448 61.7201 29.2821 61.8526 30.3114C61.9108 30.7651 62.029 31.2327 62.3839 31.5658C62.4091 31.5869 62.4259 31.6171 62.4313 31.6508C62.4366 31.6844 62.4298 31.7189 62.4125 31.7476C61.6116 32.1436 60.9829 32.7585 60.4519 33.4967C60.3734 33.6057 60.3154 33.7209 60.3348 33.8645C60.2995 34.7631 60.3073 35.6608 60.3367 37.1394C60.3354 37.1553 60.3333 37.1711 60.3306 37.1868C60.212 37.2722 60.1347 37.1757 60.0618 37.1097C59.7454 36.8234 59.4381 36.5261 59.0971 36.2709C58.7243 35.9912 58.3421 35.7305 57.9289 35.5227C57.7113 35.4138 57.4898 35.3402 57.2462 35.3818Z" fill="#A19D98"/>
<path d="M62.5604 26.9531C62.7201 27.0382 62.8016 27.18 62.8422 27.3623C62.9454 27.8256 63.0135 28.297 63.0457 28.7721C63.1015 29.5842 62.9907 30.3699 62.8 31.1495C62.7602 31.3119 62.7144 31.472 62.6132 31.6061C62.5122 31.6242 62.4812 31.5466 62.4404 31.4722C61.9699 30.6122 61.8845 29.6738 61.9429 28.7072C61.9507 28.5746 61.9706 28.4421 61.9788 28.3085C62.0055 27.795 62.2132 27.3111 62.5604 26.9531Z" fill="#A19D98"/>
<path d="M61.1008 45.3828C61.3463 45.4975 61.4668 45.6659 61.4768 45.9784C61.5265 47.5537 61.5131 49.1291 61.5166 50.7041C61.5166 50.8049 61.5268 51.2249 61.5262 51.3415C61.5223 51.9951 61.5119 52.6489 61.5203 53.3021C61.5234 53.5321 61.4336 53.6635 61.247 53.7463C59.6867 54.2 57.6604 54.1776 56.2397 53.696C55.9194 53.5923 55.8342 53.4653 55.8316 53.1137C55.8282 52.6529 55.8316 52.1919 55.8316 51.731C55.8316 51.5383 55.8348 51.3456 55.8316 51.1528C55.8282 50.96 55.879 47.9726 55.879 47.8806C55.879 47.1767 55.884 46.4725 55.8774 45.7684C55.8751 45.5471 55.9518 45.414 56.146 45.3215C58.4026 44.5634 59.587 44.7839 61.1008 45.3828Z" fill="#A19D98"/>
<path d="M56.3015 49.5304V46.1325C56.3015 46.0738 56.2999 46.0151 56.3015 45.9561C56.3065 45.7227 56.3253 45.6915 56.5364 45.6095C57.3299 45.2856 59.6497 44.9793 60.888 45.8485C61.0835 45.9578 61.1147 46.0694 61.1233 46.3339C61.1552 46.9289 61.0997 51.3496 61.1015 53.0524C61.1015 53.0862 61.1015 53.1199 61.1015 53.1534C61.0958 53.3961 61.0805 53.4076 60.8487 53.4589C59.4043 53.7782 57.9681 53.7361 56.5381 53.358C56.3262 53.3023 56.3151 53.2968 56.3146 53.0528C56.3127 52.2724 56.3127 51.4921 56.3146 50.712C56.3146 50.3176 56.3146 49.9232 56.3146 49.5289L56.3015 49.5304Z" fill="#45423D"/>
<path d="M57.2033 35.4314C57.2308 35.216 57.3547 35.1935 57.5931 35.253C57.8795 35.3436 58.1535 35.4738 58.4083 35.6404C58.9753 36.0003 59.5181 36.3965 59.9946 36.8881C60.1011 36.9979 60.2246 37.0896 60.3403 37.1888C60.3564 37.2612 60.3932 37.3266 60.4454 37.3761C60.5958 37.52 60.6162 37.6863 60.5856 37.8962C60.3357 37.8584 60.1952 37.6997 60.0367 37.5137C59.6063 37.0095 59.1034 36.6015 58.5703 36.23C58.2418 36.0011 57.739 35.751 57.3741 35.5963C57.2489 35.5434 57.1888 35.5466 57.2033 35.4314Z" fill="#DCF9FB"/>
<path d="M62.5562 26.9514C62.6405 27.0004 62.6947 27.0227 62.4776 27.227C62.2035 27.4885 62.0217 28.1481 62.0401 29.23C62.0579 29.947 62.0666 30.5855 62.6089 31.6043C62.5632 31.6799 62.5032 31.7355 62.415 31.747C61.497 30.7869 61.5856 27.8325 62.0393 27.0618C62.2271 26.855 62.3371 26.8315 62.5562 26.9514Z" fill="#DCF9FB"/>
</g>
</svg>
