<svg width="87" height="32" viewBox="0 0 87 32" fill="none" xmlns="http://www.w3.org/2000/svg">
    <path d="M20.3039 0.843089L17.1215 0L14.4396 9.89568L12.0183 0.961793L8.83581 1.80488L11.4518 11.4573L4.93595 5.01519L2.60622 7.31855L9.75332 14.3848L0.85274 12.0269L0 15.1733L9.725 17.7496C9.61366 17.2748 9.55475 16.7801 9.55475 16.2718C9.55475 12.6737 12.505 9.75688 16.1442 9.75688C19.7835 9.75688 22.7337 12.6737 22.7337 16.2718C22.7337 16.7768 22.6755 17.2685 22.5656 17.7405L31.4038 20.0819L32.2565 16.9355L22.4928 14.3489L31.394 11.9908L30.5412 8.8444L20.778 11.4308L27.2938 4.98875L24.9641 2.68539L17.9161 9.6536L20.3039 0.843089Z" fill="#39BEB7"/>
    <path d="M22.5563 17.7771C22.2834 18.9176 21.7074 19.9422 20.917 20.7631L27.3199 27.0936L29.6496 24.7902L22.5563 17.7771Z" fill="#39BEB7"/>
    <path d="M20.8524 20.8292C20.0524 21.637 19.0415 22.2398 17.9079 22.5504L20.2378 31.1473L23.4202 30.3041L20.8524 20.8292Z" fill="#39BEB7"/>
    <path d="M17.789 22.5819C17.2631 22.7156 16.7118 22.7866 16.1437 22.7866C15.535 22.7866 14.9456 22.705 14.3861 22.5523L12.0541 31.157L15.2365 32L17.789 22.5819Z" fill="#39BEB7"/>
    <path d="M14.2736 22.5206C13.1573 22.1945 12.1643 21.584 11.3807 20.7739L4.96209 27.12L7.29182 29.4233L14.2736 22.5206Z" fill="#39BEB7"/>
    <path d="M11.3279 20.7178C10.5577 19.9026 9.9967 18.8918 9.72968 17.7689L0.862598 20.1179L1.71533 23.2643L11.3279 20.7178Z" fill="#39BEB7"/>
    <path d="M41.6707 24.96V8.832H44.8757L51.8431 20.0294V8.832H54.7926V24.96H51.5876L44.6435 13.7856V24.96H41.6707Z" fill="#09090B"/>
    <path d="M68.3382 18.7622C68.3382 19.177 68.315 19.6838 68.2918 19.9142H59.6058C59.8612 21.6653 60.9993 22.7021 62.6714 22.7021C64.0417 22.7021 65.0171 22.057 65.319 20.928L68.0596 21.6653C67.4093 23.8541 65.3655 25.1443 62.625 25.1443C58.7465 25.1443 56.6795 22.1722 56.6795 19.1539C56.6795 16.1357 58.5839 13.1635 62.4624 13.1635C66.4106 13.1635 68.3382 16.0666 68.3382 18.7622ZM59.6754 17.7946H65.2029C65.0636 16.4122 64.1578 15.3754 62.4624 15.3754C61.0225 15.3754 60.0006 16.2278 59.6754 17.7946Z" fill="#09090B"/>
    <path d="M74.0615 25.1443C71.2281 25.1443 69.5327 23.4163 68.9521 21.7114L71.3442 20.7437C71.6926 21.9187 72.5983 22.8864 74.0615 22.8864C75.1531 22.8864 75.873 22.3104 75.873 21.5731C75.873 19.3843 69.4862 20.8128 69.4862 16.4122C69.4862 14.592 71.0887 13.1635 73.6435 13.1635C75.9195 13.1635 77.8471 14.3155 78.3581 15.9974L75.9892 16.9882C75.664 15.8822 74.6421 15.3062 73.6899 15.3062C72.7609 15.3062 72.1339 15.6979 72.1339 16.3661C72.1339 18.4166 78.5671 16.7808 78.5671 21.527C78.5671 23.5315 76.7556 25.1443 74.0615 25.1443Z" fill="#09090B"/>
    <path d="M87 24.8448C86.4194 25.0522 85.7923 25.1443 85.1188 25.1443C82.7499 25.1443 80.9848 23.8771 80.9848 21.1584V15.7901H79.0107V13.3478H80.9848V9.93792H83.9111V13.3478H86.8606V15.7901H83.9111V20.8819C83.9111 21.9878 84.515 22.5869 85.4207 22.5869C85.862 22.5869 86.3729 22.5178 86.791 22.3104L87 24.8448Z" fill="#09090B"/>
</svg>
