<svg width="32" height="32" viewBox="0 0 32 32" fill="none" xmlns="http://www.w3.org/2000/svg">
    <path d="M20.3039 0.843089L17.1215 0L14.4396 9.89568L12.0183 0.961793L8.83581 1.80488L11.4518 11.4573L4.93595 5.01519L2.60622 7.31855L9.75332 14.3848L0.85274 12.0269L0 15.1733L9.725 17.7496C9.61366 17.2748 9.55475 16.7801 9.55475 16.2718C9.55475 12.6737 12.505 9.75688 16.1442 9.75688C19.7835 9.75688 22.7337 12.6737 22.7337 16.2718C22.7337 16.7768 22.6755 17.2685 22.5656 17.7405L31.4038 20.0819L32.2565 16.9355L22.4928 14.3489L31.394 11.9908L30.5412 8.8444L20.778 11.4308L27.2938 4.98875L24.9641 2.68539L17.9161 9.6536L20.3039 0.843089Z" fill="#39BEB7"/>
    <path d="M22.5563 17.7771C22.2834 18.9176 21.7074 19.9422 20.917 20.7631L27.3199 27.0936L29.6496 24.7902L22.5563 17.7771Z" fill="#39BEB7"/>
    <path d="M20.8524 20.8292C20.0524 21.637 19.0415 22.2398 17.9079 22.5504L20.2378 31.1473L23.4202 30.3041L20.8524 20.8292Z" fill="#39BEB7"/>
    <path d="M17.789 22.5819C17.2631 22.7156 16.7118 22.7866 16.1437 22.7866C15.535 22.7866 14.9456 22.705 14.3861 22.5523L12.0541 31.157L15.2365 32L17.789 22.5819Z" fill="#39BEB7"/>
    <path d="M14.2736 22.5206C13.1573 22.1945 12.1643 21.584 11.3807 20.7739L4.96209 27.12L7.29182 29.4233L14.2736 22.5206Z" fill="#39BEB7"/>
    <path d="M11.3279 20.7178C10.5577 19.9026 9.9967 18.8918 9.72968 17.7689L0.862598 20.1179L1.71533 23.2643L11.3279 20.7178Z" fill="#39BEB7"/>
</svg>
