<svg width="300" height="300" viewBox="0 0 300 300" fill="none" xmlns="http://www.w3.org/2000/svg">
<path d="M33.9547 225.637L-3.51273e-06 191.682L41.6812 150.001C55.4583 136.224 73.2209 128.818 91.2934 127.752C86.3923 123.805 80.1761 121.427 73.4084 121.427H14.4601V73.4072H73.4084C92.892 73.4072 110.689 80.731 124.221 92.7562C123.547 86.4996 120.832 80.4212 116.047 75.6347L74.3657 33.9533L108.319 0L150 41.6814C163.777 55.4585 171.183 73.2229 172.249 91.2939C176.197 86.3928 178.573 80.1765 178.573 73.4072V14.4602H226.593V73.4087C226.593 92.8925 219.268 110.691 207.243 124.222C213.499 123.548 219.576 120.832 224.364 116.046L266.045 74.3645L300 108.319L258.319 150.001C244.542 163.778 226.778 171.182 208.707 172.248C213.608 176.196 219.825 178.573 226.593 178.573H285.54V226.593H226.593C207.11 226.593 189.311 219.267 175.779 207.242C176.453 213.5 179.168 219.577 183.953 224.364L225.636 266.045L191.681 300L149.997 258.319C136.221 244.541 128.816 226.777 127.751 208.706C123.803 213.607 121.427 219.823 121.427 226.593V285.541H73.4068V226.593C73.4068 207.109 80.7306 189.312 92.7542 175.781C86.4976 176.455 80.4208 179.169 75.6343 183.956L33.9531 225.637H33.9547Z" fill="black"/>
</svg>
