<?xml version="1.0" encoding="utf-8"?>
<!-- Generator: Adobe Illustrator 26.3.1, SVG Export Plug-In . SVG Version: 6.00 Build 0)  -->
<svg version="1.1" id="Layer_1" xmlns="http://www.w3.org/2000/svg" xmlns:xlink="http://www.w3.org/1999/xlink" x="0px" y="0px"
	 viewBox="0 0 400 400" style="enable-background:new 0 0 400 400;" xml:space="preserve">
<style type="text/css">
	.st0{fill:#FFFFFF;}
	.st1{fill:#00AAFF;}
	.st2{fill:#131026;}
</style>
<rect class="st0" width="400" height="400"/>
<g>
	<g id="blue_line_xA0_Image_00000012473551587193819300000015371612536656459448_">
		<rect x="72" y="192.3" class="st1" width="256" height="15"/>
	</g>
	<g id="open_xA0_Image_00000103987832934800012690000013001590619895154075_">
		<g>
			<path class="st2" d="M134.1,150.9c-5.3,5.4-12,8.2-20.3,8.2s-15.1-2.8-20.3-8.2c-5.3-5.4-8-12.2-8-20.4c0-8.2,2.7-15,7.9-20.4
				c5.3-5.5,12-8.2,20.3-8.2s15.1,2.8,20.4,8.2c5.3,5.4,7.9,12.2,7.9,20.4C142.1,138.7,139.4,145.5,134.1,150.9z M113.8,148.1
				c4.3,0,7.6-1.6,10.1-4.8c2.5-3.2,3.7-7.5,3.7-12.8c0-5.4-1.2-9.7-3.7-12.9s-5.8-4.8-10.1-4.8c-4.3,0-7.8,1.6-10.2,4.8
				c-2.4,3.2-3.6,7.5-3.6,13c0,5.3,1.2,9.6,3.6,12.8C106.1,146.5,109.4,148.1,113.8,148.1z"/>
			<path class="st2" d="M148.7,175.2v-71.9h13.8v6.8h0.3c4-5.5,9.3-8.2,15.9-8.2c7.1,0,12.8,2.7,17.1,7.9c4.3,5.3,6.4,12.2,6.4,20.7
				c0,8.8-2.1,15.6-6.4,20.8c-4.3,5.2-9.9,7.8-17,7.8s-12.2-2.6-15.6-7.7h-0.2v23.9H148.7z M175.9,147.2c3.6,0,6.5-1.4,8.7-4.4
				c2.2-2.9,3.2-6.8,3.2-11.9c0-5.4-1-9.6-3.1-12.8c-2-3.1-5.1-4.7-9.4-4.7c-4.3,0-7.4,1.6-9.5,4.8c-2.1,3.2-3.1,7.4-3.1,12.6
				c0,5,1.1,8.9,3.4,11.8C168.4,145.7,171.6,147.2,175.9,147.2z"/>
			<path class="st2" d="M234.4,159.1c-8.8,0-15.6-2.7-20.6-8.1c-5-5.4-7.5-12.2-7.5-20.6c0-8.1,2.5-14.8,7.5-20.3
				c5-5.4,11.4-8.2,19.2-8.2c8.5,0,15.1,2.9,19.8,8.8c4.6,5.9,6.9,13.8,6.9,23.7h-39.2c0.6,4.3,2,7.6,4.4,9.9
				c2.3,2.4,5.5,3.6,9.5,3.6c5.3,0,8.8-2.2,10.4-6.6H259c-1.1,5.1-3.8,9.3-8,12.6C246.6,157.4,241.1,159.1,234.4,159.1z M233.2,113
				c-6.9,0-11.1,3.8-12.6,11.6h24.1c-0.2-3.5-1.4-6.2-3.5-8.4C239.1,114,236.5,113,233.2,113z"/>
			<path class="st2" d="M280.5,103.4v7.4h0.3c3.8-5.9,9.1-8.8,16-8.8c5.6,0,10.1,1.9,13.5,5.7c3.5,3.8,5.2,8.7,5.2,14.6v35.3h-14.4
				v-33.2c0-3-0.8-5.3-2.5-7.2c-1.6-1.8-3.9-2.8-6.9-2.8c-3.2,0-5.8,1.2-7.9,3.5c-2.1,2.3-3.1,5.3-3.1,9v30.7h-14.4v-54.1H280.5z"/>
		</g>
		<g>
			<path class="st2" d="M99.9,298.1c-8.3,0-15.1-2.7-20.2-8.1c-5.1-5.4-7.6-12.2-7.6-20.5s2.5-15.1,7.4-20.5
				c5-5.4,11.5-8.1,19.6-8.1c6.8,0,12.4,1.8,16.7,5.4c4.3,3.6,7,8.4,7.9,14.5h-14.1c-0.5-2.5-1.6-4.5-3.4-6c-1.8-1.6-4-2.3-6.5-2.3
				c-4.2,0-7.5,1.5-9.7,4.6c-2.2,3-3.4,7.2-3.4,12.5c0,5.3,1.1,9.5,3.2,12.5c2.2,3.1,5.4,4.6,9.6,4.6c6.2,0,9.9-3,10.8-9.2h13.8
				c-0.5,6-2.9,10.9-7.3,14.9C112.7,296.1,106.9,298.1,99.9,298.1z"/>
			<path class="st2" d="M176.6,289.9c-5.3,5.4-12.1,8.2-20.3,8.2c-8.3,0-15.1-2.8-20.4-8.2c-5.3-5.5-7.9-12.2-7.9-20.4
				s2.7-15,7.9-20.4c5.3-5.4,12.1-8.2,20.4-8.2c8.3,0,15.1,2.8,20.3,8.2c5.3,5.4,7.9,12.3,7.9,20.4
				C184.4,277.7,181.8,284.5,176.6,289.9z M156.1,287.1c4.3,0,7.7-1.6,10.1-4.8c2.4-3.2,3.6-7.5,3.6-12.8c0-5.4-1.2-9.6-3.6-12.9
				c-2.4-3.2-5.8-4.9-10.1-4.9c-4.3,0-7.8,1.6-10.1,4.8c-2.4,3.2-3.6,7.5-3.6,12.9c0,5.4,1.2,9.6,3.6,12.8
				C148.4,285.5,151.8,287.1,156.1,287.1z"/>
			<path class="st2" d="M203.9,296.5l-18.8-54.2h14.6l8.6,28.1l2.4,8.6h0.2c0.5-2.3,1.2-5.2,2.3-8.6l8.9-28.1h14.4l-18.9,54.2H203.9
				L203.9,296.5z"/>
			<path class="st2" d="M265.2,298.1c-8.8,0-15.6-2.7-20.6-8c-5-5.4-7.5-12.2-7.5-20.6c0-8.1,2.5-14.9,7.5-20.3s11.4-8.2,19.2-8.2
				c8.5,0,15.1,2.9,19.8,8.9s7,13.9,7,23.8h-39.3c0.6,4.3,2,7.6,4.4,9.9c2.3,2.4,5.5,3.6,9.5,3.6c5.3,0,8.8-2.2,10.5-6.6h14.1
				c-1.1,5-3.8,9.3-8,12.6C277.4,296.4,271.9,298.1,265.2,298.1z M264,252c-6.9,0-11.1,3.9-12.5,11.6h24c-0.2-3.5-1.3-6.2-3.5-8.4
				C270,253.1,267.3,252,264,252z"/>
			<path class="st2" d="M311,242.4v8.6h0.3c1.7-3.1,3.6-5.5,5.6-7c2-1.5,4.6-2.2,7.7-2.2c1.5,0,2.6,0.1,3.4,0.4v12.6h-0.3
				c-4.9-0.5-8.8,0.6-11.7,3.2s-4.5,6.7-4.5,12.2v26.4h-14.3v-54.1H311z"/>
		</g>
	</g>
</g>
</svg>
