<svg width="1002" height="1002" viewBox="0 0 1002 1002" fill="none" xmlns="http://www.w3.org/2000/svg">
<rect width="1002" height="1002" fill="#979CD0"/>
<path d="M601.91 384.299C654.392 391.144 698.915 438.307 698.915 500.936C698.915 568.75 646.717 618.43 588.736 618.43C530.755 618.43 478.557 568.75 478.557 500.936C478.557 485.116 481.398 470.283 486.49 456.837C472.227 429.156 445.146 411.696 416.939 410.42C403.622 437.597 396.114 468.357 396.114 500.936C396.114 611.358 482.354 700.873 588.736 700.873C695.118 700.873 781.358 611.358 781.358 500.936C781.358 390.515 695.118 301 588.736 301C568.982 301 549.922 304.087 531.98 309.82C560.517 328.745 584.48 354.298 601.91 384.299Z" fill="#F4F5EC"/>
<path d="M570.617 385.067C552.696 358.952 528.877 337.499 501.179 322.802C473.48 337.499 449.662 358.952 431.74 385.067C459.255 390.028 484.213 406.081 501.179 429.534C518.145 406.081 543.102 390.028 570.617 385.067Z" fill="#F4F5EC"/>
<path d="M431.74 616.806C449.662 642.921 473.481 664.374 501.179 679.071C528.877 664.374 552.696 642.921 570.618 616.805C543.103 611.845 518.145 595.791 501.179 572.338C484.213 595.791 459.255 611.845 431.74 616.806Z" fill="#F4F5EC"/>
<path d="M515.868 545.035C520.96 531.59 523.801 516.756 523.801 500.936C523.801 433.123 471.603 383.443 413.622 383.443C355.641 383.443 303.443 433.123 303.443 500.936C303.443 563.566 347.965 610.729 400.447 617.573C417.877 647.575 441.84 673.128 470.378 692.052C452.436 697.786 433.376 700.873 413.622 700.873C307.24 700.873 221 611.358 221 500.936C221 390.515 307.24 301 413.622 301C520.004 301 606.243 390.515 606.243 500.936C606.243 533.516 598.736 564.275 585.419 591.453C557.211 590.176 530.131 572.716 515.868 545.035Z" fill="#F4F5EC"/>
</svg>
