<?xml version="1.0" encoding="UTF-8"?><svg id="Layer_1" xmlns="http://www.w3.org/2000/svg" xmlns:xlink="http://www.w3.org/1999/xlink" viewBox="0 0 110.41 63.61"><defs><style>.cls-1{fill:url(#linear-gradient);}.cls-1,.cls-2,.cls-3,.cls-4{stroke-width:0px;}.cls-2{fill:url(#linear-gradient-4);}.cls-3{fill:url(#linear-gradient-2);}.cls-4{fill:url(#linear-gradient-3);}</style><linearGradient id="linear-gradient" x1="69.61" y1="905.92" x2="110.12" y2="917.18" gradientTransform="translate(0 -877.99)" gradientUnits="userSpaceOnUse"><stop offset="0" stop-color="#000987"/><stop offset=".11" stop-color="#2248be"/><stop offset=".3" stop-color="#2774d0"/><stop offset="1" stop-color="#2c90e1"/></linearGradient><linearGradient id="linear-gradient-2" x1="9.9" y1="909.79" x2="100.52" y2="909.79" gradientTransform="translate(0 -877.99)" gradientUnits="userSpaceOnUse"><stop offset="0" stop-color="#d9403e"/><stop offset=".2" stop-color="#e4af0f"/><stop offset=".28" stop-color="#e3ad0c"/><stop offset=".75" stop-color="#d96c3f"/><stop offset=".89" stop-color="#d33e3c"/><stop offset="1" stop-color="#cf3e3a"/></linearGradient><linearGradient id="linear-gradient-3" x1="26.98" y1="907.53" x2="57.95" y2="910.43" gradientTransform="translate(0 -877.99)" gradientUnits="userSpaceOnUse"><stop offset="0" stop-color="#2143bc"/><stop offset=".47" stop-color="#2c7ff7"/><stop offset="1" stop-color="#2143bc"/></linearGradient><linearGradient id="linear-gradient-4" x1="-4.82" y1="907.65" x2="21.12" y2="910.03" gradientTransform="translate(0 -877.99)" gradientUnits="userSpaceOnUse"><stop offset=".56" stop-color="#2c90e2"/><stop offset=".88" stop-color="#2143bc"/><stop offset="1" stop-color="#000987"/></linearGradient></defs><path class="cls-1" d="m102.34,30.35l-1.83-.26c-5.69-.71-11.42-1.22-17.11-1.57-3.45-.26-6.9-.41-10.3-.56-.26.41-.56.86-.81,1.27-1.32,2.03-2.64,4.01-3.96,6.04,5.03-.15,10.05-.36,15.07-.66,6.45-.41,24.47-2.59,27.01-3.04-2.69-.51-5.38-.92-8.07-1.22Z"/><path class="cls-3" d="m87.93,0c-2.18,3.2-4.01,6.4-6.14,9.59-1.27-1.67-3.45-4.52-3.86-5.07-11.12,15.18-22.09,30.51-32.54,46.19C34.27,38.43,10,15.94,10,15.94c0,0,23.25,32.54,36.15,47.67l1.27-1.83c10.76-15.23,20.97-30.91,31.07-46.65,1.37,1.47,3.66,3.96,4.11,4.41.2-.41,4.06-6.14,5.59-9.03l12.44,17.11S92.45,9.85,87.93,0h0Z"/><path class="cls-4" d="m56.65,27.71c-8.99,0-18.02.26-27.01.86-.86.05-1.73.1-2.59.2,2.03,1.98,4.16,4.01,6.25,6.09,6.45.36,12.89.56,19.34.61.3-.41.56-.86.86-1.27l4.57-6.5c-.45,0-.96,0-1.42,0Z"/><path class="cls-2" d="m16.76,29.7c-4.72.51-12.03,1.07-16.76,1.93,5.74,1.01,14.06,1.73,19.8,2.23-1.07-1.42-2.08-2.84-3.04-4.16Z"/></svg>