<svg xmlns="http://www.w3.org/2000/svg" viewBox="0 0 64 54" aria-hidden="true" width="24px"><path fill="currentColor" fill-rule="evenodd" d="M13.3734 34.4709L14.3282 41.1736L9.55243 42.131L5.73146 41.1736L0 31.5987L1.91049 14.3628L8.59676 5.7453L17.1935 4.78789L25.7903 0L37.2541 5.7453L34.3879 8.61751C42.6664 9.89405 48.0796 10.8523 50.6266 11.4906C54.4476 12.448 61.1347 17.2359 62.0895 18.1933C63.0452 19.1507 62.5894 23.552 62.0895 26.8108C61.7557 28.9834 61.1191 30.579 60.179 31.5987L64 53.6216H55.4032L57.3137 51.7068L49.6718 35.4283L28.6564 38.3014L21.0162 53.6216H12.4195L15.2848 48.8337L21.0162 28.7256L17.1952 24.896L8.59676 26.8108L7.64108 34.4709L10.5064 37.344L13.3725 34.4709H13.3734ZM26.8108 45.7799L29.6649 39.8988L33.4703 38.9189L36.3243 53.6216H26.8108L28.7135 52.6417L26.8108 45.7799ZM45.1459 39.1222L48 37.1892L52.7568 45.4054L51.8054 53.6216H43.2432L45.1459 50.7217V39.1222V39.1222Z" clip-rule="evenodd"/></svg>