<svg width="60" height="60" viewBox="0 0 60 60" fill="none" xmlns="http://www.w3.org/2000/svg">
<path d="M43.9756 15C44.1496 15.0001 44.291 15.1414 44.291 15.3154V22.5586C44.291 22.7326 44.1496 22.874 43.9756 22.874H37.6719V29.5811H37.6787V37.1299H43.9756C44.1496 37.1299 44.291 37.2713 44.291 37.4453V44.6885C44.291 44.8625 44.1496 45.0038 43.9756 45.0039H36.7314C36.5575 45.0037 36.417 44.8624 36.417 44.6885V37.46H23.5771V44.6885C23.5771 44.8625 23.4357 45.0038 23.2617 45.0039H16.0176C15.8436 45.0038 15.7031 44.8625 15.7031 44.6885V37.4453C15.7031 37.2713 15.8436 37.13 16.0176 37.1299H22.0771V29.8955C22.0774 29.7216 22.2187 29.5811 22.3926 29.5811H29.3262V22.083C29.3264 21.9092 29.4668 21.7687 29.6406 21.7686H36.417V15.3154C36.417 15.1415 36.5575 15.0002 36.7314 15H43.9756ZM23.2617 15C23.4357 15.0001 23.5771 15.1414 23.5771 15.3154V22.5586C23.5771 22.7326 23.4357 22.8739 23.2617 22.874H16.0176C15.8436 22.8739 15.7031 22.7326 15.7031 22.5586V15.3154C15.7031 15.1414 15.8436 15.0001 16.0176 15H23.2617Z" fill="#181818"/>
</svg>
