<?xml version="1.0" encoding="UTF-8"?>
<svg id="Layer_1" data-name="Layer 1" xmlns="http://www.w3.org/2000/svg" viewBox="0 0 284 284">
  <path d="M80.76,270.15l6.63-30.64c7.4-34.18-18.64-66.46-53.61-66.46H3.41c9.58,42.94,38.61,78.55,77.36,97.1Z"/>
  <path d="M94.09,275.71c14.97,5.36,31.1,8.29,47.91,8.29,67.75,0,124.43-47.46,138.59-110.95h-92.69c-41.78,0-77.9,29.14-86.74,69.98l-7.07,32.68Z"/>
  <path d="M283.01,158.85c.65-5.53.99-11.16.99-16.86C284,67.49,226.64,6.38,153.67.45l-19.9,91.95c-7.4,34.18,18.64,66.46,53.61,66.46h95.63Z"/>
  <path d="M139.24,0C62.09,1.47,0,64.48,0,141.99c0,5.71.34,11.33.99,16.86h32.27c41.78,0,77.9-29.14,86.74-69.98L139.24,0Z"/>
</svg>