<?xml version="1.0" encoding="UTF-8"?>
<svg id="Layer_2" data-name="Layer 2" xmlns="http://www.w3.org/2000/svg" xmlns:xlink="http://www.w3.org/1999/xlink" viewBox="0 0 1024 1024">
  <defs>
    <style>
      .cls-1 {
        fill: url(#linear-gradient);
      }

      .cls-2 {
        fill: #1d1a54;
      }
    </style>
    <linearGradient id="linear-gradient" x1="19.34" y1="292.21" x2="949.25" y2="707.28" gradientUnits="userSpaceOnUse">
      <stop offset=".09" stop-color="#ed853b"/>
      <stop offset=".37" stop-color="#faa74e"/>
      <stop offset=".81" stop-color="#e19bc4"/>
      <stop offset="1" stop-color="#a5c5de"/>
    </linearGradient>
  </defs>
  <g id="Layer_3" data-name="Layer 3">
    <g>
      <circle class="cls-2" cx="512" cy="512" r="512"/>
      <path class="cls-1" d="M276.95,409.34h0c52.69-120.68,187.42-180.37,310.46-142.48l88.78-202.95C441-22.26,176.23,88.56,74.74,321.1c-101.5,232.54-2.86,501.93,220.12,615.61l88.52-202.95c-111.62-64.36-159.38-203.73-106.43-324.41ZM733.81,89.6h0s-380.81,872.29-380.81,872.29c233.88,82.79,495.54-28.03,596.26-259.01s4.41-498.04-215.45-613.27ZM503.56,768.27h-.26s189.75-437.83,189.75-437.83c15.32,15.31,28.55,32.44,39.46,50.61l-165.09,381.25c-20.77,4.67-42.31,6.75-63.86,5.97ZM747.05,614.63c-23.36,53.46-62.56,94.73-109.8,121.2l123.3-286.52c13.5,53.2,10.12,111.08-13.5,165.32h0Z"/>
    </g>
  </g>
</svg>