<?xml version="1.0" encoding="UTF-8" standalone="no"?>
<svg width="320" height="320" viewBox="0 0 320 320" fill="none" xmlns="http://www.w3.org/2000/svg">
<rect width="320" height="320" rx="160" fill="#2E4D40"/>
<rect x="39.6704" y="39.6704" width="240.66" height="240.66" rx="120.33" stroke="#E6F9E8" stroke-width="12.67"/>
<path d="M236.989 76.7519V67.9995L186.306 86.2785C188.98 85.3135 190.763 82.7775 190.763 79.9498V58.7119C190.763 58.3654 190.419 58.1239 190.093 58.2417L129.841 80.0233C129.445 80.1665 129.181 80.5425 129.181 80.9637V103.738C129.181 105.623 127.996 107.318 126.202 107.957L96.2574 118.763C88.3255 121.636 83 129.199 83 137.592C83 145.346 87.5696 152.482 94.6552 155.747L182.47 196.39C184.523 197.344 185.855 199.408 185.855 201.652V206.814L83 244.056V253L133.638 234.653C130.964 235.618 129.181 238.154 129.181 240.982V262.287C129.181 262.634 129.525 262.875 129.851 262.757L190.103 240.976C190.499 240.833 190.763 240.456 190.763 240.035V217.115C190.763 215.23 191.947 213.547 193.73 212.896L223.765 202.023C231.674 199.139 236.989 191.587 236.989 183.216V182.588C236.989 174.834 232.419 167.709 225.345 164.432L136.864 123.42C134.811 122.466 133.48 120.401 133.48 118.157V114.185L236.989 76.7519Z" fill="#E6F9E8"/>
</svg>
