<?xml version="1.0" encoding="UTF-8"?>
<svg id="Layer_1" xmlns="http://www.w3.org/2000/svg" version="1.1" viewBox="0 0 400 400">
  <!-- Generator: Adobe Illustrator 29.0.1, SVG Export Plug-In . SVG Version: 2.1.0 Build 192)  -->
  <defs>
    <style>
      .st0 {
        fill: #0e0129;
      }

      .st1 {
        fill: #0af;
      }

      .st2 {
        isolation: isolate;
      }

      .st3 {
        fill: #fff;
      }
    </style>
  </defs>
  <rect class="st0" width="400" height="400"/>
  <rect class="st1" x="52.3" y="192" width="295.4" height="16"/>
  <g>
    <g class="st2">
      <path class="st3" d="M124.1,138.8c-19.5,19.5-55.4,5.9-54.5-22.6-.4-18.2,13.6-32.2,31.7-31.7,28.6-1.3,41.7,35.3,22.6,54.5h.1ZM101.3,136c20.9.4,20.9-39.9,0-39.5-20.9-.9-20.9,39.9,0,39.5Z"/>
    </g>
    <g class="st2">
      <path class="st3" d="M290.9,85.7v8.2h.4c6.3-11.8,24.5-13.1,33.1-3.6,3.6,4,5.9,9.5,5.9,16.3v39.5h-15.9v-37.2c0-3.2-.9-5.9-2.7-8.2-8.2-7.7-20.9,0-19.9,10.9v34.5h-15.9v-60.4h15-.1Z"/>
    </g>
    <g class="st2">
      <path class="st3" d="M140.8,166v-80.3h15.4v7.7h.4c8.6-12.7,28.1-11.8,36.8-.4,5,5.9,7.2,13.6,7.2,23.1s-2.3,17.7-7.2,23.1c-8.2,10.9-29,12.3-36.3,0h-.4v26.8h-15.9ZM171.2,134.7c18.6.4,18.2-38.5-.4-37.6-19.5-.4-19.5,39.1.4,37.6Z"/>
    </g>
    <g class="st2">
      <path class="st3" d="M239.3,148.3c-29.5,1.3-40.8-35.3-23.1-54.9,10.4-12.3,34-12.3,43.5.9,5,6.8,7.7,15.4,7.7,26.4h-43.5c2.1,20,25.1,17.8,27.2,7.7h15.9c-3.2,12.3-14.5,19.9-27.7,19.9h0ZM237.9,96.6c-7.7,0-12.3,4.5-14.1,13.1h26.8c0-7.7-5.5-13.1-12.7-13.1Z"/>
    </g>
  </g>
  <g>
    <g class="st2">
      <path class="st3" d="M276,321c-29.5,1.3-40.7-35.2-23-54.8,10.4-12.2,33.9-12.2,43.4.9,5,6.8,7.6,15.4,7.6,26.3h-43.4c2.1,20,25,17.8,27.2,7.6h15.8c-3.2,12.2-14.5,19.9-27.6,19.9h0ZM274.5,269.4c-7.6,0-12.2,4.5-14.1,13.1h26.7c0-7.6-5.5-13.1-12.7-13.1h0Z"/>
    </g>
    <path class="st3" d="M182.2,258.6h16.3c3.2,10.8,10.7,34.6,12.2,40.7h.4c.9-6.3,10.4-34.4,12.7-40.7h15.8l-21.3,60.2h-15.4l-20.8-60.2h.1Z"/>
    <g class="st2">
      <path class="st3" d="M82.7,321c-28.9,1.3-40.3-35.2-22.6-54.8,14.1-16.3,47-10.4,49.3,13.1h-15.8c-1.3-10.4-16.3-12.2-21.7-4-2.7,3.2-3.6,8.2-3.6,14.1s1.3,10.4,3.6,14.1c5.9,8.6,22.2,6.3,22.6-5h15.4c-.9,13.5-12.7,22.6-27.2,22.6Z"/>
    </g>
    <g class="st2">
      <path class="st3" d="M172.3,311.5c-19.4,19.4-55.2,5.9-54.3-22.6-.4-18.1,13.5-32.1,31.6-31.6,28.5-1.3,41.1,35.2,22.6,54.3h.1ZM149.7,308.7c20.8.4,20.8-39.8,0-39.4-20.8-.9-20.8,39.8,0,39.4Z"/>
    </g>
    <path class="st3" d="M329.3,258.6v9.5h.4c3.6-7.6,10.4-11.8,18.5-9.9v14.1h-.4c-11.3-1.3-18.1,5.5-18.1,17.2v29.5h-15.8v-60.2h15.4Z"/>
  </g>
</svg>