<?xml version="1.0" encoding="UTF-8"?>
<svg id="Layer_1" data-name="Layer 1" xmlns="http://www.w3.org/2000/svg" xmlns:xlink="http://www.w3.org/1999/xlink" viewBox="0 0 320 320">
  <defs>
    <style>
      .cls-1 {
        fill: #fff;
      }

      .cls-2 {
        fill: none;
      }

      .cls-3 {
        fill: url(#linear-gradient);
      }

      .cls-4 {
        clip-path: url(#clippath);
      }
    </style>
    <clipPath id="clippath">
      <rect class="cls-2" width="320" height="320"/>
    </clipPath>
    <linearGradient id="linear-gradient" x1="38.29" y1="53.4" x2="279.01" y2="264.24" gradientUnits="userSpaceOnUse">
      <stop offset="0" stop-color="#222d31" stop-opacity=".8"/>
      <stop offset=".69" stop-color="#231f20"/>
    </linearGradient>
  </defs>
  <g class="cls-4">
    <g>
      <circle class="cls-3" cx="160" cy="160" r="160"/>
      <path class="cls-1" d="M252.76,125.9l-70.27,121.71c-2.12,3.67-5.18,6.72-8.85,8.84-3.67,2.12-7.84,3.23-12.08,3.23s-8.41-1.11-12.08-3.23c-3.67-2.12-6.73-5.17-8.85-8.84l-12.32-21.32c-.04-.05-.06-.12-.05-.18,0-.07.04-.12.1-.16.05-.04.12-.06.18-.05.07,0,.12.04.16.1,2.2,2.17,4.86,3.81,7.79,4.79,2.93.98,6.04,1.28,9.1.87,3.06-.41,5.99-1.51,8.56-3.22,2.57-1.71,4.71-3.99,6.27-6.66l58.82-101.99c1.55-2.69,2.46-5.71,2.66-8.81.2-3.1-.32-6.21-1.51-9.08-1.19-2.87-3.03-5.42-5.37-7.47-2.34-2.04-5.12-3.52-8.12-4.32-.07,0-.13-.03-.18-.07-.05-.05-.07-.11-.07-.18s.03-.13.07-.18c.05-.05.11-.07.18-.07h24.93c4.24,0,8.41,1.13,12.08,3.25,3.67,2.12,6.72,5.18,8.84,8.85,2.12,3.68,3.24,7.85,3.23,12.09,0,4.24-1.12,8.41-3.24,12.09h0ZM169.58,89.62h-24.36c-.05.02-.09.05-.12.09-.03.04-.05.09-.05.15s.02.1.05.15c.03.04.07.07.12.09,1.64.63,3.12,1.61,4.35,2.87,1.23,1.26,2.17,2.77,2.76,4.43.59,1.66.81,3.42.66,5.17s-.69,3.45-1.56,4.98l-35.51,61.42c-.92,1.56-2.17,2.89-3.66,3.91-1.49,1.02-3.19,1.69-4.98,1.97-1.79.28-3.61.16-5.35-.34-1.74-.51-3.34-1.39-4.69-2.59-.04-.05-.1-.09-.16-.1-.07,0-.13,0-.18.05-.05.04-.09.1-.1.16,0,.06,0,.13.05.18l12.47,21.64c1.4,2.43,3.42,4.45,5.84,5.85,2.43,1.4,5.18,2.14,7.99,2.14s5.56-.74,7.98-2.14c2.43-1.4,4.44-3.42,5.84-5.85l46.45-80.29c1.4-2.43,2.14-5.18,2.14-7.98,0-2.8-.74-5.56-2.14-7.98-1.4-2.43-3.42-4.44-5.85-5.84-2.43-1.4-5.18-2.13-7.99-2.13h0ZM85.02,89.62c-4.16,0-8.22,1.23-11.68,3.54-3.46,2.31-6.15,5.59-7.74,9.43-1.59,3.84-2.01,8.07-1.2,12.14.81,4.08,2.81,7.82,5.75,10.76,2.94,2.94,6.69,4.94,10.76,5.75,4.08.81,8.3.4,12.14-1.2,3.84-1.59,7.12-4.28,9.43-7.74s3.54-7.52,3.54-11.68c0-2.76-.54-5.5-1.59-8.05-1.06-2.55-2.6-4.87-4.56-6.82-1.95-1.95-4.27-3.5-6.82-4.56-2.55-1.06-5.29-1.6-8.05-1.59h0Z"/>
    </g>
  </g>
</svg>