<svg xmlns="http://www.w3.org/2000/svg" fill="none" viewBox="0 0 60 60" aria-hidden="true" width="24px"><path fill="#FED955" d="M15 25h-5v-5h5zm0 10h-5v-5h5zm0-5h-5v-5h5zm0 10h-5v-5h5zm20-25h-5v-5h5zm0 30h-5v5h5zm5-30h-5v-5h5z"/><path fill="#9695F8" d="M45 15h-5v-5h5zm-30 0h5v-5h-5zm30 30h5v-5h-5zm-30 0h-5v-5h5zm25-35h-5V5h5z"/><path fill="#5552FD" d="M40 5h-5V0h5zm0 55h-5v-5h5z"/><path fill="#9695F8" d="M40 55h-5v-5h5zM30 10h-5V5h5z"/><path fill="#5552FD" d="M30 5h-5V0h5zm0 55h-5v-5h5z"/><path fill="#9695F8" d="M30 55h-5v-5h5zm5-45h-5V5h5z"/><path fill="#5552FD" d="M35 5h-5V0h5zm0 55h-5v-5h5z"/><path fill="#9695F8" d="M35 55h-5v-5h5zM25 10h-5V5h5z"/><path fill="#5552FD" d="M25 5h-5V0h5zm0 55h-5v-5h5z"/><path fill="#9695F8" d="M25 55h-5v-5h5zm25-35h-5v-5h5zm-40 0h5v-5h-5zm30 30h5v-5h-5zm-20 0h-5v-5h5zm35-25h-5v-5h5zm-45 0H5v-5h5z"/><path fill="#5552FD" d="M5 25H0v-5h5zm5-5H5v-5h5zm40 0h5v-5h-5zm-5 35h-5v-5h5zM5 45v-5h5v5zm10-30h-5v-5h5zm30 0h5v-5h-5zm5 35h-5v-5h5zm-40 0v-5h5v5zm10-40h-5V5h5zm20 0h5V5h-5zm15 35h-5v-5h5zM15 55v-5h5v5zm45-30h-5v-5h5z"/><path fill="#9695F8" d="M55 30h-5v-5h5zm-45 0H5v-5h5z"/><path fill="#5552FD" d="M5 30H0v-5h5zm55 0h-5v-5h5z"/><path fill="#9695F8" d="M55 35h-5v-5h5zm-45 0H5v-5h5z"/><path fill="#5552FD" d="M5 35H0v-5h5zm55 0h-5v-5h5z"/><path fill="#9695F8" d="M55 40h-5v-5h5zm-45 0H5v-5h5z"/><path fill="#5552FD" d="M5 40H0v-5h5zm55 0h-5v-5h5z"/><path fill="#FED955" d="M40 45h-5v5h5zm-5-20h-5v-5h5zm0 10h-5v-5h5zm0 5h-5v-5h5zm0-20h-5v-5h5zm0 20h-5v5h5zm-10-5h-5v-5h5zm0-5h-5v-5h5zm0 10h-5v-5h5zm0-20h-5v-5h5zm0 20h-5v5h5zm15-5h-5v-5h5zm0-5h-5v-5h5zm0 10h-5v-5h5zm0-20h-5v-5h5zm0 20h-5v5h5zM30 15h-5v-5h5zm0 30h-5v5h5zm-5-30h-5v-5h5zm0 30h-5v5h5zm5-20h-5v-5h5zm0 10h-5v-5h5z"/><path fill="#5552FD" d="M25 25h-5v-5h5zm10 5h-5v-5h5zm10-5h-5v-5h5zm0 10h-5v-5h5zm0-5h-5v-5h5zm0 10h-5v-5h5zm0-20h-5v-5h5zm0 20h-5v5h5zM20 25h-5v-5h5zm0 10h-5v-5h5zm0-5h-5v-5h5zm0 10h-5v-5h5zm0-20h-5v-5h5zm0 20h-5v5h5zm20-15h-5v-5h5zm-10 5h-5v-5h5z"/><path fill="#FED955" d="M30 40h-5v-5h5zm0-20h-5v-5h5zm0 20h-5v5h5zm20-15h-5v-5h5zm0 10h-5v-5h5zm0-5h-5v-5h5zm0 10h-5v-5h5z"/></svg>