<svg xmlns="http://www.w3.org/2000/svg" viewBox="0 0 195.08 217.26" aria-hidden="true" width="24px"><defs><linearGradient id="linear-gradient" x1="23.32" x2="171.76" y1="82.13" y2="82.13" gradientUnits="userSpaceOnUse"><stop offset="0" stop-color="#e168fd"/><stop offset="1" stop-color="#7b00fc"/></linearGradient><style>.cls-1{fill:#2d3d66}</style></defs><g id="Layer_2" data-name="Layer 2"><g id="Layer_1-2" data-name="Layer 1"><path d="M25.66 196.69a.71.71 0 0 1 .72-.72H29a.73.73 0 0 1 .72.72v19.55a.73.73 0 0 1-.72.76h-2.62a.71.71 0 0 1-.72-.72zm14.01-.42a.72.72 0 0 1 .57-.3h3a.64.64 0 0 1 .48 1.08l-7.21 8.12a1.1 1.1 0 0 0 0 1.42l7.8 9.32a.66.66 0 0 1-.54 1.05h-3.29a.65.65 0 0 1-.54-.21l-8-9.87a1.5 1.5 0 0 1 0-2zm42.09-.6A10.8 10.8 0 1 1 71 206.5a10.78 10.78 0 0 1 10.76-10.83zm0 17.69a6.9 6.9 0 1 0-6.87-6.86 6.9 6.9 0 0 0 6.87 6.86zm47.73-17.69a10.8 10.8 0 1 1-10.77 10.83 10.78 10.78 0 0 1 10.77-10.83zm0 17.69a6.9 6.9 0 1 0-6.87-6.86 6.9 6.9 0 0 0 6.87 6.86zm17.71-16.82a.57.57 0 0 1 .57-.57h2.76a.59.59 0 0 1 .57.57v16.82h7.65a.57.57 0 0 1 .57.57v2.46a.57.57 0 0 1-.57.57h-11a.57.57 0 0 1-.57-.57zm20.71 0a.59.59 0 0 1 .57-.57h2.79a.59.59 0 0 1 .57.57v19.85a.59.59 0 0 1-.57.57h-2.79a.59.59 0 0 1-.57-.57zM181.44 214l1.08-1.86a.7.7 0 0 1 1-.21c.15.09 2.57 1.86 4.52 1.86a2.5 2.5 0 0 0 2.73-2.31c0-1.52-1.29-2.57-3.81-3.59-2.81-1.14-5.63-2.94-5.63-6.48 0-2.67 2-5.76 6.74-5.76a10.56 10.56 0 0 1 6 2 .74.74 0 0 1 .18 1l-1.14 1.71a.79.79 0 0 1-1 .36c-.24-.15-2.52-1.65-4.17-1.65a2.38 2.38 0 0 0-2.63 2.1c0 1.41 1.1 2.37 3.53 3.36 2.91 1.17 6.27 2.91 6.27 6.77 0 3.09-2.67 5.94-6.9 5.94a9.64 9.64 0 0 1-6.59-2.34c-.3-.25-.45-.4-.18-.9zm-161.5 2.18L10.7 196a.51.51 0 0 0-.51-.33h-.3a.54.54 0 0 0-.51.33L.06 216.18a.53.53 0 0 0 .51.78h2.61a.9.9 0 0 0 .87-.6l1.47-3.24L7 209.8l2.93-6.6H10l2.82 6.18a.58.58 0 0 1-.18.69l-3.29 2.5a.31.31 0 0 0 .19.55h4.57a.55.55 0 0 1 .51.34l1.32 2.9a.86.86 0 0 0 .87.6h2.61a.53.53 0 0 0 .52-.78zM62 210.46h-3.14a.3.3 0 0 0-.26.44l2.93 5.79a.51.51 0 0 0 .47.31h3.15a.57.57 0 0 0 .51-.87l-2.67-5a1.11 1.11 0 0 0-.99-.67z" class="cls-1"/><path d="M61.56 208.48a6.07 6.07 0 0 0 4.44-6.06 6.5 6.5 0 0 0-6.54-6.42h-8.57a.57.57 0 0 0-.57.57v19.85a.57.57 0 0 0 .57.57h2.76a.59.59 0 0 0 .57-.57v-7.64h3.32a34 34 0 0 0 4.02-.3zm-7.31-8.91h4.88a3 3 0 0 1 3 2.91 3.06 3.06 0 0 1-3 3.06h-4.88zm55.55 8.91a6.06 6.06 0 0 0 4.43-6.06 6.49 6.49 0 0 0-6.53-6.42h-8.58a.57.57 0 0 0-.57.57v19.85a.57.57 0 0 0 .57.57h2.76a.59.59 0 0 0 .57-.57v-7.64h3.33a34 34 0 0 0 4.02-.3zm-7.32-8.91h4.89a3 3 0 0 1 3 2.91 3.06 3.06 0 0 1-3 3.06h-4.89z" class="cls-1"/><path d="M97.54 164.25A23.13 23.13 0 0 1 86 161.17l-51.14-29.53a23.14 23.14 0 0 1-11.54-20V52.6a23.14 23.14 0 0 1 11.54-20L86 3.08a23.12 23.12 0 0 1 23.08 0l51.14 29.52a23.14 23.14 0 0 1 11.54 20v59.06a23.14 23.14 0 0 1-11.54 20l-51.14 29.53a23.13 23.13 0 0 1-11.54 3.06zM97.54 8A15 15 0 0 0 90 10L38.86 39.55a15.09 15.09 0 0 0-7.53 13.05v59.06a15.12 15.12 0 0 0 7.53 13L90 154.23a15.09 15.09 0 0 0 15.06 0l51.15-29.53a15.09 15.09 0 0 0 7.53-13V52.6a15.09 15.09 0 0 0-7.53-13.05L105.07 10a15.07 15.07 0 0 0-7.53-2zm0 129.45a12.43 12.43 0 0 1-6.22-1.67l-37.15-21.43A12.46 12.46 0 0 1 48 103.57V60.68a12.48 12.48 0 0 1 6.17-10.78l37.15-21.44a12.47 12.47 0 0 1 12.45 0l37.14 21.44a12.48 12.48 0 0 1 6.22 10.78v42.89a12.47 12.47 0 0 1-6.22 10.78l-37.15 21.44a12.43 12.43 0 0 1-6.22 1.67zm0-104.66a6.37 6.37 0 0 0-3.22.86L57.17 55.1A6.48 6.48 0 0 0 54 60.68v42.89a6.47 6.47 0 0 0 3.23 5.58l37.14 21.44a6.44 6.44 0 0 0 6.44 0l37.15-21.44a6.48 6.48 0 0 0 3.22-5.58V60.68a6.47 6.47 0 0 0-3.23-5.58l-37.19-21.44a6.35 6.35 0 0 0-3.22-.86zm0 77.47a6.46 6.46 0 0 1-3.19-.85L75.5 98.54A6.41 6.41 0 0 1 72.31 93V71.24a6.38 6.38 0 0 1 3.19-5.52l18.85-10.88a6.38 6.38 0 0 1 6.38 0l18.85 10.88a6.38 6.38 0 0 1 3.19 5.52V93a6.41 6.41 0 0 1-3.19 5.53l-18.85 10.88a6.46 6.46 0 0 1-3.19.86zm0-52.28a2.4 2.4 0 0 0-1.19.31L77.5 69.19a2.38 2.38 0 0 0-1.19 2V93a2.41 2.41 0 0 0 1.19 2.06L96.35 106a2.41 2.41 0 0 0 2.38 0l18.85-10.88a2.4 2.4 0 0 0 1.18-2.12V71.24a2.37 2.37 0 0 0-1.18-2L98.73 58.3a2.4 2.4 0 0 0-1.19-.3z" style="fill:url(#linear-gradient)"/></g></g></svg>