<svg xmlns="http://www.w3.org/2000/svg" fill="none" viewBox="0 0 256 256" aria-hidden="true" width="24px"><path stroke="#000" stroke-width=".01" d="M128 255c70.14 0 127-56.86 127-127S198.14 1 128 1 1 57.86 1 128s56.86 127 127 127z"/><path fill="#fff" d="m17.499 142.328 10.379 23.966 50.008 48.883-6.415-21.09-53.972-51.759zm110.515-2.298 1.511 25.089 52.152 48.83 3.369-21.195-57.032-52.724z"/><path fill="url(#a)" d="M17 141.182 127.524 40l111.375 98.645-53.853 54.109-57.032-52.724-56.543 54.058L17 141.182z"/><path stroke="#27363B" stroke-linecap="round" stroke-linejoin="round" stroke-width="3" d="M127.524 40 17 141.182m221.899-2.537L127.524 40M71.47 194.087l56.544-54.176m0 0 57.032 52.843m0 0 53.853-54.109M17 141.182l54.47 52.905m58.055-28.968-51.638 50.058m103.79-1.228-52.152-48.83m101.542-1.176-49.39 50.006m-103.791 1.228-50.008-48.883M17 141.182l10.878 25.112m203.189-2.35 7.832-25.299m-110.885 1.266 1.511 25.208M71.47 194.087l6.416 21.09m107.16-22.423-3.369 21.195"/><path fill="#27363B" stroke="#27363B" stroke-miterlimit="10" d="m71.47 194.087 6.416 21.09 51.639-50.058-1.511-25.208-56.543 54.176zm113.576-1.333-3.37 21.195 49.391-50.005 6.568-24.033-52.589 52.843z"/><defs><linearGradient id="a" x1="17.002" x2="238.899" y1="117.043" y2="117.043" gradientUnits="userSpaceOnUse"><stop offset=".099" stop-color="#27363B"/><stop offset=".309" stop-color="#EB4960"/><stop offset=".506" stop-color="#F4837D"/><stop offset=".688" stop-color="#FCD5B4"/><stop offset=".96" stop-color="#99B998"/></linearGradient></defs></svg>