<svg xmlns="http://www.w3.org/2000/svg" fill="none" viewBox="0 0 313 313" aria-hidden="true" width="24px"><g filter="url(#filter0_d_10_1251)"><g clip-path="url(#clip0_10_1251)"><rect width="305" height="305" x="4" fill="url(#paint0_linear_10_1251)" rx="152.5"/><path fill="#F1F1F1" d="M239.97 144.161C237.855 143.709 235.651 143.273 233.364 142.855C232.711 137.593 231.569 132.491 229.986 127.6C259.712 132.384 278.932 139.99 278.932 148.556C278.932 148.652 278.93 148.747 278.925 148.842C278.216 163.19 223.585 174.775 156.296 174.775C88.5656 174.775 33.6594 163.038 33.6594 148.56C33.6594 148.471 33.6615 148.382 33.6657 148.293C34.0594 139.735 53.6381 132.158 83.6491 127.434C82.0569 132.319 80.9043 137.415 80.2403 142.672C77.5898 143.146 75.0478 143.643 72.6222 144.161C69.4443 144.841 66.5362 145.542 63.8982 146.254V146.258C61.084 147.017 58.577 147.789 56.3776 148.558C60.6387 150.048 66.0542 151.547 72.6222 152.951C74.8472 153.427 77.1701 153.884 79.5849 154.322L79.5849 154.326C99.8801 158.008 126.663 160.311 156.296 160.311C186.414 160.311 213.588 157.932 233.999 154.144L233.999 154.14C236.059 153.758 238.051 153.361 239.97 152.951C246.54 151.546 251.958 150.047 256.22 148.556C251.958 147.065 246.54 145.566 239.97 144.161Z"/><path fill="#F1F1F1" d="M248.688 103.34C248.692 103.272 248.693 103.204 248.693 103.135C248.693 95.4059 228.164 88.7105 198.223 85.4471C205.348 90.1698 211.679 96.0747 216.96 102.896C217.348 102.975 217.733 103.055 218.113 103.135C217.837 103.194 217.558 103.252 217.278 103.31L217.28 103.313C202.025 106.449 180.739 108.483 156.856 108.483C132.914 108.483 111.582 106.439 96.3191 103.29L96.3217 103.286C96.0791 103.236 95.8381 103.186 95.5986 103.135C95.9286 103.066 96.2615 102.997 96.5974 102.928C101.877 96.1011 108.207 90.1912 115.333 85.4642C85.4768 88.7338 65.0187 95.4194 65.0187 103.135V103.138L65.0185 103.139C65.0185 112.795 109.481 120.469 139.449 122.591C146.154 123.065 156.654 123.099 156.654 123.099C160.36 123.26 167.111 123.07 173.789 122.61C203.92 120.532 248.245 112.942 248.688 103.34Z"/><path fill="#F1F1F1" d="M65.0187 203.334C65.0187 198.284 73.782 193.675 88.2079 190.177C90.5097 194.792 93.2294 199.146 96.3149 203.184C96.0746 203.234 95.8359 203.284 95.5986 203.334C95.9255 203.403 96.2553 203.471 96.5879 203.539C96.6096 203.567 96.6312 203.595 96.6529 203.623H96.9822C112.197 206.696 133.259 208.681 156.856 208.681C180.453 208.681 201.515 206.696 216.729 203.623H216.929C216.942 203.606 216.956 203.588 216.969 203.571C217.354 203.493 217.736 203.414 218.113 203.334C217.839 203.276 217.563 203.218 217.284 203.161C220.369 199.121 223.087 194.766 225.388 190.148C239.883 193.65 248.693 198.27 248.693 203.334C248.693 203.43 248.69 203.527 248.684 203.623C247.975 214.431 207.133 223.144 156.856 223.144C106.578 223.144 65.7367 214.431 65.0279 203.623C65.0214 203.527 65.0187 203.43 65.0187 203.334Z"/></g></g><defs><filter id="filter0_d_10_1251" width="313" height="313" x="0" y="0" color-interpolation-filters="sRGB" filterUnits="userSpaceOnUse"><feFlood flood-opacity="0" result="BackgroundImageFix"/><feColorMatrix in="SourceAlpha" result="hardAlpha" type="matrix" values="0 0 0 0 0 0 0 0 0 0 0 0 0 0 0 0 0 0 127 0"/><feOffset dy="4"/><feGaussianBlur stdDeviation="2"/><feComposite in2="hardAlpha" operator="out"/><feColorMatrix type="matrix" values="0 0 0 0 0 0 0 0 0 0 0 0 0 0 0 0 0 0 0.25 0"/><feBlend in2="BackgroundImageFix" mode="normal" result="effect1_dropShadow_10_1251"/><feBlend in="SourceGraphic" in2="effect1_dropShadow_10_1251" mode="normal" result="shape"/></filter><linearGradient id="paint0_linear_10_1251" x1="283.204" x2="44.388" y1="19.316" y2="275.692" gradientUnits="userSpaceOnUse"><stop stop-color="#5D24C6"/><stop offset="1" stop-color="#9C4ED6"/></linearGradient><clipPath id="clip0_10_1251"><rect width="305" height="305" x="4" fill="white" rx="152.5"/></clipPath></defs></svg>