<svg xmlns="http://www.w3.org/2000/svg" fill="none" viewBox="0 0 256 256" aria-hidden="true" width="24px"><path fill="#70D44B" d="M128 0c70.667 0 128 57.333 128 128s-57.333 128-128 128S0 198.667 0 128 57.333 0 128 0z"/><path fill="#fff" d="M128 52.267c6.756 0 12.889 3.822 15.911 9.866l49.956 100c4.355 8.8.8 19.467-8 23.823a17.554 17.554 0 0 1-7.912 1.866h-99.91c-9.778 0-17.778-8-17.778-17.778 0-2.755.622-5.511 1.866-7.911l49.956-100c3.022-6.133 9.155-9.955 15.911-9.866zM128 40c-11.378 0-21.778 6.4-26.844 16.622l-49.956 100c-7.378 14.845-1.422 32.8 13.422 40.267 4.178 2.044 8.8 3.2 13.422 3.2h100c16.534 0 30.045-13.422 30.045-29.956 0-4.622-1.067-9.244-3.2-13.422L154.844 56.622C149.778 46.4 139.378 40 128 40z"/></svg>