<svg xmlns="http://www.w3.org/2000/svg" fill="none" viewBox="0 0 500 500" aria-hidden="true" width="24px"><path fill="#3772FF" d="M250 500C388.071 500 500 388.071 500 250C500 111.929 388.071 0 250 0C111.929 0 0 111.929 0 250C0 388.071 111.929 500 250 500Z"/><path fill="white" d="M99.8655 208.512C129.66 208.512 156.868 208.512 185.885 208.512C176.584 194.505 168.393 181.708 159.593 169.365C158.284 167.512 154.135 167.209 151.294 167.191C127.312 167.021 103.338 167.361 79.3712 166.831C75.6449 166.756 70.9102 163.958 68.5312 160.896C61.9102 152.315 56.2593 142.901 49.3842 132.542C53.1797 132.24 55.7434 131.843 58.3071 131.843C95.2 131.805 132.093 131.956 168.97 131.692C174.906 131.654 178.355 133.62 181.673 138.686C202.891 171.085 224.433 203.276 246.567 236.563C248.669 233.898 250.462 231.97 251.902 229.797C272.173 199.363 292.275 168.835 312.769 138.572C314.871 135.472 319.205 132.107 322.547 132.07C361.28 131.616 400.005 131.786 438.738 131.824C440.162 131.824 441.578 132.221 444.458 132.637C436.951 143.997 430.346 154.488 423.094 164.487C421.731 166.378 417.743 166.964 414.979 166.983C390.997 167.172 367.023 167.266 343.041 166.964C337.505 166.888 334.133 168.552 331.123 173.448C324.148 184.846 316.495 195.809 308.088 208.512C337.028 208.512 364.367 208.512 393.984 208.512C385.8 220.931 379.064 231.649 371.665 241.875C370.303 243.747 366.261 244.238 363.443 244.257C340.701 244.465 317.935 244.73 295.208 244.238C287.355 244.068 282.428 246.222 277.978 253.273C267.908 269.284 267.615 268.887 277.978 283.99C288.056 298.659 297.995 313.441 307.603 328.45C324.818 355.329 323.509 390.355 304.693 415.137C285.4 440.561 253.119 450.712 223.771 440.58C194.438 430.448 174.205 402.34 174.005 370.356C173.89 354.61 178.263 339.999 187.209 326.88C198.834 309.849 209.974 292.478 221.669 275.503C225.002 270.664 224.471 267.432 221.907 262.158C214.878 247.697 204.878 242.555 188.941 243.954C169.725 245.637 150.247 244.673 130.876 244.106C127.096 243.992 122.261 241.384 119.898 238.303C113.169 229.531 107.41 219.91 99.8655 208.512ZM248.284 300.927C246.621 302.212 245.72 302.609 245.258 303.309C234.834 318.866 224.102 334.215 214.178 350.112C204.531 365.537 207.688 385.762 220.814 398.389C233.879 410.94 253.28 412.491 268.355 402.151C282.798 392.246 290.45 372.247 282.482 356.595C272.666 337.296 259.901 319.565 248.284 300.927Z"/></svg>