<svg xmlns="http://www.w3.org/2000/svg" viewBox="2203 0 800 800" aria-hidden="true" width="24px"><path fill="#EC6998" d="M2492.68 539.592c16.322 0 30.005 5.397 41.047 16.19 11.042 10.793 16.563 24.584 16.563 41.374 0 16.79-5.52 30.46-16.563 41.014-11.042 10.553-24.725 15.83-41.048 15.83-15.843 0-29.405-5.277-40.687-15.83-11.282-10.553-16.923-24.225-16.923-41.014 0-16.79 5.64-30.58 16.923-41.374 11.282-10.793 24.844-16.19 40.687-16.19zm220.36 0c16.324 0 30.006 5.397 41.048 16.19 11.043 10.793 16.564 24.584 16.564 41.374 0 16.79-5.521 30.46-16.564 41.014-11.042 10.553-24.724 15.83-41.047 15.83-15.843 0-29.406-5.277-40.688-15.83-11.282-10.553-16.923-24.225-16.923-41.014 0-16.79 5.641-30.58 16.923-41.374 11.282-10.793 24.845-16.19 40.688-16.19zM2539.489 146v133.836l-.001 2.293a1508.142 1508.142 0 0 1-.48 36.42c20.718-2.544 41.882-3.815 63.493-3.815 22.117 0 43.767 1.331 64.948 3.995a1484.272 1484.272 0 0 1-.496-38.893V146h92.898v133.836l-.002 2.293c-.028 19.934-.42 39.021-1.174 57.26a461.767 461.767 0 0 1 17.769 6.345c54.35 20.667 102.869 48.81 145.557 84.427l-36.967 56.065-1.384-1.022c-38.804-28.532-81.69-50.837-128.66-66.916-.7-.239-1.4-.476-2.1-.712a2461.587 2461.587 0 0 1-8.162 71.648h-61.932l-.649-4.578a1811.69 1811.69 0 0 1-10.001-86.022c-22.573-3.16-45.789-4.74-69.645-4.74-23.353 0-46.071 1.514-68.155 4.542a2446.645 2446.645 0 0 1-9.98 90.798h-61.931l-.649-4.578a1818.55 1818.55 0 0 1-8.197-67.461c-1.083.364-2.166.732-3.247 1.103-47.308 16.27-90.767 38.916-130.374 67.938L2283 430.16l1.336-1.11c42.363-35.093 90.437-62.865 144.221-83.317a462.809 462.809 0 0 1 19.208-6.824c-.783-18.875-1.174-38.567-1.174-59.074V146h92.897z"/></svg>