<?xml version="1.0" encoding="UTF-8"?><!--Generator: Adobe Illustrator 24.0.1, SVG Export Plug-In . SVG Version: 6.00 Build 0)--><svg xmlns="http://www.w3.org/2000/svg" xmlns:xlink="http://www.w3.org/1999/xlink" xml:space="preserve" id="Layer_1" x="0px" y="0px" style="enable-background:new 0 0 300 300;" version="1.0" viewBox="0 0 300 300" aria-hidden="true" width="24px"><style type="text/css">.st0{fill-rule:evenodd;clip-rule:evenodd;fill:#0A4147;}</style><g><path d="M0.1,266.1l33.3,33.2l33.3-33.2l-33.3-33.2L0.1,266.1z" class="st0"/><path d="M300,33.9L266.7,0.7l-33.3,33.2L266.7,67L300,33.9z" class="st0"/><path d="M183.4,183.1L150,216.3l-33.3-33.2L83.4,150l33.3-33.2L150,83.6l33.3,33.2l33.3,33.2L183.4,183.1z M283.3,150   L250,116.8l-33.3-33.2l-33.3-33.2L150,17.3l-33.3,33.2L83.4,83.6l-33.3,33.2L16.7,150l33.3,33.2l33.3,33.2l33.3,33.2l33.3,33.2   l33.3-33.2l33.3-33.2l33.3-33.2L283.3,150z" class="st0"/><path d="M233.3,266.1l33.3,33.2l33.3-33.2L266.6,233L233.3,266.1z" class="st0"/><path d="M66.6,33.9L33.3,0.7L0,33.9l33.3,33.2L66.6,33.9z" class="st0"/></g></svg>