<svg xmlns="http://www.w3.org/2000/svg" fill="none" viewBox="-3 -6 120 120"><path fill="#193151" d="M58.774 11.263c3.223.214 6.415.767 9.523 1.648a63.572 63.572 0 0 0 4.148-9.77c1.492-4.579 8.342-3.983 9.02.787.374 2.488.527 5.003.457 7.518 18.469-3.837 32.231-7.07 31.728-.073l-.064.256c-4.139 11.363-12.389 20.465-22.617 24.952-2.271 1.025-3.141 2.417-3.114 4.953.129 9.935 0 19.605 0 29.43a76.832 76.832 0 0 0-61.276 0c0-9.825-.082-19.495 0-29.43 0-2.536-.842-3.928-3.113-4.953C13.238 32.094 4.988 22.992.858 11.629l-.073-.256c-.494-6.996 13.268-3.764 31.728.073a42.5 42.5 0 0 1 .458-7.518c.677-4.77 7.526-5.393 9.028-.787a61.828 61.828 0 0 0 4.148 9.77 46.052 46.052 0 0 1 9.523-1.648h3.104z"/><path fill="#C5D9ED" d="M57.547 14.65c4.201.191 8.354.978 12.334 2.335 2.437-4 4.389-8.275 5.814-12.736a1.163 1.163 0 0 1 1.264-.834 1.182 1.182 0 0 1 1.108 1.044c.516 3.69.568 7.431.156 11.135 2.207-.33 2.747-.412 5.659-1.063 18.533-4.074 24.613-4.248 26.27-3.534-3.873 10.237-11.354 18.396-20.584 22.443a8.086 8.086 0 0 0-5.146 8.14c.11 8.241.055 16.308 0 24.42a77.986 77.986 0 0 0-54.409 0c0-8.112-.055-16.188 0-24.42a8.076 8.076 0 0 0-5.146-8.14c-9.23-4.047-16.702-12.206-20.575-22.443 1.658-.714 7.728-.54 26.261 3.534 2.903.65 3.462.733 5.66 1.063a45.563 45.563 0 0 1 .155-11.135 1.227 1.227 0 0 1 2.38-.21 59.013 59.013 0 0 0 5.806 12.736 44.565 44.565 0 0 1 12.343-2.334h.65z"/><path fill="gold" d="M41.89 46.25a5.878 5.878 0 0 1-5.843-5.888 5.567 5.567 0 0 1 1.768-3.937 5.842 5.842 0 0 1 4.065-1.62 19.65 19.65 0 0 1 6.721 1.675c2.372 1.035 4.35 2.463 4.34 4.047-.009 1.584-1.987 3.004-4.367 4.03a19.916 19.916 0 0 1-6.685 1.693z"/><path fill="#193151" d="M41.834 47.816a7.453 7.453 0 0 1-7.325-7.49 7.122 7.122 0 0 1 2.252-5.027 7.398 7.398 0 0 1 5.128-2.06c2.531.171 5.011.791 7.325 1.83 3.462 1.512 5.293 3.407 5.284 5.495-.01 2.087-1.831 3.946-5.31 5.494a21.647 21.647 0 0 1-7.326 1.831h-.074l.046-.073zm0-11.455a4.29 4.29 0 0 0-2.976 1.2 4.057 4.057 0 0 0-1.281 2.838 4.33 4.33 0 0 0 4.267 4.294 18.66 18.66 0 0 0 6.08-1.565c2.517-1.09 3.433-2.161 3.433-2.61 0-.449-.916-1.51-3.415-2.6a18.414 18.414 0 0 0-6.09-1.557h-.018zm-27.68-20.035 14.312 3.315a.733.733 0 0 1 .119 1.392c-2.848 1.172-8.003 2.866-10.466 1.034-3.525-2.637-4.633-4.102-4.853-4.898a.715.715 0 0 1 .888-.843z"/><path fill="gold" d="M72.637 46.25a5.897 5.897 0 0 0 5.851-5.888 5.64 5.64 0 0 0-1.767-3.937 5.86 5.86 0 0 0-4.075-1.62 19.588 19.588 0 0 0-6.711 1.675c-2.372 1.035-4.359 2.463-4.35 4.047.01 1.584 1.996 3.004 4.368 4.03a19.917 19.917 0 0 0 6.684 1.693z"/><path fill="#193151" d="M72.692 47.816a7.418 7.418 0 0 0 5.201-2.207 7.326 7.326 0 0 0 2.152-5.283 7.087 7.087 0 0 0-2.253-5.027 7.398 7.398 0 0 0-5.127-2.06c-2.531.17-5.012.79-7.326 1.83-3.47 1.512-5.292 3.407-5.292 5.495 0 2.087 1.831 3.946 5.31 5.494a21.692 21.692 0 0 0 7.326 1.831h.064l-.055-.073zm0-11.455a4.268 4.268 0 0 1 2.976 1.2 4.02 4.02 0 0 1 1.282 2.838 4.196 4.196 0 0 1-1.255 3.012 4.278 4.278 0 0 1-3.012 1.282 18.663 18.663 0 0 1-6.08-1.565c-2.509-1.09-3.425-2.161-3.434-2.61-.009-.449.916-1.51 3.416-2.6a18.394 18.394 0 0 1 6.098-1.557h.01zm27.69-20.035L86.07 19.641a.733.733 0 0 0-.12 1.392c2.849 1.172 7.995 2.866 10.458 1.034 3.534-2.637 4.633-4.102 4.862-4.898a.722.722 0 0 0-.888-.843z"/><path fill="#9AB6CC" d="M91.005 73.244c-5.869-6.355-13.56-9.22-21.765-10.842a49.725 49.725 0 0 0-11.693-1.2h-.558a49.66 49.66 0 0 0-11.693 1.2C37.055 64.023 29.39 66.89 23.52 73.244c-4.752 5.146-6.089 11.574-3.086 16.949a23.945 23.945 0 0 0 8.388 9.156c6.73 4.038 13.991 5.998 21.783 6.95a48.34 48.34 0 0 0 6.41.339h.559a48.342 48.342 0 0 0 6.41-.339c7.8-.916 15.053-2.912 21.783-6.95a23.945 23.945 0 0 0 8.387-9.156c2.949-5.375 1.575-11.803-3.15-16.95z"/><path fill="#C5D9ED" d="M87.755 72.456c-5.274-4.807-12.179-6.968-19.55-8.24A52.773 52.773 0 0 0 57.53 63.3h-.522a52.805 52.805 0 0 0-10.686.915c-7.325 1.236-14.275 3.397-19.55 8.241-4.266 3.901-5.493 8.763-2.746 12.82a19.641 19.641 0 0 0 7.536 6.968c6.034 3.058 12.553 4.578 19.549 5.256 2.026.203 4.062.289 6.098.256h.156a52.528 52.528 0 0 0 6.09-.256c6.995-.715 13.514-2.198 19.558-5.256a19.778 19.778 0 0 0 7.535-6.968c2.674-4.057 1.52-8.919-2.792-12.82z"/><path fill="#193151" d="M42.356 86.063c-3.333 1.63-6.41 0-7.032-3.663-.64-3.955 4.679-13.35 5.897-6.244 1.218 7.105 6.675-2.83 6.712 1.62a9.716 9.716 0 0 1-5.577 8.287z"/><path fill="#193151" d="M92.388 71.971c-6.996-7.573-16.354-10.136-22.79-11.41h-.138a49.45 49.45 0 0 0-10.246-1.19h-3.901a49.45 49.45 0 0 0-10.246 1.19h-.138c-6.41 1.274-15.786 3.837-22.781 11.41-5.403 5.842-6.685 13.176-3.352 19.137a25.753 25.753 0 0 0 9.065 9.899c6.355 3.818 13.515 6.107 22.516 7.206 2.009.241 4.03.36 6.053.357h1.666a50.176 50.176 0 0 0 6.053-.357c9.01-1.099 16.161-3.388 22.516-7.206a25.642 25.642 0 0 0 9.065-9.899c3.342-5.96 2.051-13.295-3.342-19.137zm.073 17.306a21.976 21.976 0 0 1-7.719 8.497c-5.888 3.544-12.572 5.668-21.06 6.703-2.042.24-4.097.347-6.153.32h-.559a47.384 47.384 0 0 1-6.153-.32c-8.47-1.035-15.154-3.159-21.06-6.703a21.976 21.976 0 0 1-7.72-8.506c-2.554-4.579-1.5-10.072 2.821-14.76 4.825-5.22 11.226-8.388 20.758-10.274h.147a47.56 47.56 0 0 1 11.39-1.145h.147c3.832-.079 7.66.306 11.4 1.145h.137c9.532 1.886 15.933 5.054 20.758 10.273 4.359 4.689 5.412 10.2 2.866 14.77z"/><path fill="#193151" d="M72.17 86.063c3.333 1.63 6.41 0 7.032-3.663.65-3.955-4.67-13.35-5.896-6.244-1.227 7.105-6.676-2.83-6.712 1.62a9.733 9.733 0 0 0 5.576 8.287z"/></svg>