<svg xmlns="http://www.w3.org/2000/svg" viewBox="0 0 1000 1000" aria-hidden="true" width="24px"><path fill="none" d="M-1-1h1002v1002H-1z"/><path fill="#d5a24e" d="M183.737 648.206v215.08h-36.84v-76.7q0-18.71-12.89-31.3a44 44 0 0 0-62.28 62.28 39.67 39.67 0 0 0 14.27 9.67 45.79 45.79 0 0 0 17 3.22 41.85 41.85 0 0 0 16.26-3.07l13.19 32.83q-14.12 7.06-32.52 7.06a76.38 76.38 0 0 1-31.14-6.29 75.36 75.36 0 0 1-24.7-17.34 79.92 79.92 0 0 1-16.19-25.77 87.74 87.74 0 0 1 0-62.9 79.92 79.92 0 0 1 16.26-25.77 75.45 75.45 0 0 1 24.7-17.34 76.38 76.38 0 0 1 31.14-6.29 71.4 71.4 0 0 1 26.39 4.6 80.35 80.35 0 0 1 20.51 11.66v-73.63h36.84z" class="cls-1"/><path fill="#070237" d="M257.367 685.326v52.16h80.08l9.2 36.82h-89.28v89h-36.82v-214.8h144.51v36.82h-107.69zm191.76 20.25a79.67 79.67 0 0 1 31.6 6.29 80.85 80.85 0 0 1 43.11 43.11 81.77 81.77 0 0 1 0 62.9 80.85 80.85 0 0 1-43.11 43.11 82.53 82.53 0 0 1-63.2 0 80.85 80.85 0 0 1-43.11-43.11 81.76 81.76 0 0 1 0-62.9 80.85 80.85 0 0 1 43.11-43.11 79.66 79.66 0 0 1 31.6-6.29zm0 36.82a44 44 0 0 0-31.3 75.17 39.67 39.67 0 0 0 14.27 9.67 45.79 45.79 0 0 0 17 3.22 44.65 44.65 0 0 0 16.88-3.22 43.14 43.14 0 0 0 14.42-9.67 44.07 44.07 0 0 0 0-62.28q-13.5-12.89-31.27-12.89zm164.92-32.52a62.91 62.91 0 0 1 24.7-4.6v36.82a42.61 42.61 0 0 0-31.3 12.89q-12.89 13.5-12.89 31.3v77h-36.82v-153.72h36.82v12a78.77 78.77 0 0 1 19.49-11.69zm181.48 133.77a81.07 81.07 0 0 1-25.77 17.34 82.53 82.53 0 0 1-63.2 0 80.85 80.85 0 0 1-43.11-43.11 81.76 81.76 0 0 1 0-62.9 80.85 80.85 0 0 1 43.11-43.11 82.54 82.54 0 0 1 63.2 0 81.18 81.18 0 0 1 25.77 17.34l-26.08 26.08a42.61 42.61 0 0 0-31.3-12.89q-17.8 0-31.3 12.89a44.07 44.07 0 0 0 0 62.28 43.08 43.08 0 0 0 14.42 9.67 44.62 44.62 0 0 0 16.88 3.22q18.71 0 31.3-12.89l26.08 26.08zm139.6-38.66h-80.39a38.08 38.08 0 0 0 8.9 12.58 43.08 43.08 0 0 0 14.42 9.67 44.62 44.62 0 0 0 16.88 3.22 43 43 0 0 0 22.4-5.83l38.35 15.34a77.31 77.31 0 0 1-26.69 20.1 81.23 81.23 0 0 1-108.77-42.19 81.76 81.76 0 0 1 0-62.9 80.85 80.85 0 0 1 43.11-43.11 82.54 82.54 0 0 1 63.2 0 80.85 80.85 0 0 1 43.11 43.11 79.67 79.67 0 0 1 6.29 31.6 75.82 75.82 0 0 1-2.15 18.41h-38.66zm-40.23-62.59q-17.8 0-31.3 12.89a41.59 41.59 0 0 0-8.9 12.89h80.39a41.77 41.77 0 0 0-8.9-12.89 42.61 42.61 0 0 0-31.29-12.89zM495.091 505.064h-97.55v-312.72h36.83v275.85h60.72c51.8 0 94.66-16.63 127.38-49.43s49.13-76.85 49.13-131.28c0-52-16.49-94-49-124.83-32.74-31-74.46-46.72-124-46.72h-101.17v-36.87h101.1c59.28 0 109.52 19.11 149.33 56.81 40.16 38 60.52 89 60.52 151.57 0 64.54-20.15 117.46-59.88 157.29s-91.51 60.33-153.41 60.33z" class="cls-2"/><path fill="#d5a24e" d="M453.461 443.184c54.13 0 99.17-14.4 133.86-42.81 35.17-28.79 53-67.47 53-115 0-45.76-17.91-82.82-53.24-110.15-34.65-26.8-78.47-38.66-130.25-38.66h-115v306.62h36.26v-270.85h82.34c20.84 0 40.13 2.69 57.33 8 17 5.25 32.53 11.5 46.08 22 13.32 10.3 23.43 22.49 30 36.22s10 29.73 10 47.27c0 18.42-3.4 35.17-10.11 49.78s-16.64 27.38-30.06 38.33a140.37 140.37 0 0 1-46.7 25.06c-17.67 5.62-37.69 8.47-59.5 8.47l-4 .13-.01 35.59z" class="cls-1"/></svg>