<svg xmlns="http://www.w3.org/2000/svg" xmlns:xlink="http://www.w3.org/1999/xlink" xml:space="preserve" x="0px" y="0px" style="enable-background:new 0 0 1000 1000;" version="1.1" viewBox="0 0 1000 1000" aria-hidden="true" width="24px"><style type="text/css">.st0 {
      fill: url(#SVGID_1_);
    }</style><g id="TEMPLATE__x28_delete_x29_"><g><g><g><linearGradient id="SVGID_1_" x1="301.2022" x2="736.7416" y1="254.5189" y2="751.1401" gradientUnits="userSpaceOnUse"><stop offset="0" style="stop-color:#D5264C"/><stop offset="0.5026" style="stop-color:#F4782C"/><stop offset="1" style="stop-color:#F79433"/></linearGradient><path d="M561.57,860.62C325.13,860.62,160,707.87,160,489.16c0-94.84,33.35-181.89,93.91-245.11
					c65.58-68.47,157.38-104.67,265.46-104.67C702.16,139.38,840,271.74,840,447.27c0,79.51-28.22,147.01-81.6,195.2
					c-51.06,46.09-120.58,70.45-201.05,70.45c-143.55,0-247.75-91.44-247.75-217.42c0-121.14,86.81-209.06,206.41-209.06
					c115.74,0,184.83,78.17,184.83,209.1v0c0,20.22-16.39,36.62-36.62,36.62l-178.6,0c-20.05,0-37.54-15.45-38.14-35.49
					c-0.62-20.74,16-37.75,36.6-37.75h141.12c-9.34-65.89-45.96-99.24-109.2-99.24c-64.14,0-133.17,42.5-133.17,135.83
					c0,99.06,90.46,144.18,174.51,144.18c127.22,0,209.42-75.53,209.42-192.41c0-64.72-24.71-124.05-69.58-167.07
					c-45.46-43.58-108.61-67.59-177.81-67.59c-197.66,0-286.13,138.89-286.13,276.54c0,178.38,131.94,298.23,328.33,298.23
					c73.14,0,139.64-17.26,192.3-49.91c17.45-10.83,40.45-5.2,50.9,12.62c10.16,17.32,2.93,40.32-14.2,50.79
					C726.63,839.97,647.5,860.62,561.57,860.62z" class="st0"/></g></g></g></g></svg>