<svg xmlns="http://www.w3.org/2000/svg" fill="none" viewBox="0 0 175 166" aria-hidden="true" width="24px"><mask id="a" x="11" y="22" maskUnits="userSpaceOnUse" style="mask-type:alpha"><path fill="#000" d="M63.032 108.211c-18.382 8.214-39.944-.029-48.158-18.411-8.215-18.383.028-39.944 18.41-48.16 18.384-8.214 39.945.03 48.16 18.412 8.214 18.383-.029 39.944-18.412 48.159zm66.221-37.495c-12.727 5.687-27.654-.02-33.34-12.746-5.688-12.727.019-27.654 12.745-33.341 12.727-5.687 27.654.02 33.341 12.746 5.687 12.727-.02 27.654-12.746 33.34zm-8.924 62.777c-10.252 4.581-22.277-.016-26.858-10.267-4.581-10.252.016-22.277 10.268-26.858 10.252-4.581 22.276.016 26.858 10.268 4.581 10.251-.016 22.276-10.268 26.857z"/></mask><g mask="url(#a)"><path fill="#1568CA" d="M-3.64 123.072c21.959 49.139 79.594 71.173 128.733 49.215 49.138-21.959 71.172-79.594 49.214-128.732C152.349-5.584 94.714-27.618 45.575-5.66-3.563 16.3-25.597 73.934-3.639 123.072z"/><path fill="#8FD8E7" d="M47.786 97.973c9.637 21.565 34.93 31.234 56.494 21.598 21.565-9.637 31.234-34.93 21.598-56.494-9.637-21.564-34.93-31.234-56.494-21.598-21.565 9.637-31.234 34.93-21.598 56.494z"/></g></svg>