<svg width="201" height="201" fill="none" xmlns="http://www.w3.org/2000/svg"><rect width="201" height="201" rx="100.5" fill="#071927"/><mask id="a" style="mask-type:alpha" maskUnits="userSpaceOnUse" x="44" y="115" width="113" height="42"><path d="M44 115.59h112.459v40.645H44V115.59z" fill="#fff"/></mask><g mask="url(#a)"><path fill-rule="evenodd" clip-rule="evenodd" d="M100.121 136.277c-3.963 0-7.645-.786-10.65-2.274l-32.367-16.021-9.698 5.518c-4.61 2.622-4.53 6.641.18 8.972l44.764 22.159c2.175 1.076 4.954 1.605 7.771 1.605 3.289 0 6.626-.72 9.11-2.133l43.823-24.932c4.61-2.623 4.529-6.643-.18-8.972l-9.306-4.609-31.136 17.715c-3.37 1.916-7.742 2.972-12.311 2.972z" fill="url(#b)"/></g><path fill-rule="evenodd" clip-rule="evenodd" d="m153.162 93.669-7.771-3.904-18.096 10.446-3.107 1.793-3.105 1.793-8.471 4.89c-3.378 1.952-7.763 3.025-12.343 3.025-3.973 0-7.665-.8-10.679-2.312l-9.705-4.876-3.213-1.612-3.212-1.613-17.883-8.984-8.162 4.712c-4.622 2.669-4.543 6.756.179 9.128l9.332 4.687 3.213 1.613 3.21 1.614 29.13 14.63c2.177 1.093 4.966 1.631 7.79 1.631 3.296 0 6.644-.732 9.132-2.169l28.005-16.166 3.107-1.793 3.105-1.792 9.724-5.614c4.622-2.667 4.541-6.756-.18-9.127z" fill="url(#c)"/><path fill-rule="evenodd" clip-rule="evenodd" d="m153.162 69.754-44.885-22.15c-2.178-1.076-4.965-1.604-7.791-1.604-3.296 0-6.643.72-9.132 2.132L47.415 73.056c-4.622 2.62-4.543 6.637.179 8.968l7.77 3.835 3.213 1.585 3.212 1.586 17.883 8.826 3.213 1.584 3.212 1.586 6.381 3.151c2.178 1.074 4.967 1.602 7.791 1.602 3.296 0 6.644-.72 9.132-2.132l5.258-2.982 3.106-1.762 3.106-1.762 18.095-10.264 3.107-1.762 3.105-1.761 8.164-4.63c4.622-2.621 4.541-6.64-.18-8.97z" fill="url(#d)"/><defs><linearGradient id="b" x1="100.23" y1="49.544" x2="100.23" y2="156.236" gradientUnits="userSpaceOnUse"><stop stop-color="#B3F9BA"/><stop offset="1" stop-color="#F6FB8C"/></linearGradient><linearGradient id="c" x1="100.378" y1="49.626" x2="100.378" y2="153.781" gradientUnits="userSpaceOnUse"><stop stop-color="#B1FFBF"/><stop offset="1" stop-color="#FFF16D"/></linearGradient><linearGradient id="d" x1="100.378" y1="46" x2="100.378" y2="154.083" gradientUnits="userSpaceOnUse"><stop stop-color="#B3F9BA"/><stop offset="1" stop-color="#F6FB8C"/></linearGradient></defs></svg>