<svg xmlns="http://www.w3.org/2000/svg" fill="none" viewBox="0 0 115 18" aria-hidden="true" width="24px"><path fill="#000" d="M15.25.309v3.039H7.978c-1.709 0-2.956.446-3.74 1.339-.768.875-1.151 2.317-1.151 4.326 0 1.991.383 3.433 1.15 4.326.768.876 2.015 1.313 3.74 1.313h2.93c.872 0 1.5-.223 1.884-.67.383-.463.575-1.055.575-1.776 0-.704-.183-1.245-.549-1.622-.349-.395-.89-.593-1.622-.593H7.272V7.34h4.237c1.587 0 2.764.446 3.531 1.34.768.875 1.151 2.068 1.151 3.579 0 .755-.104 1.467-.314 2.137a4.352 4.352 0 0 1-.967 1.725c-.436.48-1.003.867-1.7 1.159-.68.275-1.518.412-2.512.412h-2.72c-2.58 0-4.56-.712-5.938-2.137C.68 14.112 0 11.93 0 9.013c0-2.936.68-5.116 2.04-6.54C3.418 1.03 5.397.308 7.978.308h7.272Zm5.472 17.382h-3.4l6.198-15.45c.332-.825.794-1.4 1.387-1.726C25.517.172 26.293 0 27.235 0c.924 0 1.683.172 2.275.515.61.326 1.073.901 1.387 1.725l5.964 15.451h-3.427L28.072 3.708c-.157-.395-.445-.592-.863-.592-.419 0-.715.197-.89.592l-5.597 13.983Zm21.793 0h-3.06V3.888c0-1.167.349-2.103 1.046-2.806C41.2.36 42.262 0 43.692 0c1.256 0 2.25.3 2.982.901.733.584 1.22 1.425 1.465 2.524l2.485 10.635c.157.652.55.979 1.177.979.61 0 1.003-.327 1.177-.979l2.485-10.635c.244-1.099.706-1.94 1.386-2.524.698-.6 1.683-.901 2.956-.901 1.43 0 2.494.36 3.191 1.082.698.703 1.047 1.639 1.047 2.806v13.803h-3.06V4.043c0-.343-.114-.61-.34-.798-.21-.206-.515-.31-.916-.31-.367 0-.646.086-.837.258-.192.155-.323.378-.393.67L55.96 14.498c-.279 1.15-.741 2.026-1.386 2.627-.645.583-1.578.875-2.8.875-1.237 0-2.196-.3-2.876-.901-.663-.601-1.125-1.468-1.387-2.601l-2.51-10.635c-.07-.292-.21-.515-.42-.67-.191-.172-.462-.257-.81-.257-.401 0-.715.103-.942.309-.21.188-.314.455-.314.798V17.69Zm28.814 0h-3.06V3.888c0-1.167.348-2.103 1.046-2.806C70.012.36 71.076 0 72.506 0c1.256 0 2.25.3 2.982.901.732.584 1.22 1.425 1.465 2.524l2.485 10.635c.157.652.549.979 1.177.979.61 0 1.003-.327 1.177-.979l2.485-10.635c.244-1.099.706-1.94 1.386-2.524C86.361.301 87.346 0 88.62 0c1.43 0 2.493.36 3.191 1.082.698.703 1.046 1.639 1.046 2.806v13.803h-3.06V4.043c0-.343-.113-.61-.34-.798-.21-.206-.514-.31-.916-.31-.366 0-.645.086-.837.258-.192.155-.322.378-.392.67l-2.537 10.635c-.28 1.15-.741 2.026-1.387 2.627-.645.583-1.578.875-2.798.875-1.239 0-2.198-.3-2.878-.901-.662-.601-1.124-1.468-1.386-2.601L73.814 3.863a1.127 1.127 0 0 0-.419-.67c-.191-.172-.462-.257-.81-.257-.402 0-.715.103-.942.309-.21.188-.314.455-.314.798V17.69Zm27.532 0h-3.4l6.199-15.45c.331-.825.793-1.4 1.386-1.726.611-.343 1.386-.515 2.328-.515.924 0 1.683.172 2.276.515.61.326 1.072.901 1.386 1.725L115 17.691h-3.427l-5.362-13.983c-.157-.395-.444-.592-.863-.592s-.715.197-.889.592l-5.598 13.983Z"/></svg>