<svg xmlns="http://www.w3.org/2000/svg" xml:space="preserve" viewBox="0 0 853.333 640" aria-hidden="true" width="24px"><defs><clipPath id="a" clipPathUnits="userSpaceOnUse"><path d="M0 480h640V0H0z"/></clipPath></defs><g clip-path="url(#a)" transform="matrix(1.33333 0 0 -1.33333 0 640)"><path d="M0 0v-39.928c-11.091-8.239-27.253-13.943-42.147-13.943-32.006 0-56.724 24.084-56.724 54.822 0 30.738 25.035 54.506 57.992 54.506 15.527 0 30.738-6.021 41.513-15.211L-9.824 26.937c-8.239 7.605-19.964 12.358-31.055 12.358-22.183 0-39.295-16.795-39.295-38.344s17.429-38.344 39.611-38.344c7.923 0 17.113 2.852 24.718 7.289V0z" style="fill:#07a6c4;fill-opacity:1;fill-rule:nonzero;stroke:none" transform="translate(106.89 103.735)"/><path d="m0 0-57.674 77.639V0h-18.38v108.061h18.062L0 30.421v77.64h18.063V0z" style="fill:#07a6c4;fill-opacity:1;fill-rule:nonzero;stroke:none" transform="translate(215.583 50.498)"/><path d="M0 0c0-21.549 17.746-38.344 38.978-38.344 21.231 0 38.344 17.112 38.344 38.344 0 21.549-17.429 38.027-38.344 38.027C17.746 38.027 0 21.549 0 0m96.335 0c0-30.738-25.034-54.822-57.357-54.822S-18.38-30.738-18.38 0c0 31.056 25.035 54.506 57.358 54.506 32.323 0 57.357-23.768 57.357-54.506" style="fill:#07a6c4;fill-opacity:1;fill-rule:nonzero;stroke:none" transform="translate(278.329 104.686)"/><path d="m0 0-7.605-16.162C-19.331-9.19-31.056-6.021-39.295-6.021c-10.774 0-17.746-4.12-17.746-11.409 0-23.766 58.309-11.091 58.309-49.752 0-19.33-17.113-31.055-40.88-31.055-17.112 0-32.956 6.971-44.048 17.112l7.923 15.845c11.091-10.141 25.034-15.845 36.442-15.845 12.676 0 20.281 4.753 20.281 12.992 0 24.084-58.308 10.775-58.308 49.119 0 18.38 15.844 30.105 39.295 30.105C-23.768 11.091-9.824 6.654 0 0" style="fill:#07a6c4;fill-opacity:1;fill-rule:nonzero;stroke:none" transform="translate(474.169 148.418)"/><path d="M503.957 158.559h18.062V50.498h-18.062z" style="fill:#07a6c4;fill-opacity:1;fill-rule:nonzero;stroke:none"/><path d="m0 0-7.605-16.162C-19.33-9.19-31.056-6.021-39.295-6.021c-10.773 0-17.746-4.12-17.746-11.409 0-23.766 58.309-11.091 58.309-49.752 0-19.33-17.113-31.055-40.879-31.055-17.113 0-32.957 6.971-44.048 17.112l7.922 15.845c11.091-10.141 25.034-15.845 36.442-15.845 12.676 0 20.281 4.753 20.281 12.992 0 24.084-58.307 10.775-58.307 49.119 0 18.38 15.844 30.105 39.294 30.105C-23.767 11.091-9.823 6.654 0 0" style="fill:#07a6c4;fill-opacity:1;fill-rule:nonzero;stroke:none" transform="translate(630.714 148.418)"/><path d="m0 0-7.605-7.605c6.337-9.507 7.921-21.866 3.802-33.591-6.971-19.964-28.838-30.105-48.801-23.133-2.853.951-5.388 2.218-7.923 3.803l-24.718-24.718-21.865 21.866c-10.141-6.655-22.817-8.873-35.176-4.437-20.281 7.289-31.055 29.788-23.767 50.069 1.268 3.169 2.535 6.021 4.437 8.556l-9.19 9.19-1.902-2.852c-9.823-15.845-14.894-34.225-14.894-52.921 0-56.407 45.633-102.04 101.724-102.356h.316c56.09 0 102.04 45.632 102.04 101.722 0 18.697-5.071 37.076-14.894 52.921z" style="fill:#07a6c4;fill-opacity:1;fill-rule:nonzero;stroke:none" transform="translate(406.67 377.532)"/><path d="M0 0c-2.535-3.486-4.437-7.922-4.437-12.676a20.556 20.556 0 0 1 20.599-20.597c4.753 0 9.19 1.584 12.675 4.436z" style="fill:#07a6c4;fill-opacity:1;fill-rule:nonzero;stroke:none" transform="translate(256.78 356.934)"/><path d="M0 0c3.169-2.218 7.289-3.486 11.726-3.486a20.556 20.556 0 0 1 20.597 20.598c0 4.437-1.267 8.24-3.485 11.725z" style="fill:#07a6c4;fill-opacity:1;fill-rule:nonzero;stroke:none" transform="translate(358.82 329.68)"/><path d="m0 0 70.351-70.667L139.75-1.268c-18.696 18.697-44.048 29.472-70.667 29.472h-.317C43.098 27.887 18.697 18.063 0 0m70.351-84.61L-13.943-.317l3.169 3.486C10.141 25.352 38.661 37.71 69.083 37.71h.317c30.739 0 60.527-13.309 81.124-36.126l3.169-3.485z" style="fill:#07a6c4;fill-opacity:1;fill-rule:nonzero;stroke:none" transform="translate(251.393 392.426)"/><path d="m0 0-10.141.634c-41.83 2.852-99.821 12.992-137.214 46.9-22.817 20.598-27.253 40.245-27.57 41.196l-.951 5.704H-23.45l-.634-5.704a127.603 127.603 0 0 1-.951-15.528c0-23.133 6.655-45.632 19.648-65.28z" style="fill:#07a6c4;fill-opacity:1;fill-rule:nonzero;stroke:none" transform="translate(228.893 253.31)"/><path d="m0 0 5.388 8.239C18.063 27.57 25.035 49.752 25.035 72.885c0 5.387-.317 10.775-.951 15.845l-.634 5.704h152.426l-1.268-6.021c-.316-.951-4.436-20.598-27.569-41.196C109.646 13.626 51.654 3.169 9.824.317z" style="fill:#07a6c4;fill-opacity:1;fill-rule:nonzero;stroke:none" transform="translate(413.642 253.31)"/></g></svg>