<svg xmlns="http://www.w3.org/2000/svg" fill="none" viewBox="-1 -1 36 36" aria-hidden="true" width="24px"><path fill="url(#a)" d="M26.232 0c-3.94 0-7.154 3.214-7.258 7.154v7.984c-.726 0-1.451.104-2.28.104-.83 0-1.556 0-2.282.103v-8.19c0-3.94-3.318-7.155-7.362-7.051C3.215.104.105 3.318 0 7.154v19.078c.104 3.94 3.318 7.154 7.362 7.05 3.94-.103 7.05-3.214 7.05-7.05v-7.984c.726 0 1.452-.103 2.281-.103.83 0 1.555 0 2.281-.104v8.087c.104 3.94 3.318 7.154 7.362 7.05 3.94-.103 7.05-3.213 7.05-7.05V7.154c0-3.94-3.214-7.154-7.154-7.154zM7.258 2.903c2.385 0 4.25 1.866 4.25 4.251v8.399c-2.073.31-4.146.933-6.116 1.762-.83.415-1.66.83-2.385 1.452V7.154c0-2.28 1.866-4.25 4.25-4.25zm4.25 23.329c0 2.385-1.865 4.251-4.25 4.251s-4.251-1.866-4.251-4.251v-1.866c0-1.66 1.348-3.318 3.629-4.251 1.555-.726 3.214-1.14 4.977-1.452l-.104 7.569zm14.724 4.251c-2.385 0-4.251-1.866-4.251-4.251v-8.398c2.074-.311 4.147-.933 6.117-1.763.83-.415 1.66-.83 2.385-1.452v11.613c0 2.385-1.97 4.251-4.251 4.251zm.622-17.108c-1.555.726-3.214 1.14-4.977 1.452V7.154c0-2.385 1.867-4.25 4.251-4.25 2.385 0 4.251 1.865 4.251 4.25V9.02c.104 1.763-1.244 3.318-3.525 4.355z"/><defs><linearGradient id="a" x1="16.693" x2="-6.325" y1="0" y2="23.018" gradientUnits="userSpaceOnUse"><stop stop-color="#00E8A2"/><stop offset="1" stop-color="#00ADE8"/></linearGradient></defs></svg>