<svg width="250" height="250" viewBox="0 0 250 250" fill="none" xmlns="http://www.w3.org/2000/svg">
<circle cx="125" cy="125" r="125" fill="#00061E"/>
<g clip-path="url(#clip0_831_15011)">
<path d="M95.905 127.073H70.8328V152.145H95.905V127.073Z" fill="white" stroke="#010101" stroke-width="1.50421" stroke-miterlimit="10"/>
<path d="M180.141 127.073H155.069V152.145H180.141V127.073Z" fill="white" stroke="#010101" stroke-width="1.50421" stroke-miterlimit="10"/>
<path d="M152.063 127.073H126.991V152.145H152.063V127.073Z" fill="white" stroke="#010101" stroke-width="1.50421" stroke-miterlimit="10"/>
<path d="M123.983 127.073H98.9104V152.145H123.983V127.073Z" fill="white" stroke="#010101" stroke-width="1.50421" stroke-miterlimit="10"/>
<path d="M95.905 155.153H70.8328V180.226H95.905V155.153Z" fill="white" stroke="#010101" stroke-width="1.50421" stroke-miterlimit="10"/>
<path d="M180.141 155.153H155.069V180.226H180.141V155.153Z" fill="white" stroke="#010101" stroke-width="1.50421" stroke-miterlimit="10"/>
<path d="M208.222 155.153H183.149V180.226H208.222V155.153Z" fill="white" stroke="#010101" stroke-width="1.50421" stroke-miterlimit="10"/>
<path d="M67.8243 155.153H42.7521V180.226H67.8243V155.153Z" fill="white" stroke="#010101" stroke-width="1.50421" stroke-miterlimit="10"/>
<path d="M152.063 155.153H126.991V180.226H152.063V155.153Z" fill="white" stroke="#010101" stroke-width="1.50421" stroke-miterlimit="10"/>
<path d="M123.983 155.153H98.9104V180.226H123.983V155.153Z" fill="white" stroke="#010101" stroke-width="1.50421" stroke-miterlimit="10"/>
<path d="M95.905 98.938H70.8328V124.01H95.905V98.938Z" fill="white" stroke="#010101" stroke-width="1.50421" stroke-miterlimit="10"/>
<path d="M95.905 70.8574H70.8328V95.9296H95.905V70.8574Z" fill="white" stroke="#010101" stroke-width="1.50421" stroke-miterlimit="10"/>
<path d="M180.141 98.8777H155.069V123.95H180.141V98.8777Z" fill="white" stroke="#010101" stroke-width="1.50421" stroke-miterlimit="10"/>
<path d="M180.141 70.9146H155.069V95.9868H180.141V70.9146Z" fill="white" stroke="#010101" stroke-width="1.50421" stroke-miterlimit="10"/>
<path d="M152.063 98.8777H126.991V123.95H152.063V98.8777Z" fill="white" stroke="#010101" stroke-width="1.50421" stroke-miterlimit="10"/>
<path d="M152.06 95.9867V71.8291L128.173 95.9867H152.06Z" fill="white" stroke="#010101" stroke-width="1.50421" stroke-miterlimit="10"/>
<path d="M123.983 98.9922H98.9104V124.064H123.983V98.9922Z" fill="white" stroke="#010101" stroke-width="1.50421" stroke-miterlimit="10"/>
<path d="M99.0157 95.9867V71.8291L122.957 95.9867H99.0157Z" fill="white" stroke="#010101" stroke-width="1.50421" stroke-miterlimit="10"/>
<path d="M123.983 127.073H111.753V152.145H123.983V127.073Z" fill="#010101"/>
<path d="M152.06 126.802H139.831V152.413H152.06V126.802Z" fill="#010101"/>
</g>
<defs>
<clipPath id="clip0_831_15011">
<rect width="166.971" height="110.975" fill="white" transform="translate(42 70)"/>
</clipPath>
</defs>
</svg>
