<svg xmlns="http://www.w3.org/2000/svg" viewBox="0 0 256 256" aria-hidden="true" width="24px"><path fill="#01943f" d="M128 0C57.6 0 0 57.6 0 128s57.6 128 128 128 128-57.6 128-128S198.4 0 128 0z" data-name="Path 168"/><g data-name="Group 20"><g data-name="Group 16"><path fill="#fff" d="M96.384 87.94a1.348 1.348 0 0 1 .276-.126c1.03-.478 2.061-.93 3.091-1.332V66.15a6.7 6.7 0 0 0-6.685-6.71h-27.72v58.356A66.854 66.854 0 0 1 96.384 87.94z" data-name="Path 169"/></g><g data-name="Group 17"><path fill="#fff" d="M124.607 123.476h6.182a16.228 16.228 0 0 0 16.235-16.235V89.85c-3.343-.578-18.623-.9-22.166-.9a59.645 59.645 0 0 0-59.537 55.491 57.609 57.609 0 0 0 0 8.344v37.09a6.682 6.682 0 0 0 6.685 6.685h27.72v-48.275a24.857 24.857 0 0 1 24.881-24.805z" data-name="Path 170"/></g><g data-name="Group 18"><path fill="#fff" d="M159.666 168.06a1.347 1.347 0 0 1-.276.126c-1.03.477-2.061.93-3.091 1.332v20.332a6.7 6.7 0 0 0 6.685 6.71h27.7v-58.357a66.915 66.915 0 0 1-31.018 29.857z" data-name="Path 171"/></g><g data-name="Group 19"><path fill="#fff" d="M190.679 103.22V66.125a6.682 6.682 0 0 0-6.685-6.685h-27.72v48.28a24.851 24.851 0 0 1-24.856 24.8h-6.208a16.228 16.228 0 0 0-16.235 16.239v17.391c3.343.578 18.623.9 22.166.9.4 0 .779 0 1.181-.025a59.116 59.116 0 0 0 24.026-5.554l.151-.075a59.568 59.568 0 0 0 34.2-49.862c.1-1.382.151-2.765.151-4.172a71.83 71.83 0 0 0-.171-4.142z" data-name="Path 172"/></g></g></svg>