<svg xmlns="http://www.w3.org/2000/svg" fill="none" viewBox="-18 0 100 100" aria-hidden="true" width="24px"><g clip-path="url(#a)"><path fill="#fff" d="M81.3 40.98h3.1l.73 1.92h.84l-2.64-7h-.89l-2.66 7h.8l.72-1.92zm1.14-3 .18-.5.18-.51.06-.2.06.16c.05.17.11.35.17.53.06.18.13.36.18.52.05.16.11.32.16.45l.69 1.84h-2.53l.67-1.79.18-.5zm7.57-2.04h-.78v6.96h4.12v-.76h-3.34v-6.2zm7.61 4.22h2c.355.006.703-.095 1-.29.292-.19.53-.451.69-.76.18-.338.27-.717.26-1.1a2.109 2.109 0 0 0-.26-1.06 2.006 2.006 0 0 0-.69-.74 1.832 1.832 0 0 0-1-.27h-2.76v7h.78l-.02-2.78zm0-3.46h2a1 1 0 0 1 .55.17c.165.123.299.285.39.47a1.4 1.4 0 0 1 .15.66 1.67 1.67 0 0 1-.15.72 1.419 1.419 0 0 1-.39.5.932.932 0 0 1-.55.18h-2v-2.7zm12.04 2.35h-3.87v-3.11h-.78v6.96h.78v-3.1h3.87v3.1h.78v-6.96h-.78v3.11zm5.56 1.93h3.1l.72 1.92h.85l-2.65-7h-.88l-2.66 7h.79l.73-1.92zm1.14-3 .18-.5c.06-.17.12-.34.17-.51a1.58 1.58 0 0 0 .07-.2v.16l.18.53c.06.18.12.36.18.52.06.16.11.32.15.45l.7 1.84h-2.54l.68-1.79.23-.5zm-28.1 11.03v2.93a.47.47 0 0 1-.23.4l-4.84 2.79a.46.46 0 0 1-.69-.4v-5.72a.46.46 0 0 0-.46-.46h-2a.458.458 0 0 0-.46.46v12.93a.461.461 0 0 0 .46.46h2a.46.46 0 0 0 .46-.46v-3a.48.48 0 0 1 .23-.4l4.84-2.79a.46.46 0 0 1 .69.4v5.83a.46.46 0 0 0 .46.46h2a.46.46 0 0 0 .46-.46V49.01a.46.46 0 0 0-.46-.46h-2a.46.46 0 0 0-.46.46zm13.7 13.59a7.33 7.33 0 0 1-2.81-.53 6.929 6.929 0 0 1-2.25-1.5 6.71 6.71 0 0 1-1.48-2.27 7.858 7.858 0 0 1-.51-2.86 7.698 7.698 0 0 1 .51-2.86c.336-.848.84-1.62 1.48-2.27a6.628 6.628 0 0 1 2.25-1.5 7.61 7.61 0 0 1 5.63 0 6.745 6.745 0 0 1 3.71 3.78c.68 1.84.68 3.86 0 5.7a6.56 6.56 0 0 1-1.48 2.27 6.829 6.829 0 0 1-2.23 1.51 7.34 7.34 0 0 1-2.82.53zm0-2.81a4.058 4.058 0 0 0 1.61-.32 3.536 3.536 0 0 0 1.28-.91c.36-.406.644-.874.84-1.38a5.07 5.07 0 0 0 0-3.49 4.623 4.623 0 0 0-.84-1.37c-.358-.39-.794-.7-1.28-.91a4.092 4.092 0 0 0-3.22 0 4.099 4.099 0 0 0-1.28.91 3.93 3.93 0 0 0-.84 1.37 5.4 5.4 0 0 0 0 3.49c.18.514.466.984.84 1.38.359.39.795.7 1.28.91a4.058 4.058 0 0 0 1.61.32zm21.67-11.02-3.68 5.91a.474.474 0 0 1-.395.215.47.47 0 0 1-.395-.215l-3.63-5.91a.442.442 0 0 0-.39-.22h-2a.455.455 0 0 0-.328.132.456.456 0 0 0-.132.328v12.93a.433.433 0 0 0 .132.328.451.451 0 0 0 .328.132h2a.445.445 0 0 0 .328-.132.457.457 0 0 0 .132-.328v-4.29c0-1.28 0-2.38-.08-3.31 0-.29 0-.58-.08-.86l3.27 5.15a.474.474 0 0 0 .39.21h.81a.451.451 0 0 0 .38-.21l3.35-5.19c0 .34-.07.67-.09 1-.06.95-.09 2-.09 3.2v4.29a.456.456 0 0 0 .291.428.461.461 0 0 0 .179.032h2a.445.445 0 0 0 .328-.132.457.457 0 0 0 .132-.328V49.01a.456.456 0 0 0-.46-.46h-1.87a.472.472 0 0 0-.43.22zm13.46 13.83a7.363 7.363 0 0 1-2.81-.53 6.93 6.93 0 0 1-2.25-1.5 6.53 6.53 0 0 1-1.47-2.27 7.852 7.852 0 0 1-.52-2.86 7.703 7.703 0 0 1 .52-2.86 6.671 6.671 0 0 1 3.72-3.77 7.61 7.61 0 0 1 5.63 0 6.684 6.684 0 0 1 3.71 3.78 8.074 8.074 0 0 1 0 5.7 6.545 6.545 0 0 1-1.47 2.27 6.862 6.862 0 0 1-2.24 1.51 7.34 7.34 0 0 1-2.82.53zm0-2.81a4.058 4.058 0 0 0 1.61-.32 3.536 3.536 0 0 0 1.28-.91 4.19 4.19 0 0 0 .84-1.38 5.07 5.07 0 0 0 0-3.49 4.236 4.236 0 0 0-.84-1.37 3.9 3.9 0 0 0-2.89-1.24 3.846 3.846 0 0 0-1.6.33 3.94 3.94 0 0 0-2.13 2.28 5.404 5.404 0 0 0 0 3.49c.18.514.466.984.84 1.38.36.392.8.702 1.29.91a4 4 0 0 0 1.6.32zm21.22 2.63a.473.473 0 0 0 .406-.232.477.477 0 0 0 .004-.468l-2.74-4.73c.1-.05.21-.09.31-.15a4.404 4.404 0 0 0 2.26-3.88 4.169 4.169 0 0 0-.61-2.25 4.402 4.402 0 0 0-1.65-1.58 4.721 4.721 0 0 0-2.34-.58h-5.67a.459.459 0 0 0-.46.46v12.93a.462.462 0 0 0 .46.46h2a.46.46 0 0 0 .46-.46v-4a.457.457 0 0 1 .46-.46h1.46a.468.468 0 0 1 .4.23l2.53 4.5a.49.49 0 0 0 .41.23l2.31-.02zm-7.62-10.84a.47.47 0 0 1 .46-.46h2.29a2.47 2.47 0 0 1 1.15.25c.313.146.574.383.75.68.173.305.262.65.26 1 .002.346-.074.687-.22 1-.134.286-.35.526-.62.69a1.74 1.74 0 0 1-.94.25h-2.67a.472.472 0 0 1-.46-.46v-2.95zm21.08 10.82h2a.458.458 0 0 0 .46-.41.461.461 0 0 0-.03-.22l-5-12.93a.457.457 0 0 0-.43-.29h-2a.461.461 0 0 0-.43.29l-5.06 12.93a.461.461 0 0 0 .43.63h1.93a.46.46 0 0 0 .43-.3l.87-2.31a.466.466 0 0 1 .44-.3h4.67a.473.473 0 0 1 .44.3l.86 2.31a.46.46 0 0 0 .42.3zm-5.15-5.3a.46.46 0 0 1-.43-.63l.55-1.47.34-.93c.12-.32.23-.64.33-1s.21-.66.31-1l.31 1 .34 1c.12.33.21.6.29.81l.57 1.53a.462.462 0 0 1-.43.63l-2.18.06zm27.15-8.55a.473.473 0 0 0-.44.3l-2.62 7.2c-.2.53-.36 1-.49 1.37-.13.37-.25.74-.36 1.09v.12c-.07-.21-.13-.42-.2-.63-.07-.21-.18-.56-.29-.87-.11-.31-.25-.67-.41-1.08l-2.78-7.21a.472.472 0 0 0-.43-.29h-2.15a.46.46 0 0 0-.43.63l5.16 12.93a.456.456 0 0 0 .43.29h2a.451.451 0 0 0 .42-.29l5.2-12.93a.462.462 0 0 0-.214-.577.46.46 0 0 0-.216-.053h-2.18zM204 59.73a.46.46 0 0 1-.34-.77l1.32-1.45c.4-.43.75-.85 1.06-1.25.285-.368.549-.752.79-1.15.203-.32.384-.654.54-1 .129-.306.226-.624.29-.95.067-.296.103-.597.11-.9a3.698 3.698 0 0 0-2.07-3.44 5.001 5.001 0 0 0-4.34 0 5.09 5.09 0 0 0-1.74 1.32 5.755 5.755 0 0 0-1 1.62.48.48 0 0 0 .21.58l1.43.8a.457.457 0 0 0 .528-.06.443.443 0 0 0 .112-.15c.136-.28.301-.544.49-.79.232-.311.52-.576.85-.78a1.869 1.869 0 0 1 1-.27c.322-.01.641.06.93.2.24.122.441.31.58.54.132.25.197.528.19.81a2.29 2.29 0 0 1-.21.88 5.868 5.868 0 0 1-.59 1c-.24.33-.49.66-.75 1-.26.34-.5.59-.72.83l-3.9 4.22a.46.46 0 0 0-.08.48l.43 1.06a.463.463 0 0 0 .43.29h8.37a.459.459 0 0 0 .46-.46v-1.75a.471.471 0 0 0-.46-.46H204z"/><path fill="#0D285A" d="m58.49 70.31-47.12 27.2A7.58 7.58 0 0 1 0 90.95V34.8a7.56 7.56 0 0 1 3.77-6.54L50.89 1.05a7.58 7.58 0 0 1 11.37 6.57v56.14a7.58 7.58 0 0 1-3.77 6.55z"/><path fill="#F87C71" d="M38.77 35.35v4.3a1.36 1.36 0 0 1-.68 1.18l-12.57 7.26a1.36 1.36 0 0 1-2-1.18v-14.4a1.37 1.37 0 0 0-2.05-1.18l-4.92 2.84a1.37 1.37 0 0 0-.68 1.18v30.68a1.36 1.36 0 0 0 2 1.18l4.92-2.84a1.361 1.361 0 0 0 .68-1.18v-4.3a1.36 1.36 0 0 1 .68-1.18l12.62-7.26a1.37 1.37 0 0 1 2 1.18v14.4a1.361 1.361 0 0 0 2 1.18l4.92-2.84a1.35 1.35 0 0 0 .69-1.18V32.51a1.37 1.37 0 0 0-2-1.18l-4.92 2.84a1.37 1.37 0 0 0-.69 1.18z"/></g><defs><clipPath id="a"><path fill="#fff" d="M0 0h208.33v98.54H0z"/></clipPath></defs></svg>