<svg width="160" height="160" viewBox="0 0 160 160" fill="none" xmlns="http://www.w3.org/2000/svg" class="sm:flex hidden"><path d="M79.9987 152.069C79.9987 156.662 83.7165 160.429 88.2628 159.961C128.563 155.806 160 121.592 160 80.0003C160 38.4082 128.563 4.19493 88.2628 0.0398747C83.7165 -0.431344 79.9987 3.33842 79.9987 7.93142V30.1065C79.9987 34.6994 83.7418 38.3361 88.2224 39.2426C107.137 43.076 121.38 59.8653 121.38 80.0003C121.38 100.135 107.137 116.924 88.2224 120.758C83.7418 121.664 79.9987 125.304 79.9987 129.894V152.069ZM55.1712 15.0219C55.1712 9.36724 49.6627 5.38128 44.6189 7.8843C18.1825 21.0036 0 48.3675 0 80.0003C0 111.633 18.1825 138.997 44.6189 152.116C49.6627 154.619 55.1712 150.633 55.1712 144.979V15.0246V15.0219Z" fill="#4E80EE"></path></svg>