<svg xmlns="http://www.w3.org/2000/svg" xml:space="preserve" style="enable-background:new 0 0 330.6 127.6" viewBox="0 0 330.6 127.6" aria-hidden="true" width="24px"><path d="M325.8 122.7c-2.7 0-4.9-2.2-4.9-4.9V77.7c0-13.3-5.5-33.9-33.6-33.6-27.2.3-33.1 21.5-33.6 33.6v40.1c0 2.7-2.2 4.9-4.9 4.9s-4.9-2.2-4.9-4.9V77.7c0-13 4-23.6 12-31.6 7.9-7.8 18.3-11.7 31.3-11.7s23.5 3.9 31.3 11.7c8 8 12 18.6 12 31.6v40.1c.1 2.8-2 4.9-4.7 4.9zM4.4 1c2.5 0 4.5 2 4.5 4.4v90.8c.2 12.4 7.7 16.6 12.3 17.3 3 .5 21.4.4 29.9.3 2.3 0 4.3 1.9 4.3 4.2 0 2.4-1.9 4.3-4.2 4.3-7.8 0-23.9.1-27.1-.1-4.2-.2-12-2.2-16.8-6.6C2.4 111.3 0 106 0 99.8V5.4C0 3 1.9 1 4.4 1zm120.9 81.5c1 0 1.9-.5 2.3-1.4 4.6-9.4 5.4-37.3-27.6-37.8-8.5-.1-20 4-26.1 10.8-4.4 4.8-7.7 12.3-8.6 20.4-1.6 14.6 2.9 23.2 8.8 29.3 4.5 4.7 11.4 8.9 23.4 9.9 8.7.7 23.9.1 31.6-.3 2.7-.1 4.9 2 4.9 4.7 0 2.6-2.1 4.7-4.7 4.7H98.5c-13-.2-23.4-4.3-31.2-12.2-7.9-8.1-11.9-18.7-11.9-31.8 0-13.2 4.2-23.7 12.1-32 6.3-6.6 18.6-11.9 31.8-11.9 11.1 0 22.3 3.1 30 10.1 8.8 8 10.7 20 9.6 27.7-.7 5.5-3.6 12.6-7.1 16.8-.8.9-1.9 1.4-3.1 1.4-7.3 0-36 .2-48.7.2-3 0-5-2.9-4.1-5.7.6-1.7 2.2-2.9 4-2.9h45.4z" style="fill:#000"/><path d="M191.2 44.3c-14.6.2-22.9 6.2-27.3 13.2-3.7 5.8-6.5 14.9-6.5 24.6 0 9.7 3.2 20.1 9 26.1 5.6 5.8 16.9 10.7 25.7 10.4 13.9-.5 21.4-3.7 25.9-8.6 6-6.5 5.8-25.4 5.8-37.5l-.6-67.1c0-3 2.3-5.4 5.3-5.5 3 0 5.5 2.4 5.5 5.4l-.4 77.1c-.5 24.5-3.9 29.6-10.2 35.6-5.5 5.3-16.3 9.5-30.1 9.5s-24.9-4-33.2-12.1c-8.5-8.3-12.7-19.7-12.7-34.2 0-11.8 2.6-21.3 7.8-28.7 4.6-6.8 11-11.7 19-14.8 7.6-3 15.6-4 24-3 4.3.5 11 2.5 15.6 5.6 1.3.9 2 2.4 2 3.9v.2c0 4.2-4.5 6.6-8.1 4.4-5.3-3.1-11.7-4.6-16.5-4.5z" style="fill:#64d0e4"/></svg>