<svg xmlns="http://www.w3.org/2000/svg" xml:space="preserve" version="1.0" viewBox="200 100 650 650" aria-hidden="true" width="24px"><path d="M832.2 426.3c-3.3-162.8-139.1-291.8-302.4-286.1-159.5 5.5-285.5 138.9-282.1 298.5 2.6 117.9 74.6 217.9 176.1 262 14.4-18.3 26.4-51.2 32.4-69.5 6-15 12.3-29.6 18.9-43.8 29.7 10.3 69.5.5 91.3-23.2l.9-.9h-.1c-26.4-11.6-62.8-5.6-86.8 13 8.2-16.9 16.8-33.3 25.9-49.1 29.2 11.7 69.4 3.7 92.2-18.9l.9-.9h-.1c-25.4-12.6-61.3-8.6-86.1 8.1 9-15 18.4-29.5 28.2-43.3 30.2 9.4 70-2.2 90.9-27l.8-1h-.1c-24.6-9.5-57-3.9-80 12.2l2.4-3.3c5.9-7.7 11.9-15.1 18-22.4 35.7-10.1 67.5-46.5 72.6-84.1l.2-1.5h-.1c-36.9 7.4-71.1 43.7-77.9 82.1-5.9 7-11.6 14.1-17.3 21.5 9.2-25 7.6-55.4-5.9-76.4v-.3l-.8 1c-20.3 25.7-23.6 67.5-7.8 95.2-9.3 13.1-18.2 26.8-26.8 40.9 5.4-28.4-3.7-61.4-23.7-80l-.1-.1-.5 1.2c-13.2 29.6-6.1 70.5 15.6 93.6-8.6 14.9-16.7 30.3-24.5 46.3 4.7-29.5-5.8-63.7-27-82.2l-.1-.1-.5 1.2c-12 31.1-2.8 73.2 20.6 95.7-5.1 10.9-10 22.1-14.7 33.4-1.1-1.2-2.6-2.1-4.3-2.6-6.1-1.8-14.5-5-23.8-10.5-6.1-3.7-12.6-6.7-19.4-8.9-26.4-8.6-22.5-21.4-36.3-46.8-.9-1.7-11.8-13-14.1-15.1-.6-.5-7.5-4.5-11.1-12-3.2-6.8-5.1-13.2-5.7-19.4-.9-8.3-4.3-13.7-12.4-16.5-38.6-13.3-21.3-63.6-19.9-70.3 1.1-5.7-3.8-18.2-5.7-25-.2-.8-.4-1.8-.6-3.1-2.8-13.5 3.5-24.9 8.1-29.6 4.7-4.7 20.8-12.2 24.2-16.6 3.3-4.3 6-9.3 9.4-13.5 4.5-5.6 18.4-16.7 37-26.7 11.3-6 13.3-21.8 17.6-26.7 7.4-8.3 18.5-8.3 26.8-15.8 4.2-3.8 10.2-5.7 14.1-9.6 19.2-19.7 45-27.7 70.5-32.4 17.2-3.2 36.3 1.7 54.2 4.8 2.6.4 5.1 1.1 7.6 1.8 40.3 1.4 88.8 9.8 106.3 26.8 10.9 10.7 16.3 22.3 18.9 30.3 2.9 9 6.9 17.5 11.9 25.5l10.8 17.5c6.8 11.1 9.1 24.4 6.1 37.1-1.7 7.2-2.5 14.8-.4 19 3.4 6.6 13.7 17.3 19.9 23.4 3 3 6.3 5.6 9.9 7.8 8.3 5.2 24 15.3 24 16.2 0 1.2 1.3 6.2-5.7 12.2-7 6-20 15.6-20 15.6s.7 4.4 2.5 7.9 6.4 8.7 5 13.5c-1.4 4.8-11 8.5-8.3 13.7 2.8 5.3 9.6 6.9 7.6 11.7-2 4.8-11.5 12.9-10.6 16.5 1 3.5 8.7 36.1-9.2 41.8-13.5 4.3-50.5 6.7-67.9 7.6-7.5.4-14.3 4.6-17.9 11.2-2.7 4.9-5.4 11.8-6.7 20.8-3.4 23.1-26.2 76.1-26.2 76.1s-.7 1.3-1.7 3.6c-2 4.8-4.8 12.3-4.4 15.3.3 2 2.9 5.8 6.9 10.5 3.1 3.7 8.2 5.2 12.9 3.6C751.7 669 834.9 556.7 832.2 426.3z" style="fill:#00dacc"/></svg>