<svg xmlns="http://www.w3.org/2000/svg" fill="none" viewBox="0 0 54 64" aria-hidden="true" width="24px"><path fill="#2853C3" d="M46.836 51.5a6.25 6.25 0 1 0-.167 12.5 6.25 6.25 0 0 0 .167-12.5zm0 9.813a3.604 3.604 0 1 1-.387-7.198 3.604 3.604 0 0 1 .387 7.198z" class="nexo-logo-letter-o"/><path fill="#2853C3" d="M38.33 51.587a.167.167 0 0 0-.231 0l-4.238 4.186-4.186-4.186a.168.168 0 0 0-.23 0l-1.707 1.768a.167.167 0 0 0 0 .23l4.187 4.187-4.25 4.248a.168.168 0 0 0 0 .23l1.675 1.664a.197.197 0 0 0 .227.048.198.198 0 0 0 .066-.048l4.186-4.186 4.186 4.186a.167.167 0 0 0 .23 0l1.706-1.695a.167.167 0 0 0 0-.23l-4.186-4.186 4.25-4.186a.167.167 0 0 0 0-.23l-1.686-1.8z" class="nexo-logo-letter-x"/><path fill="#2853C3" d="M26.683 57.08c-.26-3.104-2.845-5.553-6.01-5.58a6.13 6.13 0 0 0-2.604.572c-2.242 1.048-3.496 3.272-3.496 5.703.123 3.298 2.942 6.006 6.244 6.006h3.465a.34.34 0 0 0 .339-.338V61.46a.339.339 0 0 0-.339-.339h-3.614c-1.513 0-2.797-1.126-3.259-2.484h8.865c.242 0 .435-.18.435-.4a236.11 236.11 0 0 0-.026-1.157zm-2.85-.637h-6.41c.523-1.473 1.979-2.418 3.53-2.27 1.346.128 2.432 1.051 2.88 2.27z" class="nexo-logo-letter-e"/><path fill="#2853C3" d="M6.812 51.506a5.85 5.85 0 0 0-3.203 1.046v-.69a.21.21 0 0 0-.209-.21H1.16a.21.21 0 0 0-.209.21v5.577a2.554 2.554 0 0 0 0 .283v5.693a.345.345 0 0 0 .335.345h1.988a.335.335 0 0 0 .335-.345v-5.829a3.433 3.433 0 0 1 3.768-3.412 3.507 3.507 0 0 1 3.14 3.517v5.745a.335.335 0 0 0 .334.345h1.978a.346.346 0 0 0 .345-.345v-5.85a6.101 6.101 0 0 0-6.362-6.08z" class="nexo-logo-letter-n"/><path fill="#60BEFF" d="M1 7.504v29.427a1.05 1.05 0 0 0 .504.904l12.497 7.21V14.987L1 7.504z" class="nexo-logo-shape-6"/><path fill="#1A4199" d="m39.991 0 12.507 7.21a1.05 1.05 0 0 1 .504.872v29.427l-13.01-7.493V0z" class="nexo-logo-shape-5"/><path fill="#3CA9E5" d="m14 45.025 12.99-7.504L14 30.017v15.008z" class="nexo-logo-shape-4"/><path fill="#3CA9E5" d="M14.495.295 39.99 15.01v15.008L1 7.505 13.496.295a.946.946 0 0 1 .998 0z" class="nexo-logo-shape-3"/><path fill="#2853C3" d="m39.993 0-13 7.504 13 7.504V0z" class="nexo-logo-shape-2"/><path fill="#2853C3" d="m52.992 37.52-12.496 7.21a1.05 1.05 0 0 1-1.05 0L13.958 30.016V14.987L52.992 37.52z" class="nexo-logo-shape-1"/></svg>