<svg xmlns="http://www.w3.org/2000/svg" fill="none" viewBox="-10 0 55 55" aria-hidden="true" width="24px"><path fill="#88B6D0" d="M22.342 51.64a2.362 2.362 0 0 1-2.36 2.36 2.362 2.362 0 0 1-2.36-2.36V35.311a2.362 2.362 0 0 1 2.36-2.36 2.362 2.362 0 0 1 2.36 2.36v16.33z"/><path fill="#000" fill-opacity=".2" d="M20.389 32.978c-.136-.027-.244-.027-.38-.027a2.362 2.362 0 0 0-2.36 2.36v16.33c0 .162.027.325.054.46 2.469-2.36 4.123-6.645 4.123-11.582 0-2.794-.542-5.37-1.437-7.54z" opacity=".25"/><g filter="url(#a)"><path fill="#F6F9FA" d="M29.991 19.982c0-5.506-4.476-9.982-9.982-9.982-5.411 0-9.827 4.322-9.978 9.697-.005.19-.021.379-.028.568-.003.084-.003.169-.003.26v19.448a4.723 4.723 0 0 0 4.72 4.72h10.55a4.723 4.723 0 0 0 4.72-4.72V19.982z"/></g><mask id="b" width="20" height="35" x="10" y="10" mask-type="alpha" maskUnits="userSpaceOnUse"><path fill="#F6F9FA" d="M29.991 19.982c0-5.506-4.476-9.982-9.982-9.982-5.411 0-9.827 4.322-9.978 9.697-.005.19-.021.379-.028.568-.003.084-.003.169-.003.26v19.448a4.723 4.723 0 0 0 4.72 4.72h10.55a4.723 4.723 0 0 0 4.72-4.72V19.982z"/></mask><g mask="url(#b)"><g filter="url(#c)"><path fill="#F6F9FA" d="M20.01 10c-5.412 0-9.828 4.322-9.979 9.697-.005.19-.021.379-.028.568-.003.084-.003.169-.003.26v15.337c0 1.902 1.353 3.607 3.253 3.51 6.822-.347 13.494-5.904 16.518-14.156.15-.41.22-.846.22-1.282v-3.98c0-5.506-4.476-9.954-9.982-9.954z"/></g><g filter="url(#d)"><path fill="#F6F9FA" d="M20.01 10c-5.412 0-9.828 4.322-9.979 9.697-.005.19-.021.379-.028.568-.003.084-.003.169-.003.26v9.266c0 2.008 1.51 3.765 3.499 3.496 6.88-.931 13.42-7.076 15.95-15.8.054-.272.07-.547-.021-.808A9.965 9.965 0 0 0 20.009 10z"/></g><g filter="url(#e)"><path fill="#F6F9FA" d="M24.45 20.2c0 4.226-6.254 8.076-9.775 8.076-2.975 0-2.975-3.85-2.975-8.075 0-4.226 2.855-7.65 6.376-7.65 3.52 0 6.375 3.424 6.375 7.65z"/></g><g filter="url(#f)"><path fill="#F6F9FA" d="M18.576 18.884c-.19 1.817-1.33 3.174-2.523 3.038-1.22-.136-2.034-1.682-1.844-3.499.19-1.817 1.329-3.174 2.522-3.038 1.194.108 2.035 1.682 1.845 3.5z"/></g><g filter="url(#g)"><path fill="#F6F9FA" d="M29.99 19.982c0-5.506-4.475-9.982-9.981-9.982-.276 0-.3.38-.037.464a10 10 0 0 1 6.927 9.518V40a4.723 4.723 0 0 1-4.72 4.72h3.092a4.723 4.723 0 0 0 4.72-4.72V19.982z"/></g></g><path fill="#fff" d="M41.563 27.606v5.345h-2.877V18.548h5.243c1.7 0 2.979.408 3.836 1.224.87.816 1.305 1.925 1.305 3.325 0 1.374-.448 2.469-1.346 3.285-.884.816-2.149 1.224-3.795 1.224h-2.366zm2.06-2.305c1.687 0 2.53-.735 2.53-2.204 0-.72-.197-1.271-.592-1.652-.394-.38-1.04-.571-1.938-.571h-2.06V25.3h2.06zm12.538-3.795c1.102 0 2.088.231 2.959.694a5.042 5.042 0 0 1 2.08 2.02c.504.87.755 1.897.755 3.08s-.251 2.21-.755 3.08a5.215 5.215 0 0 1-2.08 2.02c-.87.463-1.857.694-2.959.694-1.101 0-2.094-.231-2.978-.694a5.253 5.253 0 0 1-2.06-2.02c-.504-.87-.755-1.897-.755-3.08s.251-2.21.754-3.08a5.076 5.076 0 0 1 2.06-2.02c.885-.463 1.878-.694 2.98-.694zm0 2.49c-.802 0-1.482.285-2.04.856-.557.558-.836 1.374-.836 2.448 0 1.075.279 1.897.836 2.469.558.557 1.238.836 2.04.836.803 0 1.483-.279 2.04-.836.558-.572.837-1.394.837-2.469 0-1.074-.279-1.89-.836-2.448a2.743 2.743 0 0 0-2.04-.857zm14.58-2.49c.952 0 1.809.231 2.57.694.762.462 1.354 1.135 1.775 2.02.436.87.653 1.897.653 3.08s-.217 2.217-.653 3.101c-.421.87-1.013 1.537-1.774 2-.762.462-1.619.693-2.571.693-.952 0-1.768-.224-2.448-.673a3.816 3.816 0 0 1-1.428-1.836v7.752h-2.877V21.649h2.877v2.346a3.703 3.703 0 0 1 1.428-1.816c.68-.448 1.496-.673 2.448-.673zm-.898 2.51c-.87 0-1.59.299-2.162.897-.558.585-.837 1.38-.837 2.387 0 .993.28 1.788.837 2.387.571.585 1.292.877 2.162.877.898 0 1.619-.285 2.163-.857.544-.585.816-1.387.816-2.407s-.272-1.823-.816-2.407c-.544-.585-1.265-.878-2.163-.878zm11.828-2.51c1.374 0 2.476.347 3.305 1.04.83.694 1.347 1.62 1.55 2.775h-2.692c-.109-.544-.354-.98-.734-1.306-.381-.326-.878-.49-1.49-.49-.49 0-.87.117-1.142.348-.272.23-.408.544-.408.938 0 .313.109.564.326.755.218.19.49.34.816.449.327.109.796.238 1.408.387.857.19 1.55.395 2.08.612a3.25 3.25 0 0 1 1.388 1c.394.449.592 1.06.592 1.836 0 .966-.381 1.748-1.143 2.346-.748.599-1.761.898-3.04.898-1.468 0-2.645-.327-3.529-.98-.884-.666-1.421-1.611-1.611-2.835H80.1c.068.558.312 1 .734 1.326.422.313.973.47 1.653.47.49 0 .863-.116 1.122-.348.258-.244.387-.557.387-.938 0-.327-.115-.592-.347-.796a2.167 2.167 0 0 0-.836-.469 19.08 19.08 0 0 0-1.408-.387c-.843-.19-1.53-.381-2.06-.572a3.458 3.458 0 0 1-1.347-.959c-.367-.435-.55-1.033-.55-1.795 0-.98.374-1.775 1.122-2.387.748-.612 1.781-.918 3.1-.918zm6.815-3.101c0-.462.163-.836.49-1.122.326-.3.754-.449 1.285-.449.53 0 .959.15 1.285.45.326.285.49.659.49 1.121 0 .449-.164.823-.49 1.122-.327.286-.755.429-1.285.429-.53 0-.96-.143-1.286-.429a1.46 1.46 0 0 1-.49-1.122zm3.203 3.244v11.302h-2.877V21.65h2.877zm7.681-.143c1.456 0 2.667.395 3.632 1.183.979.79 1.591 1.864 1.836 3.224h-3.039c-.123-.599-.402-1.068-.837-1.408-.435-.354-.986-.53-1.652-.53-.762 0-1.401.285-1.918.856-.503.558-.755 1.381-.755 2.469 0 1.088.252 1.918.755 2.489a2.51 2.51 0 0 0 1.918.836c.666 0 1.217-.17 1.652-.51.435-.353.714-.83.837-1.428h3.039c-.245 1.36-.857 2.435-1.836 3.224-.965.788-2.176 1.183-3.631 1.183-1.102 0-2.081-.231-2.938-.694a5.014 5.014 0 0 1-2-2.02c-.475-.87-.713-1.897-.713-3.08s.238-2.21.714-3.08a4.851 4.851 0 0 1 2-2.02c.856-.463 1.835-.694 2.937-.694zm10.389-3.652v15.097h-2.877V17.854h2.877zm13.231 9.018c0 .285-.034.612-.102.979h-8.283c.041 1.006.313 1.748.816 2.224.503.476 1.129.714 1.877.714.666 0 1.217-.164 1.653-.49.448-.326.734-.768.856-1.326h3.04a4.863 4.863 0 0 1-.959 2.122 4.99 4.99 0 0 1-1.897 1.468c-.762.354-1.612.53-2.55.53-1.102 0-2.081-.23-2.938-.693a5.013 5.013 0 0 1-1.999-2.02c-.476-.87-.714-1.897-.714-3.08s.238-2.21.714-3.08a4.85 4.85 0 0 1 1.999-2.02c.857-.463 1.836-.694 2.938-.694 1.115 0 2.088.231 2.917.694a4.787 4.787 0 0 1 1.938 1.918c.463.802.694 1.72.694 2.754zm-2.897-.286c.041-.925-.204-1.625-.734-2.101-.517-.476-1.157-.714-1.918-.714-.775 0-1.428.238-1.959.714-.53.476-.822 1.176-.877 2.101h5.488zM51.168 40.717c-.662-.009-1.124.104-1.387.34-.254.236-.381.644-.381 1.224v.204h1.768v1.088H49.4v6.379h-1.238v-6.379h-1.074v-1.088h1.074v-.299c0-1.786 1.002-2.639 3.006-2.557v1.088zm3.778-.422a.69.69 0 0 1 .231-.544c.154-.145.358-.217.612-.217s.458.072.612.218a.69.69 0 0 1 .232.543.732.732 0 0 1-.232.558c-.154.136-.358.204-.612.204s-.458-.068-.612-.204a.732.732 0 0 1-.23-.558zm1.455 2.19v7.467h-1.237v-7.467H56.4zm8.573-.122c.87 0 1.573.28 2.108.843.535.553.802 1.356.802 2.407v4.339h-1.237v-4.23c0-.743-.19-1.315-.571-1.714-.381-.399-.898-.598-1.55-.598-.681 0-1.225.222-1.633.667-.408.435-.612 1.074-.612 1.917v3.958h-1.238v-7.467h1.238v1.768c.19-.607.526-1.074 1.006-1.4.49-.327 1.052-.49 1.687-.49zm10.521.027c.725 0 1.337.181 1.836.544.508.363.861.848 1.061 1.455v-1.904h1.238v7.467h-1.238v-1.904a2.822 2.822 0 0 1-1.06 1.455c-.5.363-1.112.544-1.837.544-.662 0-1.251-.154-1.768-.462a3.253 3.253 0 0 1-1.224-1.32c-.29-.58-.435-1.26-.435-2.04s.145-1.46.435-2.04c.3-.58.707-1.024 1.224-1.333.517-.308 1.106-.462 1.768-.462zm.354 1.102c-.762 0-1.374.245-1.836.734-.454.48-.68 1.147-.68 2 0 .852.226 1.523.68 2.012.462.48 1.074.721 1.836.721.49 0 .924-.113 1.305-.34a2.37 2.37 0 0 0 .912-.952c.217-.417.326-.898.326-1.442 0-.544-.109-1.024-.326-1.441a2.255 2.255 0 0 0-.912-.952 2.504 2.504 0 0 0-1.305-.34zm12.333-1.129c.87 0 1.573.28 2.108.843.535.553.803 1.356.803 2.407v4.339h-1.238v-4.23c0-.743-.19-1.315-.571-1.714-.381-.399-.898-.598-1.55-.598-.68 0-1.225.222-1.633.667-.408.435-.612 1.074-.612 1.917v3.958h-1.237v-7.467h1.237v1.768c.19-.607.526-1.074 1.007-1.4.49-.327 1.052-.49 1.686-.49zm10.766.027c.952 0 1.741.254 2.367.762.625.507 1.011 1.187 1.156 2.04h-1.306c-.091-.535-.34-.952-.748-1.252-.399-.308-.898-.462-1.496-.462-.435 0-.834.1-1.197.3-.353.199-.64.507-.857.924-.217.408-.326.916-.326 1.523 0 .608.109 1.12.326 1.537.218.408.504.712.857.911.363.2.762.3 1.197.3.598 0 1.097-.154 1.496-.463.408-.308.657-.73.748-1.265h1.306c-.145.862-.531 1.546-1.156 2.054-.626.499-1.415.748-2.367.748-.716 0-1.35-.154-1.904-.462a3.323 3.323 0 0 1-1.306-1.32c-.308-.58-.462-1.26-.462-2.04s.154-1.46.462-2.04a3.301 3.301 0 0 1 1.306-1.333c.553-.308 1.188-.462 1.904-.462zm14.663 3.414c0 .263-.018.49-.054.68h-5.971c.027.852.267 1.491.721 1.917.462.427 1.024.64 1.686.64.599 0 1.097-.15 1.496-.45.408-.307.658-.715.748-1.223h1.32c-.091.517-.295.98-.612 1.387a3.09 3.09 0 0 1-1.211.952c-.499.227-1.061.34-1.686.34-.717 0-1.351-.154-1.905-.462a3.32 3.32 0 0 1-1.305-1.32c-.308-.58-.463-1.26-.463-2.04s.155-1.46.463-2.04a3.298 3.298 0 0 1 1.305-1.333c.554-.308 1.188-.462 1.905-.462.725 0 1.355.154 1.89.462a3.13 3.13 0 0 1 1.238 1.238c.29.517.435 1.088.435 1.714zm-1.251.081c.027-.553-.064-1.015-.272-1.387a1.99 1.99 0 0 0-.857-.83 2.61 2.61 0 0 0-1.183-.272c-.68 0-1.252.213-1.714.64-.463.417-.712 1.033-.748 1.85h4.774z"/><defs><filter id="a" width="39.991" height="54.693" x="0" y="0" color-interpolation-filters="sRGB" filterUnits="userSpaceOnUse"><feFlood flood-opacity="0" result="BackgroundImageFix"/><feColorMatrix in="SourceAlpha" result="hardAlpha" values="0 0 0 0 0 0 0 0 0 0 0 0 0 0 0 0 0 0 127 0"/><feOffset/><feGaussianBlur stdDeviation="5"/><feColorMatrix values="0 0 0 0 0.076875 0 0 0 0 0.573338 0 0 0 0 0.683333 0 0 0 0.4 0"/><feBlend in2="BackgroundImageFix" result="effect1_dropShadow"/><feBlend in="SourceGraphic" in2="effect1_dropShadow" result="shape"/></filter><filter id="c" width="39.991" height="49.376" x="0" y="0" color-interpolation-filters="sRGB" filterUnits="userSpaceOnUse"><feFlood flood-opacity="0" result="BackgroundImageFix"/><feColorMatrix in="SourceAlpha" result="hardAlpha" values="0 0 0 0 0 0 0 0 0 0 0 0 0 0 0 0 0 0 127 0"/><feOffset/><feGaussianBlur stdDeviation="5"/><feColorMatrix values="0 0 0 0 0 0 0 0 0 0.52 0 0 0 0 1 0 0 0 0.85 0"/><feBlend in2="BackgroundImageFix" result="effect1_dropShadow"/><feBlend in="SourceGraphic" in2="effect1_dropShadow" result="shape"/></filter><filter id="d" width="39.492" height="43.315" x="0" y="0" color-interpolation-filters="sRGB" filterUnits="userSpaceOnUse"><feFlood flood-opacity="0" result="BackgroundImageFix"/><feColorMatrix in="SourceAlpha" result="hardAlpha" values="0 0 0 0 0 0 0 0 0 0 0 0 0 0 0 0 0 0 127 0"/><feOffset/><feGaussianBlur stdDeviation="5"/><feColorMatrix values="0 0 0 0 0.168627 0 0 0 0 0.823529 0 0 0 0 0.968627 0 0 0 0.85 0"/><feBlend in2="BackgroundImageFix" result="effect1_dropShadow"/><feBlend in="SourceGraphic" in2="effect1_dropShadow" result="shape"/></filter><filter id="e" width="32.751" height="35.726" x="1.7" y="2.55" color-interpolation-filters="sRGB" filterUnits="userSpaceOnUse"><feFlood flood-opacity="0" result="BackgroundImageFix"/><feColorMatrix in="SourceAlpha" result="hardAlpha" values="0 0 0 0 0 0 0 0 0 0 0 0 0 0 0 0 0 0 127 0"/><feOffset/><feGaussianBlur stdDeviation="5"/><feColorMatrix values="0 0 0 0 0.168627 0 0 0 0 0.823529 0 0 0 0 0.968627 0 0 0 0.4 0"/><feBlend in2="BackgroundImageFix" result="effect1_dropShadow"/><feBlend in="SourceGraphic" in2="effect1_dropShadow" result="shape"/></filter><filter id="f" width="24.421" height="26.556" x="4.181" y="5.376" color-interpolation-filters="sRGB" filterUnits="userSpaceOnUse"><feFlood flood-opacity="0" result="BackgroundImageFix"/><feColorMatrix in="SourceAlpha" result="hardAlpha" values="0 0 0 0 0 0 0 0 0 0 0 0 0 0 0 0 0 0 127 0"/><feOffset/><feGaussianBlur stdDeviation="5"/><feColorMatrix values="0 0 0 0 0.168627 0 0 0 0 0.823529 0 0 0 0 0.968627 0 0 0 0.4 0"/><feBlend in2="BackgroundImageFix" result="effect1_dropShadow"/><feBlend in="SourceGraphic" in2="effect1_dropShadow" result="shape"/></filter><filter id="g" width="30.203" height="54.72" x="9.788" y="0" color-interpolation-filters="sRGB" filterUnits="userSpaceOnUse"><feFlood flood-opacity="0" result="BackgroundImageFix"/><feColorMatrix in="SourceAlpha" result="hardAlpha" values="0 0 0 0 0 0 0 0 0 0 0 0 0 0 0 0 0 0 127 0"/><feOffset/><feGaussianBlur stdDeviation="5"/><feColorMatrix values="0 0 0 0 0.168627 0 0 0 0 0.823529 0 0 0 0 0.968627 0 0 0 0.4 0"/><feBlend in2="BackgroundImageFix" result="effect1_dropShadow"/><feBlend in="SourceGraphic" in2="effect1_dropShadow" result="shape"/></filter></defs></svg>