<svg xmlns="http://www.w3.org/2000/svg" version="1.1" viewBox="0 0 250 250" aria-hidden="true" width="24px"><path fill="black" fill-opacity=".122" fill-rule="evenodd" stroke="none" d="M 101.500 1.981 C 75.894 7.136, 52.913 19.779, 35.144 38.485 C 25.938 48.177, 16.595 62.282, 16.614 66.460 C 16.633 70.671, 17.892 75.185, 18.877 74.576 C 19.327 74.298, 18.186 78.088, 16.342 82.999 C 10.238 99.249, 9.550 103.519, 9.575 125 C 9.597 143.011, 9.805 145.264, 12.299 154.500 C 15.461 166.206, 24.844 185.794, 31.460 194.500 C 33.968 197.800, 39.053 203.650, 42.760 207.500 C 46.467 211.350, 48.656 213.835, 47.624 213.023 C 45.830 211.610, 45.780 211.742, 46.490 216.023 C 47.552 222.427, 48.081 223.115, 56.335 228.821 C 92.391 253.746, 140.326 256.964, 180.500 237.157 C 215.644 219.830, 240.060 187.962, 247.984 149.077 C 250.522 136.625, 250.729 115.064, 248.428 102.934 C 240.972 63.632, 216.684 31.033, 181.696 13.370 C 170.620 7.779, 158.046 3.541, 146.615 1.548 C 134.501 -0.565, 113.123 -0.359, 101.500 1.981 M 66.009 81.108 C 61.056 87.373, 55.727 98.324, 53.408 107 C 51.022 115.927, 51.005 134.242, 53.373 143 C 55.503 150.872, 61.930 164.286, 65.727 168.784 L 68.500 172.068 68.338 165.666 C 68.233 161.525, 67.474 157.889, 66.189 155.370 C 61.677 146.526, 59.566 137.013, 59.559 125.500 C 59.552 112.945, 61.244 105.315, 66.163 95.720 C 68.425 91.308, 69.521 87.538, 69.936 82.750 C 70.257 79.037, 70.414 76, 70.283 76 C 70.153 76, 68.230 78.299, 66.009 81.108 M 217.652 106.524 C 216.635 108.984, 215.415 110.757, 214.941 110.464 C 214.467 110.170, 214.338 114.325, 214.656 119.716 C 216.482 150.700, 200.488 182.490, 174.240 200.045 C 170.166 202.770, 167.359 205, 168.002 205 C 168.696 205, 168.153 206.821, 166.668 209.479 L 164.164 213.958 167.695 212.483 C 173.723 209.964, 182.211 204.384, 189.242 198.317 C 212.328 178.397, 225.410 145.726, 222.030 116.431 C 221.464 111.519, 220.663 106.274, 220.250 104.776 C 219.509 102.085, 219.478 102.106, 217.652 106.524"/><path fill="black" fill-opacity=".352" fill-rule="evenodd" stroke="none" d="M 107.500 1.396 C 94.453 3.564, 83.793 6.871, 73.853 11.832 C 64.914 16.294, 64.514 16.632, 64.825 19.487 C 65.004 21.130, 65.567 22.732, 66.076 23.047 C 66.585 23.361, 63.964 25.617, 60.251 28.059 C 50.842 34.249, 35.458 49.866, 28.709 60.082 C 8.716 90.343, 3.735 126.116, 14.675 160.866 C 25.623 195.639, 54.503 224.478, 89.835 235.921 C 94.601 237.464, 101.581 239.297, 105.346 239.995 C 109.651 240.792, 111.706 241.563, 110.883 242.073 C 109.904 242.677, 109.823 243.594, 110.560 245.691 C 111.424 248.151, 112.227 248.595, 117.024 249.266 C 123.733 250.204, 137.801 249.344, 148.426 247.346 C 186.507 240.187, 218.906 215.923, 236.549 181.350 C 260.643 134.137, 251.997 76.851, 215.007 38.614 C 196.637 19.625, 175.894 8.162, 149.500 2.411 C 139.746 0.286, 117.421 -0.253, 107.500 1.396 M 100.471 55.396 C 82.474 61.035, 63.949 78.476, 56.509 96.785 C 47.951 117.846, 49.753 143.519, 61.135 162.691 C 65.587 170.192, 76.052 181.282, 83.359 186.244 C 87.913 189.336, 99.473 195, 101.230 195 C 101.379 195, 101.500 193.259, 101.500 191.131 C 101.500 187.416, 101.262 187.139, 95.500 184.146 C 79.073 175.611, 66.144 159.308, 61.567 141.356 C 59.750 134.229, 59.502 118.534, 61.084 110.799 C 61.681 107.885, 64.168 101.333, 66.611 96.240 C 73.479 81.926, 85.789 70.095, 100.500 63.669 C 104.199 62.053, 104.500 61.624, 104.500 57.961 C 104.500 55.782, 104.500 54.030, 104.500 54.067 C 104.500 54.104, 102.687 54.702, 100.471 55.396 M 192.090 55.500 C 192.375 56.754, 190.921 60.313, 189.817 61.063 C 189.361 61.372, 190.484 63.397, 192.312 65.563 C 200.528 75.291, 207.334 87.955, 211.108 100.536 C 214.051 110.343, 214.837 131.662, 212.646 142.254 C 205.317 177.692, 178.165 204.980, 142.517 212.731 C 138.657 213.570, 130.476 214.305, 124.337 214.364 C 118.197 214.423, 113.380 214.806, 113.633 215.215 C 114.435 216.513, 111.998 219.996, 110.215 220.100 C 109.116 220.164, 109.398 220.487, 111 221 C 115.562 222.461, 137.659 222.088, 145.792 220.412 C 179.565 213.453, 207.795 187.780, 218.295 154.476 C 227.161 126.355, 222.982 95.988, 206.966 72.148 C 201.779 64.427, 191.504 52.928, 192.090 55.500"/><path fill="black" fill-opacity=".683" fill-rule="evenodd" stroke="none" d="M 123.447 1.277 C 123.156 2.035, 123.376 3.858, 123.934 5.328 C 124.493 6.797, 124.624 8.004, 124.225 8.008 C 123.826 8.013, 119.450 8.475, 114.500 9.035 C 88.032 12.032, 64.003 23.141, 45.608 40.887 C 13.841 71.533, 2.171 113.470, 13.564 156.043 C 26.779 205.422, 73.629 241.017, 125.381 240.996 C 139.467 240.990, 156.483 237.973, 168.556 233.340 C 169.440 233.001, 170.103 234.031, 170.556 236.447 C 171.342 240.635, 171.732 240.610, 181.500 235.760 C 203.922 224.626, 224.095 204.766, 235.764 182.337 C 244.273 165.982, 250 142.915, 250 125 C 250 107.399, 244.481 84.818, 236.153 68.349 C 218.220 32.883, 182.121 6.928, 144 2.091 C 127.179 -0.043, 124.002 -0.169, 123.447 1.277 M 150.502 32.004 C 150.871 32.600, 150.443 34.201, 149.551 35.562 C 148.039 37.869, 148.050 38.078, 149.715 38.658 C 179.878 49.165, 199.861 68.706, 209.557 97.177 C 213.033 107.382, 214.351 117.684, 213.728 129.771 C 212.542 152.808, 203.272 172.891, 186.362 189.061 C 174.933 199.990, 164.604 206.006, 149.297 210.651 C 141.533 213.006, 138.739 213.330, 125.500 213.407 C 113.765 213.475, 108.995 213.086, 103.584 211.622 C 94.101 209.055, 84.752 205.072, 76.889 200.248 L 70.279 196.192 68.654 199.600 L 67.028 203.008 71.264 206.099 C 86.629 217.311, 110.626 223.973, 130.924 222.663 C 156.082 221.039, 175.671 212.235, 193.592 194.500 C 213.421 174.877, 223.020 152.277, 222.987 125.292 C 222.964 106.824, 218.627 90.937, 209.122 74.513 C 202.827 63.637, 187.363 48.173, 176.487 41.878 C 165.497 35.518, 148.739 29.150, 150.502 32.004 M 107.179 52.887 C 81.949 59.285, 62.694 77.439, 53.991 103.033 C 50.628 112.926, 50.068 131.879, 52.819 142.757 C 61.261 176.139, 90.208 199.034, 123.910 198.986 C 136.842 198.968, 137.679 198.690, 137.198 194.569 L 136.812 191.263 124.656 190.730 C 115.961 190.349, 110.649 189.577, 106 188.017 C 83.595 180.499, 66.423 161.774, 61.454 139.440 C 57.979 123.820, 60.971 105.132, 69.179 91.190 C 74.331 82.439, 85.331 72.089, 94.581 67.290 C 107.135 60.777, 112.481 59.530, 127.750 59.552 L 141 59.571 141 56.393 C 141 52.186, 139.821 51.791, 126 51.376 C 117.193 51.111, 112.785 51.465, 107.179 52.887"/><path fill="black" fill-opacity=".957" fill-rule="evenodd" stroke="none" d="M 108.500 10.389 C 69.310 16.912, 38.446 39.604, 21.479 74.371 C -5.865 130.400, 16.148 198.217, 70.987 226.895 C 98.324 241.191, 126.486 244.346, 156.076 236.427 C 178.763 230.355, 201.285 215.537, 217.255 196.173 L 220.823 191.847 221.675 197.173 L 222.528 202.500 228.154 194 C 242.606 172.168, 249.260 150.655, 249.342 125.500 C 249.460 89.243, 234.472 55.753, 207.500 32.006 C 201.431 26.663, 187.492 17, 185.853 17 C 185.047 17, 185.302 19.256, 186.677 24.304 C 187.076 25.767, 185.651 25.344, 179.109 22.055 C 169.755 17.352, 159.226 13.661, 148.838 11.443 C 138.676 9.273, 118.385 8.743, 108.500 10.389 M 117.500 27.473 C 116.950 27.646, 113.223 28.329, 109.218 28.990 L 101.936 30.193 99.524 34.952 L 97.113 39.711 102.806 38.317 C 105.938 37.550, 113.675 36.660, 120 36.340 C 140.084 35.321, 157.513 40.080, 173.937 51.065 C 230.748 89.066, 225.515 173.909, 164.500 204.081 C 149.941 211.281, 141.496 213.239, 125 213.239 C 108.520 213.239, 100.083 211.286, 85.500 204.096 C 68.095 195.516, 54.190 181.770, 45.157 164.216 L 40.227 154.635 38.044 158.915 C 35.944 163.031, 35.923 163.352, 37.504 167.347 C 42.418 179.763, 57.160 197.437, 69.500 205.707 C 78.503 211.741, 88.899 216.683, 98.712 219.593 C 111.338 223.337, 131.507 224.030, 145.202 221.191 C 174.303 215.157, 198.829 196.472, 212.392 170 C 220.488 154.200, 223.391 141.902, 223.251 124 C 223.128 108.167, 220.160 95.763, 213.084 81.500 C 196.500 48.074, 161.887 26.645, 125.178 27.079 C 121.505 27.122, 118.050 27.300, 117.500 27.473 M 114.500 50.936 C 83.751 55.966, 59.549 78.089, 52.324 107.770 C 49.929 117.608, 50.173 134.396, 52.856 144.355 C 59.288 168.230, 77.972 187.982, 101.773 196.067 C 110.751 199.117, 112.502 199.376, 124.500 199.430 C 135.442 199.480, 138.682 199.119, 144.965 197.151 C 153.530 194.467, 161.670 190.523, 167.654 186.157 C 171.530 183.329, 171.831 182.762, 172.154 177.660 L 172.500 172.192 170 174.147 C 158.619 183.048, 146.885 188.241, 134.250 189.968 C 106.725 193.730, 79.780 179.321, 67.004 154.007 C 57.875 135.918, 57.940 115.329, 67.187 96 C 70.524 89.023, 72.798 85.973, 79.876 78.978 C 93.345 65.669, 106.901 60.045, 125.590 60.015 C 141.645 59.989, 155.493 64.876, 168.120 75.026 L 174.500 80.154 174.828 75.327 C 175.144 70.667, 174.989 70.351, 170.328 66.186 C 164.687 61.145, 152.114 54.798, 143.338 52.561 C 135.822 50.646, 121.281 49.826, 114.500 50.936"/></svg>