<svg xmlns="http://www.w3.org/2000/svg" viewBox="0 0 200 225.81"><g data-name="Layer 2"><path d="m30.96 47.61 16.65-9.56 2.24 3.85 61.39-35.4-4.49-2.58-4.51-2.63L100 0 0 57.77v2.58l28.71-16.61 2.25 3.87zm0 36.37 48.11-27.8 2.25 3.91 61.38-35.42-4.49-2.62-4.5-2.58-2.25-1.27L0 94.1v2.58l28.71-16.61 2.25 3.91zm0 18.18L94.8 65.3l2.26 3.87 61.36-35.46-4.48-2.54-4.49-2.63-2.26-1.29L0 112.23v2.62l28.71-16.58 2.25 3.89zm0 18.15 80.02-46.19 2.27 3.87 60.91-35.16-4.48-2.63-4.51-2.58-2.24-1.29L0 130.43v2.58l28.71-16.61 2.25 3.91zm0 18.14 95.76-55.27 2.25 3.91 60.92-35.21-4.49-2.56-4.49-2.62-2.26-1.29L0 148.56v2.58l28.71-16.57 2.25 3.88zM196.64 55.8l-2.25-1.31L0 166.76v2.58l28.71-16.57 2.25 3.87 95.76-55.26 2.25 3.87L200 64.26v-6.49l-3.36-1.97zM12.31 180.36l16.11-9.29 2.24 3.88 95.6-55.19 2.24 3.92L200 82.39V69.4L10.11 179.07l2.2 1.29zm113.95-42.4 2.24 3.92 71.5-41.29V87.6L25.84 188.15l2.26 1.29 16.34-9.46 2.26 3.92m-2.88 14.64 16.36-9.48 2.24 3.91 63.84-36.88 2.24 3.92 71.5-41.28v-12.98L41.54 197.21l2.28 1.33zm15.72 9.08 16.36-9.44 2.26 3.87 48.1-27.76 2.24 3.87 71.5-41.28v-12.95l-142.7 82.4 2.24 1.29zm13.5 7.78 2.25 1.29 16.39-9.45 2.21 3.91 32.37-18.72 2.24 3.91 71.5-41.28v-13L73.04 215.4zm17.97 10.41 16.35-9.5 2.25 3.92 16.65-9.65 2.24 3.91 71.5-41.24v-12.99L88.76 224.52l2.25 1.29zm35.97-210.24-4.51-2.58-4.48-2.58-2.25-1.33L0 75.9v2.58l28.71-16.55 2.25 3.85L63.33 47.1l2.31 3.92 61.34-35.45z" style="fill:#080817" data-name="Layer 1"/></g></svg>