<svg xmlns="http://www.w3.org/2000/svg" version="1.2" viewBox="0 0 44 40" aria-hidden="true" width="24px"><title>scallop-svg</title><defs><linearGradient id="g1" x1="25.1" x2="-28.7" y1="-13.4" y2="104.1" gradientUnits="userSpaceOnUse"><stop offset="0" stop-color="#00deca"/><stop offset=".378" stop-color="#3a8afa"/><stop offset="1" stop-color="#1a6af4"/></linearGradient><linearGradient id="g2" x1="37" x2="-16.5" y1="-9.7" y2="107" gradientUnits="userSpaceOnUse"><stop offset="0" stop-color="#00deca"/><stop offset=".378" stop-color="#3a8afa"/><stop offset="1" stop-color="#1a6af4"/></linearGradient></defs><style>.s0 { fill: #000000 } 
		.s1 { fill: url(#g1) } 
		.s2 { fill: url(#g2) }</style><path id="Layer" d="m66 17.6l-3.8-0.7c-2.5-0.5-3.1-0.8-3.1-2.2 0-1.3 0.9-1.9 3.6-1.9 3.2 0 4.1 0.7 4.1 3v0.4l4.7-1.3c-0.3-3.7-3-6.4-8.6-6.4-6.2 0-8.5 3.2-8.5 6.5 0 3.3 1.7 5.3 5.8 6l3.8 0.6c2.9 0.5 3.3 1 3.3 2.5 0 1.4-0.6 1.9-3.4 1.9-3.9 0-4.7-0.6-4.7-2.9v-0.4l-4.7 1.3c0.3 4.2 3.2 6.4 9.1 6.4 6.1 0 8.3-3.1 8.3-6.5 0.1-3-1.5-5.4-5.9-6.3z" class="s0"/><path id="Layer" d="m89.2 20.7v-0.3c0-4-3.1-6.6-7.4-6.6-5.4 0-8.4 3.3-8.4 8.4 0 5 2.8 8.2 8.1 8.2 4.4 0 7.6-2.6 7.6-6.5v-0.3h-4.7v0.2c0 1.7-1 2.4-3 2.4-2.3 0-3.3-1.1-3.3-4.1 0-3 1-4 3.3-4 2 0 3 0.5 3 2.4v0.3h4.8z" class="s0"/><path id="Layer" fill-rule="evenodd" d="m106.2 20.6v9.4h-4.4v-2.1h-0.2c-1 1.2-2.5 2.5-5.5 2.5-2.9 0-5.1-1.5-5.1-4.4 0-2.4 1.8-4 5.1-4.5l5.5-0.9v-0.5c0-1.8-1.1-2.2-3-2.2-1.9 0-2.7 0.5-2.7 2.2l-4.6 0.3v-0.3c0-3.9 3-6.4 7.5-6.4 4.7 0 7.2 2.7 7.4 6.9zm-4.7 3.2l-4.6 0.7c-1 0.1-1.4 0.5-1.4 1.1 0 0.9 0.6 1.2 2.1 1.2 1.9 0 3.9-0.5 3.9-3z" class="s0"/><path id="Layer" d="m108.9 10v20.1h4.8v-21.3z" class="s0"/><path id="Layer" d="m116.7 10v20.1h4.8v-21.3z" class="s0"/><path id="Layer" fill-rule="evenodd" d="m140 22.1c0 5-3 8.3-8.1 8.3-5.2 0-8.2-3.3-8.2-8.3 0-5.1 3-8.4 8.2-8.4 5.1 0 8.1 3.3 8.1 8.4zm-6.9 4.2q0.1 0 0.2-0.1l0.1-0.1c0.5-1.1 1.4-1.9 2.5-2.2q0.2-0.1 0.2-0.3v-3.1q0-0.2-0.2-0.3c-1.1-0.3-2-1.1-2.5-2.1l-0.1-0.2q-0.1-0.1-0.2-0.1-0.5-0.2-1.1-0.2c-2.4 0-4.4 2-4.4 4.5 0 2.4 2 4.4 4.4 4.4q0.6 0 1.1-0.2z" class="s0"/><path id="Layer" fill-rule="evenodd" d="m158.4 22.1c0 5-2.4 8.3-6.8 8.3-2.5 0-4.1-1.1-4.8-2.4h-0.2v6.1l-4.7 1.3v-21.3h4.4v2.3h0.1c0.9-1.7 2.7-2.7 5.2-2.7 4.5 0 6.9 3.3 6.8 8.4zm-4.8 0c0-3-0.7-4.3-3.5-4.3-2.2 0-3.5 0.8-3.5 3v2.5c0 2.2 1.3 3 3.5 3 2.8 0 3.5-1.3 3.5-4.2z" class="s0"/><path id="Layer" d="m30.2 2.4q-4.8 4.9-9.6 9.8 0 0-0.1 0.1l-6.9 6.9c-0.6 0.7-0.6 1.7 0 2.4l6.6 6.6-8.1 8.4c-1.2-0.8-2.4-1.8-3.6-3-8.5-8.5-8.8-18.9-0.2-27.4 6.7-6.8 14.7-7.9 21.9-3.8z" class="s1"/><path id="Layer" d="m35.8 33.7c-6.7 6.8-14.6 8-21.8 4.1l2.9-3q3.2-3.3 6.5-6.7l2.2-2.2 4.3-4.3c0.6-0.6 0.6-1.7 0-2.4l-2-2-4.5-4.5 8-8.4 0.7-0.7c1.1 0.8 2.3 1.8 3.4 3 8.4 8.3 8.8 18.7 0.3 27.1z" class="s2"/></svg>