<svg xmlns="http://www.w3.org/2000/svg" fill="none" viewBox="0 0 643 643" aria-hidden="true" width="24px"><path fill="url(#a)" d="M274.625 429.202a17.03 17.03 0 0 1 12.036-4.982h416.46c7.586 0 11.384 9.174 6.017 14.536l-82.291 82.226a17.026 17.026 0 0 1-12.036 4.983h-416.46c-7.586 0-11.384-9.174-6.018-14.537l82.292-82.226z" transform="translate(-130)"/><path fill="url(#b)" d="M274.625 122.011a17.026 17.026 0 0 1 12.036-4.983h416.46c7.586 0 11.384 9.174 6.017 14.537l-82.291 82.226a17.03 17.03 0 0 1-12.036 4.982h-416.46c-7.586 0-11.384-9.174-6.018-14.536l82.292-82.226z" transform="translate(-130)"/><path fill="url(#c)" d="M626.847 274.628a17.03 17.03 0 0 0-12.036-4.982h-416.46c-7.586 0-11.384 9.174-6.018 14.536l82.292 82.226a17.026 17.026 0 0 0 12.036 4.983h416.46c7.586 0 11.384-9.174 6.017-14.537l-82.291-82.226z" transform="translate(-130)"/><defs><linearGradient id="a" x1="542.609" x2="254.383" y1="4.855" y2="556.923" gradientUnits="userSpaceOnUse"><stop stop-color="#00FFA3"/><stop offset="1" stop-color="#DC1FFF"/></linearGradient><linearGradient id="b" x1="542.609" x2="254.383" y1="4.855" y2="556.923" gradientUnits="userSpaceOnUse"><stop stop-color="#00FFA3"/><stop offset="1" stop-color="#DC1FFF"/></linearGradient><linearGradient id="c" x1="542.609" x2="254.383" y1="4.855" y2="556.923" gradientUnits="userSpaceOnUse"><stop stop-color="#00FFA3"/><stop offset="1" stop-color="#DC1FFF"/></linearGradient></defs></svg>