<svg xmlns="http://www.w3.org/2000/svg" class="sand-dollar-hero" viewBox="0 0 200 200" aria-hidden="true" width="24px"><path fill="none" d="M-1-1h202v202H-1z"/><path d="M132.363 93.831H67.49c-.665 0-1.182.517-1.182 1.182v10.935c0 .665.517 1.182 1.182 1.182h24.604v33.323c0 .665.518 1.182 1.183 1.182h13.447c.665 0 1.182-.517 1.182-1.182V107.13h24.604c.665 0 1.182-.517 1.182-1.182V95.013c-.147-.665-.664-1.182-1.329-1.182zM99.926 78.315c5.542 0 9.975-4.508 9.975-9.975 0-5.542-4.507-9.975-9.975-9.975-5.541 0-9.974 4.507-9.974 9.975a9.934 9.934 0 0 0 9.974 9.975z"/><path fill-rule="evenodd" d="M100 174.228c40.995 0 74.228-33.233 74.228-74.229 0-40.995-33.233-74.229-74.229-74.229-40.995 0-74.229 33.234-74.229 74.23 0 40.995 33.234 74.228 74.23 74.228zm0 20.716c52.436 0 94.944-42.508 94.944-94.945 0-52.436-42.508-94.944-94.945-94.944C47.563 5.055 5.055 47.563 5.055 100c0 52.437 42.508 94.945 94.944 94.945z" clip-rule="evenodd"/></svg>