<svg xmlns="http://www.w3.org/2000/svg" xml:space="preserve" style="enable-background:new 0 0 100 100" viewBox="0 0 100 100" aria-hidden="true" width="24px"><path d="M84 48.9c-2.4.2-30.4 6.1-39.5 18.8-2.6 3.3-3.3 7.5-2.2 11.6 2.9 10.6 12.7 18.2 18 18.2h.3c.2 0 19.3-3.5 29.7-21 4.9-8.2 6.1-16.7 3-22.2-1.9-3.4-5.5-5.5-9.3-5.4zM52.3 2.6c-6.6 0-13.2 1.4-19.3 4-1.1.4-2 1-3 1.5-.6.3-1.3.7-1.9 1.1h.1c-1.9 1.3-3.6 2.9-5 4.7-13.6 18 32 31 56.5 31.1 1 .9 2.2 1.3 3.5 1.4 8.2 0 9.6-25-.1-32.6C74.4 6.6 63.5 2.6 52.3 2.6z" style="fill:#2043b5;opacity:.45"/><path d="M35.7 14.3c-6.2 9.4-27.1 16-30.6 15 .1-.3.3-.5.4-.9C6.7 26.1 8 24 9.6 21.8c1.5-2 3.2-4.1 5-5.8 1.8-1.8 3.7-3.4 5.9-5 1.3-1 2.7-1.8 4-2.7 2.1-1.2 4.5-1.8 7-1.8 9.1.2 4.3 7.7 4.2 7.8m-5.1 66.6c.4 3 0 14.7-.6 15.6-.5 0-1.6.1-4.7-1.7-1.6-1-3.2-1.9-4.8-3.1-2-1.5-4.1-3.2-5.8-5-1.8-1.8-3.5-3.7-5-5.9-1.5-2-2.9-4.3-4.1-6.5-1.2-2.4-2.2-4.7-3-7.2-.9-2.5-1.5-5.1-1.9-7.7-.9-5.3-.9-10.8 0-16.3.4-2.6 1.1-5.2 1.9-7.7.2-.5.3-1 .5-1.5 3.6 4.8 7.8 9.2 11.3 14 3.4 4.6 8 12.1 9 13.7 5.8 10.2 6.8 16.4 7.2 19.3M100 51.4c0 6.3-1.2 12.5-3.4 18.4-5.9 6.3-45.6-9.2-46-9.4-5.5-2.4-21.9-9.6-23.4-21-2.1-16.4 31-27.8 45.7-28.2 1.7 0 7.1.1 10.2 2.6C93.8 23.2 100 37 100 51.4M73.2 95.7c-4.4 2-9.1.5-7.8-3.6 2.3-8.1 23-16.4 27.6-16.9.5 0 .9.3.5.7-4.7 8.5-11.8 15.3-20.3 19.8" style="fill:#2043b5"/></svg>