<svg version="1.1" id="Layer_1" xmlns="http://www.w3.org/2000/svg" x="0" y="0" viewBox="0 0 500 500" style="enable-background:new 0 0 500 500" xml:space="preserve"><style>.st0{fill:#f8b94b}</style><switch><g><path class="st0" d="m245.583 359.73 24.967-65.928h-49.933z"/><path class="st0" d="M250.268 6.959C115.915 6.959 7 115.874 7 250.228s108.915 243.268 243.268 243.268 243.268-108.915 243.268-243.268S384.622 6.959 250.268 6.959zm124.137 286.843h-71.741l-42.27 111.624c-2.358 6.228-8.479 9.98-14.811 9.669-6.331.31-12.452-3.442-14.811-9.669l-42.27-111.624H126.13c-8.259 0-15.017-6.757-15.017-15.017s6.757-15.017 15.017-15.017h248.273c8.259 0 15.017 6.757 15.017 15.017s-6.756 15.017-15.015 15.017zm0-58.064H126.132c-8.259 0-15.017-6.757-15.017-15.017 0-8.259 6.757-15.017 15.017-15.017h29.011l-30.954-81.742c-2.925-7.724 1.001-16.437 8.725-19.361 7.724-2.925 16.436 1.002 19.361 8.725l34.982 92.378H303.91l34.982-92.378c2.925-7.724 11.637-11.65 19.361-8.725 7.724 2.925 11.65 11.637 8.725 19.361l-30.954 81.742h38.38c8.259 0 15.017 6.757 15.017 15.017.001 8.259-6.757 15.017-15.016 15.017z"/></g></switch></svg>