<?xml version="1.0" encoding="UTF-8"?><svg xmlns="http://www.w3.org/2000/svg" id="Logos" viewBox="0 0 228 228" aria-hidden="true" width="24px"><defs><style>.cls-1 {
        fill: #fff;
      }

      .cls-2 {
        fill: #1d1e22;
      }

      .cls-3 {
        fill: #104499;
      }</style></defs><g><path d="M224.11,114.15c0,63.05-50.17,114.15-112.05,114.15S0,177.2,0,114.15,50.17,0,112.05,0s112.05,51.11,112.05,114.15Z" class="cls-3"/><g><path d="M127.75,107.8h0s-53.46,48.41-53.46,48.41c-1.94,1.75-3.76,3.24-5.52,4.62l-17.88,15.04c8.48,3.26,22.32,5.18,37.24-6.82l48.73-44.6h0c3.13-2.51,8.15-4.99,12.45-4.99,10.17,0,18.41,8.4,18.41,18.76s-8.24,18.76-18.41,18.76c-8.55,0-13.86-4.01-17.56-12.81l-14.68,12.29c4.58,8.71,13.9,19.28,32.24,19.28,20.34,0,36.83-16.8,36.83-37.52s-16.49-37.52-36.83-37.52c-8.05,0-15.49,2.63-21.55,7.09Z" class="cls-1"/><path d="M135.99,59.26l-48.73,44.6c-3.13,2.51-8.15,4.99-12.45,4.99-10.17,0-18.41-8.4-18.41-18.76s8.24-18.76,18.41-18.76c8.27,0,13.51,3.77,17.19,11.98l14.55-12.36c-4.74-8.53-14.03-18.38-31.74-18.38-20.34,0-36.83,16.8-36.83,37.52s16.49,37.52,36.83,37.52c8.05,0,15.49-2.63,21.55-7.09h0l53.46-48.41c1.94-1.75,3.76-3.24,5.52-4.62l17.88-15.04c-8.48-3.26-22.32-5.18-37.24,6.82Z" class="cls-1"/></g></g></svg>