<?xml version="1.0" standalone="no"?><!DOCTYPE svg PUBLIC "-//W3C//DTD SVG 20010904//EN"
 "http://www.w3.org/TR/2001/REC-SVG-20010904/DTD/svg10.dtd"><svg xmlns="http://www.w3.org/2000/svg" preserveAspectRatio="xMidYMid meet" version="1.0" viewBox="0 0 400.000000 400.000000" aria-hidden="true" width="24px"><g fill="#000000" stroke="none" transform="translate(0.000000,400.000000) scale(0.100000,-0.100000)"><path d="M0 2000 l0 -2000 2000 0 2000 0 0 2000 0 2000 -2000 0 -2000 0 0
-2000z m1543 873 c18 -3 35 -10 39 -16 5 -8 8 -7 8 3 0 12 2 12 9 2 4 -8 11
-13 15 -13 22 3 36 -1 56 -19 13 -11 27 -20 31 -20 5 0 11 -11 15 -25 6 -23
11 -25 58 -25 53 0 86 -21 86 -55 0 -8 5 -15 10 -15 6 0 5 -8 -2 -20 -15 -24
-3 -38 20 -24 21 14 62 0 62 -19 0 -8 -10 -22 -23 -32 -18 -13 -22 -24 -19
-47 5 -30 5 -30 56 -24 70 8 96 0 96 -30 0 -15 -6 -24 -15 -24 -8 0 -15 -5
-15 -11 0 -5 -4 -7 -10 -4 -6 4 -10 -8 -10 -28 0 -23 5 -34 15 -34 8 0 15 3
15 7 0 4 29 8 65 9 45 1 71 -3 89 -14 14 -9 29 -16 33 -15 12 2 16 -27 8 -58
-5 -20 -8 -23 -16 -11 -5 7 -9 10 -10 4 0 -5 -4 -1 -9 10 -8 19 -9 19 -9 -2
-1 -13 4 -23 9 -23 6 0 10 -9 10 -20 0 -11 -7 -20 -15 -20 -9 0 -15 -9 -15
-25 0 -16 6 -25 15 -25 8 0 15 -4 15 -10 0 -20 19 -9 22 12 3 26 38 38 38 14
0 -9 7 -16 15 -16 23 0 19 -52 -5 -73 -11 -9 -28 -17 -38 -17 -41 0 -62 -13
-62 -36 0 -17 -6 -24 -20 -24 -11 0 -20 4 -20 10 0 5 -7 6 -17 3 -9 -4 -14 -2
-10 3 3 6 2 16 -4 24 -6 11 -9 2 -9 -27 0 -42 -1 -43 -35 -43 -31 0 -35 3 -35
25 0 14 -4 25 -10 25 -5 0 -10 -4 -10 -10 0 -5 -9 -10 -20 -10 -16 0 -20 7
-20 34 0 24 5 36 18 39 9 3 2 5 -15 6 -32 1 -33 2 -33 46 0 45 0 45 -34 45
-19 0 -38 -4 -41 -10 -3 -5 -1 -10 5 -10 6 0 8 -5 5 -10 -7 -11 18 -40 34 -40
6 0 11 -11 11 -25 0 -31 -29 -34 -37 -5 -6 24 -16 25 -37 4 -23 -22 -52 -14
-48 14 3 18 -2 22 -23 22 -16 0 -35 10 -46 23 -22 27 -24 47 -4 47 9 0 15 9
15 25 0 21 -5 25 -30 25 -30 0 -30 1 -30 54 0 39 -4 55 -15 60 -8 3 -15 15
-15 27 0 15 5 19 15 15 8 -3 15 -1 15 4 0 16 -47 11 -54 -6 -4 -10 -15 -14
-33 -12 -24 3 -28 8 -29 36 -3 69 -3 70 -23 65 -11 -3 -21 -14 -24 -25 -7 -25
-60 -22 -65 5 -3 13 4 17 30 17 18 0 40 5 48 10 11 7 3 10 -29 10 -26 0 -48 6
-55 14 -6 8 -24 16 -41 18 -29 3 -30 2 -33 -44 -3 -46 -5 -48 -33 -48 -19 0
-29 -5 -29 -15 0 -8 -7 -15 -15 -15 -8 0 -14 -5 -13 -12 2 -6 -5 -14 -14 -16
-13 -2 -18 3 -18 17 0 12 6 21 15 21 8 0 15 5 15 10 0 6 -7 10 -15 10 -8 0
-15 7 -15 15 0 12 -13 15 -55 15 -52 0 -55 -1 -55 -25 0 -16 6 -25 15 -25 8 0
15 -9 15 -20 0 -18 -7 -20 -60 -20 -47 0 -60 -3 -60 -15 0 -12 -13 -15 -55
-15 -54 0 -55 0 -55 -30 0 -20 11 -40 35 -65 30 -30 43 -35 80 -35 25 0 45 5
45 11 0 5 -4 7 -10 4 -5 -3 -10 3 -10 14 0 12 7 21 15 21 8 0 15 -4 15 -10 0
-5 20 -10 45 -10 33 0 45 -4 45 -15 0 -8 7 -15 15 -15 8 0 15 -7 15 -15 0 -8
7 -15 15 -15 8 0 15 -7 15 -15 0 -9 9 -15 25 -15 16 0 25 -6 25 -15 0 -8 9
-15 21 -15 11 0 18 -4 14 -9 -3 -6 2 -14 11 -19 12 -7 15 -19 12 -46 -3 -27 0
-36 12 -37 8 -1 22 -2 30 -3 8 0 16 -13 18 -28 2 -16 9 -28 18 -28 9 0 14 -11
14 -35 0 -28 -4 -35 -20 -35 -11 0 -20 7 -20 15 0 8 -4 15 -10 15 -5 0 -10 -7
-10 -15 0 -8 -7 -15 -15 -15 -8 0 -15 -4 -15 -10 0 -5 7 -10 16 -10 12 0 14
-10 12 -47 l-3 -48 -40 -1 c-22 0 -49 2 -59 5 -20 4 -20 4 0 12 16 7 17 8 2 8
-10 1 -18 8 -18 16 0 11 -12 15 -46 15 -41 0 -45 2 -42 23 2 12 9 21 16 20 6
-2 12 2 12 7 0 6 -13 10 -30 10 -20 0 -30 5 -30 15 0 9 -9 15 -25 15 -16 0
-25 -6 -25 -15 0 -8 -9 -15 -20 -15 -16 0 -20 7 -20 30 0 28 -3 30 -35 30 -32
0 -35 -2 -35 -30 0 -20 -5 -30 -15 -30 -8 0 -15 -4 -15 -10 0 -5 7 -10 15 -10
10 0 15 -10 15 -31 0 -30 0 -30 51 -28 39 2 53 -1 60 -14 7 -12 23 -17 49 -17
29 0 40 -4 40 -15 0 -8 7 -15 15 -15 10 0 15 -10 15 -29 0 -39 -14 -47 -40
-21 -11 11 -20 15 -20 9 0 -7 -8 -18 -17 -25 -17 -13 -17 -13 0 -14 10 0 17
-8 17 -20 0 -18 -7 -20 -60 -20 -42 0 -62 4 -66 14 -3 7 -15 13 -27 12 -18 -1
-21 -6 -19 -28 3 -26 1 -28 -32 -28 -23 0 -39 6 -45 18 -10 16 -10 16 -11 0 0
-10 -7 -18 -15 -18 -8 0 -15 -7 -15 -15 0 -8 -9 -15 -20 -15 -13 0 -20 7 -20
20 0 11 7 20 15 20 9 0 15 9 15 25 0 16 -6 25 -15 25 -8 0 -15 7 -15 15 0 8
-7 15 -16 15 -9 0 -14 7 -12 18 2 12 15 18 46 20 48 4 58 22 12 22 -20 0 -30
5 -30 15 0 10 10 15 30 15 25 0 30 4 30 25 0 20 -5 25 -25 25 -16 0 -25 -6
-25 -15 0 -8 -7 -15 -15 -15 -9 0 -18 7 -21 15 -8 19 -54 20 -54 1 0 -8 -6
-17 -12 -20 -10 -5 -10 -7 0 -12 25 -12 12 -34 -20 -34 -25 0 -29 3 -18 10 12
8 11 10 -7 10 -13 0 -23 -4 -23 -10 0 -5 -16 -10 -35 -10 -19 0 -35 5 -35 11
0 6 -9 9 -20 6 -10 -3 -21 0 -24 7 -2 6 -5 3 -5 -6 -1 -10 -8 -18 -16 -18 -10
0 -15 -10 -15 -30 0 -18 5 -29 12 -27 6 1 14 -6 16 -15 2 -11 -2 -18 -12 -18
-9 0 -16 -7 -16 -15 0 -10 -10 -15 -30 -15 -19 0 -30 -5 -30 -14 0 -8 -6 -17
-12 -20 -9 -3 -8 -8 5 -16 9 -6 15 -15 12 -21 -4 -5 1 -9 9 -9 9 0 17 -4 17
-10 1 -5 2 -14 3 -20 0 -5 7 -15 14 -22 18 -18 15 -48 -5 -49 -17 -1 -17 -2
-1 -6 12 -3 18 -14 18 -34 0 -19 5 -29 15 -29 8 0 15 -7 15 -15 0 -10 10 -15
30 -15 20 0 30 -5 30 -15 0 -8 9 -15 20 -15 11 0 23 -7 26 -15 4 -9 19 -15 41
-15 27 0 34 -4 31 -17 -4 -23 -87 -28 -95 -7 -3 8 -18 14 -34 14 -19 0 -29 5
-29 15 0 10 -10 15 -30 15 -20 0 -30 5 -30 15 0 8 -7 15 -15 15 -8 0 -15 7
-15 15 0 8 -7 15 -15 15 -11 0 -15 11 -15 40 0 30 -4 40 -16 40 -9 0 -22 -7
-28 -16 -14 -18 -47 -9 -39 12 4 10 0 12 -12 8 -15 -6 -17 -2 -13 22 3 26 1
30 -22 31 -23 2 -23 1 -5 -8 l20 -9 -20 3 c-18 2 -20 11 -23 72 -1 43 1 65 6
57 7 -10 11 -8 15 9 4 16 0 29 -13 42 -26 23 -26 71 1 98 13 13 18 27 13 41
-5 16 -8 18 -15 7 -7 -11 -9 -10 -9 4 0 10 -7 20 -15 23 -19 8 -19 51 -1 70 8
8 26 14 40 14 14 0 26 4 26 9 0 5 -11 8 -25 6 -19 -2 -25 2 -25 17 0 10 -7 21
-15 24 -16 7 -21 44 -6 44 5 0 13 9 16 20 3 11 11 20 16 20 6 0 17 7 25 15 9
8 24 15 35 15 10 0 19 4 19 9 0 5 11 8 25 6 15 -1 25 3 25 11 0 7 6 14 13 17
6 2 0 8 -16 12 -30 8 -35 26 -12 49 8 8 15 19 15 25 0 6 14 11 30 11 17 0 30
-4 30 -10 0 -18 21 -10 51 20 17 16 43 37 59 47 20 11 30 25 30 40 0 13 7 26
15 29 8 3 17 14 20 24 3 11 15 22 26 25 10 4 17 10 14 15 -6 10 18 20 48 20
18 0 19 2 7 10 -13 8 -12 10 3 10 9 0 17 8 17 18 0 14 2 14 9 3 7 -11 11 -5
16 23 4 20 10 35 12 32 6 -5 93 84 93 96 0 4 16 8 35 8 19 0 35 4 35 10 0 5 7
6 17 3 11 -4 14 -3 9 5 -5 8 3 12 26 12 22 0 28 3 20 9 -9 5 -1 10 26 15 22 3
42 13 46 21 3 8 12 15 21 15 8 0 15 3 15 8 0 4 15 16 33 26 29 18 80 24 200
26 10 0 16 4 12 9 -6 10 74 31 88 23 5 -2 23 -6 40 -9z m-143 -443 c0 -20 -41
-52 -58 -45 -16 6 -16 7 1 19 9 7 17 18 17 25 0 6 9 11 20 11 11 0 20 -4 20
-10z m93 -52 c-12 -48 -73 -79 -73 -38 0 11 7 20 15 20 8 0 15 6 15 14 0 8 10
17 23 19 12 2 23 5 24 6 0 0 -1 -9 -4 -21z m764 -50 c-3 -7 -5 -2 -5 12 0 14
2 19 5 13 2 -7 2 -19 0 -25z m-947 -23 c0 -8 -7 -15 -15 -15 -8 0 -15 7 -15
15 0 8 7 15 15 15 8 0 15 -7 15 -15z m230 -30 c0 -8 -7 -15 -15 -15 -8 0 -15
7 -15 15 0 8 7 15 15 15 8 0 15 -7 15 -15z m169 -14 c12 -8 9 -11 -12 -17 -32
-7 -49 3 -27 16 19 12 21 12 39 1z m-314 -11 c3 -5 -1 -10 -9 -10 -9 0 -16 5
-16 10 0 6 4 10 9 10 6 0 13 -4 16 -10z m260 -30 c3 -5 -1 -10 -9 -10 -9 0
-16 5 -16 10 0 6 4 10 9 10 6 0 13 -4 16 -10z m-32 -36 c-6 -17 -23 -9 -23 11
0 8 6 12 14 9 8 -3 12 -12 9 -20z m-135 -21 c-2 -10 -10 -18 -18 -18 -8 0 -16
8 -18 18 -2 12 3 17 18 17 15 0 20 -5 18 -17z m112 5 c0 -25 -12 -58 -21 -58
-5 0 -9 16 -9 35 0 24 5 35 15 35 8 0 15 -6 15 -12z m-30 -193 c0 -91 -3 -114
-15 -119 -13 -5 -15 11 -15 103 0 112 5 145 21 135 5 -3 9 -56 9 -119z m503
38 c-7 -2 -21 -2 -30 0 -10 3 -4 5 12 5 17 0 24 -2 18 -5z m223 -14 c10 -17
-13 -36 -27 -22 -12 12 -4 33 11 33 5 0 12 -5 16 -11z m-806 -184 c0 -8 -9
-15 -20 -15 -11 0 -20 7 -20 15 0 8 9 15 20 15 11 0 20 -7 20 -15z m-176 -31
c3 -9 -1 -14 -14 -14 -13 0 -20 7 -20 20 0 22 25 18 34 -6z m284 4 c-6 -18
-28 -21 -28 -4 0 9 7 16 16 16 9 0 14 -5 12 -12z m-893 -89 c0 -32 -4 -45 -16
-47 -20 -4 -30 44 -17 78 13 36 33 18 33 -31z m545 32 c0 -5 -7 -12 -16 -15
-14 -5 -15 -4 -4 9 14 17 20 19 20 6z m370 -12 c0 -11 -4 -17 -10 -14 -5 3
-10 13 -10 21 0 8 5 14 10 14 6 0 10 -9 10 -21z m-247 -16 c-2 -8 8 -13 27
-13 27 0 30 -3 30 -30 0 -16 5 -30 10 -30 6 0 9 6 8 13 -2 8 16 13 60 15 60 3
62 2 62 -22 0 -14 7 -29 15 -33 8 -5 16 -21 17 -35 1 -15 5 -26 8 -26 19 2 30
-3 25 -12 -3 -5 1 -10 9 -10 9 0 16 -7 16 -15 0 -8 7 -15 15 -15 8 0 15 -7 15
-15 0 -10 10 -15 30 -15 17 0 30 -4 30 -10 0 -9 97 -110 105 -110 3 0 4 6 3
13 -2 7 10 13 30 15 36 4 43 17 12 25 -37 10 -21 27 24 27 36 0 46 4 51 20 4
11 11 18 16 15 5 -4 12 1 15 9 3 9 17 16 30 16 15 0 24 6 24 15 0 8 7 15 15
15 8 0 15 -7 15 -15 0 -12 18 -15 105 -15 87 0 105 -3 105 -15 0 -9 9 -15 24
-15 13 0 27 -7 30 -16 12 -32 86 13 86 53 0 19 5 23 30 23 25 0 30 -4 30 -25
0 -14 7 -28 15 -31 8 -4 15 -12 15 -20 0 -8 4 -13 8 -11 11 3 72 -58 72 -72 0
-6 14 -11 30 -11 20 0 30 -5 30 -15 0 -11 11 -15 40 -15 27 0 43 -5 46 -15 5
-11 22 -15 68 -15 l63 0 -5 -30 c-3 -21 -10 -30 -23 -30 -11 0 -19 6 -19 14 0
9 -8 12 -25 8 -17 -3 -25 -11 -25 -25 0 -20 0 -20 -15 -1 -14 19 -14 18 -15
-3 0 -16 -6 -23 -20 -23 -16 0 -20 7 -20 30 0 17 -5 30 -11 30 -6 0 -9 -7 -5
-15 3 -8 1 -15 -4 -15 -6 0 -10 5 -10 10 0 6 -8 5 -20 -2 -15 -9 -22 -10 -31
-1 -9 9 -17 5 -34 -13 -21 -23 -73 -35 -60 -14 3 6 1 10 -5 10 -6 0 -14 10
-19 22 l-8 23 -7 -23 c-7 -20 -12 -22 -39 -16 -18 3 -33 10 -35 15 -2 5 -18
-5 -35 -22 -28 -29 -32 -30 -44 -14 -14 20 -9 35 12 35 9 0 12 8 10 21 -5 26
-15 38 -15 18 0 -18 -35 -49 -55 -49 -8 0 -15 7 -15 16 0 8 -5 12 -11 9 -6 -4
-13 2 -16 14 -7 27 -19 27 -26 0 -5 -19 -11 -21 -46 -15 -39 6 -41 5 -41 -19
0 -16 6 -25 15 -25 27 0 30 -1 38 -16 4 -8 21 -14 37 -14 20 0 30 -5 30 -15 0
-12 14 -15 70 -15 54 0 72 -4 76 -15 4 -8 12 -15 20 -15 8 0 14 -8 14 -17 1
-17 1 -17 11 0 8 13 23 17 64 17 42 0 55 4 55 15 0 12 19 15 115 15 96 0 115
3 115 15 0 11 12 15 44 15 30 0 46 5 50 15 3 8 9 15 13 14 20 -3 96 2 92 6 -3
2 -20 6 -38 7 -26 2 -36 9 -45 30 -8 19 -15 25 -22 18 -7 -7 -9 -1 -6 20 4 30
5 30 63 30 46 0 59 3 59 15 0 11 12 15 45 15 33 0 45 4 45 15 0 12 13 15 55
15 42 0 55 3 55 15 0 9 10 15 26 15 14 0 32 7 40 15 9 8 31 15 50 15 24 0 34
5 34 15 0 11 7 14 25 9 19 -5 25 -2 25 10 0 9 7 16 15 16 8 0 15 7 15 15 0 10
10 15 30 15 20 0 30 5 30 15 0 8 7 15 15 15 8 0 15 7 15 15 0 8 7 15 15 15 9
0 15 -9 15 -25 0 -14 -7 -28 -15 -31 -9 -4 -15 -19 -15 -35 0 -19 -5 -29 -15
-29 -8 0 -15 -7 -15 -15 0 -8 -4 -15 -10 -15 -5 0 -10 -7 -10 -15 0 -8 -7 -15
-15 -15 -8 0 -15 -7 -15 -15 0 -10 -10 -15 -30 -15 -20 0 -30 -5 -30 -15 0 -8
-6 -15 -14 -15 -8 0 -16 -7 -20 -15 -3 -8 -15 -15 -26 -15 -11 0 -20 -4 -20
-10 0 -5 -7 -10 -15 -10 -8 0 -15 -4 -15 -10 0 -5 9 -10 20 -10 11 0 20 6 20
13 0 9 10 12 30 9 23 -3 30 0 30 12 0 11 9 16 30 16 20 0 30 5 30 15 0 8 7 15
15 15 8 0 15 -7 15 -15 0 -8 -7 -15 -15 -15 -10 0 -15 -10 -15 -27 0 -19 -3
-24 -9 -15 -6 10 -10 9 -14 -7 -3 -15 -14 -21 -34 -22 l-28 -2 28 -4 c31 -5
35 -24 10 -53 -13 -15 -30 -20 -70 -20 -37 0 -52 -4 -51 -12 2 -9 -19 -14 -75
-16 -113 -4 -86 -22 34 -22 81 0 99 -3 99 -15 0 -8 -7 -15 -15 -15 -10 0 -15
-10 -15 -30 0 -20 -5 -30 -15 -30 -8 0 -15 -7 -15 -15 0 -8 -6 -15 -12 -15
-18 0 -78 -53 -78 -68 0 -7 -4 -11 -9 -7 -5 3 -12 1 -16 -5 -3 -5 -17 -10 -31
-10 -28 0 -30 -6 -8 -27 14 -14 13 -17 -5 -34 -11 -11 -24 -19 -29 -19 -15 0
-52 -36 -52 -51 0 -10 -3 -10 -12 -1 -15 15 -38 16 -38 1 0 -6 7 -9 15 -5 10
4 15 -1 15 -14 0 -16 -7 -20 -30 -20 -20 0 -30 -5 -30 -15 0 -8 -7 -15 -15
-15 -8 0 -15 -8 -15 -18 0 -26 -10 -33 -31 -21 -15 7 -19 6 -19 -6 0 -13 -25
-15 -179 -15 -134 0 -180 3 -183 12 -3 8 -24 13 -54 13 -27 0 -50 5 -51 10 -1
6 -17 12 -35 15 -19 3 -32 11 -31 18 2 8 -15 12 -57 12 -47 0 -60 3 -60 15 0
9 -9 15 -25 15 -14 0 -28 7 -31 15 -4 10 -21 15 -54 15 -59 0 -88 9 -68 21 9
6 2 9 -19 9 -23 0 -33 5 -33 15 0 11 -11 15 -40 15 -29 0 -40 4 -40 15 0 8 -9
15 -20 15 -13 0 -18 5 -14 15 4 10 0 15 -15 15 -15 0 -21 6 -21 23 -1 25 -22
57 -39 57 -6 0 -11 7 -11 15 0 10 -15 15 -57 17 l-58 3 -3 43 c-2 23 -8 42
-13 42 -6 0 -7 -5 -4 -10 11 -18 -27 -24 -40 -7 -7 10 -17 17 -24 17 -6 0 -11
10 -12 23 l0 22 -11 -22 c-6 -13 -18 -23 -27 -24 -12 0 -11 -3 4 -9 l20 -9
-20 -1 c-13 -1 -15 -3 -6 -7 11 -5 11 -7 0 -14 -11 -7 -10 -9 4 -9 11 0 17 -8
17 -25 0 -15 6 -25 14 -25 20 0 27 -38 10 -48 -8 -5 -16 -18 -17 -30 -1 -25
-37 -32 -37 -7 0 9 -6 12 -15 9 -10 -4 -15 0 -15 15 0 12 -4 21 -10 21 -5 0
-10 -6 -10 -14 0 -7 -10 -16 -22 -20 -36 -9 -48 -7 -48 9 0 20 -46 20 -54 0
-3 -8 -12 -12 -21 -9 -27 11 -61 -4 -61 -26 0 -11 6 -20 13 -20 7 0 13 -7 13
-15 0 -8 7 -15 15 -15 8 0 15 -7 15 -15 0 -8 7 -15 15 -15 8 0 15 -7 15 -15 0
-8 5 -15 10 -15 6 0 10 7 10 15 0 8 9 15 20 15 11 0 20 -7 20 -15 0 -8 7 -15
15 -15 10 0 15 -11 15 -35 0 -34 -1 -35 -42 -36 -24 0 -37 -3 -30 -6 6 -2 12
-20 12 -39 0 -27 -4 -34 -20 -34 -15 0 -20 7 -20 25 0 23 -4 25 -40 25 -29 0
-40 4 -40 15 0 11 -12 15 -45 15 -45 0 -45 0 -45 35 0 24 5 35 15 35 8 0 15 7
15 15 0 8 7 15 16 15 21 0 16 101 -6 108 -13 5 -13 3 -1 -11 12 -16 7 -17 -58
-17 -56 0 -71 3 -71 15 0 8 -6 14 -12 13 -7 -2 -13 6 -13 17 0 11 6 19 13 17
17 -3 15 5 -8 28 l-20 20 -20 -20 c-24 -24 -26 -68 -5 -76 8 -4 15 -12 15 -20
0 -10 13 -14 45 -14 38 0 45 -3 45 -20 0 -18 -7 -20 -65 -20 -53 0 -63 3 -59
15 4 10 0 15 -15 15 -12 0 -21 6 -21 15 0 8 -9 15 -20 15 -17 0 -20 -7 -20
-40 0 -33 -3 -40 -20 -40 -11 0 -20 4 -20 10 0 5 -11 12 -25 16 -14 3 -25 10
-25 15 0 5 -33 9 -74 9 -84 0 -106 13 -106 61 0 18 -5 29 -13 29 -8 0 -22 9
-31 19 -23 25 -13 59 20 67 26 7 33 24 10 24 -26 0 -46 30 -46 69 0 35 -2 38
-25 33 -21 -4 -25 -1 -25 21 0 21 -6 25 -39 30 -39 5 -75 31 -77 55 -1 6 -2
23 -2 37 -2 18 -8 25 -22 25 -25 0 -70 46 -70 71 0 11 -4 19 -10 19 -5 0 -10
4 -10 9 0 5 16 2 34 -7 19 -9 33 -19 30 -24 -3 -4 0 -8 5 -8 6 0 11 -7 11 -15
0 -8 5 -15 10 -15 6 0 10 7 10 15 0 26 37 18 42 -9 4 -17 1 -23 -9 -19 -7 3
-13 0 -13 -5 0 -6 12 -12 27 -14 16 -2 27 -8 25 -15 -1 -9 12 -13 43 -13 33 0
45 -4 45 -15 0 -11 15 -14 80 -12 56 1 80 6 80 14 0 9 19 13 60 13 47 0 60 3
60 15 0 9 9 15 25 15 16 0 25 6 25 15 0 8 6 15 13 15 17 0 59 46 55 62 -1 7 6
23 17 36 15 17 30 22 67 22 53 0 88 24 88 60 0 11 7 20 15 20 8 0 15 7 15 15
0 10 10 15 30 15 27 0 30 3 30 30 0 20 5 30 15 30 8 0 15 4 15 10 0 5 8 19 18
30 19 23 79 25 75 3z m279 -45 c-15 -15 -26 -4 -18 18 5 13 9 15 18 6 9 -9 9
-15 0 -24z m-862 -18 c0 -21 -24 -28 -35 -10 -8 14 3 30 21 30 8 0 14 -9 14
-20z m233 -37 c-7 -18 -38 -12 -38 7 0 18 27 31 37 17 3 -6 4 -16 1 -24z
m-285 -3 c-3 -20 0 -30 9 -30 7 0 14 -6 14 -12 1 -7 2 -20 3 -28 0 -8 7 -14
14 -12 6 1 12 -5 12 -13 0 -8 7 -15 15 -15 8 0 15 -7 15 -15 0 -8 7 -15 15
-15 8 0 15 -7 15 -15 0 -8 7 -15 15 -15 8 0 15 -9 15 -20 0 -13 -7 -20 -20
-20 -11 0 -20 7 -20 15 0 8 -7 15 -15 15 -8 0 -15 7 -15 15 0 8 -7 15 -15 15
-8 0 -15 7 -15 15 0 8 -7 15 -15 15 -8 0 -15 7 -15 15 0 8 -7 15 -16 15 -12 0
-15 7 -11 26 3 20 0 28 -14 31 -13 4 -19 14 -19 34 0 25 4 29 26 29 23 0 26
-3 22 -30z m946 5 c-4 -11 1 -15 17 -15 17 0 20 -3 12 -11 -9 -9 -18 -6 -37 8
-25 20 -25 33 0 33 8 0 11 -6 8 -15z m-1064 -35 c0 -20 5 -30 15 -30 8 0 15
-9 15 -20 0 -25 95 -120 120 -120 11 0 20 -7 20 -15 0 -14 17 -20 48 -16 6 1
12 -5 12 -13 0 -9 -13 -18 -35 -22 -39 -7 -69 1 -60 16 3 5 -1 10 -10 10 -8 0
-18 7 -21 15 -4 8 -17 15 -30 15 -23 0 -29 12 -25 48 1 6 -5 12 -14 12 -8 0
-15 7 -15 15 0 8 -6 14 -12 13 -7 -2 -14 8 -16 22 -2 14 -10 29 -18 33 -8 4
-14 21 -14 37 0 23 5 30 20 30 16 0 20 -7 20 -30z m200 11 c0 -11 -6 -18 -15
-17 -20 3 -28 13 -20 25 11 18 35 12 35 -8z m86 4 c4 -8 12 -15 20 -15 8 0 14
-7 14 -15 0 -8 7 -15 15 -15 8 0 15 -7 15 -15 0 -8 7 -15 15 -15 16 0 21 -25
6 -34 -4 -3 -19 3 -31 14 -13 11 -27 20 -32 20 -4 0 -7 6 -5 13 1 6 -4 11 -10
10 -7 -2 -13 6 -13 17 0 11 -7 20 -15 20 -16 0 -20 12 -8 23 11 11 23 8 29 -8z
m-26 -91 c0 -8 -9 -14 -20 -14 -22 0 -28 26 -7 33 16 6 27 -1 27 -19z m-567
-14 c-3 -11 -7 -20 -9 -20 -2 0 -4 9 -4 20 0 11 4 20 9 20 5 0 7 -9 4 -20z
m1332 -562 c11 -13 19 -26 17 -30 -1 -5 5 -8 13 -8 8 0 15 -7 15 -15 0 -8 7
-15 15 -15 8 0 15 -7 15 -15 0 -8 5 -15 10 -15 6 0 10 7 10 15 0 8 9 15 20 15
12 0 20 -7 20 -16 0 -11 5 -14 16 -10 12 4 15 2 11 -9 -4 -8 1 -19 10 -23 20
-12 10 -44 -12 -36 -8 3 -12 10 -9 15 3 5 -2 9 -10 9 -9 0 -16 7 -16 15 0 8
-4 15 -10 15 -5 0 -10 -12 -10 -26 0 -15 4 -23 11 -19 6 4 13 -2 16 -13 3 -14
11 -19 24 -17 12 3 31 -7 48 -25 15 -17 38 -30 50 -30 12 0 21 -6 21 -15 0 -9
7 -18 15 -21 8 -4 15 -12 15 -20 0 -8 -7 -14 -15 -14 -8 0 -15 -4 -15 -10 0
-5 14 -10 30 -10 20 0 30 -5 30 -15 0 -10 10 -15 30 -15 20 0 30 -5 30 -15 0
-11 12 -15 45 -15 33 0 45 -4 45 -15 0 -13 28 -15 195 -15 167 0 195 2 195 15
0 11 12 15 50 15 36 0 52 4 56 15 8 20 70 20 78 0 3 -10 -1 -15 -14 -15 -10 0
-25 -6 -32 -13 -7 -8 -31 -16 -52 -20 -22 -3 -43 -12 -47 -19 -5 -7 -42 -13
-101 -16 -65 -3 -95 -9 -101 -18 -4 -8 -22 -14 -38 -14 -17 0 -28 -4 -25 -8 2
-4 1 -14 -5 -22 -5 -8 -9 -10 -9 -4 0 8 -26 10 -82 7 -89 -4 -132 2 -123 17 4
6 -20 10 -60 10 -49 0 -67 4 -71 15 -4 10 -20 15 -45 15 -26 0 -42 5 -45 15
-4 8 -17 15 -30 15 -15 0 -24 6 -24 15 0 8 -7 15 -15 15 -8 0 -15 7 -15 15 0
13 -18 20 -42 16 -5 0 -8 6 -8 14 0 8 -9 15 -20 15 -11 0 -20 7 -20 15 0 8 -4
15 -9 15 -5 0 -12 14 -16 30 -4 17 -13 30 -21 30 -8 0 -14 7 -14 15 0 8 -5 14
-11 12 -16 -3 -23 54 -8 64 22 13 41 -2 35 -27 -4 -14 -2 -24 4 -24 6 0 10 32
10 80 0 64 -3 80 -15 80 -8 0 -15 7 -15 15 0 8 -7 15 -15 15 -8 0 -15 9 -15
20 0 27 30 26 55 -2z m75 2 c0 -13 -7 -20 -20 -20 -19 0 -27 20 -13 33 13 14
33 6 33 -13z m109 -47 c20 -21 35 -41 34 -45 -2 -4 3 -8 11 -8 8 0 17 -7 20
-16 9 -23 8 -24 -12 -24 -18 0 -52 33 -52 50 0 6 -9 10 -20 10 -13 0 -18 5
-14 15 4 9 0 15 -10 15 -9 0 -16 8 -16 20 0 30 19 24 59 -17z m-259 -13 c0
-16 -7 -20 -30 -20 -23 0 -30 4 -30 20 0 16 7 20 30 20 23 0 30 -4 30 -20z
m413 -37 c-7 -2 -19 -2 -25 0 -7 3 -2 5 12 5 14 0 19 -2 13 -5z m-465 -20 c-5
-26 -38 -29 -38 -4 0 15 6 21 21 21 14 0 19 -5 17 -17z m436 -28 c3 -8 16 -15
30 -15 17 0 26 -7 30 -25 6 -24 8 -25 23 -10 18 19 39 5 30 -19 -8 -20 -31
-20 -51 -1 -8 8 -28 15 -45 15 -20 0 -31 5 -31 14 0 8 -7 16 -15 20 -8 3 -15
12 -15 21 0 19 36 20 44 0z m-414 -29 c0 -22 19 -58 21 -41 1 6 4 -6 8 -25 3
-19 12 -35 19 -35 6 0 12 -4 13 -10 0 -5 7 -14 15 -18 8 -4 14 -19 14 -32 0
-16 6 -25 15 -25 8 0 15 -7 15 -15 0 -8 7 -15 15 -15 8 0 15 -7 15 -15 0 -10
10 -15 30 -15 21 0 30 -5 30 -16 0 -8 5 -12 11 -9 6 4 13 -2 16 -14 3 -12 10
-21 17 -20 37 4 66 -2 66 -16 0 -11 12 -15 44 -15 30 0 46 -5 50 -15 4 -12 -6
-15 -64 -15 -50 0 -70 4 -70 13 0 8 -13 12 -40 10 -29 -1 -40 2 -40 13 0 9
-11 14 -30 14 -20 0 -30 5 -30 15 0 8 -7 15 -15 15 -8 0 -15 7 -15 15 0 8 -7
15 -15 15 -8 0 -15 7 -15 15 0 8 -7 15 -15 15 -8 0 -15 5 -15 10 0 6 -11 21
-25 34 -14 14 -25 34 -25 50 0 16 -5 26 -15 26 -12 0 -15 14 -15 63 0 50 3 64
15 64 8 0 15 -9 15 -21z m-402 -34 c3 -17 -2 -22 -17 -22 -14 0 -21 6 -21 18
0 38 33 41 38 4z m782 3 c0 -16 -6 -25 -15 -25 -21 0 -31 30 -14 41 23 14 29
11 29 -16z m60 -30 c0 -25 -23 -35 -35 -15 -10 16 2 40 20 40 9 0 15 -9 15
-25z m169 16 c8 -5 11 -16 7 -26 -5 -13 -13 -15 -33 -10 -38 9 -48 28 -20 37
31 9 30 9 46 -1z m-921 -44 c2 -12 -3 -17 -17 -17 -12 0 -21 6 -21 13 0 31 32
34 38 4z m1040 0 c2 -10 -3 -17 -12 -17 -10 0 -16 9 -16 21 0 24 23 21 28 -4z
m-785 -71 c-1 -20 3 -26 18 -26 10 0 19 -7 19 -15 0 -8 5 -15 10 -15 6 0 10
-7 10 -15 0 -8 7 -15 15 -15 8 0 15 -6 15 -14 0 -8 -7 -16 -15 -20 -9 -3 -15
0 -15 9 0 8 -7 15 -15 15 -8 0 -15 7 -15 15 0 8 -7 15 -15 15 -8 0 -15 9 -15
20 0 11 -6 20 -13 20 -14 0 -19 23 -11 48 7 24 29 6 27 -22z m1277 -7 c0 -5 5
-7 10 -4 6 3 10 2 10 -3 0 -13 -49 -22 -56 -11 -3 5 -2 14 1 19 8 13 35 13 35
-1z"/><path d="M1317 2634 c-13 -13 -7 -44 8 -44 16 0 17 5 6 33 -3 10 -10 15 -14
11z"/><path d="M1605 2630 c-3 -5 1 -10 10 -10 9 0 13 5 10 10 -3 6 -8 10 -10 10 -2
0 -7 -4 -10 -10z"/><path d="M1290 2509 c0 -5 5 -7 10 -4 6 3 10 8 10 11 0 2 -4 4 -10 4 -5 0 -10
-5 -10 -11z"/><path d="M1918 2503 c12 -2 30 -2 40 0 9 3 -1 5 -23 4 -22 0 -30 -2 -17 -4z"/><path d="M1690 2478 c0 -4 11 -7 25 -6 33 3 33 16 0 14 -14 0 -25 -4 -25 -8z"/><path d="M1815 2370 c-17 -7 -14 -9 13 -9 20 -1 31 3 27 9 -7 12 -13 12 -40 0z"/><path d="M1728 2333 c7 -3 16 -2 19 1 4 3 -2 6 -13 5 -11 0 -14 -3 -6 -6z"/><path d="M1755 2220 c3 -5 8 -10 11 -10 2 0 4 5 4 10 0 6 -5 10 -11 10 -5 0
-7 -4 -4 -10z"/><path d="M2013 2217 c3 -9 1 -17 -4 -19 -12 -4 -1 -38 12 -38 13 0 11 58 -3
66 -7 5 -9 2 -5 -9z"/><path d="M1315 2129 c4 -6 -3 -13 -14 -16 -17 -4 -21 -12 -19 -39 1 -20 7 -34
15 -34 7 0 12 5 11 12 -2 6 8 14 22 18 18 4 21 8 12 14 -9 5 -11 17 -8 32 5
18 2 24 -9 24 -9 0 -13 -5 -10 -11z"/><path d="M1200 2110 c0 -6 7 -10 15 -10 8 0 15 2 15 4 0 2 -7 6 -15 10 -8 3
-15 1 -15 -4z"/><path d="M590 2046 c0 -9 5 -16 10 -16 6 0 10 4 10 9 0 6 -4 13 -10 16 -5 3
-10 -1 -10 -9z"/><path d="M500 1990 c0 -5 5 -10 10 -10 6 0 10 5 10 10 0 6 -4 10 -10 10 -5 0
-10 -4 -10 -10z"/><path d="M760 1991 c0 -6 5 -13 10 -16 6 -3 10 1 10 9 0 9 -4 16 -10 16 -5 0
-10 -4 -10 -9z"/><path d="M820 1989 c0 -5 5 -7 10 -4 6 3 10 8 10 11 0 2 -4 4 -10 4 -5 0 -10
-5 -10 -11z"/><path d="M760 1941 c0 -6 4 -13 10 -16 6 -3 7 1 4 9 -7 18 -14 21 -14 7z"/><path d="M936 1895 c4 -8 7 -15 9 -15 2 0 5 7 9 15 3 9 0 15 -9 15 -9 0 -12
-6 -9 -15z"/><path d="M409 1860 c-22 -23 -30 -80 -12 -80 8 0 16 -7 19 -15 4 -10 19 -15
43 -15 27 0 32 3 21 10 -10 6 -11 10 -2 10 7 0 12 13 12 30 0 20 5 30 15 30
20 0 19 6 -5 30 -24 24 -69 25 -91 0z"/><path d="M1030 1790 c0 -5 5 -10 11 -10 5 0 7 5 4 10 -3 6 -8 10 -11 10 -2 0
-4 -4 -4 -10z"/><path d="M360 1700 c-13 -8 -12 -10 3 -10 9 0 17 5 17 10 0 12 -1 12 -20 0z"/><path d="M2300 1390 c-13 -8 -12 -10 3 -10 9 0 17 5 17 10 0 12 -1 12 -20 0z"/><path d="M2180 1380 c0 -9 5 -21 12 -28 8 -8 8 -12 1 -12 -6 0 -13 6 -16 13
-4 10 -24 13 -71 12 -36 -1 -69 -4 -72 -8 -4 -4 -14 -2 -21 5 -11 9 -17 9 -24
-3 -5 -8 -9 -9 -9 -3 0 6 -7 11 -15 11 -8 0 -15 -4 -15 -8 0 -5 -7 -5 -17 -2
-11 5 -14 3 -9 -6 5 -7 17 -10 28 -8 14 4 22 0 25 -14 3 -10 12 -19 19 -19 8
0 14 -8 15 -17 0 -10 3 -13 6 -6 3 10 7 10 18 0 7 -7 11 -15 8 -19 -2 -5 7 -8
22 -8 14 0 28 -6 31 -14 9 -22 42 -26 47 -6 3 10 1 22 -4 27 -9 9 8 13 64 16
15 1 27 8 27 14 0 8 13 13 33 13 l32 1 -30 13 c-16 7 -34 11 -39 8 -5 -3 -2 5
7 19 19 27 21 39 7 39 -5 0 -9 -6 -7 -12 3 -16 -35 -11 -45 5 -5 8 -8 7 -8 -3z
m-127 -35 c-3 -9 -8 -14 -10 -11 -3 3 -2 9 2 15 9 16 15 13 8 -4z"/><path d="M2250 1355 c-7 -8 -8 -15 -2 -15 5 0 15 7 22 15 7 8 8 15 2 15 -5 0
-15 -7 -22 -15z"/><path d="M2280 1350 c-8 -5 -11 -12 -7 -17 5 -4 12 -1 16 6 5 8 14 10 21 6 9
-5 11 -4 6 3 -9 14 -16 15 -36 2z"/><path d="M3230 1320 c0 -5 5 -10 10 -10 6 0 10 5 10 10 0 6 -4 10 -10 10 -5 0
-10 -4 -10 -10z"/><path d="M1145 1300 c-4 -6 -5 -10 -3 -11 25 -6 38 -6 38 1 0 12 -29 20 -35
10z"/><path d="M2390 1302 c0 -5 -3 -17 -6 -26 -4 -10 -1 -16 8 -16 8 0 14 9 13 20
-1 21 -15 41 -15 22z"/><path d="M1050 1290 c0 -5 5 -10 10 -10 6 0 10 5 10 10 0 6 -4 10 -10 10 -5 0
-10 -4 -10 -10z"/><path d="M1026 1271 c-4 -5 -2 -12 3 -15 5 -4 12 -2 15 3 4 5 2 12 -3 15 -5 4
-12 2 -15 -3z"/><path d="M1323 1240 c0 -25 2 -35 4 -22 2 12 2 32 0 45 -2 12 -4 2 -4 -23z"/><path d="M3230 1231 c-6 -13 -18 -18 -35 -17 -19 3 -25 -1 -25 -16 0 -14 -6
-17 -25 -14 -13 3 -27 0 -31 -5 -3 -6 11 -9 35 -8 26 2 41 8 41 16 0 8 12 13
31 13 19 0 28 4 24 11 -4 6 3 13 15 16 16 4 18 8 8 14 -20 13 -26 11 -38 -10z"/><path d="M2010 1189 c0 -11 5 -17 10 -14 6 3 10 13 10 21 0 8 -4 14 -10 14 -5
0 -10 -9 -10 -21z"/><path d="M1839 1172 c-1 -9 -1 -21 0 -26 1 -5 -5 -6 -13 -3 -8 3 -16 -2 -19
-13 -4 -15 1 -20 22 -22 14 -2 25 -9 24 -15 -2 -7 2 -13 7 -13 6 0 10 -15 10
-32 0 -25 3 -29 10 -18 9 13 10 13 11 0 1 -8 1 -18 0 -22 0 -5 6 -8 14 -8 8 0
15 -7 15 -15 0 -8 7 -15 15 -15 8 0 15 -7 15 -15 0 -10 10 -15 30 -15 20 0 30
-5 30 -15 0 -9 9 -15 25 -15 14 0 28 -7 31 -15 4 -8 17 -15 30 -15 12 0 27 -6
31 -14 4 -8 19 -16 33 -18 14 -2 24 -9 22 -16 -1 -8 13 -12 43 -12 33 0 45 -4
45 -15 0 -12 15 -15 75 -15 56 0 75 -3 75 -13 0 -10 28 -14 120 -16 101 -2
121 0 126 13 5 12 22 16 75 16 55 0 69 3 69 15 0 11 11 15 39 15 22 0 43 5 46
10 4 6 -30 10 -95 10 -80 0 -102 3 -106 15 -5 11 -21 15 -60 15 -41 0 -54 4
-54 15 0 10 -10 15 -30 15 -18 0 -30 5 -30 13 0 7 -12 13 -27 12 -17 0 -27 5
-25 13 1 7 -9 12 -27 12 -16 0 -31 6 -35 15 -3 10 -19 15 -46 15 -29 0 -40 4
-40 15 0 8 -7 15 -15 15 -8 0 -15 7 -15 15 0 8 -7 15 -15 15 -8 0 -15 7 -15
15 0 8 -7 15 -15 15 -8 0 -15 7 -15 16 0 12 -7 15 -30 12 -23 -4 -30 0 -33 16
-3 16 -5 14 -6 -6 -1 -24 3 -28 24 -28 20 0 25 -5 25 -26 0 -19 4 -25 15 -20
8 3 14 2 14 -2 -3 -20 3 -32 16 -32 8 0 15 -7 15 -15 0 -10 10 -15 30 -15 19
0 30 -5 30 -14 0 -8 7 -16 15 -20 22 -8 18 -36 -5 -36 -11 0 -20 4 -20 9 0 5
-13 12 -30 16 -16 4 -30 13 -30 21 0 8 -4 13 -9 12 -5 -2 -20 9 -34 24 -13 14
-35 28 -48 30 -17 2 -25 11 -27 28 -2 14 -10 29 -18 33 -8 5 -12 12 -9 16 2 5
-5 11 -16 14 -12 3 -18 10 -15 15 3 5 -3 12 -13 15 -14 3 -17 11 -13 32 3 19
1 26 -7 24 -7 -3 -12 -8 -12 -12 1 -4 1 -20 1 -37 0 -20 5 -30 15 -30 11 0 15
-12 15 -45 0 -25 4 -45 10 -45 15 0 50 -33 50 -46 0 -18 -30 -26 -36 -9 -4 8
-12 15 -20 15 -8 0 -14 7 -14 15 0 8 -7 15 -15 15 -8 0 -15 7 -15 15 0 8 -7
15 -15 15 -10 0 -15 10 -15 30 0 20 -5 30 -15 30 -8 0 -15 7 -15 15 0 11 -12
15 -45 15 -38 0 -45 3 -45 20 0 19 22 27 55 20 6 -1 6 2 2 6 -4 5 -28 9 -52
10 -36 2 -45 -1 -46 -14z m574 -282 c4 -15 0 -20 -13 -20 -21 0 -34 26 -17 34
21 8 25 6 30 -14z"/><path d="M3050 1151 c0 -5 11 -8 25 -8 14 0 25 3 25 8 0 5 -11 9 -25 9 -14 0
-25 -4 -25 -9z"/><path d="M2960 1120 c0 -5 11 -10 24 -10 14 0 28 5 31 10 4 6 -7 10 -24 10
-17 0 -31 -4 -31 -10z"/><path d="M1722 1085 c0 -16 2 -22 5 -12 2 9 2 23 0 30 -3 6 -5 -1 -5 -18z"/><path d="M1778 1093 c7 -3 16 -2 19 1 4 3 -2 6 -13 5 -11 0 -14 -3 -6 -6z"/><path d="M2820 1090 c0 -5 25 -10 55 -10 30 0 55 5 55 10 0 6 -25 10 -55 10
-30 0 -55 -4 -55 -10z"/><path d="M1780 1065 c0 -8 9 -15 20 -15 24 0 27 15 4 24 -22 9 -24 8 -24 -9z"/><path d="M3170 1055 c0 -12 -16 -15 -87 -15 -57 0 -83 -4 -74 -9 17 -11 -22
-19 -109 -24 -30 -2 28 -5 129 -7 169 -5 185 -4 189 12 2 10 8 15 13 12 5 -3
9 2 9 10 0 9 7 16 15 16 8 0 15 5 15 10 0 6 -22 10 -50 10 -38 0 -50 -4 -50
-15z"/><path d="M970 1029 c0 -5 5 -7 10 -4 6 3 10 8 10 11 0 2 -4 4 -10 4 -5 0 -10
-5 -10 -11z"/><path d="M880 969 c0 -11 5 -17 10 -14 6 3 10 13 10 21 0 8 -4 14 -10 14 -5 0
-10 -9 -10 -21z"/><path d="M1258 943 c7 -3 16 -2 19 1 4 3 -2 6 -13 5 -11 0 -14 -3 -6 -6z"/><path d="M2598 943 c6 -2 18 -2 25 0 6 3 1 5 -13 5 -14 0 -19 -2 -12 -5z"/><path d="M2933 943 c37 -2 97 -2 135 0 37 2 6 3 -68 3 -74 0 -105 -1 -67 -3z"/><path d="M885 930 c-3 -5 -1 -10 4 -10 6 0 11 5 11 10 0 6 -2 10 -4 10 -3 0
-8 -4 -11 -10z"/><path d="M2650 918 c0 -4 18 -8 40 -8 29 0 40 -4 40 -15 0 -13 23 -15 146 -15
94 0 143 4 139 10 -4 6 -55 10 -120 10 -73 0 -115 4 -117 11 -4 12 -128 19
-128 7z"/><path d="M3050 860 c0 -5 11 -10 25 -10 14 0 25 5 25 10 0 6 -11 10 -25 10
-14 0 -25 -4 -25 -10z"/><path d="M2995 830 c3 -5 15 -10 26 -10 10 0 19 5 19 10 0 6 -12 10 -26 10
-14 0 -23 -4 -19 -10z"/><path d="M2910 800 c0 -5 16 -10 35 -10 19 0 35 5 35 10 0 6 -16 10 -35 10
-19 0 -35 -4 -35 -10z"/><path d="M2820 770 c0 -12 24 -12 60 0 21 7 19 8 -17 9 -24 1 -43 -3 -43 -9z"/><path d="M1291 746 c9 -8 99 -13 99 -5 0 5 -23 9 -52 9 -28 0 -49 -2 -47 -4z"/><path d="M2718 743 c6 -2 18 -2 25 0 6 3 1 5 -13 5 -14 0 -19 -2 -12 -5z"/><path d="M1780 630 c0 -5 5 -10 11 -10 5 0 7 5 4 10 -3 6 -8 10 -11 10 -2 0
-4 -4 -4 -10z"/><path d="M2158 453 c7 -3 16 -2 19 1 4 3 -2 6 -13 5 -11 0 -14 -3 -6 -6z"/></g></svg>